<?xml version="1.0" encoding="UTF-8" standalone="no"?>
<!DOCTYPE svg PUBLIC "-//W3C//DTD SVG 1.1//EN"
 "http://www.w3.org/Graphics/SVG/1.1/DTD/svg11.dtd">
<!-- Generated by graphviz version 2.28.0 (20130928.0220)
 -->
<!-- Title: puts Pages: 1 -->
<!--zoomable 301 -->
<svg id="main" version="1.1" xmlns="http://www.w3.org/2000/svg" xmlns:xlink="http://www.w3.org/1999/xlink" xml:space="preserve" onload="init(evt)">
<style type="text/css"><![CDATA[
.edge:hover path { stroke: red; }
.edge:hover polygon { stroke: red; fill: red; }
]]></style>
<script type="text/javascript"><![CDATA[
var edges = document.getElementsByTagName('g');
if (edges && edges.length) {
  for (var i=0;i<edges.length;i++) {
    if (edges[i].id.substr(0,4)=='edge') {
      edges[i].setAttribute('class','edge');
    }
  }
}
]]></script>
        <defs>
                <circle id="rim" cx="0" cy="0" r="7"/>
                <circle id="rim2" cx="0" cy="0" r="3.5"/>
                <g id="zoomPlus">
                        <use xlink:href="#rim" fill="#404040">
                                <set attributeName="fill" to="#808080" begin="zoomplus.mouseover" end="zoomplus.mouseout"/>
                        </use>
                        <path d="M-4,0h8M0,-4v8" fill="none" stroke="white" stroke-width="1.5" pointer-events="none"/>
                </g>
                <g id="zoomMin">
                        <use xlink:href="#rim" fill="#404040">
                                <set attributeName="fill" to="#808080" begin="zoomminus.mouseover" end="zoomminus.mouseout"/>
                        </use>
                        <path d="M-4,0h8" fill="none" stroke="white" stroke-width="1.5" pointer-events="none"/>
                </g>
                <g id="dirArrow">
                        <path fill="none" stroke="white" stroke-width="1.5" d="M0,-3.0v7 M-2.5,-0.5L0,-3.0L2.5,-0.5"/>
                </g>
               <g id="resetDef">
                       <use xlink:href="#rim2" fill="#404040">
                               <set attributeName="fill" to="#808080" begin="reset.mouseover" end="reset.mouseout"/>
                       </use>
               </g>
        </defs>

<script type="text/javascript">
var viewWidth = 678;
var viewHeight = 301;
var sectionId = 'dynsection-7';
</script>
<script xlink:href="svgpan.js"/>
<svg id="graph" class="graph">
<g id="viewport">
<title>puts</title>
<!-- Node1 -->
<g id="node1" class="node"><title>Node1</title>
<polygon fill="#bfbfbf" stroke="black" points="0.5,-144.289 0.5,-163.289 35.5,-163.289 35.5,-144.289 0.5,-144.289"/>
<text text-anchor="middle" x="18" y="-151.289" font-family="Helvetica,sans-Serif" font-size="10.00">puts</text>
</g>
<!-- Node2 -->
<g id="node3" class="node"><title>Node2</title>
<a xlink:href="bootload_2main_8c.html#ad259a6e944deb3853bf6f2d7fa233c63" target="_top" xlink:title="dump">
<polygon fill="none" stroke="black" points="200.5,-201.289 200.5,-220.289 241.5,-220.289 241.5,-201.289 200.5,-201.289"/>
<text text-anchor="middle" x="221" y="-208.289" font-family="Helvetica,sans-Serif" font-size="10.00">dump</text>
</a>
</g>
<!-- Node1&#45;&gt;Node2 -->
<g id="edge2" class="edge"><title>Node1&#45;&gt;Node2</title>
<path fill="none" stroke="midnightblue" d="M36.7482,-169.928C46.4647,-177.835 59.1249,-186.723 72,-191.789 115.392,-208.862 170.933,-211.319 200.086,-211.274"/>
<polygon fill="midnightblue" stroke="midnightblue" points="38.9162,-167.177 29.0357,-163.352 34.3747,-172.503 38.9162,-167.177"/>
</g>
<!-- Node3 -->
<g id="node5" class="node"><title>Node3</title>
<a xlink:href="bootload_2main_8c.html#a840291bc02cba5474a4cb46a9b9566fe" target="_top" xlink:title="main">
<polygon fill="none" stroke="black" points="314,-220.289 314,-239.289 352,-239.289 352,-220.289 314,-220.289"/>
<text text-anchor="middle" x="333" y="-227.289" font-family="Helvetica,sans-Serif" font-size="10.00">main</text>
</a>
</g>
<!-- Node1&#45;&gt;Node3 -->
<g id="edge24" class="edge"><title>Node1&#45;&gt;Node3</title>
<path fill="none" stroke="midnightblue" d="M21.6706,-173.439C26.4713,-200.141 39.3149,-246.94 72,-267.789 142.444,-312.724 178.895,-287.879 260,-267.789 282.088,-262.318 304.871,-248.699 318.739,-239.344"/>
<polygon fill="midnightblue" stroke="midnightblue" points="25.0953,-172.689 20.0712,-163.361 18.1818,-173.786 25.0953,-172.689"/>
</g>
<!-- Node4 -->
<g id="node7" class="node"><title>Node4</title>
<a xlink:href="elf_8c.html#a6fe593c95dbcbfa1df84c139d4a0e6d6" target="_top" xlink:title="elf_check">
<polygon fill="none" stroke="black" points="79.5,-239.289 79.5,-258.289 138.5,-258.289 138.5,-239.289 79.5,-239.289"/>
<text text-anchor="middle" x="109" y="-246.289" font-family="Helvetica,sans-Serif" font-size="10.00">elf_check</text>
</a>
</g>
<!-- Node1&#45;&gt;Node4 -->
<g id="edge6" class="edge"><title>Node1&#45;&gt;Node4</title>
<path fill="none" stroke="midnightblue" d="M29.9826,-171.844C39.7914,-187.059 55.1762,-208.838 72,-224.789 77.669,-230.164 84.6734,-235.133 90.9925,-239.138"/>
<polygon fill="midnightblue" stroke="midnightblue" points="32.9165,-169.934 24.6328,-163.329 26.9892,-173.658 32.9165,-169.934"/>
</g>
<!-- Node6 -->
<g id="node12" class="node"><title>Node6</title>
<a xlink:href="kozos_8h.html#aa4c201474d0562849b57ee7bd9ccd364" target="_top" xlink:title="kz_sysdown">
<polygon fill="none" stroke="black" points="72.5,-125.289 72.5,-144.289 145.5,-144.289 145.5,-125.289 72.5,-125.289"/>
<text text-anchor="middle" x="109" y="-132.289" font-family="Helvetica,sans-Serif" font-size="10.00">kz_sysdown</text>
</a>
</g>
<!-- Node1&#45;&gt;Node6 -->
<g id="edge12" class="edge"><title>Node1&#45;&gt;Node6</title>
<path fill="none" stroke="midnightblue" d="M45.6465,-148.101C53.9775,-146.322 63.3094,-144.33 72.165,-142.439"/>
<polygon fill="midnightblue" stroke="midnightblue" points="44.7891,-144.705 35.7402,-150.215 46.2506,-151.55 44.7891,-144.705"/>
</g>
<!-- Node12 -->
<g id="node25" class="node"><title>Node12</title>
<a xlink:href="os_2lib_8h.html#aa600a4b9613354c8112b41d02a80b5d0" target="_top" xlink:title="putxval">
<polygon fill="none" stroke="black" points="85,-163.289 85,-182.289 133,-182.289 133,-163.289 85,-163.289"/>
<text text-anchor="middle" x="109" y="-170.289" font-family="Helvetica,sans-Serif" font-size="10.00">putxval</text>
</a>
</g>
<!-- Node1&#45;&gt;Node12 -->
<g id="edge26" class="edge"><title>Node1&#45;&gt;Node12</title>
<path fill="none" stroke="midnightblue" d="M45.6138,-159.471C58.1337,-162.143 72.9195,-165.3 84.9537,-167.869"/>
<polygon fill="midnightblue" stroke="midnightblue" points="46.2506,-156.028 35.7402,-157.363 44.7891,-162.874 46.2506,-156.028"/>
</g>
<!-- Node13 -->
<g id="node29" class="node"><title>Node13</title>
<a xlink:href="kozos_8c.html#ad878125b5a334d151d787886f190ccf2" target="_top" xlink:title="softerr_intr">
<polygon fill="none" stroke="black" points="190,-49.2891 190,-68.2891 252,-68.2891 252,-49.2891 190,-49.2891"/>
<text text-anchor="middle" x="221" y="-56.2891" font-family="Helvetica,sans-Serif" font-size="10.00">softerr_intr</text>
</a>
</g>
<!-- Node1&#45;&gt;Node13 -->
<g id="edge32" class="edge"><title>Node1&#45;&gt;Node13</title>
<path fill="none" stroke="midnightblue" d="M26.6822,-134.942C35.0294,-117.062 50.1625,-91.0208 72,-77.7891 108.114,-55.9072 158.24,-54.1878 189.893,-55.8263"/>
<polygon fill="midnightblue" stroke="midnightblue" points="23.4616,-133.571 22.6476,-144.134 29.8714,-136.384 23.4616,-133.571"/>
</g>
<!-- Node14 -->
<g id="node32" class="node"><title>Node14</title>
<a xlink:href="test08__1_8c.html#a365da73ee00836b826de141b6d662a78" target="_top" xlink:title="ユーザースレッド ">
<polygon fill="none" stroke="black" points="406,-11.2891 406,-30.2891 486,-30.2891 486,-11.2891 406,-11.2891"/>
<text text-anchor="middle" x="446" y="-18.2891" font-family="Helvetica,sans-Serif" font-size="10.00">test08_1_main</text>
</a>
</g>
<!-- Node1&#45;&gt;Node14 -->
<g id="edge36" class="edge"><title>Node1&#45;&gt;Node14</title>
<path fill="none" stroke="midnightblue" d="M23.2472,-134.226C29.5195,-110.46 43.7071,-71.1504 72,-51.7891 174.828,18.5778 332.881,0.923905 405.74,-12.3699"/>
<polygon fill="midnightblue" stroke="midnightblue" points="19.7823,-133.664 20.8381,-144.206 26.5868,-135.307 19.7823,-133.664"/>
</g>
<!-- Node16 -->
<g id="node37" class="node"><title>Node16</title>
<a xlink:href="kozos_8c.html#a4dd8e8425a1c0c5d866a9271d243cdef" target="_top" xlink:title="thread_exit">
<polygon fill="none" stroke="black" points="76,-87.2891 76,-106.289 142,-106.289 142,-87.2891 76,-87.2891"/>
<text text-anchor="middle" x="109" y="-94.2891" font-family="Helvetica,sans-Serif" font-size="10.00">thread_exit</text>
</a>
</g>
<!-- Node1&#45;&gt;Node16 -->
<g id="edge42" class="edge"><title>Node1&#45;&gt;Node16</title>
<path fill="none" stroke="midnightblue" d="M39.4843,-138.108C49.1381,-130.978 60.941,-122.628 72,-115.789 77.2894,-112.518 83.1962,-109.251 88.671,-106.371"/>
<polygon fill="midnightblue" stroke="midnightblue" points="37.2114,-135.437 31.3059,-144.234 41.4079,-141.04 37.2114,-135.437"/>
</g>
<!-- Node2&#45;&gt;Node3 -->
<g id="edge4" class="edge"><title>Node2&#45;&gt;Node3</title>
<path fill="none" stroke="midnightblue" d="M251.752,-215.928C271.621,-219.36 297.104,-223.762 313.963,-226.674"/>
<polygon fill="midnightblue" stroke="midnightblue" points="252.116,-212.439 241.666,-214.186 250.924,-219.337 252.116,-212.439"/>
</g>
<!-- Node5 -->
<g id="node9" class="node"><title>Node5</title>
<a xlink:href="elf_8h.html#a58b7300af370cb019f7098d7446f640d" target="_top" xlink:title="elf_load">
<polygon fill="none" stroke="black" points="194.5,-239.289 194.5,-258.289 247.5,-258.289 247.5,-239.289 194.5,-239.289"/>
<text text-anchor="middle" x="221" y="-246.289" font-family="Helvetica,sans-Serif" font-size="10.00">elf_load</text>
</a>
</g>
<!-- Node4&#45;&gt;Node5 -->
<g id="edge8" class="edge"><title>Node4&#45;&gt;Node5</title>
<path fill="none" stroke="midnightblue" d="M148.694,-248.789C163.76,-248.789 180.619,-248.789 194.161,-248.789"/>
<polygon fill="midnightblue" stroke="midnightblue" points="148.614,-245.289 138.614,-248.789 148.614,-252.289 148.614,-245.289"/>
</g>
<!-- Node5&#45;&gt;Node3 -->
<g id="edge10" class="edge"><title>Node5&#45;&gt;Node3</title>
<path fill="none" stroke="midnightblue" d="M257.524,-242.653C276.309,-239.409 298.574,-235.563 313.836,-232.927"/>
<polygon fill="midnightblue" stroke="midnightblue" points="256.771,-239.231 247.513,-244.382 257.963,-246.129 256.771,-239.231"/>
</g>
<!-- Node7 -->
<g id="node14" class="node"><title>Node7</title>
<a xlink:href="kozos_8c.html#a63e3ec45b7bf0028e55f2b9ab1603306" target="_top" xlink:title="schedule">
<polygon fill="none" stroke="black" points="192,-125.289 192,-144.289 250,-144.289 250,-125.289 192,-125.289"/>
<text text-anchor="middle" x="221" y="-132.289" font-family="Helvetica,sans-Serif" font-size="10.00">schedule</text>
</a>
</g>
<!-- Node6&#45;&gt;Node7 -->
<g id="edge14" class="edge"><title>Node6&#45;&gt;Node7</title>
<path fill="none" stroke="midnightblue" d="M155.769,-134.789C167.979,-134.789 180.814,-134.789 191.774,-134.789"/>
<polygon fill="midnightblue" stroke="midnightblue" points="155.714,-131.289 145.714,-134.789 155.714,-138.289 155.714,-131.289"/>
</g>
<!-- Node8 -->
<g id="node16" class="node"><title>Node8</title>
<a xlink:href="kozos_8c.html#a064de18830e60998f8be0d67a0f2aabf" target="_top" xlink:title="thread_intr">
<polygon fill="none" stroke="black" points="301.5,-125.289 301.5,-144.289 364.5,-144.289 364.5,-125.289 301.5,-125.289"/>
<text text-anchor="middle" x="333" y="-132.289" font-family="Helvetica,sans-Serif" font-size="10.00">thread_intr</text>
</a>
</g>
<!-- Node7&#45;&gt;Node8 -->
<g id="edge16" class="edge"><title>Node7&#45;&gt;Node8</title>
<path fill="none" stroke="midnightblue" d="M260.399,-134.789C273.787,-134.789 288.622,-134.789 301.301,-134.789"/>
<polygon fill="midnightblue" stroke="midnightblue" points="260.042,-131.289 250.042,-134.789 260.042,-138.289 260.042,-131.289"/>
</g>
<!-- Node9 -->
<g id="node18" class="node"><title>Node9</title>
<a xlink:href="kozos_8c.html#a7f5d62b70099d281d35e0336463c49fc" target="_top" xlink:title="setintr">
<polygon fill="none" stroke="black" points="424.5,-125.289 424.5,-144.289 467.5,-144.289 467.5,-125.289 424.5,-125.289"/>
<text text-anchor="middle" x="446" y="-132.289" font-family="Helvetica,sans-Serif" font-size="10.00">setintr</text>
</a>
</g>
<!-- Node8&#45;&gt;Node9 -->
<g id="edge18" class="edge"><title>Node8&#45;&gt;Node9</title>
<path fill="none" stroke="midnightblue" d="M374.792,-134.789C391.624,-134.789 410.4,-134.789 424.297,-134.789"/>
<polygon fill="midnightblue" stroke="midnightblue" points="374.625,-131.289 364.625,-134.789 374.625,-138.289 374.625,-131.289"/>
</g>
<!-- Node10 -->
<g id="node20" class="node"><title>Node10</title>
<a xlink:href="kozos_8h.html#a7078d5505c1e0c61af51bc66e5025685" target="_top" xlink:title="ライブラリ関数 ">
<polygon fill="none" stroke="black" points="533.5,-77.2891 533.5,-96.2891 584.5,-96.2891 584.5,-77.2891 533.5,-77.2891"/>
<text text-anchor="middle" x="559" y="-84.2891" font-family="Helvetica,sans-Serif" font-size="10.00">kz_start</text>
</a>
</g>
<!-- Node9&#45;&gt;Node10 -->
<g id="edge20" class="edge"><title>Node9&#45;&gt;Node10</title>
<path fill="none" stroke="midnightblue" d="M476.846,-121.883C495.472,-113.828 519.039,-103.637 535.971,-96.3149"/>
<polygon fill="midnightblue" stroke="midnightblue" points="475.407,-118.691 467.618,-125.873 478.186,-125.116 475.407,-118.691"/>
</g>
<!-- Node11 -->
<g id="node22" class="node"><title>Node11</title>
<a xlink:href="os_2main_8c.html#a840291bc02cba5474a4cb46a9b9566fe" target="_top" xlink:title="main">
<polygon fill="none" stroke="black" points="632,-48.2891 632,-67.2891 670,-67.2891 670,-48.2891 632,-48.2891"/>
<text text-anchor="middle" x="651" y="-55.2891" font-family="Helvetica,sans-Serif" font-size="10.00">main</text>
</a>
</g>
<!-- Node10&#45;&gt;Node11 -->
<g id="edge22" class="edge"><title>Node10&#45;&gt;Node11</title>
<path fill="none" stroke="midnightblue" d="M594.434,-75.6938C607.126,-71.6042 621.006,-67.1315 631.719,-63.6795"/>
<polygon fill="midnightblue" stroke="midnightblue" points="593.038,-72.4664 584.593,-78.8647 595.184,-79.129 593.038,-72.4664"/>
</g>
<!-- Node12&#45;&gt;Node2 -->
<g id="edge28" class="edge"><title>Node12&#45;&gt;Node2</title>
<path fill="none" stroke="midnightblue" d="M142.689,-184.082C161.414,-190.55 184.293,-198.454 200.285,-203.978"/>
<polygon fill="midnightblue" stroke="midnightblue" points="143.654,-180.712 133.06,-180.755 141.369,-187.329 143.654,-180.712"/>
</g>
<!-- Node12&#45;&gt;Node3 -->
<g id="edge30" class="edge"><title>Node12&#45;&gt;Node3</title>
<path fill="none" stroke="midnightblue" d="M143.383,-173.602C174.274,-175.147 221.15,-179.524 260,-191.789 281.161,-198.47 303.447,-211.249 317.519,-220.133"/>
<polygon fill="midnightblue" stroke="midnightblue" points="143.303,-170.095 133.163,-173.165 143.004,-177.089 143.303,-170.095"/>
</g>
<!-- Node13&#45;&gt;Node10 -->
<g id="edge34" class="edge"><title>Node13&#45;&gt;Node10</title>
<path fill="none" stroke="midnightblue" d="M262.241,-61.0263C314.054,-64.0581 406.851,-69.9995 486,-77.7891 501.796,-79.3437 519.485,-81.5482 533.377,-83.3863"/>
<polygon fill="midnightblue" stroke="midnightblue" points="262.319,-57.5251 252.134,-60.4415 261.915,-64.5134 262.319,-57.5251"/>
</g>
<!-- Node15 -->
<g id="node34" class="node"><title>Node15</title>
<a xlink:href="os_2main_8c.html#aabc6304dfeadad471d074b11c6e057dd" target="_top" xlink:title="start_threads">
<polygon fill="none" stroke="black" points="522,-20.2891 522,-39.2891 596,-39.2891 596,-20.2891 522,-20.2891"/>
<text text-anchor="middle" x="559" y="-27.2891" font-family="Helvetica,sans-Serif" font-size="10.00">start_threads</text>
</a>
</g>
<!-- Node14&#45;&gt;Node15 -->
<g id="edge38" class="edge"><title>Node14&#45;&gt;Node15</title>
<path fill="none" stroke="midnightblue" d="M496.128,-24.7724C504.766,-25.4728 513.613,-26.1901 521.816,-26.8553"/>
<polygon fill="midnightblue" stroke="midnightblue" points="496.385,-21.2819 486.134,-23.9622 495.819,-28.259 496.385,-21.2819"/>
</g>
<!-- Node15&#45;&gt;Node11 -->
<g id="edge40" class="edge"><title>Node15&#45;&gt;Node11</title>
<path fill="none" stroke="midnightblue" d="M600.565,-42.4092C611.471,-45.8024 622.729,-49.3048 631.741,-52.1086"/>
<polygon fill="midnightblue" stroke="midnightblue" points="601.31,-38.9755 590.721,-39.3468 599.23,-45.6595 601.31,-38.9755"/>
</g>
<!-- Node16&#45;&gt;Node13 -->
<g id="edge52" class="edge"><title>Node16&#45;&gt;Node13</title>
<path fill="none" stroke="midnightblue" d="M147.55,-83.8173C162.205,-78.7547 178.704,-73.055 192.251,-68.375"/>
<polygon fill="midnightblue" stroke="midnightblue" points="146.067,-80.6267 137.758,-87.2001 148.352,-87.243 146.067,-80.6267"/>
</g>
<!-- Node17 -->
<g id="node39" class="node"><title>Node17</title>
<a xlink:href="kozos_8c.html#acd68041208fa0120669ac78343a47dc0" target="_top" xlink:title="call_functions">
<polygon fill="none" stroke="black" points="182.5,-87.2891 182.5,-106.289 259.5,-106.289 259.5,-87.2891 182.5,-87.2891"/>
<text text-anchor="middle" x="221" y="-94.2891" font-family="Helvetica,sans-Serif" font-size="10.00">call_functions</text>
</a>
</g>
<!-- Node16&#45;&gt;Node17 -->
<g id="edge44" class="edge"><title>Node16&#45;&gt;Node17</title>
<path fill="none" stroke="midnightblue" d="M152.152,-96.7891C162.046,-96.7891 172.527,-96.7891 182.215,-96.7891"/>
<polygon fill="midnightblue" stroke="midnightblue" points="152.112,-93.2892 142.112,-96.7891 152.112,-100.289 152.112,-93.2892"/>
</g>
<!-- Node18 -->
<g id="node41" class="node"><title>Node18</title>
<a xlink:href="kozos_8c.html#aef8f2fde0f7865d66b9a7daf0e2426e0" target="_top" xlink:title="syscall_proc">
<polygon fill="none" stroke="black" points="296.5,-87.2891 296.5,-106.289 369.5,-106.289 369.5,-87.2891 296.5,-87.2891"/>
<text text-anchor="middle" x="333" y="-94.2891" font-family="Helvetica,sans-Serif" font-size="10.00">syscall_proc</text>
</a>
</g>
<!-- Node17&#45;&gt;Node18 -->
<g id="edge46" class="edge"><title>Node17&#45;&gt;Node18</title>
<path fill="none" stroke="midnightblue" d="M269.573,-96.7891C278.601,-96.7891 287.901,-96.7891 296.476,-96.7891"/>
<polygon fill="midnightblue" stroke="midnightblue" points="269.548,-93.2892 259.548,-96.7891 269.548,-100.289 269.548,-93.2892"/>
</g>
<!-- Node19 -->
<g id="node43" class="node"><title>Node19</title>
<a xlink:href="kozos_8c.html#a69f871c66a43d6f0a644c57def130160" target="_top" xlink:title="syscall_intr">
<polygon fill="none" stroke="black" points="413,-87.2891 413,-106.289 479,-106.289 479,-87.2891 413,-87.2891"/>
<text text-anchor="middle" x="446" y="-94.2891" font-family="Helvetica,sans-Serif" font-size="10.00">syscall_intr</text>
</a>
</g>
<!-- Node18&#45;&gt;Node19 -->
<g id="edge48" class="edge"><title>Node18&#45;&gt;Node19</title>
<path fill="none" stroke="midnightblue" d="M380.043,-96.7891C391.02,-96.7891 402.507,-96.7891 412.715,-96.7891"/>
<polygon fill="midnightblue" stroke="midnightblue" points="379.732,-93.2892 369.732,-96.7891 379.732,-100.289 379.732,-93.2892"/>
</g>
<!-- Node19&#45;&gt;Node10 -->
<g id="edge50" class="edge"><title>Node19&#45;&gt;Node10</title>
<path fill="none" stroke="midnightblue" d="M489.164,-92.9906C504.09,-91.6458 520.385,-90.1778 533.372,-89.0078"/>
<polygon fill="midnightblue" stroke="midnightblue" points="488.751,-89.5134 479.106,-93.8967 489.38,-96.4852 488.751,-89.5134"/>
</g>
</g>
</svg>
        <g id="navigator" transform="translate(0 0)" fill="#404254">
                <rect fill="#f2f5e9" fill-opacity="0.5" stroke="#606060" stroke-width=".5" x="0" y="0" width="60" height="60"/>
                <use id="zoomplus" xlink:href="#zoomPlus" x="17" y="9" onmousedown="handleZoom(evt,'in')"/>
                <use id="zoomminus" xlink:href="#zoomMin" x="42" y="9" onmousedown="handleZoom(evt,'out')"/>
                <use id="reset" xlink:href="#resetDef" x="30" y="36" onmousedown="handleReset()"/>
                <g id="arrowUp" xlink:href="#dirArrow" transform="translate(30 24)" onmousedown="handlePan(0,-1)">
                  <use xlink:href="#rim" fill="#404040">
                        <set attributeName="fill" to="#808080" begin="arrowUp.mouseover" end="arrowUp.mouseout"/>
                  </use>
                  <path fill="none" stroke="white" stroke-width="1.5" d="M0,-3.0v7 M-2.5,-0.5L0,-3.0L2.5,-0.5"/>
                </g>
                <g id="arrowRight" xlink:href="#dirArrow" transform="rotate(90) translate(36 -43)" onmousedown="handlePan(1,0)">
                  <use xlink:href="#rim" fill="#404040">
                        <set attributeName="fill" to="#808080" begin="arrowRight.mouseover" end="arrowRight.mouseout"/>
                  </use>
                  <path fill="none" stroke="white" stroke-width="1.5" d="M0,-3.0v7 M-2.5,-0.5L0,-3.0L2.5,-0.5"/>
                </g>
                <g id="arrowDown" xlink:href="#dirArrow" transform="rotate(180) translate(-30 -48)" onmousedown="handlePan(0,1)">
                  <use xlink:href="#rim" fill="#404040">
                        <set attributeName="fill" to="#808080" begin="arrowDown.mouseover" end="arrowDown.mouseout"/>
                  </use>
                  <path fill="none" stroke="white" stroke-width="1.5" d="M0,-3.0v7 M-2.5,-0.5L0,-3.0L2.5,-0.5"/>
                </g>
                <g id="arrowLeft" xlink:href="#dirArrow" transform="rotate(270) translate(-36 17)" onmousedown="handlePan(-1,0)">
                  <use xlink:href="#rim" fill="#404040">
                        <set attributeName="fill" to="#808080" begin="arrowLeft.mouseover" end="arrowLeft.mouseout"/>
                  </use>
                  <path fill="none" stroke="white" stroke-width="1.5" d="M0,-3.0v7 M-2.5,-0.5L0,-3.0L2.5,-0.5"/>
                </g>
        </g>
        <svg viewBox="0 0 15 15" width="100%" height="30px" preserveAspectRatio="xMaxYMin meet">
         <g id="arrow_out" transform="scale(0.3 0.3)">
          <a xlink:href="bootload_2lib_8c_a44ddf1a8f6a75ff235a733ff8d90cae3_icgraph_org.svg" target="_base">
           <rect id="button" ry="5" rx="5" y="6" x="6" height="38" width="38"
                fill="#f2f5e9" fill-opacity="0.5" stroke="#606060" stroke-width="1.0"/>
           <path id="arrow"
             d="M 11.500037,31.436501 C 11.940474,20.09759 22.043105,11.32322 32.158766,21.979434 L 37.068811,17.246167 C 37.068811,17.246167 37.088388,32 37.088388,32 L 22.160133,31.978069 C 22.160133,31.978069 26.997745,27.140456 26.997745,27.140456 C 18.528582,18.264221 13.291696,25.230495 11.500037,31.436501 z"
             style="fill:#404040;"/>
          </a>
         </g>
        </svg>
</svg>
