<?xml version="1.0" encoding="UTF-8" standalone="no"?>
<!DOCTYPE svg PUBLIC "-//W3C//DTD SVG 1.1//EN"
 "http://www.w3.org/Graphics/SVG/1.1/DTD/svg11.dtd">
<!-- Generated by graphviz version 2.28.0 (20130928.0220)
 -->
<!-- Title: src/bootload/main.c Pages: 1 -->
<svg width="451pt" height="140pt"
 viewBox="0.00 0.00 451.00 140.00" xmlns="http://www.w3.org/2000/svg" xmlns:xlink="http://www.w3.org/1999/xlink">
<g id="graph1" class="graph" transform="scale(1 1) rotate(0) translate(4 136)">
<title>src/bootload/main.c</title>
<!-- Node1 -->
<g id="node1" class="node"><title>Node1</title>
<polygon fill="#bfbfbf" stroke="black" points="176.5,-112.5 176.5,-131.5 281.5,-131.5 281.5,-112.5 176.5,-112.5"/>
<text text-anchor="middle" x="229" y="-119.5" font-family="Helvetica,sans-Serif" font-size="10.00">src/bootload/main.c</text>
</g>
<!-- Node2 -->
<g id="node3" class="node"><title>Node2</title>
<a xlink:href="defines_8h.html" target="_top" xlink:title="../misc/defines.h">
<polygon fill="none" stroke="black" points="-0.5,-0.5 -0.5,-19.5 88.5,-19.5 88.5,-0.5 -0.5,-0.5"/>
<text text-anchor="middle" x="44" y="-7.5" font-family="Helvetica,sans-Serif" font-size="10.00">../misc/defines.h</text>
</a>
</g>
<!-- Node1&#45;&gt;Node2 -->
<g id="edge2" class="edge"><title>Node1&#45;&gt;Node2</title>
<path fill="none" stroke="midnightblue" d="M176.136,-116.596C122.673,-110.916 45.3729,-98.9162 27,-76 16.0921,-62.3947 23.7219,-42.5125 31.958,-28.3246"/>
<polygon fill="midnightblue" stroke="midnightblue" points="35.1201,-29.8746 37.5364,-19.559 29.2146,-26.1163 35.1201,-29.8746"/>
</g>
<!-- Node3 -->
<g id="node5" class="node"><title>Node3</title>
<a xlink:href="interrupt_8h.html" target="_top" xlink:title="../misc/interrupt.h">
<polygon fill="none" stroke="black" points="36,-56.5 36,-75.5 126,-75.5 126,-56.5 36,-56.5"/>
<text text-anchor="middle" x="81" y="-63.5" font-family="Helvetica,sans-Serif" font-size="10.00">../misc/interrupt.h</text>
</a>
</g>
<!-- Node1&#45;&gt;Node3 -->
<g id="edge4" class="edge"><title>Node1&#45;&gt;Node3</title>
<path fill="none" stroke="midnightblue" d="M205.549,-112.444C180.867,-103.438 141.815,-89.1891 114.023,-79.049"/>
<polygon fill="midnightblue" stroke="midnightblue" points="114.935,-75.6561 104.341,-75.5164 112.536,-82.2321 114.935,-75.6561"/>
</g>
<!-- Node4 -->
<g id="node8" class="node"><title>Node4</title>
<a xlink:href="serial_8h.html" target="_top" xlink:title="../misc/serial.h">
<polygon fill="none" stroke="black" points="144,-56.5 144,-75.5 224,-75.5 224,-56.5 144,-56.5"/>
<text text-anchor="middle" x="184" y="-63.5" font-family="Helvetica,sans-Serif" font-size="10.00">../misc/serial.h</text>
</a>
</g>
<!-- Node1&#45;&gt;Node4 -->
<g id="edge8" class="edge"><title>Node1&#45;&gt;Node4</title>
<path fill="none" stroke="midnightblue" d="M221.569,-112.083C215.147,-104.377 205.694,-93.0333 197.878,-83.6531"/>
<polygon fill="midnightblue" stroke="midnightblue" points="200.383,-81.1927 191.293,-75.7511 195.006,-85.674 200.383,-81.1927"/>
</g>
<!-- Node5 -->
<g id="node10" class="node"><title>Node5</title>
<a xlink:href="lib_8h.html" target="_top" xlink:title="../misc/lib.h">
<polygon fill="none" stroke="black" points="242.5,-56.5 242.5,-75.5 307.5,-75.5 307.5,-56.5 242.5,-56.5"/>
<text text-anchor="middle" x="275" y="-63.5" font-family="Helvetica,sans-Serif" font-size="10.00">../misc/lib.h</text>
</a>
</g>
<!-- Node1&#45;&gt;Node5 -->
<g id="edge10" class="edge"><title>Node1&#45;&gt;Node5</title>
<path fill="none" stroke="midnightblue" d="M236.596,-112.083C243.227,-104.298 253.021,-92.8015 261.058,-83.3665"/>
<polygon fill="midnightblue" stroke="midnightblue" points="263.725,-85.6332 267.545,-75.7511 258.396,-81.0939 263.725,-85.6332"/>
</g>
<!-- Node6 -->
<g id="node12" class="node"><title>Node6</title>
<a xlink:href="xmodem_8h.html" target="_top" xlink:title="xmodem.h">
<polygon fill="none" stroke="black" points="326,-56.5 326,-75.5 390,-75.5 390,-56.5 326,-56.5"/>
<text text-anchor="middle" x="358" y="-63.5" font-family="Helvetica,sans-Serif" font-size="10.00">xmodem.h</text>
</a>
</g>
<!-- Node1&#45;&gt;Node6 -->
<g id="edge12" class="edge"><title>Node1&#45;&gt;Node6</title>
<path fill="none" stroke="midnightblue" d="M249.44,-112.444C270.67,-103.557 304.099,-89.5632 328.255,-79.4514"/>
<polygon fill="midnightblue" stroke="midnightblue" points="329.782,-82.6064 337.655,-75.5164 327.079,-76.1493 329.782,-82.6064"/>
</g>
<!-- Node7 -->
<g id="node14" class="node"><title>Node7</title>
<a xlink:href="elf_8h.html" target="_top" xlink:title="elf.h">
<polygon fill="none" stroke="black" points="408.5,-56.5 408.5,-75.5 443.5,-75.5 443.5,-56.5 408.5,-56.5"/>
<text text-anchor="middle" x="426" y="-63.5" font-family="Helvetica,sans-Serif" font-size="10.00">elf.h</text>
</a>
</g>
<!-- Node1&#45;&gt;Node7 -->
<g id="edge14" class="edge"><title>Node1&#45;&gt;Node7</title>
<path fill="none" stroke="midnightblue" d="M263.691,-112.498C296.153,-104.392 346.19,-91.5147 398.535,-75.9946"/>
<polygon fill="midnightblue" stroke="midnightblue" points="399.753,-79.2836 408.332,-73.0665 397.748,-72.5768 399.753,-79.2836"/>
</g>
<!-- Node3&#45;&gt;Node2 -->
<g id="edge6" class="edge"><title>Node3&#45;&gt;Node2</title>
<path fill="none" stroke="midnightblue" d="M74.8902,-56.083C69.7178,-48.5341 62.1539,-37.4948 55.8056,-28.2298"/>
<polygon fill="midnightblue" stroke="midnightblue" points="58.5357,-26.0221 49.9961,-19.7511 52.7612,-29.9787 58.5357,-26.0221"/>
</g>
</g>
</svg>
