<?xml version="1.0" encoding="UTF-8" standalone="no"?>
<!DOCTYPE svg PUBLIC "-//W3C//DTD SVG 1.1//EN"
 "http://www.w3.org/Graphics/SVG/1.1/DTD/svg11.dtd">
<!-- Generated by graphviz version 2.28.0 (20130928.0220)
 -->
<!-- Title: src/bootload/lib.h Pages: 1 -->
<svg width="477pt" height="84pt"
 viewBox="0.00 0.00 477.00 84.00" xmlns="http://www.w3.org/2000/svg" xmlns:xlink="http://www.w3.org/1999/xlink">
<g id="graph1" class="graph" transform="scale(1 1) rotate(0) translate(4 80)">
<title>src/bootload/lib.h</title>
<!-- Node1 -->
<g id="node1" class="node"><title>Node1</title>
<polygon fill="#bfbfbf" stroke="black" points="170.5,-56.5 170.5,-75.5 263.5,-75.5 263.5,-56.5 170.5,-56.5"/>
<text text-anchor="middle" x="217" y="-63.5" font-family="Helvetica,sans-Serif" font-size="10.00">src/bootload/lib.h</text>
</g>
<!-- Node2 -->
<g id="node3" class="node"><title>Node2</title>
<a xlink:href="elf_8c.html" target="_top" xlink:title="src/bootload/elf.c">
<polygon fill="none" stroke="black" points="0,-0.5 0,-19.5 94,-19.5 94,-0.5 0,-0.5"/>
<text text-anchor="middle" x="47" y="-7.5" font-family="Helvetica,sans-Serif" font-size="10.00">src/bootload/elf.c</text>
</a>
</g>
<!-- Node1&#45;&gt;Node2 -->
<g id="edge2" class="edge"><title>Node1&#45;&gt;Node2</title>
<path fill="none" stroke="midnightblue" d="M180.181,-53.3044C148.148,-43.1294 102.485,-28.6246 73.811,-19.5164"/>
<polygon fill="midnightblue" stroke="midnightblue" points="179.473,-56.7518 190.063,-56.4435 181.592,-50.0803 179.473,-56.7518"/>
</g>
<!-- Node3 -->
<g id="node5" class="node"><title>Node3</title>
<a xlink:href="bootload_2lib_8c.html" target="_top" xlink:title="src/bootload/lib.c">
<polygon fill="none" stroke="black" points="112.5,-0.5 112.5,-19.5 205.5,-19.5 205.5,-0.5 112.5,-0.5"/>
<text text-anchor="middle" x="159" y="-7.5" font-family="Helvetica,sans-Serif" font-size="10.00">src/bootload/lib.c</text>
</a>
</g>
<!-- Node1&#45;&gt;Node3 -->
<g id="edge4" class="edge"><title>Node1&#45;&gt;Node3</title>
<path fill="none" stroke="midnightblue" d="M200.087,-49.2533C189.797,-39.6731 177.034,-27.7906 168.488,-19.8339"/>
<polygon fill="midnightblue" stroke="midnightblue" points="197.977,-52.0714 207.681,-56.324 202.747,-46.9481 197.977,-52.0714"/>
</g>
<!-- Node4 -->
<g id="node7" class="node"><title>Node4</title>
<a xlink:href="bootload_2main_8c.html" target="_top" xlink:title="src/bootload/main.c">
<polygon fill="none" stroke="black" points="223.5,-0.5 223.5,-19.5 328.5,-19.5 328.5,-0.5 223.5,-0.5"/>
<text text-anchor="middle" x="276" y="-7.5" font-family="Helvetica,sans-Serif" font-size="10.00">src/bootload/main.c</text>
</a>
</g>
<!-- Node1&#45;&gt;Node4 -->
<g id="edge6" class="edge"><title>Node1&#45;&gt;Node4</title>
<path fill="none" stroke="midnightblue" d="M233.895,-49.5372C244.415,-39.9087 257.569,-27.8694 266.348,-19.8339"/>
<polygon fill="midnightblue" stroke="midnightblue" points="231.493,-46.9905 226.479,-56.324 236.219,-52.1542 231.493,-46.9905"/>
</g>
<!-- Node5 -->
<g id="node9" class="node"><title>Node5</title>
<a xlink:href="xmodem_8c.html" target="_top" xlink:title="src/bootload/xmodem.c">
<polygon fill="none" stroke="black" points="346.5,-0.5 346.5,-19.5 469.5,-19.5 469.5,-0.5 346.5,-0.5"/>
<text text-anchor="middle" x="408" y="-7.5" font-family="Helvetica,sans-Serif" font-size="10.00">src/bootload/xmodem.c</text>
</a>
</g>
<!-- Node1&#45;&gt;Node5 -->
<g id="edge8" class="edge"><title>Node1&#45;&gt;Node5</title>
<path fill="none" stroke="midnightblue" d="M256.973,-53.6986C293.021,-43.507 345.243,-28.7429 377.877,-19.5164"/>
<polygon fill="midnightblue" stroke="midnightblue" points="255.935,-50.3549 247.265,-56.4435 257.84,-57.0909 255.935,-50.3549"/>
</g>
</g>
</svg>
