<?xml version="1.0" encoding="UTF-8" standalone="no"?>
<!DOCTYPE svg PUBLIC "-//W3C//DTD SVG 1.1//EN"
 "http://www.w3.org/Graphics/SVG/1.1/DTD/svg11.dtd">
<!-- Generated by graphviz version 2.28.0 (20130928.0220)
 -->
<!-- Title: strcpy Pages: 1 -->
<svg width="640pt" height="47pt"
 viewBox="0.00 0.00 640.00 47.00" xmlns="http://www.w3.org/2000/svg" xmlns:xlink="http://www.w3.org/1999/xlink">
<g id="graph1" class="graph" transform="scale(1 1) rotate(0) translate(4 43)">
<title>strcpy</title>
<!-- Node1 -->
<g id="node1" class="node"><title>Node1</title>
<polygon fill="#bfbfbf" stroke="black" points="0.5,-0.5 0.5,-19.5 43.5,-19.5 43.5,-0.5 0.5,-0.5"/>
<text text-anchor="middle" x="22" y="-7.5" font-family="Helvetica,sans-Serif" font-size="10.00">strcpy</text>
</g>
<!-- Node2 -->
<g id="node3" class="node"><title>Node2</title>
<a xlink:href="kozos_8c.html#a97037911d8c4942f91aea9e2d215113f" target="_top" xlink:title="thread_run">
<polygon fill="none" stroke="black" points="80,-0.5 80,-19.5 144,-19.5 144,-0.5 80,-0.5"/>
<text text-anchor="middle" x="112" y="-7.5" font-family="Helvetica,sans-Serif" font-size="10.00">thread_run</text>
</a>
</g>
<!-- Node1&#45;&gt;Node2 -->
<g id="edge2" class="edge"><title>Node1&#45;&gt;Node2</title>
<path fill="none" stroke="midnightblue" d="M54.0314,-10C62.441,-10 71.5448,-10 79.9551,-10"/>
<polygon fill="midnightblue" stroke="midnightblue" points="53.8548,-6.5001 43.8548,-10 53.8547,-13.5001 53.8548,-6.5001"/>
</g>
<!-- Node3 -->
<g id="node5" class="node"><title>Node3</title>
<a xlink:href="kozos_8c.html#acd68041208fa0120669ac78343a47dc0" target="_top" xlink:title="call_functions">
<polygon fill="none" stroke="black" points="180.5,-19.5 180.5,-38.5 257.5,-38.5 257.5,-19.5 180.5,-19.5"/>
<text text-anchor="middle" x="219" y="-26.5" font-family="Helvetica,sans-Serif" font-size="10.00">call_functions</text>
</a>
</g>
<!-- Node2&#45;&gt;Node3 -->
<g id="edge4" class="edge"><title>Node2&#45;&gt;Node3</title>
<path fill="none" stroke="midnightblue" d="M154.128,-17.4422C162.79,-19.0096 171.886,-20.6556 180.41,-22.198"/>
<polygon fill="midnightblue" stroke="midnightblue" points="154.683,-13.9858 144.219,-15.6492 153.436,-20.8739 154.683,-13.9858"/>
</g>
<!-- Node6 -->
<g id="node11" class="node"><title>Node6</title>
<a xlink:href="kozos_8h.html#a7078d5505c1e0c61af51bc66e5025685" target="_top" xlink:title="ライブラリ関数 ">
<polygon fill="none" stroke="black" points="506.5,-0.5 506.5,-19.5 557.5,-19.5 557.5,-0.5 506.5,-0.5"/>
<text text-anchor="middle" x="532" y="-7.5" font-family="Helvetica,sans-Serif" font-size="10.00">kz_start</text>
</a>
</g>
<!-- Node2&#45;&gt;Node6 -->
<g id="edge14" class="edge"><title>Node2&#45;&gt;Node6</title>
<path fill="none" stroke="midnightblue" d="M154.268,-10C240.474,-10 437.38,-10 506.482,-10"/>
<polygon fill="midnightblue" stroke="midnightblue" points="154.076,-6.5001 144.076,-10 154.076,-13.5001 154.076,-6.5001"/>
</g>
<!-- Node4 -->
<g id="node7" class="node"><title>Node4</title>
<a xlink:href="kozos_8c.html#aef8f2fde0f7865d66b9a7daf0e2426e0" target="_top" xlink:title="syscall_proc">
<polygon fill="none" stroke="black" points="294.5,-19.5 294.5,-38.5 367.5,-38.5 367.5,-19.5 294.5,-19.5"/>
<text text-anchor="middle" x="331" y="-26.5" font-family="Helvetica,sans-Serif" font-size="10.00">syscall_proc</text>
</a>
</g>
<!-- Node3&#45;&gt;Node4 -->
<g id="edge6" class="edge"><title>Node3&#45;&gt;Node4</title>
<path fill="none" stroke="midnightblue" d="M267.573,-29C276.601,-29 285.901,-29 294.476,-29"/>
<polygon fill="midnightblue" stroke="midnightblue" points="267.548,-25.5001 257.548,-29 267.548,-32.5001 267.548,-25.5001"/>
</g>
<!-- Node5 -->
<g id="node9" class="node"><title>Node5</title>
<a xlink:href="kozos_8c.html#a69f871c66a43d6f0a644c57def130160" target="_top" xlink:title="syscall_intr">
<polygon fill="none" stroke="black" points="404,-19.5 404,-38.5 470,-38.5 470,-19.5 404,-19.5"/>
<text text-anchor="middle" x="437" y="-26.5" font-family="Helvetica,sans-Serif" font-size="10.00">syscall_intr</text>
</a>
</g>
<!-- Node4&#45;&gt;Node5 -->
<g id="edge8" class="edge"><title>Node4&#45;&gt;Node5</title>
<path fill="none" stroke="midnightblue" d="M377.667,-29C386.476,-29 395.532,-29 403.802,-29"/>
<polygon fill="midnightblue" stroke="midnightblue" points="377.5,-25.5001 367.5,-29 377.5,-32.5001 377.5,-25.5001"/>
</g>
<!-- Node5&#45;&gt;Node6 -->
<g id="edge10" class="edge"><title>Node5&#45;&gt;Node6</title>
<path fill="none" stroke="midnightblue" d="M479.988,-20.4218C488.979,-18.5849 498.198,-16.7015 506.282,-15.0499"/>
<polygon fill="midnightblue" stroke="midnightblue" points="479.102,-17.0304 470.005,-22.4613 480.504,-23.8887 479.102,-17.0304"/>
</g>
<!-- Node7 -->
<g id="node13" class="node"><title>Node7</title>
<a xlink:href="os_2main_8c.html#a840291bc02cba5474a4cb46a9b9566fe" target="_top" xlink:title="main">
<polygon fill="none" stroke="black" points="594,-0.5 594,-19.5 632,-19.5 632,-0.5 594,-0.5"/>
<text text-anchor="middle" x="613" y="-7.5" font-family="Helvetica,sans-Serif" font-size="10.00">main</text>
</a>
</g>
<!-- Node6&#45;&gt;Node7 -->
<g id="edge12" class="edge"><title>Node6&#45;&gt;Node7</title>
<path fill="none" stroke="midnightblue" d="M567.584,-10C576.686,-10 586.142,-10 593.978,-10"/>
<polygon fill="midnightblue" stroke="midnightblue" points="567.563,-6.5001 557.563,-10 567.563,-13.5001 567.563,-6.5001"/>
</g>
</g>
</svg>
