<?xml version="1.0" encoding="UTF-8" standalone="no"?>
<!DOCTYPE svg PUBLIC "-//W3C//DTD SVG 1.1//EN"
 "http://www.w3.org/Graphics/SVG/1.1/DTD/svg11.dtd">
<!-- Generated by graphviz version 2.28.0 (20130928.0220)
 -->
<!-- Title: main Pages: 1 -->
<!--zoomable 351 -->
<svg id="main" version="1.1" xmlns="http://www.w3.org/2000/svg" xmlns:xlink="http://www.w3.org/1999/xlink" xml:space="preserve" onload="init(evt)">
<style type="text/css"><![CDATA[
.edge:hover path { stroke: red; }
.edge:hover polygon { stroke: red; fill: red; }
]]></style>
<script type="text/javascript"><![CDATA[
var edges = document.getElementsByTagName('g');
if (edges && edges.length) {
  for (var i=0;i<edges.length;i++) {
    if (edges[i].id.substr(0,4)=='edge') {
      edges[i].setAttribute('class','edge');
    }
  }
}
]]></script>
        <defs>
                <circle id="rim" cx="0" cy="0" r="7"/>
                <circle id="rim2" cx="0" cy="0" r="3.5"/>
                <g id="zoomPlus">
                        <use xlink:href="#rim" fill="#404040">
                                <set attributeName="fill" to="#808080" begin="zoomplus.mouseover" end="zoomplus.mouseout"/>
                        </use>
                        <path d="M-4,0h8M0,-4v8" fill="none" stroke="white" stroke-width="1.5" pointer-events="none"/>
                </g>
                <g id="zoomMin">
                        <use xlink:href="#rim" fill="#404040">
                                <set attributeName="fill" to="#808080" begin="zoomminus.mouseover" end="zoomminus.mouseout"/>
                        </use>
                        <path d="M-4,0h8" fill="none" stroke="white" stroke-width="1.5" pointer-events="none"/>
                </g>
                <g id="dirArrow">
                        <path fill="none" stroke="white" stroke-width="1.5" d="M0,-3.0v7 M-2.5,-0.5L0,-3.0L2.5,-0.5"/>
                </g>
               <g id="resetDef">
                       <use xlink:href="#rim2" fill="#404040">
                               <set attributeName="fill" to="#808080" begin="reset.mouseover" end="reset.mouseout"/>
                       </use>
               </g>
        </defs>

<script type="text/javascript">
var viewWidth = 848;
var viewHeight = 351;
var sectionId = 'dynsection-3';
</script>
<script xlink:href="svgpan.js"/>
<svg id="graph" class="graph">
<g id="viewport">
<title>main</title>
<!-- Node1 -->
<g id="node1" class="node"><title>Node1</title>
<polygon fill="#bfbfbf" stroke="black" points="0,-133.5 0,-152.5 38,-152.5 38,-133.5 0,-133.5"/>
<text text-anchor="middle" x="19" y="-140.5" font-family="Helvetica,sans-Serif" font-size="10.00">main</text>
</g>
<!-- Node2 -->
<g id="node3" class="node"><title>Node2</title>
<a xlink:href="bootload_2main_8c.html#ad259a6e944deb3853bf6f2d7fa233c63" target="_top" xlink:title="メモリの16進ダンプ出力 ">
<polygon fill="none" stroke="black" points="80.5,-152.5 80.5,-171.5 121.5,-171.5 121.5,-152.5 80.5,-152.5"/>
<text text-anchor="middle" x="101" y="-159.5" font-family="Helvetica,sans-Serif" font-size="10.00">dump</text>
</a>
</g>
<!-- Node1&#45;&gt;Node2 -->
<g id="edge2" class="edge"><title>Node1&#45;&gt;Node2</title>
<path fill="none" stroke="midnightblue" d="M38.1532,-147.311C47.6557,-149.568 59.5309,-152.389 70.3283,-154.953"/>
<polygon fill="midnightblue" stroke="midnightblue" points="69.6994,-158.401 80.2376,-157.306 71.317,-151.59 69.6994,-158.401"/>
</g>
<!-- Node3 -->
<g id="node5" class="node"><title>Node3</title>
<a xlink:href="lib_8c.html#a44ddf1a8f6a75ff235a733ff8d90cae3" target="_top" xlink:title="puts">
<polygon fill="none" stroke="black" points="334.5,-190.5 334.5,-209.5 369.5,-209.5 369.5,-190.5 334.5,-190.5"/>
<text text-anchor="middle" x="352" y="-197.5" font-family="Helvetica,sans-Serif" font-size="10.00">puts</text>
</a>
</g>
<!-- Node1&#45;&gt;Node3 -->
<g id="edge42" class="edge"><title>Node1&#45;&gt;Node3</title>
<path fill="none" stroke="midnightblue" d="M26.0294,-152.547C34.8636,-165.684 52.618,-189.061 74,-201 155.511,-246.513 272.684,-222.426 324.562,-208.123"/>
<polygon fill="midnightblue" stroke="midnightblue" points="325.67,-211.447 334.322,-205.332 323.745,-204.717 325.67,-211.447"/>
</g>
<!-- Node7 -->
<g id="node13" class="node"><title>Node7</title>
<a xlink:href="lib_8c.html#aa600a4b9613354c8112b41d02a80b5d0" target="_top" xlink:title="putxval">
<polygon fill="none" stroke="black" points="188,-190.5 188,-209.5 236,-209.5 236,-190.5 188,-190.5"/>
<text text-anchor="middle" x="212" y="-197.5" font-family="Helvetica,sans-Serif" font-size="10.00">putxval</text>
</a>
</g>
<!-- Node1&#45;&gt;Node7 -->
<g id="edge44" class="edge"><title>Node1&#45;&gt;Node7</title>
<path fill="none" stroke="midnightblue" d="M30.2736,-152.522C40.5292,-161.439 57.1496,-174.357 74,-181 107.675,-194.275 149.193,-198.504 177.642,-199.738"/>
<polygon fill="midnightblue" stroke="midnightblue" points="177.752,-203.243 187.862,-200.077 177.984,-196.247 177.752,-203.243"/>
</g>
<!-- Node8 -->
<g id="node16" class="node"><title>Node8</title>
<a xlink:href="elf_8c.html#a58b7300af370cb019f7098d7446f640d" target="_top" xlink:title="elf_load">
<polygon fill="none" stroke="black" points="74.5,-266.5 74.5,-285.5 127.5,-285.5 127.5,-266.5 74.5,-266.5"/>
<text text-anchor="middle" x="101" y="-273.5" font-family="Helvetica,sans-Serif" font-size="10.00">elf_load</text>
</a>
</g>
<!-- Node1&#45;&gt;Node8 -->
<g id="edge16" class="edge"><title>Node1&#45;&gt;Node8</title>
<path fill="none" stroke="midnightblue" d="M23.4202,-152.696C30.7174,-172.574 49.192,-218.866 74,-252 75.8294,-254.443 77.9281,-256.842 80.1226,-259.122"/>
<polygon fill="midnightblue" stroke="midnightblue" points="78.0355,-261.966 87.701,-266.305 82.851,-256.886 78.0355,-261.966"/>
</g>
<!-- Node15 -->
<g id="node31" class="node"><title>Node15</title>
<a xlink:href="lib_8c.html#ac414099aa125e8638ec89b7593865b12" target="_top" xlink:title="gets">
<polygon fill="none" stroke="black" points="83,-114.5 83,-133.5 119,-133.5 119,-114.5 83,-114.5"/>
<text text-anchor="middle" x="101" y="-121.5" font-family="Helvetica,sans-Serif" font-size="10.00">gets</text>
</a>
</g>
<!-- Node1&#45;&gt;Node15 -->
<g id="edge32" class="edge"><title>Node1&#45;&gt;Node15</title>
<path fill="none" stroke="midnightblue" d="M38.1532,-138.689C48.3889,-136.258 61.3778,-133.173 72.8071,-130.458"/>
<polygon fill="midnightblue" stroke="midnightblue" points="73.8206,-133.815 82.7412,-128.099 72.2031,-127.004 73.8206,-133.815"/>
</g>
<!-- Node19 -->
<g id="node42" class="node"><title>Node19</title>
<a xlink:href="lib_8c.html#af89677dc016299681068b79067ee424d" target="_top" xlink:title="strcmp">
<polygon fill="none" stroke="black" points="78,-38.5 78,-57.5 124,-57.5 124,-38.5 78,-38.5"/>
<text text-anchor="middle" x="101" y="-45.5" font-family="Helvetica,sans-Serif" font-size="10.00">strcmp</text>
</a>
</g>
<!-- Node1&#45;&gt;Node19 -->
<g id="edge46" class="edge"><title>Node1&#45;&gt;Node19</title>
<path fill="none" stroke="midnightblue" d="M26.4942,-133.396C36.1699,-119.348 55.2491,-92.6265 74,-72 76.2727,-69.5 78.7689,-66.9664 81.2878,-64.5291"/>
<polygon fill="midnightblue" stroke="midnightblue" points="83.7649,-67.0051 88.7111,-57.6357 79.0017,-61.8756 83.7649,-67.0051"/>
</g>
<!-- Node20 -->
<g id="node44" class="node"><title>Node20</title>
<a xlink:href="bootload_2main_8c.html#a6b4d3d4c708b7dfb8f1a3281228c1476" target="_top" xlink:title="wait">
<polygon fill="none" stroke="black" points="83.5,-0.5 83.5,-19.5 118.5,-19.5 118.5,-0.5 83.5,-0.5"/>
<text text-anchor="middle" x="101" y="-7.5" font-family="Helvetica,sans-Serif" font-size="10.00">wait</text>
</a>
</g>
<!-- Node1&#45;&gt;Node20 -->
<g id="edge48" class="edge"><title>Node1&#45;&gt;Node20</title>
<path fill="none" stroke="midnightblue" d="M22.8038,-133.242C29.1742,-112.336 46.3638,-62.4136 74,-29 74.8218,-28.0064 75.7065,-27.0377 76.6361,-26.0974"/>
<polygon fill="midnightblue" stroke="midnightblue" points="79.0193,-28.6647 84.3433,-19.5047 74.4691,-23.3453 79.0193,-28.6647"/>
</g>
<!-- Node21 -->
<g id="node46" class="node"><title>Node21</title>
<a xlink:href="xmodem_8c.html#abe91c5bfd131f00e3485727decb0faca" target="_top" xlink:title="xmodem_recv">
<polygon fill="none" stroke="black" points="171.5,-76.5 171.5,-95.5 252.5,-95.5 252.5,-76.5 171.5,-76.5"/>
<text text-anchor="middle" x="212" y="-83.5" font-family="Helvetica,sans-Serif" font-size="10.00">xmodem_recv</text>
</a>
</g>
<!-- Node1&#45;&gt;Node21 -->
<g id="edge50" class="edge"><title>Node1&#45;&gt;Node21</title>
<path fill="none" stroke="midnightblue" d="M30.2736,-133.478C40.5292,-124.561 57.1496,-111.643 74,-105 101.61,-94.1158 134.493,-89.3126 161.122,-87.2555"/>
<polygon fill="midnightblue" stroke="midnightblue" points="161.623,-90.73 171.369,-86.5737 161.159,-83.7455 161.623,-90.73"/>
</g>
<!-- Node2&#45;&gt;Node3 -->
<g id="edge4" class="edge"><title>Node2&#45;&gt;Node3</title>
<path fill="none" stroke="midnightblue" d="M121.536,-163.803C151.456,-166.686 210.381,-172.852 260,-181 281.834,-184.585 306.38,-189.779 324.472,-193.831"/>
<polygon fill="midnightblue" stroke="midnightblue" points="323.782,-197.264 334.309,-196.064 325.332,-190.437 323.782,-197.264"/>
</g>
<!-- Node2&#45;&gt;Node7 -->
<g id="edge12" class="edge"><title>Node2&#45;&gt;Node7</title>
<path fill="none" stroke="midnightblue" d="M121.739,-168.882C137.444,-174.357 159.758,-182.136 178.147,-188.547"/>
<polygon fill="midnightblue" stroke="midnightblue" points="177.025,-191.862 187.62,-191.849 179.329,-185.252 177.025,-191.862"/>
</g>
<!-- Node4 -->
<g id="node7" class="node"><title>Node4</title>
<a xlink:href="lib_8c.html#acee36427208c7c321ab875217dca17c4" target="_top" xlink:title="putc">
<polygon fill="none" stroke="black" points="471.5,-152.5 471.5,-171.5 506.5,-171.5 506.5,-152.5 471.5,-152.5"/>
<text text-anchor="middle" x="489" y="-159.5" font-family="Helvetica,sans-Serif" font-size="10.00">putc</text>
</a>
</g>
<!-- Node3&#45;&gt;Node4 -->
<g id="edge6" class="edge"><title>Node3&#45;&gt;Node4</title>
<path fill="none" stroke="midnightblue" d="M369.554,-195.34C392.529,-188.873 434.33,-177.107 461.628,-169.423"/>
<polygon fill="midnightblue" stroke="midnightblue" points="462.633,-172.776 471.311,-166.698 460.737,-166.038 462.633,-172.776"/>
</g>
<!-- Node5 -->
<g id="node9" class="node"><title>Node5</title>
<a xlink:href="serial_8c.html#aed0806bd3de71f20d6df8ef6f49bda31" target="_top" xlink:title="serial_send_byte">
<polygon fill="none" stroke="black" points="581.5,-114.5 581.5,-133.5 674.5,-133.5 674.5,-114.5 581.5,-114.5"/>
<text text-anchor="middle" x="628" y="-121.5" font-family="Helvetica,sans-Serif" font-size="10.00">serial_send_byte</text>
</a>
</g>
<!-- Node4&#45;&gt;Node5 -->
<g id="edge8" class="edge"><title>Node4&#45;&gt;Node5</title>
<path fill="none" stroke="midnightblue" d="M506.525,-157.416C525.331,-152.2 556.815,-143.467 582.881,-136.237"/>
<polygon fill="midnightblue" stroke="midnightblue" points="583.868,-139.596 592.569,-133.55 581.997,-132.851 583.868,-139.596"/>
</g>
<!-- Node6 -->
<g id="node11" class="node"><title>Node6</title>
<a xlink:href="serial_8c.html#abf48ded30f8aa6fff8cb48dce0af0590" target="_top" xlink:title="serial_is_send_enable">
<polygon fill="none" stroke="black" points="722,-114.5 722,-133.5 840,-133.5 840,-114.5 722,-114.5"/>
<text text-anchor="middle" x="781" y="-121.5" font-family="Helvetica,sans-Serif" font-size="10.00">serial_is_send_enable</text>
</a>
</g>
<!-- Node5&#45;&gt;Node6 -->
<g id="edge10" class="edge"><title>Node5&#45;&gt;Node6</title>
<path fill="none" stroke="midnightblue" d="M674.715,-124C686.427,-124 699.278,-124 711.855,-124"/>
<polygon fill="midnightblue" stroke="midnightblue" points="711.855,-127.5 721.855,-124 711.855,-120.5 711.855,-127.5"/>
</g>
<!-- Node7&#45;&gt;Node3 -->
<g id="edge14" class="edge"><title>Node7&#45;&gt;Node3</title>
<path fill="none" stroke="midnightblue" d="M236.098,-200C260.402,-200 298.611,-200 324.219,-200"/>
<polygon fill="midnightblue" stroke="midnightblue" points="324.344,-203.5 334.344,-200 324.344,-196.5 324.344,-203.5"/>
</g>
<!-- Node9 -->
<g id="node18" class="node"><title>Node9</title>
<a xlink:href="elf_8c.html#a6fe593c95dbcbfa1df84c139d4a0e6d6" target="_top" xlink:title="elf_check">
<polygon fill="none" stroke="black" points="182.5,-266.5 182.5,-285.5 241.5,-285.5 241.5,-266.5 182.5,-266.5"/>
<text text-anchor="middle" x="212" y="-273.5" font-family="Helvetica,sans-Serif" font-size="10.00">elf_check</text>
</a>
</g>
<!-- Node8&#45;&gt;Node9 -->
<g id="edge18" class="edge"><title>Node8&#45;&gt;Node9</title>
<path fill="none" stroke="midnightblue" d="M127.556,-276C140.721,-276 157.06,-276 171.781,-276"/>
<polygon fill="midnightblue" stroke="midnightblue" points="172.145,-279.5 182.145,-276 172.145,-272.5 172.145,-279.5"/>
</g>
<!-- Node11 -->
<g id="node23" class="node"><title>Node11</title>
<a xlink:href="elf_8c.html#ab6ee5a7e957e5a4e552dfa2fe3724c13" target="_top" xlink:title="elf_load_program">
<polygon fill="none" stroke="black" points="164.5,-304.5 164.5,-323.5 259.5,-323.5 259.5,-304.5 164.5,-304.5"/>
<text text-anchor="middle" x="212" y="-311.5" font-family="Helvetica,sans-Serif" font-size="10.00">elf_load_program</text>
</a>
</g>
<!-- Node8&#45;&gt;Node11 -->
<g id="edge24" class="edge"><title>Node8&#45;&gt;Node11</title>
<path fill="none" stroke="midnightblue" d="M127.556,-284.909C141.389,-289.732 158.727,-295.777 174.01,-301.105"/>
<polygon fill="midnightblue" stroke="midnightblue" points="173.104,-304.495 183.699,-304.482 175.409,-297.885 173.104,-304.495"/>
</g>
<!-- Node9&#45;&gt;Node3 -->
<g id="edge22" class="edge"><title>Node9&#45;&gt;Node3</title>
<path fill="none" stroke="midnightblue" d="M232.315,-266.394C240.849,-262.084 250.973,-256.88 260,-252 282.49,-239.841 307.706,-225.364 325.88,-214.777"/>
<polygon fill="midnightblue" stroke="midnightblue" points="327.823,-217.695 334.691,-209.628 324.291,-211.652 327.823,-217.695"/>
</g>
<!-- Node10 -->
<g id="node20" class="node"><title>Node10</title>
<a xlink:href="lib_8c.html#ad1f53852e073043deb4282575884d8fa" target="_top" xlink:title="memcmp">
<polygon fill="none" stroke="black" points="323,-266.5 323,-285.5 381,-285.5 381,-266.5 323,-266.5"/>
<text text-anchor="middle" x="352" y="-273.5" font-family="Helvetica,sans-Serif" font-size="10.00">memcmp</text>
</a>
</g>
<!-- Node9&#45;&gt;Node10 -->
<g id="edge20" class="edge"><title>Node9&#45;&gt;Node10</title>
<path fill="none" stroke="midnightblue" d="M241.594,-276C262.176,-276 290.165,-276 312.681,-276"/>
<polygon fill="midnightblue" stroke="midnightblue" points="312.915,-279.5 322.915,-276 312.915,-272.5 312.915,-279.5"/>
</g>
<!-- Node12 -->
<g id="node25" class="node"><title>Node12</title>
<a xlink:href="elf_8c.html#a59e612053a62a485fef60d4bea2b80e0" target="_top" xlink:title="elf_load_header">
<polygon fill="none" stroke="black" points="307,-304.5 307,-323.5 397,-323.5 397,-304.5 307,-304.5"/>
<text text-anchor="middle" x="352" y="-311.5" font-family="Helvetica,sans-Serif" font-size="10.00">elf_load_header</text>
</a>
</g>
<!-- Node11&#45;&gt;Node12 -->
<g id="edge26" class="edge"><title>Node11&#45;&gt;Node12</title>
<path fill="none" stroke="midnightblue" d="M259.721,-314C271.572,-314 284.405,-314 296.601,-314"/>
<polygon fill="midnightblue" stroke="midnightblue" points="296.66,-317.5 306.66,-314 296.66,-310.5 296.66,-317.5"/>
</g>
<!-- Node13 -->
<g id="node27" class="node"><title>Node13</title>
<a xlink:href="lib_8c.html#ae6f70fe20f24c155744d711f4b953eef" target="_top" xlink:title="memcpy">
<polygon fill="none" stroke="black" points="461.5,-323.5 461.5,-342.5 516.5,-342.5 516.5,-323.5 461.5,-323.5"/>
<text text-anchor="middle" x="489" y="-330.5" font-family="Helvetica,sans-Serif" font-size="10.00">memcpy</text>
</a>
</g>
<!-- Node12&#45;&gt;Node13 -->
<g id="edge28" class="edge"><title>Node12&#45;&gt;Node13</title>
<path fill="none" stroke="midnightblue" d="M397.204,-320.221C414.78,-322.695 434.758,-325.507 451.491,-327.862"/>
<polygon fill="midnightblue" stroke="midnightblue" points="451.049,-331.334 461.439,-329.262 452.025,-324.402 451.049,-331.334"/>
</g>
<!-- Node14 -->
<g id="node29" class="node"><title>Node14</title>
<a xlink:href="lib_8c.html#a89ddf4c406cf5f89be48dd3e4af4cdc4" target="_top" xlink:title="memset">
<polygon fill="none" stroke="black" points="462.5,-285.5 462.5,-304.5 515.5,-304.5 515.5,-285.5 462.5,-285.5"/>
<text text-anchor="middle" x="489" y="-292.5" font-family="Helvetica,sans-Serif" font-size="10.00">memset</text>
</a>
</g>
<!-- Node12&#45;&gt;Node14 -->
<g id="edge30" class="edge"><title>Node12&#45;&gt;Node14</title>
<path fill="none" stroke="midnightblue" d="M397.204,-307.779C415.035,-305.269 435.337,-302.412 452.216,-300.036"/>
<polygon fill="midnightblue" stroke="midnightblue" points="452.815,-303.486 462.23,-298.627 451.84,-296.555 452.815,-303.486"/>
</g>
<!-- Node16 -->
<g id="node33" class="node"><title>Node16</title>
<a xlink:href="lib_8c.html#ae0ca7622f88a0818572688d85919e6fe" target="_top" xlink:title="getc">
<polygon fill="none" stroke="black" points="334,-152.5 334,-171.5 370,-171.5 370,-152.5 334,-152.5"/>
<text text-anchor="middle" x="352" y="-159.5" font-family="Helvetica,sans-Serif" font-size="10.00">getc</text>
</a>
</g>
<!-- Node15&#45;&gt;Node16 -->
<g id="edge34" class="edge"><title>Node15&#45;&gt;Node16</title>
<path fill="none" stroke="midnightblue" d="M119.115,-126.612C161.582,-133.093 272.077,-149.956 323.691,-157.832"/>
<polygon fill="midnightblue" stroke="midnightblue" points="323.352,-161.321 333.765,-159.37 324.408,-154.401 323.352,-161.321"/>
</g>
<!-- Node16&#45;&gt;Node4 -->
<g id="edge40" class="edge"><title>Node16&#45;&gt;Node4</title>
<path fill="none" stroke="midnightblue" d="M370.098,-162C393.046,-162 434.051,-162 461.142,-162"/>
<polygon fill="midnightblue" stroke="midnightblue" points="461.463,-165.5 471.463,-162 461.463,-158.5 461.463,-165.5"/>
</g>
<!-- Node17 -->
<g id="node35" class="node"><title>Node17</title>
<a xlink:href="serial_8c.html#ab041beadc1139b4c1b12e30e5c21a383" target="_top" xlink:title="serial_recv_byte">
<polygon fill="none" stroke="black" points="444,-38.5 444,-57.5 534,-57.5 534,-38.5 444,-38.5"/>
<text text-anchor="middle" x="489" y="-45.5" font-family="Helvetica,sans-Serif" font-size="10.00">serial_recv_byte</text>
</a>
</g>
<!-- Node16&#45;&gt;Node17 -->
<g id="edge36" class="edge"><title>Node16&#45;&gt;Node17</title>
<path fill="none" stroke="midnightblue" d="M360.025,-152.431C374.116,-133.803 407.614,-92.283 444,-67 446.515,-65.2522 449.217,-63.6141 452,-62.0904"/>
<polygon fill="midnightblue" stroke="midnightblue" points="453.624,-65.1918 461.033,-57.6187 450.519,-58.9183 453.624,-65.1918"/>
</g>
<!-- Node18 -->
<g id="node37" class="node"><title>Node18</title>
<a xlink:href="serial_8c.html#a3592a8e9f7fc0651cfcbc638d6192040" target="_top" xlink:title="serial_is_recv_enable">
<polygon fill="none" stroke="black" points="570.5,-57.5 570.5,-76.5 685.5,-76.5 685.5,-57.5 570.5,-57.5"/>
<text text-anchor="middle" x="628" y="-64.5" font-family="Helvetica,sans-Serif" font-size="10.00">serial_is_recv_enable</text>
</a>
</g>
<!-- Node17&#45;&gt;Node18 -->
<g id="edge38" class="edge"><title>Node17&#45;&gt;Node18</title>
<path fill="none" stroke="midnightblue" d="M534.102,-54.1163C542.513,-55.2828 551.489,-56.5277 560.421,-57.7664"/>
<polygon fill="midnightblue" stroke="midnightblue" points="560.069,-61.251 570.455,-59.158 561.031,-54.3174 560.069,-61.251"/>
</g>
<!-- Node21&#45;&gt;Node5 -->
<g id="edge60" class="edge"><title>Node21&#45;&gt;Node5</title>
<path fill="none" stroke="midnightblue" d="M252.574,-93.4609C266.286,-95.8367 281.782,-98.2893 296,-100 392.38,-111.596 505.272,-118.324 571.192,-121.569"/>
<polygon fill="midnightblue" stroke="midnightblue" points="571.202,-125.073 581.359,-122.06 571.54,-118.082 571.202,-125.073"/>
</g>
<!-- Node21&#45;&gt;Node17 -->
<g id="edge58" class="edge"><title>Node21&#45;&gt;Node17</title>
<path fill="none" stroke="midnightblue" d="M222.656,-76.3774C237.123,-62.7168 265.949,-38.3252 296,-29 347.796,-12.9272 410.873,-24.7846 450.245,-35.6723"/>
<polygon fill="midnightblue" stroke="midnightblue" points="449.386,-39.0673 459.964,-38.4746 451.325,-32.3413 449.386,-39.0673"/>
</g>
<!-- Node22 -->
<g id="node48" class="node"><title>Node22</title>
<a xlink:href="xmodem_8c.html#ab4c69c95abc670bdcd0211e0b502691e" target="_top" xlink:title="xmodem_wait">
<polygon fill="none" stroke="black" points="449,-76.5 449,-95.5 529,-95.5 529,-76.5 449,-76.5"/>
<text text-anchor="middle" x="489" y="-83.5" font-family="Helvetica,sans-Serif" font-size="10.00">xmodem_wait</text>
</a>
</g>
<!-- Node21&#45;&gt;Node22 -->
<g id="edge52" class="edge"><title>Node21&#45;&gt;Node22</title>
<path fill="none" stroke="midnightblue" d="M252.694,-86C301.779,-86 385.341,-86 438.546,-86"/>
<polygon fill="midnightblue" stroke="midnightblue" points="438.764,-89.5001 448.764,-86 438.764,-82.5001 438.764,-89.5001"/>
</g>
<!-- Node23 -->
<g id="node54" class="node"><title>Node23</title>
<a xlink:href="xmodem_8c.html#a9bf979d7fd9f1e648f2df737556870dd" target="_top" xlink:title="xmodem_read_block">
<polygon fill="none" stroke="black" points="296,-38.5 296,-57.5 408,-57.5 408,-38.5 296,-38.5"/>
<text text-anchor="middle" x="352" y="-45.5" font-family="Helvetica,sans-Serif" font-size="10.00">xmodem_read_block</text>
</a>
</g>
<!-- Node21&#45;&gt;Node23 -->
<g id="edge62" class="edge"><title>Node21&#45;&gt;Node23</title>
<path fill="none" stroke="midnightblue" d="M247.823,-76.411C265.638,-71.5056 287.518,-65.4804 306.539,-60.2429"/>
<polygon fill="midnightblue" stroke="midnightblue" points="307.476,-63.6152 316.188,-57.5859 305.618,-56.8664 307.476,-63.6152"/>
</g>
<!-- Node22&#45;&gt;Node5 -->
<g id="edge56" class="edge"><title>Node22&#45;&gt;Node5</title>
<path fill="none" stroke="midnightblue" d="M524.571,-95.589C542.175,-100.472 563.779,-106.464 582.601,-111.685"/>
<polygon fill="midnightblue" stroke="midnightblue" points="581.868,-115.114 592.44,-114.414 583.739,-108.369 581.868,-115.114"/>
</g>
<!-- Node22&#45;&gt;Node18 -->
<g id="edge54" class="edge"><title>Node22&#45;&gt;Node18</title>
<path fill="none" stroke="midnightblue" d="M529.259,-80.5554C538.966,-79.2091 549.637,-77.7292 560.252,-76.257"/>
<polygon fill="midnightblue" stroke="midnightblue" points="560.955,-79.6931 570.379,-74.8525 559.993,-72.7595 560.955,-79.6931"/>
</g>
<!-- Node23&#45;&gt;Node17 -->
<g id="edge64" class="edge"><title>Node23&#45;&gt;Node17</title>
<path fill="none" stroke="midnightblue" d="M408.299,-48C416.686,-48 425.332,-48 433.697,-48"/>
<polygon fill="midnightblue" stroke="midnightblue" points="433.724,-51.5001 443.724,-48 433.724,-44.5001 433.724,-51.5001"/>
</g>
</g>
</svg>
        <g id="navigator" transform="translate(0 0)" fill="#404254">
                <rect fill="#f2f5e9" fill-opacity="0.5" stroke="#606060" stroke-width=".5" x="0" y="0" width="60" height="60"/>
                <use id="zoomplus" xlink:href="#zoomPlus" x="17" y="9" onmousedown="handleZoom(evt,'in')"/>
                <use id="zoomminus" xlink:href="#zoomMin" x="42" y="9" onmousedown="handleZoom(evt,'out')"/>
                <use id="reset" xlink:href="#resetDef" x="30" y="36" onmousedown="handleReset()"/>
                <g id="arrowUp" xlink:href="#dirArrow" transform="translate(30 24)" onmousedown="handlePan(0,-1)">
                  <use xlink:href="#rim" fill="#404040">
                        <set attributeName="fill" to="#808080" begin="arrowUp.mouseover" end="arrowUp.mouseout"/>
                  </use>
                  <path fill="none" stroke="white" stroke-width="1.5" d="M0,-3.0v7 M-2.5,-0.5L0,-3.0L2.5,-0.5"/>
                </g>
                <g id="arrowRight" xlink:href="#dirArrow" transform="rotate(90) translate(36 -43)" onmousedown="handlePan(1,0)">
                  <use xlink:href="#rim" fill="#404040">
                        <set attributeName="fill" to="#808080" begin="arrowRight.mouseover" end="arrowRight.mouseout"/>
                  </use>
                  <path fill="none" stroke="white" stroke-width="1.5" d="M0,-3.0v7 M-2.5,-0.5L0,-3.0L2.5,-0.5"/>
                </g>
                <g id="arrowDown" xlink:href="#dirArrow" transform="rotate(180) translate(-30 -48)" onmousedown="handlePan(0,1)">
                  <use xlink:href="#rim" fill="#404040">
                        <set attributeName="fill" to="#808080" begin="arrowDown.mouseover" end="arrowDown.mouseout"/>
                  </use>
                  <path fill="none" stroke="white" stroke-width="1.5" d="M0,-3.0v7 M-2.5,-0.5L0,-3.0L2.5,-0.5"/>
                </g>
                <g id="arrowLeft" xlink:href="#dirArrow" transform="rotate(270) translate(-36 17)" onmousedown="handlePan(-1,0)">
                  <use xlink:href="#rim" fill="#404040">
                        <set attributeName="fill" to="#808080" begin="arrowLeft.mouseover" end="arrowLeft.mouseout"/>
                  </use>
                  <path fill="none" stroke="white" stroke-width="1.5" d="M0,-3.0v7 M-2.5,-0.5L0,-3.0L2.5,-0.5"/>
                </g>
        </g>
        <svg viewBox="0 0 15 15" width="100%" height="30px" preserveAspectRatio="xMaxYMin meet">
         <g id="arrow_out" transform="scale(0.3 0.3)">
          <a xlink:href="bootload_2main_8c_a840291bc02cba5474a4cb46a9b9566fe_cgraph_org.svg" target="_base">
           <rect id="button" ry="5" rx="5" y="6" x="6" height="38" width="38"
                fill="#f2f5e9" fill-opacity="0.5" stroke="#606060" stroke-width="1.0"/>
           <path id="arrow"
             d="M 11.500037,31.436501 C 11.940474,20.09759 22.043105,11.32322 32.158766,21.979434 L 37.068811,17.246167 C 37.068811,17.246167 37.088388,32 37.088388,32 L 22.160133,31.978069 C 22.160133,31.978069 26.997745,27.140456 26.997745,27.140456 C 18.528582,18.264221 13.291696,25.230495 11.500037,31.436501 z"
             style="fill:#404040;"/>
          </a>
         </g>
        </svg>
</svg>
