<?xml version="1.0" encoding="UTF-8" standalone="no"?>
<!DOCTYPE svg PUBLIC "-//W3C//DTD SVG 1.1//EN"
 "http://www.w3.org/Graphics/SVG/1.1/DTD/svg11.dtd">
<!-- Generated by graphviz version 2.28.0 (20130928.0220)
 -->
<!-- Title: memset Pages: 1 -->
<!--zoomable 180 -->
<svg id="main" version="1.1" xmlns="http://www.w3.org/2000/svg" xmlns:xlink="http://www.w3.org/1999/xlink" xml:space="preserve" onload="init(evt)">
<style type="text/css"><![CDATA[
.edge:hover path { stroke: red; }
.edge:hover polygon { stroke: red; fill: red; }
]]></style>
<script type="text/javascript"><![CDATA[
var edges = document.getElementsByTagName('g');
if (edges && edges.length) {
  for (var i=0;i<edges.length;i++) {
    if (edges[i].id.substr(0,4)=='edge') {
      edges[i].setAttribute('class','edge');
    }
  }
}
]]></script>
        <defs>
                <circle id="rim" cx="0" cy="0" r="7"/>
                <circle id="rim2" cx="0" cy="0" r="3.5"/>
                <g id="zoomPlus">
                        <use xlink:href="#rim" fill="#404040">
                                <set attributeName="fill" to="#808080" begin="zoomplus.mouseover" end="zoomplus.mouseout"/>
                        </use>
                        <path d="M-4,0h8M0,-4v8" fill="none" stroke="white" stroke-width="1.5" pointer-events="none"/>
                </g>
                <g id="zoomMin">
                        <use xlink:href="#rim" fill="#404040">
                                <set attributeName="fill" to="#808080" begin="zoomminus.mouseover" end="zoomminus.mouseout"/>
                        </use>
                        <path d="M-4,0h8" fill="none" stroke="white" stroke-width="1.5" pointer-events="none"/>
                </g>
                <g id="dirArrow">
                        <path fill="none" stroke="white" stroke-width="1.5" d="M0,-3.0v7 M-2.5,-0.5L0,-3.0L2.5,-0.5"/>
                </g>
               <g id="resetDef">
                       <use xlink:href="#rim2" fill="#404040">
                               <set attributeName="fill" to="#808080" begin="reset.mouseover" end="reset.mouseout"/>
                       </use>
               </g>
        </defs>

<script type="text/javascript">
var viewWidth = 808;
var viewHeight = 180;
var sectionId = 'dynsection-5';
</script>
<script xlink:href="svgpan.js"/>
<svg id="graph" class="graph">
<g id="viewport">
<title>memset</title>
<!-- Node1 -->
<g id="node1" class="node"><title>Node1</title>
<polygon fill="#bfbfbf" stroke="black" points="0.5,-76.5 0.5,-95.5 53.5,-95.5 53.5,-76.5 0.5,-76.5"/>
<text text-anchor="middle" x="27" y="-83.5" font-family="Helvetica,sans-Serif" font-size="10.00">memset</text>
</g>
<!-- Node2 -->
<g id="node3" class="node"><title>Node2</title>
<a xlink:href="elf_8c.html#a59e612053a62a485fef60d4bea2b80e0" target="_top" xlink:title="elf_load_header">
<polygon fill="none" stroke="black" points="90,-152.5 90,-171.5 180,-171.5 180,-152.5 90,-152.5"/>
<text text-anchor="middle" x="135" y="-159.5" font-family="Helvetica,sans-Serif" font-size="10.00">elf_load_header</text>
</a>
</g>
<!-- Node1&#45;&gt;Node2 -->
<g id="edge2" class="edge"><title>Node1&#45;&gt;Node2</title>
<path fill="none" stroke="midnightblue" d="M45.9922,-102.736C57.9778,-113.462 74.3468,-127.323 90,-138 97.6196,-143.197 106.473,-148.206 114.232,-152.29"/>
<polygon fill="midnightblue" stroke="midnightblue" points="48.2121,-100.024 38.4575,-95.8894 43.5044,-105.205 48.2121,-100.024"/>
</g>
<!-- Node6 -->
<g id="node11" class="node"><title>Node6</title>
<a xlink:href="kozos_8c.html#a92177eed4eabc923bcd27462d8ce57b8" target="_top" xlink:title="get_stack_area">
<polygon fill="none" stroke="black" points="92,-38.5 92,-57.5 178,-57.5 178,-38.5 92,-38.5"/>
<text text-anchor="middle" x="135" y="-45.5" font-family="Helvetica,sans-Serif" font-size="10.00">get_stack_area</text>
</a>
</g>
<!-- Node1&#45;&gt;Node6 -->
<g id="edge10" class="edge"><title>Node1&#45;&gt;Node6</title>
<path fill="none" stroke="midnightblue" d="M63.2668,-73.3572C77.6898,-68.1867 94.093,-62.3063 107.47,-57.5109"/>
<polygon fill="midnightblue" stroke="midnightblue" points="61.8919,-70.1319 53.6596,-76.8013 64.2542,-76.7213 61.8919,-70.1319"/>
</g>
<!-- Node7 -->
<g id="node13" class="node"><title>Node7</title>
<a xlink:href="kozos_8c.html#a97037911d8c4942f91aea9e2d215113f" target="_top" xlink:title="thread_run">
<polygon fill="none" stroke="black" points="232,-57.5 232,-76.5 296,-76.5 296,-57.5 232,-57.5"/>
<text text-anchor="middle" x="264" y="-64.5" font-family="Helvetica,sans-Serif" font-size="10.00">thread_run</text>
</a>
</g>
<!-- Node1&#45;&gt;Node7 -->
<g id="edge36" class="edge"><title>Node1&#45;&gt;Node7</title>
<path fill="none" stroke="midnightblue" d="M63.6749,-83.1156C109.511,-79.4097 188.341,-73.0363 231.865,-69.5173"/>
<polygon fill="midnightblue" stroke="midnightblue" points="63.2819,-79.6359 53.5965,-83.9305 63.846,-86.6131 63.2819,-79.6359"/>
</g>
<!-- Node11 -->
<g id="node21" class="node"><title>Node11</title>
<a xlink:href="kozos_8h.html#a7078d5505c1e0c61af51bc66e5025685" target="_top" xlink:title="ライブラリ関数 ">
<polygon fill="none" stroke="black" points="674.5,-57.5 674.5,-76.5 725.5,-76.5 725.5,-57.5 674.5,-57.5"/>
<text text-anchor="middle" x="700" y="-64.5" font-family="Helvetica,sans-Serif" font-size="10.00">kz_start</text>
</a>
</g>
<!-- Node1&#45;&gt;Node11 -->
<g id="edge26" class="edge"><title>Node1&#45;&gt;Node11</title>
<path fill="none" stroke="midnightblue" d="M63.2362,-95.3179C108.95,-106.568 191.342,-124 263,-124 263,-124 263,-124 500,-124 568.102,-124 644.423,-92.767 679.478,-76.5405"/>
<polygon fill="midnightblue" stroke="midnightblue" points="64.0648,-91.9174 53.514,-92.8815 62.3632,-98.7074 64.0648,-91.9174"/>
</g>
<!-- Node13 -->
<g id="node27" class="node"><title>Node13</title>
<a xlink:href="kozos_8c.html#a4dd8e8425a1c0c5d866a9271d243cdef" target="_top" xlink:title="thread_exit">
<polygon fill="none" stroke="black" points="231,-0.5 231,-19.5 297,-19.5 297,-0.5 231,-0.5"/>
<text text-anchor="middle" x="264" y="-7.5" font-family="Helvetica,sans-Serif" font-size="10.00">thread_exit</text>
</a>
</g>
<!-- Node1&#45;&gt;Node13 -->
<g id="edge28" class="edge"><title>Node1&#45;&gt;Node13</title>
<path fill="none" stroke="midnightblue" d="M41.7349,-68.3668C53.1276,-55.1309 70.5619,-37.8301 90,-29 135.666,-8.25523 194.851,-6.42488 230.82,-7.70189"/>
<polygon fill="midnightblue" stroke="midnightblue" points="38.8172,-66.404 35.1604,-76.3477 44.2201,-70.8547 38.8172,-66.404"/>
</g>
<!-- Node3 -->
<g id="node5" class="node"><title>Node3</title>
<a xlink:href="elf_8c.html#ab6ee5a7e957e5a4e552dfa2fe3724c13" target="_top" xlink:title="elf_load_program">
<polygon fill="none" stroke="black" points="216.5,-152.5 216.5,-171.5 311.5,-171.5 311.5,-152.5 216.5,-152.5"/>
<text text-anchor="middle" x="264" y="-159.5" font-family="Helvetica,sans-Serif" font-size="10.00">elf_load_program</text>
</a>
</g>
<!-- Node2&#45;&gt;Node3 -->
<g id="edge4" class="edge"><title>Node2&#45;&gt;Node3</title>
<path fill="none" stroke="midnightblue" d="M190.168,-162C198.906,-162 207.884,-162 216.423,-162"/>
<polygon fill="midnightblue" stroke="midnightblue" points="190.062,-158.5 180.062,-162 190.062,-165.5 190.062,-158.5"/>
</g>
<!-- Node4 -->
<g id="node7" class="node"><title>Node4</title>
<a xlink:href="elf_8h.html#a58b7300af370cb019f7098d7446f640d" target="_top" xlink:title="elf_load">
<polygon fill="none" stroke="black" points="360.5,-152.5 360.5,-171.5 413.5,-171.5 413.5,-152.5 360.5,-152.5"/>
<text text-anchor="middle" x="387" y="-159.5" font-family="Helvetica,sans-Serif" font-size="10.00">elf_load</text>
</a>
</g>
<!-- Node3&#45;&gt;Node4 -->
<g id="edge6" class="edge"><title>Node3&#45;&gt;Node4</title>
<path fill="none" stroke="midnightblue" d="M321.966,-162C335.4,-162 349.068,-162 360.307,-162"/>
<polygon fill="midnightblue" stroke="midnightblue" points="321.782,-158.5 311.782,-162 321.782,-165.5 321.782,-158.5"/>
</g>
<!-- Node5 -->
<g id="node9" class="node"><title>Node5</title>
<a xlink:href="bootload_2main_8c.html#a840291bc02cba5474a4cb46a9b9566fe" target="_top" xlink:title="main">
<polygon fill="none" stroke="black" points="480,-152.5 480,-171.5 518,-171.5 518,-152.5 480,-152.5"/>
<text text-anchor="middle" x="499" y="-159.5" font-family="Helvetica,sans-Serif" font-size="10.00">main</text>
</a>
</g>
<!-- Node4&#45;&gt;Node5 -->
<g id="edge8" class="edge"><title>Node4&#45;&gt;Node5</title>
<path fill="none" stroke="midnightblue" d="M423.524,-162C442.309,-162 464.574,-162 479.836,-162"/>
<polygon fill="midnightblue" stroke="midnightblue" points="423.513,-158.5 413.513,-162 423.513,-165.5 423.513,-158.5"/>
</g>
<!-- Node6&#45;&gt;Node7 -->
<g id="edge12" class="edge"><title>Node6&#45;&gt;Node7</title>
<path fill="none" stroke="midnightblue" d="M188.326,-55.8283C203.074,-58.0346 218.652,-60.3652 231.742,-62.3236"/>
<polygon fill="midnightblue" stroke="midnightblue" points="188.697,-52.3449 178.289,-54.3267 187.661,-59.2679 188.697,-52.3449"/>
</g>
<!-- Node8 -->
<g id="node15" class="node"><title>Node8</title>
<a xlink:href="kozos_8c.html#acd68041208fa0120669ac78343a47dc0" target="_top" xlink:title="call_functions">
<polygon fill="none" stroke="black" points="348.5,-38.5 348.5,-57.5 425.5,-57.5 425.5,-38.5 348.5,-38.5"/>
<text text-anchor="middle" x="387" y="-45.5" font-family="Helvetica,sans-Serif" font-size="10.00">call_functions</text>
</a>
</g>
<!-- Node7&#45;&gt;Node8 -->
<g id="edge14" class="edge"><title>Node7&#45;&gt;Node8</title>
<path fill="none" stroke="midnightblue" d="M306.281,-60.5179C319.958,-58.3702 335.098,-55.993 348.476,-53.8921"/>
<polygon fill="midnightblue" stroke="midnightblue" points="305.496,-57.0981 296.161,-62.107 306.582,-64.0133 305.496,-57.0981"/>
</g>
<!-- Node7&#45;&gt;Node11 -->
<g id="edge24" class="edge"><title>Node7&#45;&gt;Node11</title>
<path fill="none" stroke="midnightblue" d="M306.479,-67C395.62,-67 603.143,-67 674.435,-67"/>
<polygon fill="midnightblue" stroke="midnightblue" points="306.212,-63.5001 296.212,-67 306.212,-70.5001 306.212,-63.5001"/>
</g>
<!-- Node9 -->
<g id="node17" class="node"><title>Node9</title>
<a xlink:href="kozos_8c.html#aef8f2fde0f7865d66b9a7daf0e2426e0" target="_top" xlink:title="syscall_proc">
<polygon fill="none" stroke="black" points="462.5,-38.5 462.5,-57.5 535.5,-57.5 535.5,-38.5 462.5,-38.5"/>
<text text-anchor="middle" x="499" y="-45.5" font-family="Helvetica,sans-Serif" font-size="10.00">syscall_proc</text>
</a>
</g>
<!-- Node8&#45;&gt;Node9 -->
<g id="edge16" class="edge"><title>Node8&#45;&gt;Node9</title>
<path fill="none" stroke="midnightblue" d="M435.573,-48C444.601,-48 453.901,-48 462.476,-48"/>
<polygon fill="midnightblue" stroke="midnightblue" points="435.548,-44.5001 425.548,-48 435.548,-51.5001 435.548,-44.5001"/>
</g>
<!-- Node10 -->
<g id="node19" class="node"><title>Node10</title>
<a xlink:href="kozos_8c.html#a69f871c66a43d6f0a644c57def130160" target="_top" xlink:title="syscall_intr">
<polygon fill="none" stroke="black" points="572,-38.5 572,-57.5 638,-57.5 638,-38.5 572,-38.5"/>
<text text-anchor="middle" x="605" y="-45.5" font-family="Helvetica,sans-Serif" font-size="10.00">syscall_intr</text>
</a>
</g>
<!-- Node9&#45;&gt;Node10 -->
<g id="edge18" class="edge"><title>Node9&#45;&gt;Node10</title>
<path fill="none" stroke="midnightblue" d="M545.667,-48C554.476,-48 563.532,-48 571.802,-48"/>
<polygon fill="midnightblue" stroke="midnightblue" points="545.5,-44.5001 535.5,-48 545.5,-51.5001 545.5,-44.5001"/>
</g>
<!-- Node10&#45;&gt;Node11 -->
<g id="edge20" class="edge"><title>Node10&#45;&gt;Node11</title>
<path fill="none" stroke="midnightblue" d="M647.988,-56.5782C656.979,-58.4151 666.198,-60.2985 674.282,-61.9501"/>
<polygon fill="midnightblue" stroke="midnightblue" points="648.504,-53.1113 638.005,-54.5387 647.102,-59.9696 648.504,-53.1113"/>
</g>
<!-- Node12 -->
<g id="node23" class="node"><title>Node12</title>
<a xlink:href="os_2main_8c.html#a840291bc02cba5474a4cb46a9b9566fe" target="_top" xlink:title="main">
<polygon fill="none" stroke="black" points="762,-57.5 762,-76.5 800,-76.5 800,-57.5 762,-57.5"/>
<text text-anchor="middle" x="781" y="-64.5" font-family="Helvetica,sans-Serif" font-size="10.00">main</text>
</a>
</g>
<!-- Node11&#45;&gt;Node12 -->
<g id="edge22" class="edge"><title>Node11&#45;&gt;Node12</title>
<path fill="none" stroke="midnightblue" d="M735.584,-67C744.686,-67 754.142,-67 761.978,-67"/>
<polygon fill="midnightblue" stroke="midnightblue" points="735.563,-63.5001 725.563,-67 735.563,-70.5001 735.563,-63.5001"/>
</g>
<!-- Node13&#45;&gt;Node8 -->
<g id="edge30" class="edge"><title>Node13&#45;&gt;Node8</title>
<path fill="none" stroke="midnightblue" d="M305.377,-22.6804C321.726,-27.8148 340.288,-33.6441 355.476,-38.4141"/>
<polygon fill="midnightblue" stroke="midnightblue" points="306.123,-19.2461 295.533,-19.589 304.025,-25.9245 306.123,-19.2461"/>
</g>
<!-- Node14 -->
<g id="node30" class="node"><title>Node14</title>
<a xlink:href="kozos_8c.html#ad878125b5a334d151d787886f190ccf2" target="_top" xlink:title="softerr_intr">
<polygon fill="none" stroke="black" points="574,-0.5 574,-19.5 636,-19.5 636,-0.5 574,-0.5"/>
<text text-anchor="middle" x="605" y="-7.5" font-family="Helvetica,sans-Serif" font-size="10.00">softerr_intr</text>
</a>
</g>
<!-- Node13&#45;&gt;Node14 -->
<g id="edge32" class="edge"><title>Node13&#45;&gt;Node14</title>
<path fill="none" stroke="midnightblue" d="M307.354,-10C376.873,-10 513.49,-10 573.969,-10"/>
<polygon fill="midnightblue" stroke="midnightblue" points="307.198,-6.5001 297.198,-10 307.198,-13.5001 307.198,-6.5001"/>
</g>
<!-- Node14&#45;&gt;Node11 -->
<g id="edge34" class="edge"><title>Node14&#45;&gt;Node11</title>
<path fill="none" stroke="midnightblue" d="M631.141,-24.859C633.464,-26.2524 635.778,-27.6486 638,-29 653.67,-38.5315 671.457,-49.6463 683.764,-57.3833"/>
<polygon fill="midnightblue" stroke="midnightblue" points="632.701,-21.714 622.319,-19.5989 629.116,-27.7264 632.701,-21.714"/>
</g>
</g>
</svg>
        <g id="navigator" transform="translate(0 0)" fill="#404254">
                <rect fill="#f2f5e9" fill-opacity="0.5" stroke="#606060" stroke-width=".5" x="0" y="0" width="60" height="60"/>
                <use id="zoomplus" xlink:href="#zoomPlus" x="17" y="9" onmousedown="handleZoom(evt,'in')"/>
                <use id="zoomminus" xlink:href="#zoomMin" x="42" y="9" onmousedown="handleZoom(evt,'out')"/>
                <use id="reset" xlink:href="#resetDef" x="30" y="36" onmousedown="handleReset()"/>
                <g id="arrowUp" xlink:href="#dirArrow" transform="translate(30 24)" onmousedown="handlePan(0,-1)">
                  <use xlink:href="#rim" fill="#404040">
                        <set attributeName="fill" to="#808080" begin="arrowUp.mouseover" end="arrowUp.mouseout"/>
                  </use>
                  <path fill="none" stroke="white" stroke-width="1.5" d="M0,-3.0v7 M-2.5,-0.5L0,-3.0L2.5,-0.5"/>
                </g>
                <g id="arrowRight" xlink:href="#dirArrow" transform="rotate(90) translate(36 -43)" onmousedown="handlePan(1,0)">
                  <use xlink:href="#rim" fill="#404040">
                        <set attributeName="fill" to="#808080" begin="arrowRight.mouseover" end="arrowRight.mouseout"/>
                  </use>
                  <path fill="none" stroke="white" stroke-width="1.5" d="M0,-3.0v7 M-2.5,-0.5L0,-3.0L2.5,-0.5"/>
                </g>
                <g id="arrowDown" xlink:href="#dirArrow" transform="rotate(180) translate(-30 -48)" onmousedown="handlePan(0,1)">
                  <use xlink:href="#rim" fill="#404040">
                        <set attributeName="fill" to="#808080" begin="arrowDown.mouseover" end="arrowDown.mouseout"/>
                  </use>
                  <path fill="none" stroke="white" stroke-width="1.5" d="M0,-3.0v7 M-2.5,-0.5L0,-3.0L2.5,-0.5"/>
                </g>
                <g id="arrowLeft" xlink:href="#dirArrow" transform="rotate(270) translate(-36 17)" onmousedown="handlePan(-1,0)">
                  <use xlink:href="#rim" fill="#404040">
                        <set attributeName="fill" to="#808080" begin="arrowLeft.mouseover" end="arrowLeft.mouseout"/>
                  </use>
                  <path fill="none" stroke="white" stroke-width="1.5" d="M0,-3.0v7 M-2.5,-0.5L0,-3.0L2.5,-0.5"/>
                </g>
        </g>
        <svg viewBox="0 0 15 15" width="100%" height="30px" preserveAspectRatio="xMaxYMin meet">
         <g id="arrow_out" transform="scale(0.3 0.3)">
          <a xlink:href="bootload_2lib_8c_a89ddf4c406cf5f89be48dd3e4af4cdc4_icgraph_org.svg" target="_base">
           <rect id="button" ry="5" rx="5" y="6" x="6" height="38" width="38"
                fill="#f2f5e9" fill-opacity="0.5" stroke="#606060" stroke-width="1.0"/>
           <path id="arrow"
             d="M 11.500037,31.436501 C 11.940474,20.09759 22.043105,11.32322 32.158766,21.979434 L 37.068811,17.246167 C 37.068811,17.246167 37.088388,32 37.088388,32 L 22.160133,31.978069 C 22.160133,31.978069 26.997745,27.140456 26.997745,27.140456 C 18.528582,18.264221 13.291696,25.230495 11.500037,31.436501 z"
             style="fill:#404040;"/>
          </a>
         </g>
        </svg>
</svg>
