<?xml version="1.0" encoding="UTF-8" standalone="no"?>
<!DOCTYPE svg PUBLIC "-//W3C//DTD SVG 1.1//EN"
 "http://www.w3.org/Graphics/SVG/1.1/DTD/svg11.dtd">
<!-- Generated by graphviz version 2.28.0 (20130928.0220)
 -->
<!-- Title: src/misc/defines.h Pages: 1 -->
<!--zoomable 196 -->
<svg id="main" version="1.1" xmlns="http://www.w3.org/2000/svg" xmlns:xlink="http://www.w3.org/1999/xlink" xml:space="preserve" onload="init(evt)">
<style type="text/css"><![CDATA[
.edge:hover path { stroke: red; }
.edge:hover polygon { stroke: red; fill: red; }
]]></style>
<script type="text/javascript"><![CDATA[
var edges = document.getElementsByTagName('g');
if (edges && edges.length) {
  for (var i=0;i<edges.length;i++) {
    if (edges[i].id.substr(0,4)=='edge') {
      edges[i].setAttribute('class','edge');
    }
  }
}
]]></script>
        <defs>
                <circle id="rim" cx="0" cy="0" r="7"/>
                <circle id="rim2" cx="0" cy="0" r="3.5"/>
                <g id="zoomPlus">
                        <use xlink:href="#rim" fill="#404040">
                                <set attributeName="fill" to="#808080" begin="zoomplus.mouseover" end="zoomplus.mouseout"/>
                        </use>
                        <path d="M-4,0h8M0,-4v8" fill="none" stroke="white" stroke-width="1.5" pointer-events="none"/>
                </g>
                <g id="zoomMin">
                        <use xlink:href="#rim" fill="#404040">
                                <set attributeName="fill" to="#808080" begin="zoomminus.mouseover" end="zoomminus.mouseout"/>
                        </use>
                        <path d="M-4,0h8" fill="none" stroke="white" stroke-width="1.5" pointer-events="none"/>
                </g>
                <g id="dirArrow">
                        <path fill="none" stroke="white" stroke-width="1.5" d="M0,-3.0v7 M-2.5,-0.5L0,-3.0L2.5,-0.5"/>
                </g>
               <g id="resetDef">
                       <use xlink:href="#rim2" fill="#404040">
                               <set attributeName="fill" to="#808080" begin="reset.mouseover" end="reset.mouseout"/>
                       </use>
               </g>
        </defs>

<script type="text/javascript">
var viewWidth = 1106;
var viewHeight = 196;
var sectionId = 'dynsection-0';
</script>
<script xlink:href="svgpan.js"/>
<svg id="graph" class="graph">
<g id="viewport">
<title>src/misc/defines.h</title>
<!-- Node1 -->
<g id="node1" class="node"><title>Node1</title>
<polygon fill="#bfbfbf" stroke="black" points="439,-168.5 439,-187.5 537,-187.5 537,-168.5 439,-168.5"/>
<text text-anchor="middle" x="488" y="-175.5" font-family="Helvetica,sans-Serif" font-size="10.00">src/misc/defines.h</text>
</g>
<!-- Node2 -->
<g id="node3" class="node"><title>Node2</title>
<a xlink:href="elf_8c.html" target="_top" xlink:title="src/bootload/elf.c">
<polygon fill="none" stroke="black" points="10,-112.5 10,-131.5 104,-131.5 104,-112.5 10,-112.5"/>
<text text-anchor="middle" x="57" y="-119.5" font-family="Helvetica,sans-Serif" font-size="10.00">src/bootload/elf.c</text>
</a>
</g>
<!-- Node1&#45;&gt;Node2 -->
<g id="edge2" class="edge"><title>Node1&#45;&gt;Node2</title>
<path fill="none" stroke="midnightblue" d="M428.933,-170.286C355.85,-161.87 227.639,-146.753 118,-132 113.544,-131.4 108.908,-130.755 104.272,-130.096"/>
<polygon fill="midnightblue" stroke="midnightblue" points="428.538,-173.763 438.872,-171.428 429.337,-166.809 428.538,-173.763"/>
</g>
<!-- Node3 -->
<g id="node5" class="node"><title>Node3</title>
<a xlink:href="bootload_2main_8c.html" target="_top" xlink:title="src/bootload/main.c">
<polygon fill="none" stroke="black" points="-0.5,-56.5 -0.5,-75.5 104.5,-75.5 104.5,-56.5 -0.5,-56.5"/>
<text text-anchor="middle" x="52" y="-63.5" font-family="Helvetica,sans-Serif" font-size="10.00">src/bootload/main.c</text>
</a>
</g>
<!-- Node1&#45;&gt;Node3 -->
<g id="edge4" class="edge"><title>Node1&#45;&gt;Node3</title>
<path fill="none" stroke="midnightblue" d="M428.397,-174.689C363.983,-170.777 259.007,-160.256 173,-132 130.636,-118.082 85.5992,-89.8142 64.3994,-75.5873"/>
<polygon fill="midnightblue" stroke="midnightblue" points="428.584,-178.206 438.767,-175.283 428.984,-171.217 428.584,-178.206"/>
</g>
<!-- Node4 -->
<g id="node7" class="node"><title>Node4</title>
<a xlink:href="interrupt_8h.html" target="_top" xlink:title="src/misc/interrupt.h">
<polygon fill="none" stroke="black" points="198.5,-112.5 198.5,-131.5 297.5,-131.5 297.5,-112.5 198.5,-112.5"/>
<text text-anchor="middle" x="248" y="-119.5" font-family="Helvetica,sans-Serif" font-size="10.00">src/misc/interrupt.h</text>
</a>
</g>
<!-- Node1&#45;&gt;Node4 -->
<g id="edge6" class="edge"><title>Node1&#45;&gt;Node4</title>
<path fill="none" stroke="midnightblue" d="M440.077,-166.217C394.726,-156.013 327.558,-140.901 285.851,-131.516"/>
<polygon fill="midnightblue" stroke="midnightblue" points="439.447,-169.663 449.971,-168.444 440.984,-162.834 439.447,-169.663"/>
</g>
<!-- Node5 -->
<g id="node10" class="node"><title>Node5</title>
<a xlink:href="interrupt_8c.html" target="_top" xlink:title="src/misc/interrupt.c">
<polygon fill="none" stroke="black" points="122.5,-56.5 122.5,-75.5 221.5,-75.5 221.5,-56.5 122.5,-56.5"/>
<text text-anchor="middle" x="172" y="-63.5" font-family="Helvetica,sans-Serif" font-size="10.00">src/misc/interrupt.c</text>
</a>
</g>
<!-- Node1&#45;&gt;Node5 -->
<g id="edge20" class="edge"><title>Node1&#45;&gt;Node5</title>
<path fill="none" stroke="midnightblue" d="M428.84,-175.615C351.934,-172.581 223.374,-162.898 189,-132 172.865,-117.497 171.202,-89.7554 171.499,-75.6688"/>
<polygon fill="midnightblue" stroke="midnightblue" points="428.751,-179.114 438.873,-175.985 429.009,-172.119 428.751,-179.114"/>
</g>
<!-- Node6 -->
<g id="node12" class="node"><title>Node6</title>
<a xlink:href="kozos_8c.html" target="_top" xlink:title="src/os/kozos.c">
<polygon fill="none" stroke="black" points="352.5,-0.5 352.5,-19.5 435.5,-19.5 435.5,-0.5 352.5,-0.5"/>
<text text-anchor="middle" x="394" y="-7.5" font-family="Helvetica,sans-Serif" font-size="10.00">src/os/kozos.c</text>
</a>
</g>
<!-- Node1&#45;&gt;Node6 -->
<g id="edge26" class="edge"><title>Node1&#45;&gt;Node6</title>
<path fill="none" stroke="midnightblue" d="M444.337,-164.685C427.992,-157.79 410.982,-147.383 401,-132 377.748,-96.168 386.97,-41.0786 391.786,-19.8039"/>
<polygon fill="midnightblue" stroke="midnightblue" points="443.237,-168.012 453.826,-168.35 445.759,-161.482 443.237,-168.012"/>
</g>
<!-- Node7 -->
<g id="node14" class="node"><title>Node7</title>
<a xlink:href="os_2main_8c.html" target="_top" xlink:title="src/os/main.c">
<polygon fill="none" stroke="black" points="249.5,-0.5 249.5,-19.5 326.5,-19.5 326.5,-0.5 249.5,-0.5"/>
<text text-anchor="middle" x="288" y="-7.5" font-family="Helvetica,sans-Serif" font-size="10.00">src/os/main.c</text>
</a>
</g>
<!-- Node1&#45;&gt;Node7 -->
<g id="edge46" class="edge"><title>Node1&#45;&gt;Node7</title>
<path fill="none" stroke="midnightblue" d="M451.46,-164.924C431.778,-157.346 407.759,-146.288 389,-132 344.593,-98.176 306.824,-41.4228 293.312,-19.7624"/>
<polygon fill="midnightblue" stroke="midnightblue" points="450.425,-168.273 461.018,-168.466 452.858,-161.709 450.425,-168.273"/>
</g>
<!-- Node8 -->
<g id="node16" class="node"><title>Node8</title>
<a xlink:href="vector_8c.html" target="_top" xlink:title="src/bootload/vector.c">
<polygon fill="none" stroke="black" points="646.5,-112.5 646.5,-131.5 757.5,-131.5 757.5,-112.5 646.5,-112.5"/>
<text text-anchor="middle" x="702" y="-119.5" font-family="Helvetica,sans-Serif" font-size="10.00">src/bootload/vector.c</text>
</a>
</g>
<!-- Node1&#45;&gt;Node8 -->
<g id="edge16" class="edge"><title>Node1&#45;&gt;Node8</title>
<path fill="none" stroke="midnightblue" d="M531.755,-165.959C572.174,-155.76 631.373,-140.822 668.25,-131.516"/>
<polygon fill="midnightblue" stroke="midnightblue" points="530.749,-162.603 521.909,-168.444 532.461,-169.39 530.749,-162.603"/>
</g>
<!-- Node9 -->
<g id="node18" class="node"><title>Node9</title>
<a xlink:href="xmodem_8c.html" target="_top" xlink:title="src/bootload/xmodem.c">
<polygon fill="none" stroke="black" points="775.5,-112.5 775.5,-131.5 898.5,-131.5 898.5,-112.5 775.5,-112.5"/>
<text text-anchor="middle" x="837" y="-119.5" font-family="Helvetica,sans-Serif" font-size="10.00">src/bootload/xmodem.c</text>
</a>
</g>
<!-- Node1&#45;&gt;Node9 -->
<g id="edge18" class="edge"><title>Node1&#45;&gt;Node9</title>
<path fill="none" stroke="midnightblue" d="M547.457,-167.8C613.149,-157.636 718.075,-141.401 781.947,-131.518"/>
<polygon fill="midnightblue" stroke="midnightblue" points="546.61,-164.39 537.263,-169.378 547.681,-171.307 546.61,-164.39"/>
</g>
<!-- Node10 -->
<g id="node21" class="node"><title>Node10</title>
<a xlink:href="lib_8c.html" target="_top" xlink:title="src/misc/lib.c">
<polygon fill="none" stroke="black" points="917,-112.5 917,-131.5 991,-131.5 991,-112.5 917,-112.5"/>
<text text-anchor="middle" x="954" y="-119.5" font-family="Helvetica,sans-Serif" font-size="10.00">src/misc/lib.c</text>
</a>
</g>
<!-- Node1&#45;&gt;Node10 -->
<g id="edge22" class="edge"><title>Node1&#45;&gt;Node10</title>
<path fill="none" stroke="midnightblue" d="M547.241,-172.183C628.586,-165.217 779.318,-151.048 907,-132 910.205,-131.522 913.524,-130.981 916.848,-130.406"/>
<polygon fill="midnightblue" stroke="midnightblue" points="546.86,-168.703 537.192,-173.037 547.452,-175.678 546.86,-168.703"/>
</g>
<!-- Node11 -->
<g id="node23" class="node"><title>Node11</title>
<a xlink:href="serial_8c.html" target="_top" xlink:title="src/misc/serial.c">
<polygon fill="none" stroke="black" points="1009.5,-112.5 1009.5,-131.5 1098.5,-131.5 1098.5,-112.5 1009.5,-112.5"/>
<text text-anchor="middle" x="1054" y="-119.5" font-family="Helvetica,sans-Serif" font-size="10.00">src/misc/serial.c</text>
</a>
</g>
<!-- Node1&#45;&gt;Node11 -->
<g id="edge24" class="edge"><title>Node1&#45;&gt;Node11</title>
<path fill="none" stroke="midnightblue" d="M547.248,-173.29C642.776,-166.971 836.658,-152.758 1000,-132 1003.02,-131.617 1006.12,-131.188 1009.25,-130.733"/>
<polygon fill="midnightblue" stroke="midnightblue" points="546.952,-169.802 537.203,-173.949 547.411,-176.787 546.952,-169.802"/>
</g>
<!-- Node12 -->
<g id="node26" class="node"><title>Node12</title>
<a xlink:href="syscall_8h.html" target="_top" xlink:title="src/os/syscall.h">
<polygon fill="none" stroke="black" points="410,-112.5 410,-131.5 496,-131.5 496,-112.5 410,-112.5"/>
<text text-anchor="middle" x="453" y="-119.5" font-family="Helvetica,sans-Serif" font-size="10.00">src/os/syscall.h</text>
</a>
</g>
<!-- Node1&#45;&gt;Node12 -->
<g id="edge28" class="edge"><title>Node1&#45;&gt;Node12</title>
<path fill="none" stroke="midnightblue" d="M476.7,-159.566C470.678,-150.275 463.531,-139.248 458.672,-131.751"/>
<polygon fill="midnightblue" stroke="midnightblue" points="473.844,-161.595 482.22,-168.083 479.719,-157.788 473.844,-161.595"/>
</g>
<!-- Node13 -->
<g id="node29" class="node"><title>Node13</title>
<a xlink:href="kozos_8h.html" target="_top" xlink:title="src/os/kozos.h">
<polygon fill="none" stroke="black" points="430.5,-56.5 430.5,-75.5 513.5,-75.5 513.5,-56.5 430.5,-56.5"/>
<text text-anchor="middle" x="472" y="-63.5" font-family="Helvetica,sans-Serif" font-size="10.00">src/os/kozos.h</text>
</a>
</g>
<!-- Node1&#45;&gt;Node13 -->
<g id="edge44" class="edge"><title>Node1&#45;&gt;Node13</title>
<path fill="none" stroke="midnightblue" d="M497.989,-159.573C504.241,-146.389 510.205,-127.901 505,-112 500.298,-97.6367 489.072,-84.0685 481.02,-75.66"/>
<polygon fill="midnightblue" stroke="midnightblue" points="494.859,-158.007 493.332,-168.491 501.064,-161.247 494.859,-158.007"/>
</g>
<!-- Node14 -->
<g id="node33" class="node"><title>Node14</title>
<a xlink:href="syscall_8c.html" target="_top" xlink:title="src/os/syscall.c">
<polygon fill="none" stroke="black" points="468,-0.5 468,-19.5 554,-19.5 554,-0.5 468,-0.5"/>
<text text-anchor="middle" x="511" y="-7.5" font-family="Helvetica,sans-Serif" font-size="10.00">src/os/syscall.c</text>
</a>
</g>
<!-- Node1&#45;&gt;Node14 -->
<g id="edge48" class="edge"><title>Node1&#45;&gt;Node14</title>
<path fill="none" stroke="midnightblue" d="M501.697,-160.235C507.889,-152.074 514.936,-141.904 520,-132 531.964,-108.599 534.721,-101.932 539,-76 540.447,-67.2297 541.442,-64.5469 539,-56 535.006,-42.0212 525.276,-28.156 518.412,-19.5891"/>
<polygon fill="midnightblue" stroke="midnightblue" points="498.87,-158.168 495.447,-168.194 504.375,-162.491 498.87,-158.168"/>
</g>
<!-- Node15 -->
<g id="node35" class="node"><title>Node15</title>
<a xlink:href="test08__1_8c.html" target="_top" xlink:title="src/os/test08_1.c">
<polygon fill="none" stroke="black" points="572,-0.5 572,-19.5 664,-19.5 664,-0.5 572,-0.5"/>
<text text-anchor="middle" x="618" y="-7.5" font-family="Helvetica,sans-Serif" font-size="10.00">src/os/test08_1.c</text>
</a>
</g>
<!-- Node1&#45;&gt;Node15 -->
<g id="edge50" class="edge"><title>Node1&#45;&gt;Node15</title>
<path fill="none" stroke="midnightblue" d="M507.192,-162.165C517.268,-153.879 529.465,-143.024 539,-132 572.153,-93.6711 602.173,-40.493 613.363,-19.7639"/>
<polygon fill="midnightblue" stroke="midnightblue" points="504.944,-159.482 499.334,-168.469 509.324,-164.942 504.944,-159.482"/>
</g>
<!-- Node4&#45;&gt;Node3 -->
<g id="edge8" class="edge"><title>Node4&#45;&gt;Node3</title>
<path fill="none" stroke="midnightblue" d="M206.98,-109.699C169.989,-99.507 116.4,-84.7429 82.9115,-75.5164"/>
<polygon fill="midnightblue" stroke="midnightblue" points="206.373,-113.162 216.943,-112.444 208.232,-106.413 206.373,-113.162"/>
</g>
<!-- Node4&#45;&gt;Node5 -->
<g id="edge10" class="edge"><title>Node4&#45;&gt;Node5</title>
<path fill="none" stroke="midnightblue" d="M227.424,-106.38C213.688,-96.6204 196.075,-84.1057 184.433,-75.8339"/>
<polygon fill="midnightblue" stroke="midnightblue" points="225.61,-109.385 235.789,-112.324 229.665,-103.679 225.61,-109.385"/>
</g>
<!-- Node4&#45;&gt;Node6 -->
<g id="edge12" class="edge"><title>Node4&#45;&gt;Node6</title>
<path fill="none" stroke="midnightblue" d="M267.753,-106.118C298.743,-82.7688 357.805,-38.2699 382.597,-19.5914"/>
<polygon fill="midnightblue" stroke="midnightblue" points="265.337,-103.556 259.456,-112.368 269.549,-109.146 265.337,-103.556"/>
</g>
<!-- Node4&#45;&gt;Node7 -->
<g id="edge14" class="edge"><title>Node4&#45;&gt;Node7</title>
<path fill="none" stroke="midnightblue" d="M254.664,-102.674C263.409,-78.6248 278.404,-37.3881 284.876,-19.5914"/>
<polygon fill="midnightblue" stroke="midnightblue" points="251.267,-101.774 251.139,-112.368 257.846,-104.167 251.267,-101.774"/>
</g>
<!-- Node12&#45;&gt;Node6 -->
<g id="edge30" class="edge"><title>Node12&#45;&gt;Node6</title>
<path fill="none" stroke="midnightblue" d="M439.829,-104.389C433.648,-96.1412 426.459,-85.853 421,-76 410.341,-56.7602 401.323,-32.4413 396.908,-19.6977"/>
<polygon fill="midnightblue" stroke="midnightblue" points="437.138,-106.632 446.011,-112.422 442.685,-102.362 437.138,-106.632"/>
</g>
<!-- Node12&#45;&gt;Node13 -->
<g id="edge32" class="edge"><title>Node12&#45;&gt;Node13</title>
<path fill="none" stroke="midnightblue" d="M459.546,-102.396C462.724,-93.362 466.393,-82.936 468.921,-75.7511"/>
<polygon fill="midnightblue" stroke="midnightblue" points="456.155,-101.488 456.137,-112.083 462.758,-103.812 456.155,-101.488"/>
</g>
<!-- Node12&#45;&gt;Node14 -->
<g id="edge42" class="edge"><title>Node12&#45;&gt;Node14</title>
<path fill="none" stroke="midnightblue" d="M486.06,-108.008C499.766,-100.781 514.251,-90.3042 522,-76 531.922,-57.6844 522.176,-32.5582 515.713,-19.5625"/>
<polygon fill="midnightblue" stroke="midnightblue" points="484.262,-104.99 476.788,-112.499 487.314,-111.29 484.262,-104.99"/>
</g>
<!-- Node13&#45;&gt;Node6 -->
<g id="edge34" class="edge"><title>Node13&#45;&gt;Node6</title>
<path fill="none" stroke="midnightblue" d="M451.232,-50.6221C436.983,-40.7574 418.544,-27.9919 406.501,-19.6545"/>
<polygon fill="midnightblue" stroke="midnightblue" points="449.254,-53.5095 459.468,-56.324 453.238,-47.7541 449.254,-53.5095"/>
</g>
<!-- Node13&#45;&gt;Node7 -->
<g id="edge36" class="edge"><title>Node13&#45;&gt;Node7</title>
<path fill="none" stroke="midnightblue" d="M433.046,-53.5677C398.335,-43.381 348.323,-28.7034 317.019,-19.5164"/>
<polygon fill="midnightblue" stroke="midnightblue" points="432.264,-56.9858 442.845,-56.4435 434.235,-50.2691 432.264,-56.9858"/>
</g>
<!-- Node13&#45;&gt;Node14 -->
<g id="edge38" class="edge"><title>Node13&#45;&gt;Node14</title>
<path fill="none" stroke="midnightblue" d="M484.382,-47.8554C491.135,-38.5048 499.209,-27.3265 504.68,-19.7511"/>
<polygon fill="midnightblue" stroke="midnightblue" points="481.458,-45.927 478.44,-56.083 487.132,-50.0254 481.458,-45.927"/>
</g>
<!-- Node13&#45;&gt;Node15 -->
<g id="edge40" class="edge"><title>Node13&#45;&gt;Node15</title>
<path fill="none" stroke="midnightblue" d="M504.699,-52.9058C532.148,-42.7536 570.668,-28.5063 594.974,-19.5164"/>
<polygon fill="midnightblue" stroke="midnightblue" points="503.299,-49.6919 495.134,-56.4435 505.727,-56.2572 503.299,-49.6919"/>
</g>
</g>
</svg>
        <g id="navigator" transform="translate(0 0)" fill="#404254">
                <rect fill="#f2f5e9" fill-opacity="0.5" stroke="#606060" stroke-width=".5" x="0" y="0" width="60" height="60"/>
                <use id="zoomplus" xlink:href="#zoomPlus" x="17" y="9" onmousedown="handleZoom(evt,'in')"/>
                <use id="zoomminus" xlink:href="#zoomMin" x="42" y="9" onmousedown="handleZoom(evt,'out')"/>
                <use id="reset" xlink:href="#resetDef" x="30" y="36" onmousedown="handleReset()"/>
                <g id="arrowUp" xlink:href="#dirArrow" transform="translate(30 24)" onmousedown="handlePan(0,-1)">
                  <use xlink:href="#rim" fill="#404040">
                        <set attributeName="fill" to="#808080" begin="arrowUp.mouseover" end="arrowUp.mouseout"/>
                  </use>
                  <path fill="none" stroke="white" stroke-width="1.5" d="M0,-3.0v7 M-2.5,-0.5L0,-3.0L2.5,-0.5"/>
                </g>
                <g id="arrowRight" xlink:href="#dirArrow" transform="rotate(90) translate(36 -43)" onmousedown="handlePan(1,0)">
                  <use xlink:href="#rim" fill="#404040">
                        <set attributeName="fill" to="#808080" begin="arrowRight.mouseover" end="arrowRight.mouseout"/>
                  </use>
                  <path fill="none" stroke="white" stroke-width="1.5" d="M0,-3.0v7 M-2.5,-0.5L0,-3.0L2.5,-0.5"/>
                </g>
                <g id="arrowDown" xlink:href="#dirArrow" transform="rotate(180) translate(-30 -48)" onmousedown="handlePan(0,1)">
                  <use xlink:href="#rim" fill="#404040">
                        <set attributeName="fill" to="#808080" begin="arrowDown.mouseover" end="arrowDown.mouseout"/>
                  </use>
                  <path fill="none" stroke="white" stroke-width="1.5" d="M0,-3.0v7 M-2.5,-0.5L0,-3.0L2.5,-0.5"/>
                </g>
                <g id="arrowLeft" xlink:href="#dirArrow" transform="rotate(270) translate(-36 17)" onmousedown="handlePan(-1,0)">
                  <use xlink:href="#rim" fill="#404040">
                        <set attributeName="fill" to="#808080" begin="arrowLeft.mouseover" end="arrowLeft.mouseout"/>
                  </use>
                  <path fill="none" stroke="white" stroke-width="1.5" d="M0,-3.0v7 M-2.5,-0.5L0,-3.0L2.5,-0.5"/>
                </g>
        </g>
        <svg viewBox="0 0 15 15" width="100%" height="30px" preserveAspectRatio="xMaxYMin meet">
         <g id="arrow_out" transform="scale(0.3 0.3)">
          <a xlink:href="defines_8h__dep__incl_org.svg" target="_base">
           <rect id="button" ry="5" rx="5" y="6" x="6" height="38" width="38"
                fill="#f2f5e9" fill-opacity="0.5" stroke="#606060" stroke-width="1.0"/>
           <path id="arrow"
             d="M 11.500037,31.436501 C 11.940474,20.09759 22.043105,11.32322 32.158766,21.979434 L 37.068811,17.246167 C 37.068811,17.246167 37.088388,32 37.088388,32 L 22.160133,31.978069 C 22.160133,31.978069 26.997745,27.140456 26.997745,27.140456 C 18.528582,18.264221 13.291696,25.230495 11.500037,31.436501 z"
             style="fill:#404040;"/>
          </a>
         </g>
        </svg>
</svg>
