<?xml version="1.0" encoding="UTF-8" standalone="no"?>
<!DOCTYPE svg PUBLIC "-//W3C//DTD SVG 1.1//EN"
 "http://www.w3.org/Graphics/SVG/1.1/DTD/svg11.dtd">
<!-- Generated by graphviz version 2.28.0 (20130928.0220)
 -->
<!-- Title: src Pages: 1 -->
<svg width="240pt" height="148pt"
 viewBox="0.00 0.00 240.00 148.00" xmlns="http://www.w3.org/2000/svg" xmlns:xlink="http://www.w3.org/1999/xlink">
<g id="graph1" class="graph" transform="scale(1 1) rotate(0) translate(4 144)">
<title>src</title>
<g id="graph2" class="cluster"><title>clusterdir_68267d1309a1af8e8297ef4c3efbcdba</title>
<a xlink:href="dir_68267d1309a1af8e8297ef4c3efbcdba.html" target="_top">
<polygon fill="#eeeeff" stroke="black" points="8,-8 8,-132 224,-132 224,-8 8,-8"/>
</a>
</g>
<!-- dir_68267d1309a1af8e8297ef4c3efbcdba -->
<g id="node2" class="node"><title>dir_68267d1309a1af8e8297ef4c3efbcdba</title>
<text text-anchor="middle" x="189" y="-103.5" font-family="Helvetica,sans-Serif" font-size="10.00">src</text>
</g>
<!-- dir_e728ede32930bd5abc7e2d60b6db0211 -->
<g id="node3" class="node"><title>dir_e728ede32930bd5abc7e2d60b6db0211</title>
<a xlink:href="dir_e728ede32930bd5abc7e2d60b6db0211.html" target="_top" xlink:title="bootload">
<polygon fill="white" stroke="black" points="143.5,-124 88.5,-124 88.5,-88 143.5,-88 143.5,-124"/>
<text text-anchor="middle" x="116" y="-103.5" font-family="Helvetica,sans-Serif" font-size="10.00">bootload</text>
</a>
</g>
<!-- dir_88826aa2a10e1882b573f502bc7f4b55 -->
<g id="node4" class="node"><title>dir_88826aa2a10e1882b573f502bc7f4b55</title>
<a xlink:href="dir_88826aa2a10e1882b573f502bc7f4b55.html" target="_top" xlink:title="misc">
<polygon fill="white" stroke="black" points="106,-52 52,-52 52,-16 106,-16 106,-52"/>
<text text-anchor="middle" x="79" y="-31.5" font-family="Helvetica,sans-Serif" font-size="10.00">misc</text>
</a>
</g>
<!-- dir_e728ede32930bd5abc7e2d60b6db0211&#45;&gt;dir_88826aa2a10e1882b573f502bc7f4b55 -->
<g id="edge5" class="edge"><title>dir_e728ede32930bd5abc7e2d60b6db0211&#45;&gt;dir_88826aa2a10e1882b573f502bc7f4b55</title>
<path fill="none" stroke="black" d="M106.854,-87.6966C102.597,-79.6436 97.4442,-69.8945 92.7336,-60.9824"/>
<polygon fill="black" stroke="black" points="95.8083,-59.3097 88.0409,-52.1043 89.6197,-62.5809 95.8083,-59.3097"/>
<a xlink:href="dir_000001_000003.html" target="_top" xlink:title="11">
<text text-anchor="middle" x="99.9982" y="-58.6609" font-family="Helvetica,sans-Serif" font-size="10.00">11</text>
</a>
</g>
<!-- dir_a71443761d886d6152d96ebd3fda63af -->
<g id="node5" class="node"><title>dir_a71443761d886d6152d96ebd3fda63af</title>
<a xlink:href="dir_a71443761d886d6152d96ebd3fda63af.html" target="_top" xlink:title="os">
<polygon fill="white" stroke="black" points="70,-124 16,-124 16,-88 70,-88 70,-124"/>
<text text-anchor="middle" x="43" y="-103.5" font-family="Helvetica,sans-Serif" font-size="10.00">os</text>
</a>
</g>
<!-- dir_a71443761d886d6152d96ebd3fda63af&#45;&gt;dir_88826aa2a10e1882b573f502bc7f4b55 -->
<g id="edge3" class="edge"><title>dir_a71443761d886d6152d96ebd3fda63af&#45;&gt;dir_88826aa2a10e1882b573f502bc7f4b55</title>
<path fill="none" stroke="black" d="M51.8989,-87.6966C55.9968,-79.7284 60.9488,-70.0995 65.4927,-61.2641"/>
<polygon fill="black" stroke="black" points="68.7425,-62.598 70.2035,-52.1043 62.5174,-59.3965 68.7425,-62.598"/>
<a xlink:href="dir_000002_000003.html" target="_top" xlink:title="13">
<text text-anchor="middle" x="69.6235" y="-64.5931" font-family="Helvetica,sans-Serif" font-size="10.00">13</text>
</a>
</g>
</g>
</svg>
