<?xml version="1.0" encoding="UTF-8" standalone="no"?>
<!DOCTYPE svg PUBLIC "-//W3C//DTD SVG 1.1//EN"
 "http://www.w3.org/Graphics/SVG/1.1/DTD/svg11.dtd">
<!-- Generated by graphviz version 2.28.0 (20130928.0220)
 -->
<!-- Title: src/os Pages: 1 -->
<svg width="94pt" height="151pt"
 viewBox="0.00 0.00 94.00 151.00" xmlns="http://www.w3.org/2000/svg" xmlns:xlink="http://www.w3.org/1999/xlink">
<g id="graph1" class="graph" transform="scale(1 1) rotate(0) translate(4 147)">
<title>src/os</title>
<g id="graph2" class="cluster"><title>clusterdir_68267d1309a1af8e8297ef4c3efbcdba</title>
<a xlink:href="dir_68267d1309a1af8e8297ef4c3efbcdba.html" target="_top" xlink:title="src">
<polygon fill="#ddddee" stroke="black" points="8,-64 8,-135 78,-135 78,-64 8,-64"/>
<text text-anchor="middle" x="43" y="-123" font-family="Helvetica,sans-Serif" font-size="10.00">src</text>
</a>
</g>
<!-- dir_a71443761d886d6152d96ebd3fda63af -->
<g id="node2" class="node"><title>dir_a71443761d886d6152d96ebd3fda63af</title>
<a xlink:href="dir_a71443761d886d6152d96ebd3fda63af.html" target="_top" xlink:title="os">
<polygon fill="#eeeeff" stroke="black" points="70,-108 16,-108 16,-72 70,-72 70,-108"/>
<text text-anchor="middle" x="43" y="-87.5" font-family="Helvetica,sans-Serif" font-size="10.00">os</text>
</a>
</g>
<!-- dir_88826aa2a10e1882b573f502bc7f4b55 -->
<g id="node3" class="node"><title>dir_88826aa2a10e1882b573f502bc7f4b55</title>
<a xlink:href="dir_88826aa2a10e1882b573f502bc7f4b55.html" target="_top" xlink:title="misc">
<polygon fill="none" stroke="black" points="70,-36 16,-36 16,-0 70,-0 70,-36"/>
<text text-anchor="middle" x="43" y="-15.5" font-family="Helvetica,sans-Serif" font-size="10.00">misc</text>
</a>
</g>
<!-- dir_a71443761d886d6152d96ebd3fda63af&#45;&gt;dir_88826aa2a10e1882b573f502bc7f4b55 -->
<g id="edge3" class="edge"><title>dir_a71443761d886d6152d96ebd3fda63af&#45;&gt;dir_88826aa2a10e1882b573f502bc7f4b55</title>
<path fill="none" stroke="black" d="M43,-71.6966C43,-63.9827 43,-54.7125 43,-46.1124"/>
<polygon fill="black" stroke="black" points="46.5001,-46.1043 43,-36.1043 39.5001,-46.1044 46.5001,-46.1043"/>
<a xlink:href="dir_000002_000003.html" target="_top" xlink:title="13">
<text text-anchor="middle" x="49.3393" y="-47.199" font-family="Helvetica,sans-Serif" font-size="10.00">13</text>
</a>
</g>
</g>
</svg>
