<?xml version="1.0" encoding="UTF-8" standalone="no"?>
<!DOCTYPE svg PUBLIC "-//W3C//DTD SVG 1.1//EN"
 "http://www.w3.org/Graphics/SVG/1.1/DTD/svg11.dtd">
<!-- Generated by graphviz version 2.28.0 (20130928.0220)
 -->
<!-- Title: src/bootload Pages: 1 -->
<svg width="96pt" height="151pt"
 viewBox="0.00 0.00 96.00 151.00" xmlns="http://www.w3.org/2000/svg" xmlns:xlink="http://www.w3.org/1999/xlink">
<g id="graph1" class="graph" transform="scale(1 1) rotate(0) translate(4 147)">
<title>src/bootload</title>
<g id="graph2" class="cluster"><title>clusterdir_68267d1309a1af8e8297ef4c3efbcdba</title>
<a xlink:href="dir_68267d1309a1af8e8297ef4c3efbcdba.html" target="_top" xlink:title="src">
<polygon fill="#ddddee" stroke="black" points="8,-64 8,-135 80,-135 80,-64 8,-64"/>
<text text-anchor="middle" x="44" y="-123" font-family="Helvetica,sans-Serif" font-size="10.00">src</text>
</a>
</g>
<!-- dir_e728ede32930bd5abc7e2d60b6db0211 -->
<g id="node2" class="node"><title>dir_e728ede32930bd5abc7e2d60b6db0211</title>
<a xlink:href="dir_e728ede32930bd5abc7e2d60b6db0211.html" target="_top" xlink:title="bootload">
<polygon fill="#eeeeff" stroke="black" points="71.5,-108 16.5,-108 16.5,-72 71.5,-72 71.5,-108"/>
<text text-anchor="middle" x="44" y="-87.5" font-family="Helvetica,sans-Serif" font-size="10.00">bootload</text>
</a>
</g>
<!-- dir_88826aa2a10e1882b573f502bc7f4b55 -->
<g id="node3" class="node"><title>dir_88826aa2a10e1882b573f502bc7f4b55</title>
<a xlink:href="dir_88826aa2a10e1882b573f502bc7f4b55.html" target="_top" xlink:title="misc">
<polygon fill="none" stroke="black" points="71,-36 17,-36 17,-0 71,-0 71,-36"/>
<text text-anchor="middle" x="44" y="-15.5" font-family="Helvetica,sans-Serif" font-size="10.00">misc</text>
</a>
</g>
<!-- dir_e728ede32930bd5abc7e2d60b6db0211&#45;&gt;dir_88826aa2a10e1882b573f502bc7f4b55 -->
<g id="edge3" class="edge"><title>dir_e728ede32930bd5abc7e2d60b6db0211&#45;&gt;dir_88826aa2a10e1882b573f502bc7f4b55</title>
<path fill="none" stroke="black" d="M44,-71.6966C44,-63.9827 44,-54.7125 44,-46.1124"/>
<polygon fill="black" stroke="black" points="47.5001,-46.1043 44,-36.1043 40.5001,-46.1044 47.5001,-46.1043"/>
<a xlink:href="dir_000001_000003.html" target="_top" xlink:title="11">
<text text-anchor="middle" x="50.3393" y="-47.199" font-family="Helvetica,sans-Serif" font-size="10.00">11</text>
</a>
</g>
</g>
</svg>
