<?xml version="1.0" encoding="UTF-8" standalone="no"?>
<!DOCTYPE svg PUBLIC "-//W3C//DTD SVG 1.1//EN"
 "http://www.w3.org/Graphics/SVG/1.1/DTD/svg11.dtd">
<!-- Generated by graphviz version 2.28.0 (20130928.0220)
 -->
<!-- Title: elf_load_program Pages: 1 -->
<svg width="322pt" height="66pt"
 viewBox="0.00 0.00 322.00 66.00" xmlns="http://www.w3.org/2000/svg" xmlns:xlink="http://www.w3.org/1999/xlink">
<g id="graph1" class="graph" transform="scale(1 1) rotate(0) translate(4 62)">
<title>elf_load_program</title>
<!-- Node1 -->
<g id="node1" class="node"><title>Node1</title>
<polygon fill="#bfbfbf" stroke="black" points="0.5,-19.5 0.5,-38.5 95.5,-38.5 95.5,-19.5 0.5,-19.5"/>
<text text-anchor="middle" x="48" y="-26.5" font-family="Helvetica,sans-Serif" font-size="10.00">elf_load_program</text>
</g>
<!-- Node2 -->
<g id="node3" class="node"><title>Node2</title>
<a xlink:href="elf_8c.html#a59e612053a62a485fef60d4bea2b80e0" target="_top" xlink:title="elf_load_header">
<polygon fill="none" stroke="black" points="132,-19.5 132,-38.5 222,-38.5 222,-19.5 132,-19.5"/>
<text text-anchor="middle" x="177" y="-26.5" font-family="Helvetica,sans-Serif" font-size="10.00">elf_load_header</text>
</a>
</g>
<!-- Node1&#45;&gt;Node2 -->
<g id="edge2" class="edge"><title>Node1&#45;&gt;Node2</title>
<path fill="none" stroke="midnightblue" d="M95.569,-29C104.117,-29 113.107,-29 121.855,-29"/>
<polygon fill="midnightblue" stroke="midnightblue" points="121.971,-32.5001 131.971,-29 121.971,-25.5001 121.971,-32.5001"/>
</g>
<!-- Node3 -->
<g id="node5" class="node"><title>Node3</title>
<a xlink:href="lib_8c.html#ae6f70fe20f24c155744d711f4b953eef" target="_top" xlink:title="memcpy">
<polygon fill="none" stroke="black" points="258.5,-38.5 258.5,-57.5 313.5,-57.5 313.5,-38.5 258.5,-38.5"/>
<text text-anchor="middle" x="286" y="-45.5" font-family="Helvetica,sans-Serif" font-size="10.00">memcpy</text>
</a>
</g>
<!-- Node2&#45;&gt;Node3 -->
<g id="edge4" class="edge"><title>Node2&#45;&gt;Node3</title>
<path fill="none" stroke="midnightblue" d="M222.139,-36.8377C230.897,-38.3929 240.001,-40.0095 248.471,-41.5136"/>
<polygon fill="midnightblue" stroke="midnightblue" points="247.966,-44.9785 258.424,-43.2809 249.19,-38.0863 247.966,-44.9785"/>
</g>
<!-- Node4 -->
<g id="node7" class="node"><title>Node4</title>
<a xlink:href="lib_8c.html#a89ddf4c406cf5f89be48dd3e4af4cdc4" target="_top" xlink:title="memset">
<polygon fill="none" stroke="black" points="259.5,-0.5 259.5,-19.5 312.5,-19.5 312.5,-0.5 259.5,-0.5"/>
<text text-anchor="middle" x="286" y="-7.5" font-family="Helvetica,sans-Serif" font-size="10.00">memset</text>
</a>
</g>
<!-- Node2&#45;&gt;Node4 -->
<g id="edge6" class="edge"><title>Node2&#45;&gt;Node4</title>
<path fill="none" stroke="midnightblue" d="M222.139,-21.1623C231.242,-19.5459 240.718,-17.8632 249.468,-16.3094"/>
<polygon fill="midnightblue" stroke="midnightblue" points="250.107,-19.7508 259.341,-14.5563 248.883,-12.8586 250.107,-19.7508"/>
</g>
</g>
</svg>
