<?xml version="1.0" encoding="UTF-8" standalone="no"?>
<!DOCTYPE svg PUBLIC "-//W3C//DTD SVG 1.1//EN"
 "http://www.w3.org/Graphics/SVG/1.1/DTD/svg11.dtd">
<!-- Generated by graphviz version 2.28.0 (20130928.0220)
 -->
<!-- Title: elf_load Pages: 1 -->
<svg width="696pt" height="142pt"
 viewBox="0.00 0.00 696.00 142.00" xmlns="http://www.w3.org/2000/svg" xmlns:xlink="http://www.w3.org/1999/xlink">
<g id="graph1" class="graph" transform="scale(1 1) rotate(0) translate(4 138)">
<title>elf_load</title>
<!-- Node1 -->
<g id="node1" class="node"><title>Node1</title>
<polygon fill="#bfbfbf" stroke="black" points="0.5,-57.5 0.5,-76.5 53.5,-76.5 53.5,-57.5 0.5,-57.5"/>
<text text-anchor="middle" x="27" y="-64.5" font-family="Helvetica,sans-Serif" font-size="10.00">elf_load</text>
</g>
<!-- Node2 -->
<g id="node3" class="node"><title>Node2</title>
<a xlink:href="elf_8c.html#a6fe593c95dbcbfa1df84c139d4a0e6d6" target="_top" xlink:title="elf_check">
<polygon fill="none" stroke="black" points="108.5,-76.5 108.5,-95.5 167.5,-95.5 167.5,-76.5 108.5,-76.5"/>
<text text-anchor="middle" x="138" y="-83.5" font-family="Helvetica,sans-Serif" font-size="10.00">elf_check</text>
</a>
</g>
<!-- Node1&#45;&gt;Node2 -->
<g id="edge2" class="edge"><title>Node1&#45;&gt;Node2</title>
<path fill="none" stroke="midnightblue" d="M53.5557,-71.4547C66.8484,-73.7717 83.3773,-76.6529 98.209,-79.2383"/>
<polygon fill="midnightblue" stroke="midnightblue" points="97.6928,-82.701 108.145,-80.9703 98.895,-75.805 97.6928,-82.701"/>
</g>
<!-- Node8 -->
<g id="node15" class="node"><title>Node8</title>
<a xlink:href="elf_8c.html#ab6ee5a7e957e5a4e552dfa2fe3724c13" target="_top" xlink:title="elf_load_program">
<polygon fill="none" stroke="black" points="90.5,-38.5 90.5,-57.5 185.5,-57.5 185.5,-38.5 90.5,-38.5"/>
<text text-anchor="middle" x="138" y="-45.5" font-family="Helvetica,sans-Serif" font-size="10.00">elf_load_program</text>
</a>
</g>
<!-- Node1&#45;&gt;Node8 -->
<g id="edge14" class="edge"><title>Node1&#45;&gt;Node8</title>
<path fill="none" stroke="midnightblue" d="M53.5557,-62.5453C61.5962,-61.1438 70.8208,-59.5358 80.1376,-57.9118"/>
<polygon fill="midnightblue" stroke="midnightblue" points="80.9815,-61.3176 90.2319,-56.1522 79.7793,-54.4215 80.9815,-61.3176"/>
</g>
<!-- Node3 -->
<g id="node5" class="node"><title>Node3</title>
<a xlink:href="lib_8c.html#ad1f53852e073043deb4282575884d8fa" target="_top" xlink:title="memcmp">
<polygon fill="none" stroke="black" points="238,-114.5 238,-133.5 296,-133.5 296,-114.5 238,-114.5"/>
<text text-anchor="middle" x="267" y="-121.5" font-family="Helvetica,sans-Serif" font-size="10.00">memcmp</text>
</a>
</g>
<!-- Node2&#45;&gt;Node3 -->
<g id="edge4" class="edge"><title>Node2&#45;&gt;Node3</title>
<path fill="none" stroke="midnightblue" d="M167.501,-94.5279C185.312,-99.8573 208.466,-106.785 227.85,-112.585"/>
<polygon fill="midnightblue" stroke="midnightblue" points="227.01,-115.987 237.594,-115.501 229.017,-109.281 227.01,-115.987"/>
</g>
<!-- Node4 -->
<g id="node7" class="node"><title>Node4</title>
<a xlink:href="lib_8c.html#a44ddf1a8f6a75ff235a733ff8d90cae3" target="_top" xlink:title="puts">
<polygon fill="none" stroke="black" points="249.5,-76.5 249.5,-95.5 284.5,-95.5 284.5,-76.5 249.5,-76.5"/>
<text text-anchor="middle" x="267" y="-83.5" font-family="Helvetica,sans-Serif" font-size="10.00">puts</text>
</a>
</g>
<!-- Node2&#45;&gt;Node4 -->
<g id="edge6" class="edge"><title>Node2&#45;&gt;Node4</title>
<path fill="none" stroke="midnightblue" d="M167.501,-86C188.925,-86 218.077,-86 239.101,-86"/>
<polygon fill="midnightblue" stroke="midnightblue" points="239.27,-89.5001 249.27,-86 239.27,-82.5001 239.27,-89.5001"/>
</g>
<!-- Node5 -->
<g id="node9" class="node"><title>Node5</title>
<a xlink:href="lib_8c.html#acee36427208c7c321ab875217dca17c4" target="_top" xlink:title="putc">
<polygon fill="none" stroke="black" points="358.5,-76.5 358.5,-95.5 393.5,-95.5 393.5,-76.5 358.5,-76.5"/>
<text text-anchor="middle" x="376" y="-83.5" font-family="Helvetica,sans-Serif" font-size="10.00">putc</text>
</a>
</g>
<!-- Node4&#45;&gt;Node5 -->
<g id="edge8" class="edge"><title>Node4&#45;&gt;Node5</title>
<path fill="none" stroke="midnightblue" d="M284.719,-86C301.758,-86 328.445,-86 348.392,-86"/>
<polygon fill="midnightblue" stroke="midnightblue" points="348.399,-89.5001 358.399,-86 348.399,-82.5001 348.399,-89.5001"/>
</g>
<!-- Node6 -->
<g id="node11" class="node"><title>Node6</title>
<a xlink:href="serial_8c.html#aed0806bd3de71f20d6df8ef6f49bda31" target="_top" xlink:title="serial_send_byte">
<polygon fill="none" stroke="black" points="440.5,-76.5 440.5,-95.5 533.5,-95.5 533.5,-76.5 440.5,-76.5"/>
<text text-anchor="middle" x="487" y="-83.5" font-family="Helvetica,sans-Serif" font-size="10.00">serial_send_byte</text>
</a>
</g>
<!-- Node5&#45;&gt;Node6 -->
<g id="edge10" class="edge"><title>Node5&#45;&gt;Node6</title>
<path fill="none" stroke="midnightblue" d="M393.555,-86C403.426,-86 416.594,-86 429.891,-86"/>
<polygon fill="midnightblue" stroke="midnightblue" points="430.031,-89.5001 440.031,-86 430.031,-82.5001 430.031,-89.5001"/>
</g>
<!-- Node7 -->
<g id="node13" class="node"><title>Node7</title>
<a xlink:href="serial_8c.html#abf48ded30f8aa6fff8cb48dce0af0590" target="_top" xlink:title="serial_is_send_enable">
<polygon fill="none" stroke="black" points="570,-76.5 570,-95.5 688,-95.5 688,-76.5 570,-76.5"/>
<text text-anchor="middle" x="629" y="-83.5" font-family="Helvetica,sans-Serif" font-size="10.00">serial_is_send_enable</text>
</a>
</g>
<!-- Node6&#45;&gt;Node7 -->
<g id="edge12" class="edge"><title>Node6&#45;&gt;Node7</title>
<path fill="none" stroke="midnightblue" d="M533.841,-86C542.095,-86 550.859,-86 559.591,-86"/>
<polygon fill="midnightblue" stroke="midnightblue" points="559.793,-89.5001 569.793,-86 559.793,-82.5001 559.793,-89.5001"/>
</g>
<!-- Node9 -->
<g id="node17" class="node"><title>Node9</title>
<a xlink:href="elf_8c.html#a59e612053a62a485fef60d4bea2b80e0" target="_top" xlink:title="elf_load_header">
<polygon fill="none" stroke="black" points="222,-38.5 222,-57.5 312,-57.5 312,-38.5 222,-38.5"/>
<text text-anchor="middle" x="267" y="-45.5" font-family="Helvetica,sans-Serif" font-size="10.00">elf_load_header</text>
</a>
</g>
<!-- Node8&#45;&gt;Node9 -->
<g id="edge16" class="edge"><title>Node8&#45;&gt;Node9</title>
<path fill="none" stroke="midnightblue" d="M185.569,-48C194.117,-48 203.107,-48 211.855,-48"/>
<polygon fill="midnightblue" stroke="midnightblue" points="211.971,-51.5001 221.971,-48 211.971,-44.5001 211.971,-51.5001"/>
</g>
<!-- Node10 -->
<g id="node19" class="node"><title>Node10</title>
<a xlink:href="lib_8c.html#ae6f70fe20f24c155744d711f4b953eef" target="_top" xlink:title="memcpy">
<polygon fill="none" stroke="black" points="348.5,-38.5 348.5,-57.5 403.5,-57.5 403.5,-38.5 348.5,-38.5"/>
<text text-anchor="middle" x="376" y="-45.5" font-family="Helvetica,sans-Serif" font-size="10.00">memcpy</text>
</a>
</g>
<!-- Node9&#45;&gt;Node10 -->
<g id="edge18" class="edge"><title>Node9&#45;&gt;Node10</title>
<path fill="none" stroke="midnightblue" d="M312.139,-48C320.801,-48 329.801,-48 338.192,-48"/>
<polygon fill="midnightblue" stroke="midnightblue" points="338.424,-51.5001 348.424,-48 338.424,-44.5001 338.424,-51.5001"/>
</g>
<!-- Node11 -->
<g id="node21" class="node"><title>Node11</title>
<a xlink:href="lib_8c.html#a89ddf4c406cf5f89be48dd3e4af4cdc4" target="_top" xlink:title="memset">
<polygon fill="none" stroke="black" points="349.5,-0.5 349.5,-19.5 402.5,-19.5 402.5,-0.5 349.5,-0.5"/>
<text text-anchor="middle" x="376" y="-7.5" font-family="Helvetica,sans-Serif" font-size="10.00">memset</text>
</a>
</g>
<!-- Node9&#45;&gt;Node11 -->
<g id="edge20" class="edge"><title>Node9&#45;&gt;Node11</title>
<path fill="none" stroke="midnightblue" d="M295.001,-38.411C308.582,-33.5877 325.212,-27.6818 339.784,-22.5066"/>
<polygon fill="midnightblue" stroke="midnightblue" points="341.229,-25.7076 349.481,-19.0627 338.887,-19.1112 341.229,-25.7076"/>
</g>
</g>
</svg>
