<?xml version="1.0" encoding="UTF-8" standalone="no"?>
<!DOCTYPE svg PUBLIC "-//W3C//DTD SVG 1.1//EN"
 "http://www.w3.org/Graphics/SVG/1.1/DTD/svg11.dtd">
<!-- Generated by graphviz version 2.28.0 (20130928.0220)
 -->
<!-- Title: src/bootload/elf.c Pages: 1 -->
<svg width="232pt" height="84pt"
 viewBox="0.00 0.00 232.00 84.00" xmlns="http://www.w3.org/2000/svg" xmlns:xlink="http://www.w3.org/1999/xlink">
<g id="graph1" class="graph" transform="scale(1 1) rotate(0) translate(4 80)">
<title>src/bootload/elf.c</title>
<!-- Node1 -->
<g id="node1" class="node"><title>Node1</title>
<polygon fill="#bfbfbf" stroke="black" points="92,-56.5 92,-75.5 186,-75.5 186,-56.5 92,-56.5"/>
<text text-anchor="middle" x="139" y="-63.5" font-family="Helvetica,sans-Serif" font-size="10.00">src/bootload/elf.c</text>
</g>
<!-- Node2 -->
<g id="node3" class="node"><title>Node2</title>
<a xlink:href="defines_8h.html" target="_top" xlink:title="../misc/defines.h">
<polygon fill="none" stroke="black" points="-0.5,-0.5 -0.5,-19.5 88.5,-19.5 88.5,-0.5 -0.5,-0.5"/>
<text text-anchor="middle" x="44" y="-7.5" font-family="Helvetica,sans-Serif" font-size="10.00">../misc/defines.h</text>
</a>
</g>
<!-- Node1&#45;&gt;Node2 -->
<g id="edge2" class="edge"><title>Node1&#45;&gt;Node2</title>
<path fill="none" stroke="midnightblue" d="M123.737,-56.324C108.779,-47.8215 85.7452,-34.7288 68.2733,-24.7975"/>
<polygon fill="midnightblue" stroke="midnightblue" points="69.6488,-21.5534 59.2255,-19.6545 66.1896,-27.639 69.6488,-21.5534"/>
</g>
<!-- Node3 -->
<g id="node5" class="node"><title>Node3</title>
<a xlink:href="lib_8h.html" target="_top" xlink:title="../misc/lib.h">
<polygon fill="none" stroke="black" points="106.5,-0.5 106.5,-19.5 171.5,-19.5 171.5,-0.5 106.5,-0.5"/>
<text text-anchor="middle" x="139" y="-7.5" font-family="Helvetica,sans-Serif" font-size="10.00">../misc/lib.h</text>
</a>
</g>
<!-- Node1&#45;&gt;Node3 -->
<g id="edge4" class="edge"><title>Node1&#45;&gt;Node3</title>
<path fill="none" stroke="midnightblue" d="M139,-56.083C139,-49.0059 139,-38.8611 139,-29.9865"/>
<polygon fill="midnightblue" stroke="midnightblue" points="142.5,-29.751 139,-19.7511 135.5,-29.7511 142.5,-29.751"/>
</g>
<!-- Node4 -->
<g id="node7" class="node"><title>Node4</title>
<a xlink:href="elf_8h.html" target="_top" xlink:title="elf.h">
<polygon fill="none" stroke="black" points="189.5,-0.5 189.5,-19.5 224.5,-19.5 224.5,-0.5 189.5,-0.5"/>
<text text-anchor="middle" x="207" y="-7.5" font-family="Helvetica,sans-Serif" font-size="10.00">elf.h</text>
</a>
</g>
<!-- Node1&#45;&gt;Node4 -->
<g id="edge6" class="edge"><title>Node1&#45;&gt;Node4</title>
<path fill="none" stroke="midnightblue" d="M149.925,-56.324C160.175,-48.1849 175.721,-35.8395 188.001,-26.0874"/>
<polygon fill="midnightblue" stroke="midnightblue" points="190.221,-28.7937 195.876,-19.8339 185.868,-23.3119 190.221,-28.7937"/>
</g>
</g>
</svg>
