<?xml version="1.0" encoding="UTF-8" standalone="no"?>
<!DOCTYPE svg PUBLIC "-//W3C//DTD SVG 1.1//EN"
 "http://www.w3.org/Graphics/SVG/1.1/DTD/svg11.dtd">
<!-- Generated by graphviz version 2.28.0 (20130928.0220)
 -->
<!-- Title: elf_check Pages: 1 -->
<svg width="518pt" height="66pt"
 viewBox="0.00 0.00 518.00 66.00" xmlns="http://www.w3.org/2000/svg" xmlns:xlink="http://www.w3.org/1999/xlink">
<g id="graph1" class="graph" transform="scale(1 1) rotate(0) translate(4 62)">
<title>elf_check</title>
<!-- Node1 -->
<g id="node1" class="node"><title>Node1</title>
<polygon fill="#bfbfbf" stroke="black" points="0.5,-19.5 0.5,-38.5 59.5,-38.5 59.5,-19.5 0.5,-19.5"/>
<text text-anchor="middle" x="30" y="-26.5" font-family="Helvetica,sans-Serif" font-size="10.00">elf_check</text>
</g>
<!-- Node2 -->
<g id="node3" class="node"><title>Node2</title>
<a xlink:href="lib_8c.html#ad1f53852e073043deb4282575884d8fa" target="_top" xlink:title="memcmp">
<polygon fill="none" stroke="black" points="96,-38.5 96,-57.5 154,-57.5 154,-38.5 96,-38.5"/>
<text text-anchor="middle" x="125" y="-45.5" font-family="Helvetica,sans-Serif" font-size="10.00">memcmp</text>
</a>
</g>
<!-- Node1&#45;&gt;Node2 -->
<g id="edge2" class="edge"><title>Node1&#45;&gt;Node2</title>
<path fill="none" stroke="midnightblue" d="M59.6619,-34.8557C67.9477,-36.5484 77.1241,-38.4232 85.8891,-40.2139"/>
<polygon fill="midnightblue" stroke="midnightblue" points="85.4134,-43.6889 95.9116,-42.2615 86.8146,-36.8306 85.4134,-43.6889"/>
</g>
<!-- Node3 -->
<g id="node5" class="node"><title>Node3</title>
<a xlink:href="lib_8c.html#a44ddf1a8f6a75ff235a733ff8d90cae3" target="_top" xlink:title="puts">
<polygon fill="none" stroke="black" points="107.5,-0.5 107.5,-19.5 142.5,-19.5 142.5,-0.5 107.5,-0.5"/>
<text text-anchor="middle" x="125" y="-7.5" font-family="Helvetica,sans-Serif" font-size="10.00">puts</text>
</a>
</g>
<!-- Node1&#45;&gt;Node3 -->
<g id="edge4" class="edge"><title>Node1&#45;&gt;Node3</title>
<path fill="none" stroke="midnightblue" d="M59.6619,-23.1443C71.6752,-20.69 85.5609,-17.8532 97.3506,-15.4445"/>
<polygon fill="midnightblue" stroke="midnightblue" points="98.3778,-18.807 107.475,-13.3761 96.9765,-11.9487 98.3778,-18.807"/>
</g>
<!-- Node4 -->
<g id="node7" class="node"><title>Node4</title>
<a xlink:href="lib_8c.html#acee36427208c7c321ab875217dca17c4" target="_top" xlink:title="putc">
<polygon fill="none" stroke="black" points="190.5,-0.5 190.5,-19.5 225.5,-19.5 225.5,-0.5 190.5,-0.5"/>
<text text-anchor="middle" x="208" y="-7.5" font-family="Helvetica,sans-Serif" font-size="10.00">putc</text>
</a>
</g>
<!-- Node3&#45;&gt;Node4 -->
<g id="edge6" class="edge"><title>Node3&#45;&gt;Node4</title>
<path fill="none" stroke="midnightblue" d="M142.783,-10C153.535,-10 167.731,-10 180.04,-10"/>
<polygon fill="midnightblue" stroke="midnightblue" points="180.238,-13.5001 190.238,-10 180.238,-6.5001 180.238,-13.5001"/>
</g>
<!-- Node5 -->
<g id="node9" class="node"><title>Node5</title>
<a xlink:href="serial_8c.html#aed0806bd3de71f20d6df8ef6f49bda31" target="_top" xlink:title="serial_send_byte">
<polygon fill="none" stroke="black" points="262.5,-0.5 262.5,-19.5 355.5,-19.5 355.5,-0.5 262.5,-0.5"/>
<text text-anchor="middle" x="309" y="-7.5" font-family="Helvetica,sans-Serif" font-size="10.00">serial_send_byte</text>
</a>
</g>
<!-- Node4&#45;&gt;Node5 -->
<g id="edge8" class="edge"><title>Node4&#45;&gt;Node5</title>
<path fill="none" stroke="midnightblue" d="M225.794,-10C233.246,-10 242.487,-10 252.056,-10"/>
<polygon fill="midnightblue" stroke="midnightblue" points="252.084,-13.5001 262.084,-10 252.084,-6.5001 252.084,-13.5001"/>
</g>
<!-- Node6 -->
<g id="node11" class="node"><title>Node6</title>
<a xlink:href="serial_8c.html#abf48ded30f8aa6fff8cb48dce0af0590" target="_top" xlink:title="serial_is_send_enable">
<polygon fill="none" stroke="black" points="392,-0.5 392,-19.5 510,-19.5 510,-0.5 392,-0.5"/>
<text text-anchor="middle" x="451" y="-7.5" font-family="Helvetica,sans-Serif" font-size="10.00">serial_is_send_enable</text>
</a>
</g>
<!-- Node5&#45;&gt;Node6 -->
<g id="edge10" class="edge"><title>Node5&#45;&gt;Node6</title>
<path fill="none" stroke="midnightblue" d="M355.841,-10C364.095,-10 372.859,-10 381.591,-10"/>
<polygon fill="midnightblue" stroke="midnightblue" points="381.793,-13.5001 391.793,-10 381.793,-6.5001 381.793,-13.5001"/>
</g>
</g>
</svg>
