<?xml version="1.0" encoding="UTF-8" standalone="no"?>
<!DOCTYPE svg PUBLIC "-//W3C//DTD SVG 1.1//EN"
 "http://www.w3.org/Graphics/SVG/1.1/DTD/svg11.dtd">
<!-- Generated by graphviz version 2.28.0 (20130928.0220)
 -->
<!-- Title: src/misc/interrupt.c Pages: 1 -->
<svg width="152pt" height="140pt"
 viewBox="0.00 0.00 152.00 140.00" xmlns="http://www.w3.org/2000/svg" xmlns:xlink="http://www.w3.org/1999/xlink">
<g id="graph1" class="graph" transform="scale(1 1) rotate(0) translate(4 136)">
<title>src/misc/interrupt.c</title>
<!-- Node1 -->
<g id="node1" class="node"><title>Node1</title>
<polygon fill="#bfbfbf" stroke="black" points="-0.5,-112.5 -0.5,-131.5 98.5,-131.5 98.5,-112.5 -0.5,-112.5"/>
<text text-anchor="middle" x="49" y="-119.5" font-family="Helvetica,sans-Serif" font-size="10.00">src/misc/interrupt.c</text>
</g>
<!-- Node2 -->
<g id="node3" class="node"><title>Node2</title>
<a xlink:href="defines_8h.html" target="_top" xlink:title="defines.h">
<polygon fill="none" stroke="black" points="29.5,-0.5 29.5,-19.5 86.5,-19.5 86.5,-0.5 29.5,-0.5"/>
<text text-anchor="middle" x="58" y="-7.5" font-family="Helvetica,sans-Serif" font-size="10.00">defines.h</text>
</a>
</g>
<!-- Node1&#45;&gt;Node2 -->
<g id="edge2" class="edge"><title>Node1&#45;&gt;Node2</title>
<path fill="none" stroke="midnightblue" d="M40.7312,-112.309C30.0411,-99.9715 13.6223,-76.5893 21,-56 24.9406,-45.0027 32.857,-34.7688 40.3595,-26.8479"/>
<polygon fill="midnightblue" stroke="midnightblue" points="42.8923,-29.2659 47.5615,-19.7555 37.9806,-24.2784 42.8923,-29.2659"/>
</g>
<!-- Node3 -->
<g id="node5" class="node"><title>Node3</title>
<a xlink:href="intr_8h.html" target="_top" xlink:title="intr.h">
<polygon fill="none" stroke="black" points="30.5,-56.5 30.5,-75.5 67.5,-75.5 67.5,-56.5 30.5,-56.5"/>
<text text-anchor="middle" x="49" y="-63.5" font-family="Helvetica,sans-Serif" font-size="10.00">intr.h</text>
</a>
</g>
<!-- Node1&#45;&gt;Node3 -->
<g id="edge4" class="edge"><title>Node1&#45;&gt;Node3</title>
<path fill="none" stroke="midnightblue" d="M49,-112.083C49,-105.006 49,-94.8611 49,-85.9865"/>
<polygon fill="midnightblue" stroke="midnightblue" points="52.5001,-85.751 49,-75.7511 45.5001,-85.7511 52.5001,-85.751"/>
</g>
<!-- Node4 -->
<g id="node7" class="node"><title>Node4</title>
<a xlink:href="interrupt_8h.html" target="_top" xlink:title="interrupt.h">
<polygon fill="none" stroke="black" points="85.5,-56.5 85.5,-75.5 144.5,-75.5 144.5,-56.5 85.5,-56.5"/>
<text text-anchor="middle" x="115" y="-63.5" font-family="Helvetica,sans-Serif" font-size="10.00">interrupt.h</text>
</a>
</g>
<!-- Node1&#45;&gt;Node4 -->
<g id="edge6" class="edge"><title>Node1&#45;&gt;Node4</title>
<path fill="none" stroke="midnightblue" d="M59.604,-112.324C69.4562,-104.263 84.3509,-92.0765 96.2151,-82.3695"/>
<polygon fill="midnightblue" stroke="midnightblue" points="98.6798,-84.8752 104.203,-75.8339 94.2471,-79.4575 98.6798,-84.8752"/>
</g>
<!-- Node4&#45;&gt;Node2 -->
<g id="edge8" class="edge"><title>Node4&#45;&gt;Node2</title>
<path fill="none" stroke="midnightblue" d="M105.842,-56.324C97.4985,-48.4196 84.9676,-36.5482 74.8231,-26.9377"/>
<polygon fill="midnightblue" stroke="midnightblue" points="76.9913,-24.1705 67.3247,-19.8339 72.1771,-29.2522 76.9913,-24.1705"/>
</g>
</g>
</svg>
