<?xml version="1.0" encoding="UTF-8" standalone="no"?>
<!DOCTYPE svg PUBLIC "-//W3C//DTD SVG 1.1//EN"
 "http://www.w3.org/Graphics/SVG/1.1/DTD/svg11.dtd">
<!-- Generated by graphviz version 2.28.0 (20130928.0220)
 -->
<!-- Title: src/misc/interrupt.h Pages: 1 -->
<svg width="425pt" height="84pt"
 viewBox="0.00 0.00 425.00 84.00" xmlns="http://www.w3.org/2000/svg" xmlns:xlink="http://www.w3.org/1999/xlink">
<g id="graph1" class="graph" transform="scale(1 1) rotate(0) translate(4 80)">
<title>src/misc/interrupt.h</title>
<!-- Node1 -->
<g id="node1" class="node"><title>Node1</title>
<polygon fill="#bfbfbf" stroke="black" points="176.5,-56.5 176.5,-75.5 275.5,-75.5 275.5,-56.5 176.5,-56.5"/>
<text text-anchor="middle" x="226" y="-63.5" font-family="Helvetica,sans-Serif" font-size="10.00">src/misc/interrupt.h</text>
</g>
<!-- Node2 -->
<g id="node3" class="node"><title>Node2</title>
<a xlink:href="bootload_2main_8c.html" target="_top" xlink:title="src/bootload/main.c">
<polygon fill="none" stroke="black" points="-0.5,-0.5 -0.5,-19.5 104.5,-19.5 104.5,-0.5 -0.5,-0.5"/>
<text text-anchor="middle" x="52" y="-7.5" font-family="Helvetica,sans-Serif" font-size="10.00">src/bootload/main.c</text>
</a>
</g>
<!-- Node1&#45;&gt;Node2 -->
<g id="edge2" class="edge"><title>Node1&#45;&gt;Node2</title>
<path fill="none" stroke="midnightblue" d="M188.739,-53.4363C155.933,-43.2551 108.917,-28.664 79.4418,-19.5164"/>
<polygon fill="midnightblue" stroke="midnightblue" points="187.841,-56.8222 198.429,-56.4435 189.916,-50.1368 187.841,-56.8222"/>
</g>
<!-- Node3 -->
<g id="node5" class="node"><title>Node3</title>
<a xlink:href="interrupt_8c.html" target="_top" xlink:title="src/misc/interrupt.c">
<polygon fill="none" stroke="black" points="122.5,-0.5 122.5,-19.5 221.5,-19.5 221.5,-0.5 122.5,-0.5"/>
<text text-anchor="middle" x="172" y="-7.5" font-family="Helvetica,sans-Serif" font-size="10.00">src/misc/interrupt.c</text>
</a>
</g>
<!-- Node1&#45;&gt;Node3 -->
<g id="edge4" class="edge"><title>Node1&#45;&gt;Node3</title>
<path fill="none" stroke="midnightblue" d="M210.002,-49.0024C200.433,-39.4329 188.639,-27.6389 180.751,-19.7511"/>
<polygon fill="midnightblue" stroke="midnightblue" points="207.537,-51.4868 217.083,-56.083 212.487,-46.537 207.537,-51.4868"/>
</g>
<!-- Node4 -->
<g id="node7" class="node"><title>Node4</title>
<a xlink:href="kozos_8c.html" target="_top" xlink:title="src/os/kozos.c">
<polygon fill="none" stroke="black" points="239.5,-0.5 239.5,-19.5 322.5,-19.5 322.5,-0.5 239.5,-0.5"/>
<text text-anchor="middle" x="281" y="-7.5" font-family="Helvetica,sans-Serif" font-size="10.00">src/os/kozos.c</text>
</a>
</g>
<!-- Node1&#45;&gt;Node4 -->
<g id="edge6" class="edge"><title>Node1&#45;&gt;Node4</title>
<path fill="none" stroke="midnightblue" d="M242.294,-49.0024C252.041,-39.4329 264.053,-27.6389 272.087,-19.7511"/>
<polygon fill="midnightblue" stroke="midnightblue" points="239.766,-46.5796 235.082,-56.083 244.67,-51.5746 239.766,-46.5796"/>
</g>
<!-- Node5 -->
<g id="node9" class="node"><title>Node5</title>
<a xlink:href="os_2main_8c.html" target="_top" xlink:title="src/os/main.c">
<polygon fill="none" stroke="black" points="340.5,-0.5 340.5,-19.5 417.5,-19.5 417.5,-0.5 340.5,-0.5"/>
<text text-anchor="middle" x="379" y="-7.5" font-family="Helvetica,sans-Serif" font-size="10.00">src/os/main.c</text>
</a>
</g>
<!-- Node1&#45;&gt;Node5 -->
<g id="edge8" class="edge"><title>Node1&#45;&gt;Node5</title>
<path fill="none" stroke="midnightblue" d="M259.889,-53.0392C288.677,-42.8786 329.287,-28.5457 354.87,-19.5164"/>
<polygon fill="midnightblue" stroke="midnightblue" points="258.508,-49.8148 250.243,-56.4435 260.838,-56.4157 258.508,-49.8148"/>
</g>
</g>
</svg>
