<?xml version="1.0" encoding="UTF-8" standalone="no"?>
<!DOCTYPE svg PUBLIC "-//W3C//DTD SVG 1.1//EN"
 "http://www.w3.org/Graphics/SVG/1.1/DTD/svg11.dtd">
<!-- Generated by graphviz version 2.28.0 (20130928.0220)
 -->
<!-- Title: softvec_setintr Pages: 1 -->
<svg width="352pt" height="66pt"
 viewBox="0.00 0.00 352.00 66.00" xmlns="http://www.w3.org/2000/svg" xmlns:xlink="http://www.w3.org/1999/xlink">
<g id="graph1" class="graph" transform="scale(1 1) rotate(0) translate(4 62)">
<title>softvec_setintr</title>
<!-- Node1 -->
<g id="node1" class="node"><title>Node1</title>
<polygon fill="#bfbfbf" stroke="black" points="0,-19.5 0,-38.5 80,-38.5 80,-19.5 0,-19.5"/>
<text text-anchor="middle" x="40" y="-26.5" font-family="Helvetica,sans-Serif" font-size="10.00">softvec_setintr</text>
</g>
<!-- Node2 -->
<g id="node3" class="node"><title>Node2</title>
<a xlink:href="kozos_8c.html#a7f5d62b70099d281d35e0336463c49fc" target="_top" xlink:title="set interrupt handler ">
<polygon fill="none" stroke="black" points="127.5,-38.5 127.5,-57.5 170.5,-57.5 170.5,-38.5 127.5,-38.5"/>
<text text-anchor="middle" x="149" y="-45.5" font-family="Helvetica,sans-Serif" font-size="10.00">setintr</text>
</a>
</g>
<!-- Node1&#45;&gt;Node2 -->
<g id="edge2" class="edge"><title>Node1&#45;&gt;Node2</title>
<path fill="none" stroke="midnightblue" d="M90.15,-37.7276C103.274,-40.058 116.749,-42.4508 127.389,-44.3401"/>
<polygon fill="midnightblue" stroke="midnightblue" points="90.6932,-34.2694 80.2353,-35.967 89.4693,-41.1615 90.6932,-34.2694"/>
</g>
<!-- Node5 -->
<g id="node9" class="node"><title>Node5</title>
<a xlink:href="interrupt_8h.html#ade04dbe32efde0b18e74a5f0e8502efb" target="_top" xlink:title="softvec_init">
<polygon fill="none" stroke="black" points="116,-0.5 116,-19.5 182,-19.5 182,-0.5 116,-0.5"/>
<text text-anchor="middle" x="149" y="-7.5" font-family="Helvetica,sans-Serif" font-size="10.00">softvec_init</text>
</a>
</g>
<!-- Node1&#45;&gt;Node5 -->
<g id="edge8" class="edge"><title>Node1&#45;&gt;Node5</title>
<path fill="none" stroke="midnightblue" d="M90.2767,-20.2499C98.9353,-18.7124 107.742,-17.1485 115.783,-15.7208"/>
<polygon fill="midnightblue" stroke="midnightblue" points="89.4693,-16.8385 80.2353,-22.033 90.6932,-23.7306 89.4693,-16.8385"/>
</g>
<!-- Node3 -->
<g id="node5" class="node"><title>Node3</title>
<a xlink:href="kozos_8h.html#a7078d5505c1e0c61af51bc66e5025685" target="_top" xlink:title="ライブラリ関数 ">
<polygon fill="none" stroke="black" points="218.5,-38.5 218.5,-57.5 269.5,-57.5 269.5,-38.5 218.5,-38.5"/>
<text text-anchor="middle" x="244" y="-45.5" font-family="Helvetica,sans-Serif" font-size="10.00">kz_start</text>
</a>
</g>
<!-- Node2&#45;&gt;Node3 -->
<g id="edge4" class="edge"><title>Node2&#45;&gt;Node3</title>
<path fill="none" stroke="midnightblue" d="M180.861,-48C193.084,-48 206.939,-48 218.459,-48"/>
<polygon fill="midnightblue" stroke="midnightblue" points="180.64,-44.5001 170.64,-48 180.64,-51.5001 180.64,-44.5001"/>
</g>
<!-- Node4 -->
<g id="node7" class="node"><title>Node4</title>
<a xlink:href="os_2main_8c.html#a840291bc02cba5474a4cb46a9b9566fe" target="_top" xlink:title="main">
<polygon fill="none" stroke="black" points="306,-38.5 306,-57.5 344,-57.5 344,-38.5 306,-38.5"/>
<text text-anchor="middle" x="325" y="-45.5" font-family="Helvetica,sans-Serif" font-size="10.00">main</text>
</a>
</g>
<!-- Node3&#45;&gt;Node4 -->
<g id="edge6" class="edge"><title>Node3&#45;&gt;Node4</title>
<path fill="none" stroke="midnightblue" d="M279.584,-48C288.686,-48 298.142,-48 305.978,-48"/>
<polygon fill="midnightblue" stroke="midnightblue" points="279.563,-44.5001 269.563,-48 279.563,-51.5001 279.563,-44.5001"/>
</g>
</g>
</svg>
