<?xml version="1.0" encoding="UTF-8" standalone="no"?>
<!DOCTYPE svg PUBLIC "-//W3C//DTD SVG 1.1//EN"
 "http://www.w3.org/Graphics/SVG/1.1/DTD/svg11.dtd">
<!-- Generated by graphviz version 2.28.0 (20130928.0220)
 -->
<!-- Title: src/misc/intr.h Pages: 1 -->
<svg width="324pt" height="84pt"
 viewBox="0.00 0.00 324.00 84.00" xmlns="http://www.w3.org/2000/svg" xmlns:xlink="http://www.w3.org/1999/xlink">
<g id="graph1" class="graph" transform="scale(1 1) rotate(0) translate(4 80)">
<title>src/misc/intr.h</title>
<!-- Node1 -->
<g id="node1" class="node"><title>Node1</title>
<polygon fill="#bfbfbf" stroke="black" points="127.5,-56.5 127.5,-75.5 204.5,-75.5 204.5,-56.5 127.5,-56.5"/>
<text text-anchor="middle" x="166" y="-63.5" font-family="Helvetica,sans-Serif" font-size="10.00">src/misc/intr.h</text>
</g>
<!-- Node2 -->
<g id="node3" class="node"><title>Node2</title>
<a xlink:href="intr_8S.html" target="_top" xlink:title="src/bootload/intr.S">
<polygon fill="none" stroke="black" points="0,-0.5 0,-19.5 98,-19.5 98,-0.5 0,-0.5"/>
<text text-anchor="middle" x="49" y="-7.5" font-family="Helvetica,sans-Serif" font-size="10.00">src/bootload/intr.S</text>
</a>
</g>
<!-- Node1&#45;&gt;Node2 -->
<g id="edge2" class="edge"><title>Node1&#45;&gt;Node2</title>
<path fill="none" stroke="midnightblue" d="M138.336,-52.2321C116.451,-42.1312 86.5032,-28.3091 67.4523,-19.5164"/>
<polygon fill="midnightblue" stroke="midnightblue" points="136.915,-55.4308 147.461,-56.4435 139.848,-49.075 136.915,-55.4308"/>
</g>
<!-- Node3 -->
<g id="node5" class="node"><title>Node3</title>
<a xlink:href="interrupt_8c.html" target="_top" xlink:title="src/misc/interrupt.c">
<polygon fill="none" stroke="black" points="116.5,-0.5 116.5,-19.5 215.5,-19.5 215.5,-0.5 116.5,-0.5"/>
<text text-anchor="middle" x="166" y="-7.5" font-family="Helvetica,sans-Serif" font-size="10.00">src/misc/interrupt.c</text>
</a>
</g>
<!-- Node1&#45;&gt;Node3 -->
<g id="edge4" class="edge"><title>Node1&#45;&gt;Node3</title>
<path fill="none" stroke="midnightblue" d="M166,-45.8045C166,-36.9102 166,-26.7798 166,-19.7511"/>
<polygon fill="midnightblue" stroke="midnightblue" points="162.5,-46.083 166,-56.083 169.5,-46.083 162.5,-46.083"/>
</g>
<!-- Node4 -->
<g id="node7" class="node"><title>Node4</title>
<a xlink:href="kozos_8c.html" target="_top" xlink:title="src/os/kozos.c">
<polygon fill="none" stroke="black" points="233.5,-0.5 233.5,-19.5 316.5,-19.5 316.5,-0.5 233.5,-0.5"/>
<text text-anchor="middle" x="275" y="-7.5" font-family="Helvetica,sans-Serif" font-size="10.00">src/os/kozos.c</text>
</a>
</g>
<!-- Node1&#45;&gt;Node4 -->
<g id="edge6" class="edge"><title>Node1&#45;&gt;Node4</title>
<path fill="none" stroke="midnightblue" d="M192.519,-51.8622C212.73,-41.8492 239.987,-28.3458 257.531,-19.6545"/>
<polygon fill="midnightblue" stroke="midnightblue" points="190.92,-48.7485 183.513,-56.324 194.027,-55.0209 190.92,-48.7485"/>
</g>
</g>
</svg>
