<?xml version="1.0" encoding="UTF-8" standalone="no"?>
<!DOCTYPE svg PUBLIC "-//W3C//DTD SVG 1.1//EN"
 "http://www.w3.org/Graphics/SVG/1.1/DTD/svg11.dtd">
<!-- Generated by graphviz version 2.28.0 (20130928.0220)
 -->
<!-- Title: src/os/kozos.h Pages: 1 -->
<svg width="400pt" height="84pt"
 viewBox="0.00 0.00 400.00 84.00" xmlns="http://www.w3.org/2000/svg" xmlns:xlink="http://www.w3.org/1999/xlink">
<g id="graph1" class="graph" transform="scale(1 1) rotate(0) translate(4 80)">
<title>src/os/kozos.h</title>
<!-- Node1 -->
<g id="node1" class="node"><title>Node1</title>
<polygon fill="#bfbfbf" stroke="black" points="147.5,-56.5 147.5,-75.5 230.5,-75.5 230.5,-56.5 147.5,-56.5"/>
<text text-anchor="middle" x="189" y="-63.5" font-family="Helvetica,sans-Serif" font-size="10.00">src/os/kozos.h</text>
</g>
<!-- Node2 -->
<g id="node3" class="node"><title>Node2</title>
<a xlink:href="kozos_8c.html" target="_top" xlink:title="src/os/kozos.c">
<polygon fill="none" stroke="black" points="-0.5,-0.5 -0.5,-19.5 82.5,-19.5 82.5,-0.5 -0.5,-0.5"/>
<text text-anchor="middle" x="41" y="-7.5" font-family="Helvetica,sans-Serif" font-size="10.00">src/os/kozos.c</text>
</a>
</g>
<!-- Node1&#45;&gt;Node2 -->
<g id="edge2" class="edge"><title>Node1&#45;&gt;Node2</title>
<path fill="none" stroke="midnightblue" d="M155.853,-52.9058C128.028,-42.7536 88.9802,-28.5063 64.3413,-19.5164"/>
<polygon fill="midnightblue" stroke="midnightblue" points="154.955,-56.3038 165.549,-56.4435 157.354,-49.7279 154.955,-56.3038"/>
</g>
<!-- Node3 -->
<g id="node5" class="node"><title>Node3</title>
<a xlink:href="os_2main_8c.html" target="_top" xlink:title="src/os/main.c">
<polygon fill="none" stroke="black" points="100.5,-0.5 100.5,-19.5 177.5,-19.5 177.5,-0.5 100.5,-0.5"/>
<text text-anchor="middle" x="139" y="-7.5" font-family="Helvetica,sans-Serif" font-size="10.00">src/os/main.c</text>
</a>
</g>
<!-- Node1&#45;&gt;Node3 -->
<g id="edge4" class="edge"><title>Node1&#45;&gt;Node3</title>
<path fill="none" stroke="midnightblue" d="M173.924,-48.7175C165.111,-39.1997 154.334,-27.5608 147.103,-19.7511"/>
<polygon fill="midnightblue" stroke="midnightblue" points="171.381,-51.1233 180.744,-56.083 176.518,-46.3674 171.381,-51.1233"/>
</g>
<!-- Node4 -->
<g id="node7" class="node"><title>Node4</title>
<a xlink:href="syscall_8c.html" target="_top" xlink:title="src/os/syscall.c">
<polygon fill="none" stroke="black" points="196,-0.5 196,-19.5 282,-19.5 282,-0.5 196,-0.5"/>
<text text-anchor="middle" x="239" y="-7.5" font-family="Helvetica,sans-Serif" font-size="10.00">src/os/syscall.c</text>
</a>
</g>
<!-- Node1&#45;&gt;Node4 -->
<g id="edge6" class="edge"><title>Node1&#45;&gt;Node4</title>
<path fill="none" stroke="midnightblue" d="M204.076,-48.7175C212.889,-39.1997 223.666,-27.5608 230.897,-19.7511"/>
<polygon fill="midnightblue" stroke="midnightblue" points="201.482,-46.3674 197.256,-56.083 206.619,-51.1233 201.482,-46.3674"/>
</g>
<!-- Node5 -->
<g id="node9" class="node"><title>Node5</title>
<a xlink:href="test08__1_8c.html" target="_top" xlink:title="src/os/test08_1.c">
<polygon fill="none" stroke="black" points="300,-0.5 300,-19.5 392,-19.5 392,-0.5 300,-0.5"/>
<text text-anchor="middle" x="346" y="-7.5" font-family="Helvetica,sans-Serif" font-size="10.00">src/os/test08_1.c</text>
</a>
</g>
<!-- Node1&#45;&gt;Node5 -->
<g id="edge8" class="edge"><title>Node1&#45;&gt;Node5</title>
<path fill="none" stroke="midnightblue" d="M223.389,-53.172C252.952,-43.0039 294.873,-28.5852 321.239,-19.5164"/>
<polygon fill="midnightblue" stroke="midnightblue" points="222.195,-49.8813 213.877,-56.4435 224.472,-56.5007 222.195,-49.8813"/>
</g>
</g>
</svg>
