<?xml version="1.0" encoding="UTF-8" standalone="no"?>
<!DOCTYPE svg PUBLIC "-//W3C//DTD SVG 1.1//EN"
 "http://www.w3.org/Graphics/SVG/1.1/DTD/svg11.dtd">
<!-- Generated by graphviz version 2.28.0 (20130928.0220)
 -->
<!-- Title: src/os/kozos.c Pages: 1 -->
<svg width="505pt" height="196pt"
 viewBox="0.00 0.00 505.00 196.00" xmlns="http://www.w3.org/2000/svg" xmlns:xlink="http://www.w3.org/1999/xlink">
<g id="graph1" class="graph" transform="scale(1 1) rotate(0) translate(4 192)">
<title>src/os/kozos.c</title>
<!-- Node1 -->
<g id="node1" class="node"><title>Node1</title>
<polygon fill="#bfbfbf" stroke="black" points="253.5,-168.5 253.5,-187.5 336.5,-187.5 336.5,-168.5 253.5,-168.5"/>
<text text-anchor="middle" x="295" y="-175.5" font-family="Helvetica,sans-Serif" font-size="10.00">src/os/kozos.c</text>
</g>
<!-- Node2 -->
<g id="node3" class="node"><title>Node2</title>
<a xlink:href="misra2012deviation_8h.html" target="_top" xlink:title="../misc/misra2012deviation.h">
<polygon fill="none" stroke="black" points="-0.5,-112.5 -0.5,-131.5 142.5,-131.5 142.5,-112.5 -0.5,-112.5"/>
<text text-anchor="middle" x="71" y="-119.5" font-family="Helvetica,sans-Serif" font-size="10.00">../misc/misra2012deviation.h</text>
</a>
</g>
<!-- Node1&#45;&gt;Node2 -->
<g id="edge2" class="edge"><title>Node1&#45;&gt;Node2</title>
<path fill="none" stroke="midnightblue" d="M259.507,-168.444C220.676,-159.083 158.344,-144.056 116.082,-133.868"/>
<polygon fill="midnightblue" stroke="midnightblue" points="116.869,-130.458 106.327,-131.516 115.229,-137.263 116.869,-130.458"/>
</g>
<!-- Node3 -->
<g id="node5" class="node"><title>Node3</title>
<a xlink:href="defines_8h.html" target="_top" xlink:title="../misc/defines.h">
<polygon fill="none" stroke="black" points="317.5,-0.5 317.5,-19.5 406.5,-19.5 406.5,-0.5 317.5,-0.5"/>
<text text-anchor="middle" x="362" y="-7.5" font-family="Helvetica,sans-Serif" font-size="10.00">../misc/defines.h</text>
</a>
</g>
<!-- Node1&#45;&gt;Node3 -->
<g id="edge4" class="edge"><title>Node1&#45;&gt;Node3</title>
<path fill="none" stroke="midnightblue" d="M253.408,-168.998C218.372,-160.001 176.018,-142.501 190,-112 212.691,-62.499 272.405,-35.7021 315.095,-22.3943"/>
<polygon fill="midnightblue" stroke="midnightblue" points="316.15,-25.7324 324.736,-19.5257 314.153,-19.0231 316.15,-25.7324"/>
</g>
<!-- Node4 -->
<g id="node7" class="node"><title>Node4</title>
<a xlink:href="intr_8h.html" target="_top" xlink:title="../misc/intr.h">
<polygon fill="none" stroke="black" points="199,-112.5 199,-131.5 267,-131.5 267,-112.5 199,-112.5"/>
<text text-anchor="middle" x="233" y="-119.5" font-family="Helvetica,sans-Serif" font-size="10.00">../misc/intr.h</text>
</a>
</g>
<!-- Node1&#45;&gt;Node4 -->
<g id="edge6" class="edge"><title>Node1&#45;&gt;Node4</title>
<path fill="none" stroke="midnightblue" d="M285.039,-168.324C275.873,-160.341 262.063,-148.313 250.972,-138.653"/>
<polygon fill="midnightblue" stroke="midnightblue" points="252.982,-135.762 243.143,-131.834 248.385,-141.041 252.982,-135.762"/>
</g>
<!-- Node5 -->
<g id="node9" class="node"><title>Node5</title>
<a xlink:href="interrupt_8h.html" target="_top" xlink:title="../misc/interrupt.h">
<polygon fill="none" stroke="black" points="264,-56.5 264,-75.5 354,-75.5 354,-56.5 264,-56.5"/>
<text text-anchor="middle" x="309" y="-63.5" font-family="Helvetica,sans-Serif" font-size="10.00">../misc/interrupt.h</text>
</a>
</g>
<!-- Node1&#45;&gt;Node5 -->
<g id="edge8" class="edge"><title>Node1&#45;&gt;Node5</title>
<path fill="none" stroke="midnightblue" d="M296.099,-168.368C298.358,-150.617 303.57,-109.666 306.633,-85.5974"/>
<polygon fill="midnightblue" stroke="midnightblue" points="310.116,-85.9533 307.907,-75.5914 303.172,-85.0695 310.116,-85.9533"/>
</g>
<!-- Node6 -->
<g id="node12" class="node"><title>Node6</title>
<a xlink:href="lib_8h.html" target="_top" xlink:title="../misc/lib.h">
<polygon fill="none" stroke="black" points="323.5,-112.5 323.5,-131.5 388.5,-131.5 388.5,-112.5 323.5,-112.5"/>
<text text-anchor="middle" x="356" y="-119.5" font-family="Helvetica,sans-Serif" font-size="10.00">../misc/lib.h</text>
</a>
</g>
<!-- Node1&#45;&gt;Node6 -->
<g id="edge12" class="edge"><title>Node1&#45;&gt;Node6</title>
<path fill="none" stroke="midnightblue" d="M304.801,-168.324C313.818,-160.341 327.406,-148.313 338.318,-138.653"/>
<polygon fill="midnightblue" stroke="midnightblue" points="340.853,-141.083 346.021,-131.834 336.213,-135.842 340.853,-141.083"/>
</g>
<!-- Node7 -->
<g id="node14" class="node"><title>Node7</title>
<a xlink:href="syscall_8h.html" target="_top" xlink:title="syscall.h">
<polygon fill="none" stroke="black" points="387,-56.5 387,-75.5 443,-75.5 443,-56.5 387,-56.5"/>
<text text-anchor="middle" x="415" y="-63.5" font-family="Helvetica,sans-Serif" font-size="10.00">syscall.h</text>
</a>
</g>
<!-- Node1&#45;&gt;Node7 -->
<g id="edge14" class="edge"><title>Node1&#45;&gt;Node7</title>
<path fill="none" stroke="midnightblue" d="M334.101,-168.481C355.499,-161.906 380.863,-150.671 397,-132 408.117,-119.138 412.414,-99.9578 414.051,-85.7633"/>
<polygon fill="midnightblue" stroke="midnightblue" points="417.55,-85.9154 414.873,-75.6644 410.573,-85.3474 417.55,-85.9154"/>
</g>
<!-- Node8 -->
<g id="node17" class="node"><title>Node8</title>
<a xlink:href="kozos_8h.html" target="_top" xlink:title="kozos.h">
<polygon fill="none" stroke="black" points="445,-112.5 445,-131.5 497,-131.5 497,-112.5 445,-112.5"/>
<text text-anchor="middle" x="471" y="-119.5" font-family="Helvetica,sans-Serif" font-size="10.00">kozos.h</text>
</a>
</g>
<!-- Node1&#45;&gt;Node8 -->
<g id="edge18" class="edge"><title>Node1&#45;&gt;Node8</title>
<path fill="none" stroke="midnightblue" d="M322.888,-168.444C353.281,-159.118 401.999,-144.171 435.197,-133.985"/>
<polygon fill="midnightblue" stroke="midnightblue" points="436.431,-137.268 444.964,-130.988 434.377,-130.576 436.431,-137.268"/>
</g>
<!-- Node5&#45;&gt;Node3 -->
<g id="edge10" class="edge"><title>Node5&#45;&gt;Node3</title>
<path fill="none" stroke="midnightblue" d="M317.752,-56.083C325.47,-48.2195 336.905,-36.5688 346.217,-27.0813"/>
<polygon fill="midnightblue" stroke="midnightblue" points="348.904,-29.3396 353.411,-19.7511 343.908,-24.4363 348.904,-29.3396"/>
</g>
<!-- Node7&#45;&gt;Node3 -->
<g id="edge16" class="edge"><title>Node7&#45;&gt;Node3</title>
<path fill="none" stroke="midnightblue" d="M406.248,-56.083C398.53,-48.2195 387.095,-36.5688 377.783,-27.0813"/>
<polygon fill="midnightblue" stroke="midnightblue" points="380.092,-24.4363 370.589,-19.7511 375.096,-29.3396 380.092,-24.4363"/>
</g>
<!-- Node8&#45;&gt;Node3 -->
<g id="edge20" class="edge"><title>Node8&#45;&gt;Node3</title>
<path fill="none" stroke="midnightblue" d="M470.467,-112.408C469.21,-98.9209 465.005,-72.6077 451,-56 438.192,-40.8116 418.984,-30.1979 401.687,-23.1094"/>
<polygon fill="midnightblue" stroke="midnightblue" points="402.918,-19.8328 392.327,-19.5274 400.416,-26.3704 402.918,-19.8328"/>
</g>
<!-- Node8&#45;&gt;Node7 -->
<g id="edge22" class="edge"><title>Node8&#45;&gt;Node7</title>
<path fill="none" stroke="midnightblue" d="M462.003,-112.324C453.806,-104.42 441.494,-92.5482 431.528,-82.9377"/>
<polygon fill="midnightblue" stroke="midnightblue" points="433.789,-80.2558 424.161,-75.8339 428.93,-85.2947 433.789,-80.2558"/>
</g>
</g>
</svg>
