<?xml version="1.0" encoding="UTF-8" standalone="no"?>
<!DOCTYPE svg PUBLIC "-//W3C//DTD SVG 1.1//EN"
 "http://www.w3.org/Graphics/SVG/1.1/DTD/svg11.dtd">
<!-- Generated by graphviz version 2.28.0 (20130928.0220)
 -->
<!-- Title: setintr Pages: 1 -->
<!--zoomable 85 -->
<svg id="main" version="1.1" xmlns="http://www.w3.org/2000/svg" xmlns:xlink="http://www.w3.org/1999/xlink" xml:space="preserve" onload="init(evt)">
<style type="text/css"><![CDATA[
.edge:hover path { stroke: red; }
.edge:hover polygon { stroke: red; fill: red; }
]]></style>
<script type="text/javascript"><![CDATA[
var edges = document.getElementsByTagName('g');
if (edges && edges.length) {
  for (var i=0;i<edges.length;i++) {
    if (edges[i].id.substr(0,4)=='edge') {
      edges[i].setAttribute('class','edge');
    }
  }
}
]]></script>
        <defs>
                <circle id="rim" cx="0" cy="0" r="7"/>
                <circle id="rim2" cx="0" cy="0" r="3.5"/>
                <g id="zoomPlus">
                        <use xlink:href="#rim" fill="#404040">
                                <set attributeName="fill" to="#808080" begin="zoomplus.mouseover" end="zoomplus.mouseout"/>
                        </use>
                        <path d="M-4,0h8M0,-4v8" fill="none" stroke="white" stroke-width="1.5" pointer-events="none"/>
                </g>
                <g id="zoomMin">
                        <use xlink:href="#rim" fill="#404040">
                                <set attributeName="fill" to="#808080" begin="zoomminus.mouseover" end="zoomminus.mouseout"/>
                        </use>
                        <path d="M-4,0h8" fill="none" stroke="white" stroke-width="1.5" pointer-events="none"/>
                </g>
                <g id="dirArrow">
                        <path fill="none" stroke="white" stroke-width="1.5" d="M0,-3.0v7 M-2.5,-0.5L0,-3.0L2.5,-0.5"/>
                </g>
               <g id="resetDef">
                       <use xlink:href="#rim2" fill="#404040">
                               <set attributeName="fill" to="#808080" begin="reset.mouseover" end="reset.mouseout"/>
                       </use>
               </g>
        </defs>

<script type="text/javascript">
var viewWidth = 800;
var viewHeight = 85;
var sectionId = 'dynsection-16';
</script>
<script xlink:href="svgpan.js"/>
<svg id="graph" class="graph">
<g id="viewport">
<title>setintr</title>
<!-- Node1 -->
<g id="node1" class="node"><title>Node1</title>
<polygon fill="#bfbfbf" stroke="black" points="0.5,-38.5 0.5,-57.5 43.5,-57.5 43.5,-38.5 0.5,-38.5"/>
<text text-anchor="middle" x="22" y="-45.5" font-family="Helvetica,sans-Serif" font-size="10.00">setintr</text>
</g>
<!-- Node2 -->
<g id="node3" class="node"><title>Node2</title>
<a xlink:href="interrupt_8c.html#a77d3bbf145b56c7a6bc2706b44b71d68" target="_top" xlink:title="softvec_setintr">
<polygon fill="none" stroke="black" points="80,-57.5 80,-76.5 160,-76.5 160,-57.5 80,-57.5"/>
<text text-anchor="middle" x="120" y="-64.5" font-family="Helvetica,sans-Serif" font-size="10.00">softvec_setintr</text>
</a>
</g>
<!-- Node1&#45;&gt;Node2 -->
<g id="edge2" class="edge"><title>Node1&#45;&gt;Node2</title>
<path fill="none" stroke="midnightblue" d="M43.8306,-52.1227C51.5251,-53.6456 60.6084,-55.4433 69.7522,-57.253"/>
<polygon fill="midnightblue" stroke="midnightblue" points="69.1457,-60.7008 79.635,-59.209 70.5048,-53.834 69.1457,-60.7008"/>
</g>
<!-- Node3 -->
<g id="node5" class="node"><title>Node3</title>
<a xlink:href="kozos_8c.html#a064de18830e60998f8be0d67a0f2aabf" target="_top" xlink:title="thread_intr">
<polygon fill="none" stroke="black" points="88.5,-19.5 88.5,-38.5 151.5,-38.5 151.5,-19.5 88.5,-19.5"/>
<text text-anchor="middle" x="120" y="-26.5" font-family="Helvetica,sans-Serif" font-size="10.00">thread_intr</text>
</a>
</g>
<!-- Node1&#45;&gt;Node3 -->
<g id="edge4" class="edge"><title>Node1&#45;&gt;Node3</title>
<path fill="none" stroke="midnightblue" d="M43.8306,-43.8773C53.998,-41.865 66.5904,-39.3727 78.5429,-37.0071"/>
<polygon fill="midnightblue" stroke="midnightblue" points="79.235,-40.4381 88.3652,-35.0631 77.8759,-33.5713 79.235,-40.4381"/>
</g>
<!-- Node4 -->
<g id="node7" class="node"><title>Node4</title>
<a xlink:href="kozos_8c.html#a63e3ec45b7bf0028e55f2b9ab1603306" target="_top" xlink:title="schedule">
<polygon fill="none" stroke="black" points="196,-38.5 196,-57.5 254,-57.5 254,-38.5 196,-38.5"/>
<text text-anchor="middle" x="225" y="-45.5" font-family="Helvetica,sans-Serif" font-size="10.00">schedule</text>
</a>
</g>
<!-- Node3&#45;&gt;Node4 -->
<g id="edge6" class="edge"><title>Node3&#45;&gt;Node4</title>
<path fill="none" stroke="midnightblue" d="M151.625,-34.6492C162.339,-36.6257 174.505,-38.8699 185.764,-40.9467"/>
<polygon fill="midnightblue" stroke="midnightblue" points="185.311,-44.4222 195.78,-42.7944 186.581,-37.5384 185.311,-44.4222"/>
</g>
<!-- Node10 -->
<g id="node19" class="node"><title>Node10</title>
<a xlink:href="kozos_8c.html#a22e9c35c1764d5ebe1d534d207f114b1" target="_top" xlink:title="dispatch">
<polygon fill="none" stroke="black" points="198,-0.5 198,-19.5 252,-19.5 252,-0.5 198,-0.5"/>
<text text-anchor="middle" x="225" y="-7.5" font-family="Helvetica,sans-Serif" font-size="10.00">dispatch</text>
</a>
</g>
<!-- Node3&#45;&gt;Node10 -->
<g id="edge18" class="edge"><title>Node3&#45;&gt;Node10</title>
<path fill="none" stroke="midnightblue" d="M151.625,-23.3508C162.999,-21.2526 176.009,-18.8527 187.832,-16.6717"/>
<polygon fill="midnightblue" stroke="midnightblue" points="188.647,-20.0805 197.846,-14.8244 187.377,-13.1966 188.647,-20.0805"/>
</g>
<!-- Node5 -->
<g id="node9" class="node"><title>Node5</title>
<a xlink:href="kozos_8c.html#ad271cfae989a014d777a1f46903d6964" target="_top" xlink:title="kz_sysdown">
<polygon fill="none" stroke="black" points="290.5,-38.5 290.5,-57.5 363.5,-57.5 363.5,-38.5 290.5,-38.5"/>
<text text-anchor="middle" x="327" y="-45.5" font-family="Helvetica,sans-Serif" font-size="10.00">kz_sysdown</text>
</a>
</g>
<!-- Node4&#45;&gt;Node5 -->
<g id="edge8" class="edge"><title>Node4&#45;&gt;Node5</title>
<path fill="none" stroke="midnightblue" d="M254.122,-48C262.177,-48 271.176,-48 280.007,-48"/>
<polygon fill="midnightblue" stroke="midnightblue" points="280.23,-51.5001 290.23,-48 280.23,-44.5001 280.23,-51.5001"/>
</g>
<!-- Node6 -->
<g id="node11" class="node"><title>Node6</title>
<a xlink:href="lib_8c.html#a44ddf1a8f6a75ff235a733ff8d90cae3" target="_top" xlink:title="puts">
<polygon fill="none" stroke="black" points="400.5,-38.5 400.5,-57.5 435.5,-57.5 435.5,-38.5 400.5,-38.5"/>
<text text-anchor="middle" x="418" y="-45.5" font-family="Helvetica,sans-Serif" font-size="10.00">puts</text>
</a>
</g>
<!-- Node5&#45;&gt;Node6 -->
<g id="edge10" class="edge"><title>Node5&#45;&gt;Node6</title>
<path fill="none" stroke="midnightblue" d="M363.687,-48C372.43,-48 381.645,-48 389.909,-48"/>
<polygon fill="midnightblue" stroke="midnightblue" points="390.106,-51.5001 400.106,-48 390.106,-44.5001 390.106,-51.5001"/>
</g>
<!-- Node7 -->
<g id="node13" class="node"><title>Node7</title>
<a xlink:href="lib_8c.html#acee36427208c7c321ab875217dca17c4" target="_top" xlink:title="putc">
<polygon fill="none" stroke="black" points="472.5,-38.5 472.5,-57.5 507.5,-57.5 507.5,-38.5 472.5,-38.5"/>
<text text-anchor="middle" x="490" y="-45.5" font-family="Helvetica,sans-Serif" font-size="10.00">putc</text>
</a>
</g>
<!-- Node6&#45;&gt;Node7 -->
<g id="edge12" class="edge"><title>Node6&#45;&gt;Node7</title>
<path fill="none" stroke="midnightblue" d="M435.589,-48C443.407,-48 452.939,-48 461.774,-48"/>
<polygon fill="midnightblue" stroke="midnightblue" points="462.044,-51.5001 472.044,-48 462.044,-44.5001 462.044,-51.5001"/>
</g>
<!-- Node8 -->
<g id="node15" class="node"><title>Node8</title>
<a xlink:href="serial_8c.html#aed0806bd3de71f20d6df8ef6f49bda31" target="_top" xlink:title="serial_send_byte">
<polygon fill="none" stroke="black" points="544.5,-38.5 544.5,-57.5 637.5,-57.5 637.5,-38.5 544.5,-38.5"/>
<text text-anchor="middle" x="591" y="-45.5" font-family="Helvetica,sans-Serif" font-size="10.00">serial_send_byte</text>
</a>
</g>
<!-- Node7&#45;&gt;Node8 -->
<g id="edge14" class="edge"><title>Node7&#45;&gt;Node8</title>
<path fill="none" stroke="midnightblue" d="M507.794,-48C515.246,-48 524.487,-48 534.056,-48"/>
<polygon fill="midnightblue" stroke="midnightblue" points="534.084,-51.5001 544.084,-48 534.084,-44.5001 534.084,-51.5001"/>
</g>
<!-- Node9 -->
<g id="node17" class="node"><title>Node9</title>
<a xlink:href="serial_8c.html#abf48ded30f8aa6fff8cb48dce0af0590" target="_top" xlink:title="serial_is_send_enable">
<polygon fill="none" stroke="black" points="674,-38.5 674,-57.5 792,-57.5 792,-38.5 674,-38.5"/>
<text text-anchor="middle" x="733" y="-45.5" font-family="Helvetica,sans-Serif" font-size="10.00">serial_is_send_enable</text>
</a>
</g>
<!-- Node8&#45;&gt;Node9 -->
<g id="edge16" class="edge"><title>Node8&#45;&gt;Node9</title>
<path fill="none" stroke="midnightblue" d="M637.841,-48C646.095,-48 654.859,-48 663.591,-48"/>
<polygon fill="midnightblue" stroke="midnightblue" points="663.793,-51.5001 673.793,-48 663.793,-44.5001 663.793,-51.5001"/>
</g>
</g>
</svg>
        <g id="navigator" transform="translate(0 0)" fill="#404254">
                <rect fill="#f2f5e9" fill-opacity="0.5" stroke="#606060" stroke-width=".5" x="0" y="0" width="60" height="60"/>
                <use id="zoomplus" xlink:href="#zoomPlus" x="17" y="9" onmousedown="handleZoom(evt,'in')"/>
                <use id="zoomminus" xlink:href="#zoomMin" x="42" y="9" onmousedown="handleZoom(evt,'out')"/>
                <use id="reset" xlink:href="#resetDef" x="30" y="36" onmousedown="handleReset()"/>
                <g id="arrowUp" xlink:href="#dirArrow" transform="translate(30 24)" onmousedown="handlePan(0,-1)">
                  <use xlink:href="#rim" fill="#404040">
                        <set attributeName="fill" to="#808080" begin="arrowUp.mouseover" end="arrowUp.mouseout"/>
                  </use>
                  <path fill="none" stroke="white" stroke-width="1.5" d="M0,-3.0v7 M-2.5,-0.5L0,-3.0L2.5,-0.5"/>
                </g>
                <g id="arrowRight" xlink:href="#dirArrow" transform="rotate(90) translate(36 -43)" onmousedown="handlePan(1,0)">
                  <use xlink:href="#rim" fill="#404040">
                        <set attributeName="fill" to="#808080" begin="arrowRight.mouseover" end="arrowRight.mouseout"/>
                  </use>
                  <path fill="none" stroke="white" stroke-width="1.5" d="M0,-3.0v7 M-2.5,-0.5L0,-3.0L2.5,-0.5"/>
                </g>
                <g id="arrowDown" xlink:href="#dirArrow" transform="rotate(180) translate(-30 -48)" onmousedown="handlePan(0,1)">
                  <use xlink:href="#rim" fill="#404040">
                        <set attributeName="fill" to="#808080" begin="arrowDown.mouseover" end="arrowDown.mouseout"/>
                  </use>
                  <path fill="none" stroke="white" stroke-width="1.5" d="M0,-3.0v7 M-2.5,-0.5L0,-3.0L2.5,-0.5"/>
                </g>
                <g id="arrowLeft" xlink:href="#dirArrow" transform="rotate(270) translate(-36 17)" onmousedown="handlePan(-1,0)">
                  <use xlink:href="#rim" fill="#404040">
                        <set attributeName="fill" to="#808080" begin="arrowLeft.mouseover" end="arrowLeft.mouseout"/>
                  </use>
                  <path fill="none" stroke="white" stroke-width="1.5" d="M0,-3.0v7 M-2.5,-0.5L0,-3.0L2.5,-0.5"/>
                </g>
        </g>
        <svg viewBox="0 0 15 15" width="100%" height="30px" preserveAspectRatio="xMaxYMin meet">
         <g id="arrow_out" transform="scale(0.3 0.3)">
          <a xlink:href="kozos_8c_a7f5d62b70099d281d35e0336463c49fc_cgraph_org.svg" target="_base">
           <rect id="button" ry="5" rx="5" y="6" x="6" height="38" width="38"
                fill="#f2f5e9" fill-opacity="0.5" stroke="#606060" stroke-width="1.0"/>
           <path id="arrow"
             d="M 11.500037,31.436501 C 11.940474,20.09759 22.043105,11.32322 32.158766,21.979434 L 37.068811,17.246167 C 37.068811,17.246167 37.088388,32 37.088388,32 L 22.160133,31.978069 C 22.160133,31.978069 26.997745,27.140456 26.997745,27.140456 C 18.528582,18.264221 13.291696,25.230495 11.500037,31.436501 z"
             style="fill:#404040;"/>
          </a>
         </g>
        </svg>
</svg>
