<?xml version="1.0" encoding="UTF-8" standalone="no"?>
<!DOCTYPE svg PUBLIC "-//W3C//DTD SVG 1.1//EN"
 "http://www.w3.org/Graphics/SVG/1.1/DTD/svg11.dtd">
<!-- Generated by graphviz version 2.28.0 (20130928.0220)
 -->
<!-- Title: dispatch Pages: 1 -->
<svg width="404pt" height="47pt"
 viewBox="0.00 0.00 404.00 47.00" xmlns="http://www.w3.org/2000/svg" xmlns:xlink="http://www.w3.org/1999/xlink">
<g id="graph1" class="graph" transform="scale(1 1) rotate(0) translate(4 43)">
<title>dispatch</title>
<!-- Node1 -->
<g id="node1" class="node"><title>Node1</title>
<polygon fill="#bfbfbf" stroke="black" points="0,-19.5 0,-38.5 54,-38.5 54,-19.5 0,-19.5"/>
<text text-anchor="middle" x="27" y="-26.5" font-family="Helvetica,sans-Serif" font-size="10.00">dispatch</text>
</g>
<!-- Node2 -->
<g id="node3" class="node"><title>Node2</title>
<a xlink:href="kozos_8h.html#a7078d5505c1e0c61af51bc66e5025685" target="_top" xlink:title="ライブラリ関数 ">
<polygon fill="none" stroke="black" points="270.5,-19.5 270.5,-38.5 321.5,-38.5 321.5,-19.5 270.5,-19.5"/>
<text text-anchor="middle" x="296" y="-26.5" font-family="Helvetica,sans-Serif" font-size="10.00">kz_start</text>
</a>
</g>
<!-- Node1&#45;&gt;Node2 -->
<g id="edge2" class="edge"><title>Node1&#45;&gt;Node2</title>
<path fill="none" stroke="midnightblue" d="M64.1165,-29C119.268,-29 223.048,-29 270.365,-29"/>
<polygon fill="midnightblue" stroke="midnightblue" points="64.0873,-25.5001 54.0872,-29 64.0872,-32.5001 64.0873,-25.5001"/>
</g>
<!-- Node4 -->
<g id="node7" class="node"><title>Node4</title>
<a xlink:href="kozos_8c.html#a064de18830e60998f8be0d67a0f2aabf" target="_top" xlink:title="thread_intr">
<polygon fill="none" stroke="black" points="90.5,-0.5 90.5,-19.5 153.5,-19.5 153.5,-0.5 90.5,-0.5"/>
<text text-anchor="middle" x="122" y="-7.5" font-family="Helvetica,sans-Serif" font-size="10.00">thread_intr</text>
</a>
</g>
<!-- Node1&#45;&gt;Node4 -->
<g id="edge6" class="edge"><title>Node1&#45;&gt;Node4</title>
<path fill="none" stroke="midnightblue" d="M64.2048,-21.6033C72.8144,-19.8444 81.9197,-17.9841 90.2583,-16.2806"/>
<polygon fill="midnightblue" stroke="midnightblue" points="63.4983,-18.1753 54.4013,-23.6062 64.8995,-25.0336 63.4983,-18.1753"/>
</g>
<!-- Node3 -->
<g id="node5" class="node"><title>Node3</title>
<a xlink:href="os_2main_8c.html#a840291bc02cba5474a4cb46a9b9566fe" target="_top" xlink:title="main">
<polygon fill="none" stroke="black" points="358,-19.5 358,-38.5 396,-38.5 396,-19.5 358,-19.5"/>
<text text-anchor="middle" x="377" y="-26.5" font-family="Helvetica,sans-Serif" font-size="10.00">main</text>
</a>
</g>
<!-- Node2&#45;&gt;Node3 -->
<g id="edge4" class="edge"><title>Node2&#45;&gt;Node3</title>
<path fill="none" stroke="midnightblue" d="M331.584,-29C340.686,-29 350.142,-29 357.978,-29"/>
<polygon fill="midnightblue" stroke="midnightblue" points="331.563,-25.5001 321.563,-29 331.563,-32.5001 331.563,-25.5001"/>
</g>
<!-- Node5 -->
<g id="node9" class="node"><title>Node5</title>
<a xlink:href="kozos_8c.html#a7f5d62b70099d281d35e0336463c49fc" target="_top" xlink:title="set interrupt handler ">
<polygon fill="none" stroke="black" points="190.5,-0.5 190.5,-19.5 233.5,-19.5 233.5,-0.5 190.5,-0.5"/>
<text text-anchor="middle" x="212" y="-7.5" font-family="Helvetica,sans-Serif" font-size="10.00">setintr</text>
</a>
</g>
<!-- Node4&#45;&gt;Node5 -->
<g id="edge8" class="edge"><title>Node4&#45;&gt;Node5</title>
<path fill="none" stroke="midnightblue" d="M163.943,-10C173.089,-10 182.411,-10 190.319,-10"/>
<polygon fill="midnightblue" stroke="midnightblue" points="163.778,-6.5001 153.778,-10 163.778,-13.5001 163.778,-6.5001"/>
</g>
<!-- Node5&#45;&gt;Node2 -->
<g id="edge10" class="edge"><title>Node5&#45;&gt;Node2</title>
<path fill="none" stroke="midnightblue" d="M243.585,-17.0867C252.369,-19.122 261.836,-21.3157 270.223,-23.2591"/>
<polygon fill="midnightblue" stroke="midnightblue" points="244.224,-13.6422 233.692,-14.7945 242.644,-20.4615 244.224,-13.6422"/>
</g>
</g>
</svg>
