<?xml version="1.0" encoding="UTF-8" standalone="no"?>
<!DOCTYPE svg PUBLIC "-//W3C//DTD SVG 1.1//EN"
 "http://www.w3.org/Graphics/SVG/1.1/DTD/svg11.dtd">
<!-- Generated by graphviz version 2.28.0 (20130928.0220)
 -->
<!-- Title: thread_run Pages: 1 -->
<svg width="482pt" height="218pt"
 viewBox="0.00 0.00 482.00 218.00" xmlns="http://www.w3.org/2000/svg" xmlns:xlink="http://www.w3.org/1999/xlink">
<g id="graph1" class="graph" transform="scale(1 1) rotate(0) translate(4 214)">
<title>thread_run</title>
<!-- Node1 -->
<g id="node1" class="node"><title>Node1</title>
<polygon fill="#bfbfbf" stroke="black" points="0,-95.5 0,-114.5 64,-114.5 64,-95.5 0,-95.5"/>
<text text-anchor="middle" x="32" y="-102.5" font-family="Helvetica,sans-Serif" font-size="10.00">thread_run</text>
</g>
<!-- Node2 -->
<g id="node3" class="node"><title>Node2</title>
<a xlink:href="kozos_8c.html#a2e6488cfd47118e19d4407d3a23eac3f" target="_top" xlink:title="create TCB ">
<polygon fill="none" stroke="black" points="107,-190.5 107,-209.5 179,-209.5 179,-190.5 107,-190.5"/>
<text text-anchor="middle" x="143" y="-197.5" font-family="Helvetica,sans-Serif" font-size="10.00">create_TCB</text>
</a>
</g>
<!-- Node1&#45;&gt;Node2 -->
<g id="edge2" class="edge"><title>Node1&#45;&gt;Node2</title>
<path fill="none" stroke="midnightblue" d="M39.3875,-114.577C50.2432,-130.245 73.6906,-161.553 100,-181 102.216,-182.638 104.596,-184.18 107.056,-185.62"/>
<polygon fill="midnightblue" stroke="midnightblue" points="105.679,-188.85 116.161,-190.392 108.928,-182.65 105.679,-188.85"/>
</g>
<!-- Node4 -->
<g id="node7" class="node"><title>Node4</title>
<a xlink:href="kozos_8c.html#a92177eed4eabc923bcd27462d8ce57b8" target="_top" xlink:title="get_stack_area">
<polygon fill="none" stroke="black" points="100,-152.5 100,-171.5 186,-171.5 186,-152.5 100,-152.5"/>
<text text-anchor="middle" x="143" y="-159.5" font-family="Helvetica,sans-Serif" font-size="10.00">get_stack_area</text>
</a>
</g>
<!-- Node1&#45;&gt;Node4 -->
<g id="edge6" class="edge"><title>Node1&#45;&gt;Node4</title>
<path fill="none" stroke="midnightblue" d="M49.0213,-114.633C62.4558,-122.578 82.2388,-133.969 100,-143 103.335,-144.696 106.853,-146.406 110.375,-148.068"/>
<polygon fill="midnightblue" stroke="midnightblue" points="109.041,-151.307 119.588,-152.316 111.972,-144.95 109.041,-151.307"/>
</g>
<!-- Node5 -->
<g id="node10" class="node"><title>Node5</title>
<a xlink:href="kozos_8c.html#a9cc7c96bdff0e4416f354672b2b1d183" target="_top" xlink:title="put">
<polygon fill="none" stroke="black" points="128.5,-114.5 128.5,-133.5 157.5,-133.5 157.5,-114.5 128.5,-114.5"/>
<text text-anchor="middle" x="143" y="-121.5" font-family="Helvetica,sans-Serif" font-size="10.00">put</text>
</a>
</g>
<!-- Node1&#45;&gt;Node5 -->
<g id="edge10" class="edge"><title>Node1&#45;&gt;Node5</title>
<path fill="none" stroke="midnightblue" d="M64.235,-110.445C81.4091,-113.438 102.378,-117.093 118.212,-119.853"/>
<polygon fill="midnightblue" stroke="midnightblue" points="117.791,-123.333 128.243,-121.602 118.993,-116.437 117.791,-123.333"/>
</g>
<!-- Node6 -->
<g id="node12" class="node"><title>Node6</title>
<a xlink:href="lib_8c.html#a4f18eec0e70dda8f611c6d629494a8de" target="_top" xlink:title="strcpy">
<polygon fill="none" stroke="black" points="121.5,-76.5 121.5,-95.5 164.5,-95.5 164.5,-76.5 121.5,-76.5"/>
<text text-anchor="middle" x="143" y="-83.5" font-family="Helvetica,sans-Serif" font-size="10.00">strcpy</text>
</a>
</g>
<!-- Node1&#45;&gt;Node6 -->
<g id="edge12" class="edge"><title>Node1&#45;&gt;Node6</title>
<path fill="none" stroke="midnightblue" d="M64.235,-99.5554C79.0166,-96.9788 96.6091,-93.9122 111.319,-91.348"/>
<polygon fill="midnightblue" stroke="midnightblue" points="112.19,-94.7492 121.44,-89.5839 110.987,-87.8532 112.19,-94.7492"/>
</g>
<!-- Node7 -->
<g id="node14" class="node"><title>Node7</title>
<a xlink:href="kozos_8c.html#ac4d8f9724e6cfa40d91cd63fa8c275d2" target="_top" xlink:title="thread_end">
<polygon fill="none" stroke="black" points="222,-19.5 222,-38.5 290,-38.5 290,-19.5 222,-19.5"/>
<text text-anchor="middle" x="256" y="-26.5" font-family="Helvetica,sans-Serif" font-size="10.00">thread_end</text>
</a>
</g>
<!-- Node1&#45;&gt;Node7 -->
<g id="edge14" class="edge"><title>Node1&#45;&gt;Node7</title>
<path fill="none" stroke="midnightblue" d="M47.0625,-95.4963C60.2387,-86.9692 80.7371,-74.6531 100,-67 136.594,-52.4613 180.328,-42.3536 211.996,-36.2379"/>
<polygon fill="midnightblue" stroke="midnightblue" points="212.647,-39.6769 221.829,-34.392 211.355,-32.7971 212.647,-39.6769"/>
</g>
<!-- Node10 -->
<g id="node20" class="node"><title>Node10</title>
<a xlink:href="kozos_8c.html#a3ac934c923c7f023b80805c9b7dad8a3" target="_top" xlink:title="start up thread ">
<polygon fill="none" stroke="black" points="112,-0.5 112,-19.5 174,-19.5 174,-0.5 112,-0.5"/>
<text text-anchor="middle" x="143" y="-7.5" font-family="Helvetica,sans-Serif" font-size="10.00">thread_init</text>
</a>
</g>
<!-- Node1&#45;&gt;Node10 -->
<g id="edge20" class="edge"><title>Node1&#45;&gt;Node10</title>
<path fill="none" stroke="midnightblue" d="M40.4823,-95.414C52.1226,-80.9142 75.7605,-53.0764 100,-34 104.182,-30.7084 108.868,-27.5757 113.551,-24.7249"/>
<polygon fill="midnightblue" stroke="midnightblue" points="115.499,-27.6426 122.422,-19.6227 112.008,-21.5748 115.499,-27.6426"/>
</g>
<!-- Node3 -->
<g id="node5" class="node"><title>Node3</title>
<a xlink:href="lib_8c.html#a89ddf4c406cf5f89be48dd3e4af4cdc4" target="_top" xlink:title="memset">
<polygon fill="none" stroke="black" points="229.5,-171.5 229.5,-190.5 282.5,-190.5 282.5,-171.5 229.5,-171.5"/>
<text text-anchor="middle" x="256" y="-178.5" font-family="Helvetica,sans-Serif" font-size="10.00">memset</text>
</a>
</g>
<!-- Node2&#45;&gt;Node3 -->
<g id="edge4" class="edge"><title>Node2&#45;&gt;Node3</title>
<path fill="none" stroke="midnightblue" d="M179.121,-193.988C191.951,-191.792 206.468,-189.307 219.344,-187.103"/>
<polygon fill="midnightblue" stroke="midnightblue" points="219.989,-190.544 229.255,-185.407 218.808,-183.644 219.989,-190.544"/>
</g>
<!-- Node4&#45;&gt;Node3 -->
<g id="edge8" class="edge"><title>Node4&#45;&gt;Node3</title>
<path fill="none" stroke="midnightblue" d="M186.281,-169.237C197.125,-171.094 208.684,-173.072 219.168,-174.867"/>
<polygon fill="midnightblue" stroke="midnightblue" points="218.78,-178.351 229.227,-176.588 219.961,-171.451 218.78,-178.351"/>
</g>
<!-- Node8 -->
<g id="node16" class="node"><title>Node8</title>
<a xlink:href="kozos_8h.html#a0e36d3c55bb22d6d54af1eeff7157ff7" target="_top" xlink:title="スレッド強制終了 ">
<polygon fill="none" stroke="black" points="326,-19.5 326,-38.5 374,-38.5 374,-19.5 326,-19.5"/>
<text text-anchor="middle" x="350" y="-26.5" font-family="Helvetica,sans-Serif" font-size="10.00">kz_exit</text>
</a>
</g>
<!-- Node7&#45;&gt;Node8 -->
<g id="edge16" class="edge"><title>Node7&#45;&gt;Node8</title>
<path fill="none" stroke="midnightblue" d="M290.214,-29C298.538,-29 307.468,-29 315.791,-29"/>
<polygon fill="midnightblue" stroke="midnightblue" points="315.918,-32.5001 325.918,-29 315.918,-25.5001 315.918,-32.5001"/>
</g>
<!-- Node9 -->
<g id="node18" class="node"><title>Node9</title>
<a xlink:href="kozos_8c.html#a2ef06efeac9f498bbabbf145fa8eb107" target="_top" xlink:title="kz_syscall">
<polygon fill="none" stroke="black" points="410,-19.5 410,-38.5 474,-38.5 474,-19.5 410,-19.5"/>
<text text-anchor="middle" x="442" y="-26.5" font-family="Helvetica,sans-Serif" font-size="10.00">kz_syscall</text>
</a>
</g>
<!-- Node8&#45;&gt;Node9 -->
<g id="edge18" class="edge"><title>Node8&#45;&gt;Node9</title>
<path fill="none" stroke="midnightblue" d="M374.177,-29C381.964,-29 390.9,-29 399.651,-29"/>
<polygon fill="midnightblue" stroke="midnightblue" points="399.759,-32.5001 409.759,-29 399.759,-25.5001 399.759,-32.5001"/>
</g>
<!-- Node10&#45;&gt;Node7 -->
<g id="edge22" class="edge"><title>Node10&#45;&gt;Node7</title>
<path fill="none" stroke="midnightblue" d="M174.038,-15.1417C185.69,-17.1362 199.254,-19.458 211.911,-21.6244"/>
<polygon fill="midnightblue" stroke="midnightblue" points="211.365,-25.0819 221.813,-23.3193 212.547,-18.1822 211.365,-25.0819"/>
</g>
</g>
</svg>
