<?xml version="1.0" encoding="UTF-8" standalone="no"?>
<!DOCTYPE svg PUBLIC "-//W3C//DTD SVG 1.1//EN"
 "http://www.w3.org/Graphics/SVG/1.1/DTD/svg11.dtd">
<!-- Generated by graphviz version 2.28.0 (20130928.0220)
 -->
<!-- Title: get_stack_area Pages: 1 -->
<svg width="682pt" height="47pt"
 viewBox="0.00 0.00 682.00 47.00" xmlns="http://www.w3.org/2000/svg" xmlns:xlink="http://www.w3.org/1999/xlink">
<g id="graph1" class="graph" transform="scale(1 1) rotate(0) translate(4 43)">
<title>get_stack_area</title>
<!-- Node1 -->
<g id="node1" class="node"><title>Node1</title>
<polygon fill="#bfbfbf" stroke="black" points="0,-0.5 0,-19.5 86,-19.5 86,-0.5 0,-0.5"/>
<text text-anchor="middle" x="43" y="-7.5" font-family="Helvetica,sans-Serif" font-size="10.00">get_stack_area</text>
</g>
<!-- Node2 -->
<g id="node3" class="node"><title>Node2</title>
<a xlink:href="kozos_8c.html#a8fd64516a2230c46e0e866aa3c54470b" target="_top" xlink:title="system call ">
<polygon fill="none" stroke="black" points="122,-0.5 122,-19.5 186,-19.5 186,-0.5 122,-0.5"/>
<text text-anchor="middle" x="154" y="-7.5" font-family="Helvetica,sans-Serif" font-size="10.00">thread_run</text>
</a>
</g>
<!-- Node1&#45;&gt;Node2 -->
<g id="edge2" class="edge"><title>Node1&#45;&gt;Node2</title>
<path fill="none" stroke="midnightblue" d="M96.2925,-10C105.014,-10 113.812,-10 121.789,-10"/>
<polygon fill="midnightblue" stroke="midnightblue" points="96.1423,-6.5001 86.1422,-10 96.1422,-13.5001 96.1423,-6.5001"/>
</g>
<!-- Node3 -->
<g id="node5" class="node"><title>Node3</title>
<a xlink:href="kozos_8c.html#acd68041208fa0120669ac78343a47dc0" target="_top" xlink:title="call_functions">
<polygon fill="none" stroke="black" points="222.5,-19.5 222.5,-38.5 299.5,-38.5 299.5,-19.5 222.5,-19.5"/>
<text text-anchor="middle" x="261" y="-26.5" font-family="Helvetica,sans-Serif" font-size="10.00">call_functions</text>
</a>
</g>
<!-- Node2&#45;&gt;Node3 -->
<g id="edge4" class="edge"><title>Node2&#45;&gt;Node3</title>
<path fill="none" stroke="midnightblue" d="M196.128,-17.4422C204.79,-19.0096 213.886,-20.6556 222.41,-22.198"/>
<polygon fill="midnightblue" stroke="midnightblue" points="196.683,-13.9858 186.219,-15.6492 195.436,-20.8739 196.683,-13.9858"/>
</g>
<!-- Node6 -->
<g id="node11" class="node"><title>Node6</title>
<a xlink:href="kozos_8h.html#a7078d5505c1e0c61af51bc66e5025685" target="_top" xlink:title="ライブラリ関数 ">
<polygon fill="none" stroke="black" points="548.5,-0.5 548.5,-19.5 599.5,-19.5 599.5,-0.5 548.5,-0.5"/>
<text text-anchor="middle" x="574" y="-7.5" font-family="Helvetica,sans-Serif" font-size="10.00">kz_start</text>
</a>
</g>
<!-- Node2&#45;&gt;Node6 -->
<g id="edge14" class="edge"><title>Node2&#45;&gt;Node6</title>
<path fill="none" stroke="midnightblue" d="M196.268,-10C282.474,-10 479.38,-10 548.482,-10"/>
<polygon fill="midnightblue" stroke="midnightblue" points="196.076,-6.5001 186.076,-10 196.076,-13.5001 196.076,-6.5001"/>
</g>
<!-- Node4 -->
<g id="node7" class="node"><title>Node4</title>
<a xlink:href="kozos_8c.html#aef8f2fde0f7865d66b9a7daf0e2426e0" target="_top" xlink:title="syscall_proc">
<polygon fill="none" stroke="black" points="336.5,-19.5 336.5,-38.5 409.5,-38.5 409.5,-19.5 336.5,-19.5"/>
<text text-anchor="middle" x="373" y="-26.5" font-family="Helvetica,sans-Serif" font-size="10.00">syscall_proc</text>
</a>
</g>
<!-- Node3&#45;&gt;Node4 -->
<g id="edge6" class="edge"><title>Node3&#45;&gt;Node4</title>
<path fill="none" stroke="midnightblue" d="M309.573,-29C318.601,-29 327.901,-29 336.476,-29"/>
<polygon fill="midnightblue" stroke="midnightblue" points="309.548,-25.5001 299.548,-29 309.548,-32.5001 309.548,-25.5001"/>
</g>
<!-- Node5 -->
<g id="node9" class="node"><title>Node5</title>
<a xlink:href="kozos_8c.html#a69f871c66a43d6f0a644c57def130160" target="_top" xlink:title="syscall_intr">
<polygon fill="none" stroke="black" points="446,-19.5 446,-38.5 512,-38.5 512,-19.5 446,-19.5"/>
<text text-anchor="middle" x="479" y="-26.5" font-family="Helvetica,sans-Serif" font-size="10.00">syscall_intr</text>
</a>
</g>
<!-- Node4&#45;&gt;Node5 -->
<g id="edge8" class="edge"><title>Node4&#45;&gt;Node5</title>
<path fill="none" stroke="midnightblue" d="M419.667,-29C428.476,-29 437.532,-29 445.802,-29"/>
<polygon fill="midnightblue" stroke="midnightblue" points="419.5,-25.5001 409.5,-29 419.5,-32.5001 419.5,-25.5001"/>
</g>
<!-- Node5&#45;&gt;Node6 -->
<g id="edge10" class="edge"><title>Node5&#45;&gt;Node6</title>
<path fill="none" stroke="midnightblue" d="M521.988,-20.4218C530.979,-18.5849 540.198,-16.7015 548.282,-15.0499"/>
<polygon fill="midnightblue" stroke="midnightblue" points="521.102,-17.0304 512.005,-22.4613 522.504,-23.8887 521.102,-17.0304"/>
</g>
<!-- Node7 -->
<g id="node13" class="node"><title>Node7</title>
<a xlink:href="os_2main_8c.html#a840291bc02cba5474a4cb46a9b9566fe" target="_top" xlink:title="main">
<polygon fill="none" stroke="black" points="636,-0.5 636,-19.5 674,-19.5 674,-0.5 636,-0.5"/>
<text text-anchor="middle" x="655" y="-7.5" font-family="Helvetica,sans-Serif" font-size="10.00">main</text>
</a>
</g>
<!-- Node6&#45;&gt;Node7 -->
<g id="edge12" class="edge"><title>Node6&#45;&gt;Node7</title>
<path fill="none" stroke="midnightblue" d="M609.584,-10C618.686,-10 628.142,-10 635.978,-10"/>
<polygon fill="midnightblue" stroke="midnightblue" points="609.563,-6.5001 599.563,-10 609.563,-13.5001 609.563,-6.5001"/>
</g>
</g>
</svg>
