<?xml version="1.0" encoding="UTF-8" standalone="no"?>
<!DOCTYPE svg PUBLIC "-//W3C//DTD SVG 1.1//EN"
 "http://www.w3.org/Graphics/SVG/1.1/DTD/svg11.dtd">
<!-- Generated by graphviz version 2.28.0 (20130928.0220)
 -->
<!-- Title: thread_run Pages: 1 -->
<svg width="384pt" height="218pt"
 viewBox="0.00 0.00 384.00 218.00" xmlns="http://www.w3.org/2000/svg" xmlns:xlink="http://www.w3.org/1999/xlink">
<g id="graph1" class="graph" transform="scale(1 1) rotate(0) translate(4 214)">
<title>thread_run</title>
<!-- Node1 -->
<g id="node1" class="node"><title>Node1</title>
<polygon fill="#bfbfbf" stroke="black" points="0,-95.5 0,-114.5 64,-114.5 64,-95.5 0,-95.5"/>
<text text-anchor="middle" x="32" y="-102.5" font-family="Helvetica,sans-Serif" font-size="10.00">thread_run</text>
</g>
<!-- Node2 -->
<g id="node3" class="node"><title>Node2</title>
<a xlink:href="kozos_8c.html#a2e6488cfd47118e19d4407d3a23eac3f" target="_top" xlink:title="create TCB ">
<polygon fill="none" stroke="black" points="107,-190.5 107,-209.5 179,-209.5 179,-190.5 107,-190.5"/>
<text text-anchor="middle" x="143" y="-197.5" font-family="Helvetica,sans-Serif" font-size="10.00">create_TCB</text>
</a>
</g>
<!-- Node1&#45;&gt;Node2 -->
<g id="edge2" class="edge"><title>Node1&#45;&gt;Node2</title>
<path fill="none" stroke="midnightblue" d="M39.3875,-114.577C50.2432,-130.245 73.6906,-161.553 100,-181 102.216,-182.638 104.596,-184.18 107.056,-185.62"/>
<polygon fill="midnightblue" stroke="midnightblue" points="105.679,-188.85 116.161,-190.392 108.928,-182.65 105.679,-188.85"/>
</g>
<!-- Node4 -->
<g id="node7" class="node"><title>Node4</title>
<a xlink:href="kozos_8c.html#a92177eed4eabc923bcd27462d8ce57b8" target="_top" xlink:title="get_stack_area">
<polygon fill="none" stroke="black" points="100,-152.5 100,-171.5 186,-171.5 186,-152.5 100,-152.5"/>
<text text-anchor="middle" x="143" y="-159.5" font-family="Helvetica,sans-Serif" font-size="10.00">get_stack_area</text>
</a>
</g>
<!-- Node1&#45;&gt;Node4 -->
<g id="edge6" class="edge"><title>Node1&#45;&gt;Node4</title>
<path fill="none" stroke="midnightblue" d="M49.0213,-114.633C62.4558,-122.578 82.2388,-133.969 100,-143 103.335,-144.696 106.853,-146.406 110.375,-148.068"/>
<polygon fill="midnightblue" stroke="midnightblue" points="109.041,-151.307 119.588,-152.316 111.972,-144.95 109.041,-151.307"/>
</g>
<!-- Node5 -->
<g id="node10" class="node"><title>Node5</title>
<a xlink:href="kozos_8c.html#a9cc7c96bdff0e4416f354672b2b1d183" target="_top" xlink:title="put">
<polygon fill="none" stroke="black" points="128.5,-114.5 128.5,-133.5 157.5,-133.5 157.5,-114.5 128.5,-114.5"/>
<text text-anchor="middle" x="143" y="-121.5" font-family="Helvetica,sans-Serif" font-size="10.00">put</text>
</a>
</g>
<!-- Node1&#45;&gt;Node5 -->
<g id="edge10" class="edge"><title>Node1&#45;&gt;Node5</title>
<path fill="none" stroke="midnightblue" d="M64.235,-110.445C81.4091,-113.438 102.378,-117.093 118.212,-119.853"/>
<polygon fill="midnightblue" stroke="midnightblue" points="117.791,-123.333 128.243,-121.602 118.993,-116.437 117.791,-123.333"/>
</g>
<!-- Node6 -->
<g id="node12" class="node"><title>Node6</title>
<a xlink:href="lib_8c.html#a4f18eec0e70dda8f611c6d629494a8de" target="_top" xlink:title="strcpy">
<polygon fill="none" stroke="black" points="121.5,-76.5 121.5,-95.5 164.5,-95.5 164.5,-76.5 121.5,-76.5"/>
<text text-anchor="middle" x="143" y="-83.5" font-family="Helvetica,sans-Serif" font-size="10.00">strcpy</text>
</a>
</g>
<!-- Node1&#45;&gt;Node6 -->
<g id="edge12" class="edge"><title>Node1&#45;&gt;Node6</title>
<path fill="none" stroke="midnightblue" d="M64.235,-99.5554C79.0166,-96.9788 96.6091,-93.9122 111.319,-91.348"/>
<polygon fill="midnightblue" stroke="midnightblue" points="112.19,-94.7492 121.44,-89.5839 110.987,-87.8532 112.19,-94.7492"/>
</g>
<!-- Node7 -->
<g id="node14" class="node"><title>Node7</title>
<a xlink:href="kozos_8c.html#ac4d8f9724e6cfa40d91cd63fa8c275d2" target="_top" xlink:title="thread_end">
<polygon fill="none" stroke="black" points="109,-38.5 109,-57.5 177,-57.5 177,-38.5 109,-38.5"/>
<text text-anchor="middle" x="143" y="-45.5" font-family="Helvetica,sans-Serif" font-size="10.00">thread_end</text>
</a>
</g>
<!-- Node1&#45;&gt;Node7 -->
<g id="edge14" class="edge"><title>Node1&#45;&gt;Node7</title>
<path fill="none" stroke="midnightblue" d="M49.0213,-95.3667C62.4558,-87.4219 82.2388,-76.0305 100,-67 103.335,-65.3043 106.853,-63.5943 110.375,-61.9317"/>
<polygon fill="midnightblue" stroke="midnightblue" points="111.972,-65.0497 119.588,-57.6842 109.041,-58.6928 111.972,-65.0497"/>
</g>
<!-- Node10 -->
<g id="node20" class="node"><title>Node10</title>
<a xlink:href="kozos_8c.html#a3ac934c923c7f023b80805c9b7dad8a3" target="_top" xlink:title="start up thread ">
<polygon fill="none" stroke="black" points="112,-0.5 112,-19.5 174,-19.5 174,-0.5 112,-0.5"/>
<text text-anchor="middle" x="143" y="-7.5" font-family="Helvetica,sans-Serif" font-size="10.00">thread_init</text>
</a>
</g>
<!-- Node1&#45;&gt;Node10 -->
<g id="edge20" class="edge"><title>Node1&#45;&gt;Node10</title>
<path fill="none" stroke="midnightblue" d="M39.3875,-95.4226C50.2432,-79.7552 73.6906,-48.4474 100,-29 102.216,-27.3617 104.596,-25.8204 107.056,-24.3796"/>
<polygon fill="midnightblue" stroke="midnightblue" points="108.928,-27.35 116.161,-19.6083 105.679,-21.1496 108.928,-27.35"/>
</g>
<!-- Node3 -->
<g id="node5" class="node"><title>Node3</title>
<a xlink:href="lib_8c.html#a89ddf4c406cf5f89be48dd3e4af4cdc4" target="_top" xlink:title="memset">
<polygon fill="none" stroke="black" points="222.5,-171.5 222.5,-190.5 275.5,-190.5 275.5,-171.5 222.5,-171.5"/>
<text text-anchor="middle" x="249" y="-178.5" font-family="Helvetica,sans-Serif" font-size="10.00">memset</text>
</a>
</g>
<!-- Node2&#45;&gt;Node3 -->
<g id="edge4" class="edge"><title>Node2&#45;&gt;Node3</title>
<path fill="none" stroke="midnightblue" d="M179.21,-193.567C189.927,-191.609 201.711,-189.457 212.451,-187.495"/>
<polygon fill="midnightblue" stroke="midnightblue" points="213.151,-190.925 222.359,-185.684 211.893,-184.039 213.151,-190.925"/>
</g>
<!-- Node4&#45;&gt;Node3 -->
<g id="edge8" class="edge"><title>Node4&#45;&gt;Node3</title>
<path fill="none" stroke="midnightblue" d="M186.001,-169.673C194.738,-171.269 203.867,-172.937 212.349,-174.487"/>
<polygon fill="midnightblue" stroke="midnightblue" points="211.839,-177.952 222.306,-176.306 213.098,-171.066 211.839,-177.952"/>
</g>
<!-- Node8 -->
<g id="node16" class="node"><title>Node8</title>
<a xlink:href="kozos_8h.html#a0e36d3c55bb22d6d54af1eeff7157ff7" target="_top" xlink:title="スレッド強制終了 ">
<polygon fill="none" stroke="black" points="225,-38.5 225,-57.5 273,-57.5 273,-38.5 225,-38.5"/>
<text text-anchor="middle" x="249" y="-45.5" font-family="Helvetica,sans-Serif" font-size="10.00">kz_exit</text>
</a>
</g>
<!-- Node7&#45;&gt;Node8 -->
<g id="edge16" class="edge"><title>Node7&#45;&gt;Node8</title>
<path fill="none" stroke="midnightblue" d="M177.192,-48C189.238,-48 202.841,-48 214.881,-48"/>
<polygon fill="midnightblue" stroke="midnightblue" points="214.981,-51.5001 224.981,-48 214.98,-44.5001 214.981,-51.5001"/>
</g>
<!-- Node9 -->
<g id="node18" class="node"><title>Node9</title>
<a xlink:href="kozos_8c.html#a2ef06efeac9f498bbabbf145fa8eb107" target="_top" xlink:title="kz_syscall">
<polygon fill="none" stroke="black" points="312,-38.5 312,-57.5 376,-57.5 376,-38.5 312,-38.5"/>
<text text-anchor="middle" x="344" y="-45.5" font-family="Helvetica,sans-Serif" font-size="10.00">kz_syscall</text>
</a>
</g>
<!-- Node8&#45;&gt;Node9 -->
<g id="edge18" class="edge"><title>Node8&#45;&gt;Node9</title>
<path fill="none" stroke="midnightblue" d="M273.468,-48C282.003,-48 291.924,-48 301.552,-48"/>
<polygon fill="midnightblue" stroke="midnightblue" points="301.806,-51.5001 311.806,-48 301.806,-44.5001 301.806,-51.5001"/>
</g>
</g>
</svg>
