<?xml version="1.0" encoding="UTF-8" standalone="no"?>
<!DOCTYPE svg PUBLIC "-//W3C//DTD SVG 1.1//EN"
 "http://www.w3.org/Graphics/SVG/1.1/DTD/svg11.dtd">
<!-- Generated by graphviz version 2.28.0 (20130928.0220)
 -->
<!-- Title: syscall_intr Pages: 1 -->
<svg width="896pt" height="294pt"
 viewBox="0.00 0.00 896.00 294.00" xmlns="http://www.w3.org/2000/svg" xmlns:xlink="http://www.w3.org/1999/xlink">
<g id="graph1" class="graph" transform="scale(1 1) rotate(0) translate(4 290)">
<title>syscall_intr</title>
<!-- Node1 -->
<g id="node1" class="node"><title>Node1</title>
<polygon fill="#bfbfbf" stroke="black" points="0,-171.5 0,-190.5 66,-190.5 66,-171.5 0,-171.5"/>
<text text-anchor="middle" x="33" y="-178.5" font-family="Helvetica,sans-Serif" font-size="10.00">syscall_intr</text>
</g>
<!-- Node2 -->
<g id="node3" class="node"><title>Node2</title>
<a xlink:href="kozos_8c.html#aef8f2fde0f7865d66b9a7daf0e2426e0" target="_top" xlink:title="syscall_proc">
<polygon fill="none" stroke="black" points="102.5,-171.5 102.5,-190.5 175.5,-190.5 175.5,-171.5 102.5,-171.5"/>
<text text-anchor="middle" x="139" y="-178.5" font-family="Helvetica,sans-Serif" font-size="10.00">syscall_proc</text>
</a>
</g>
<!-- Node1&#45;&gt;Node2 -->
<g id="edge2" class="edge"><title>Node1&#45;&gt;Node2</title>
<path fill="none" stroke="midnightblue" d="M66.052,-181C74.2883,-181 83.3115,-181 92.0991,-181"/>
<polygon fill="midnightblue" stroke="midnightblue" points="92.2455,-184.5 102.245,-181 92.2455,-177.5 92.2455,-184.5"/>
</g>
<!-- Node3 -->
<g id="node5" class="node"><title>Node3</title>
<a xlink:href="kozos_8c.html#acd68041208fa0120669ac78343a47dc0" target="_top" xlink:title="call_functions">
<polygon fill="none" stroke="black" points="212.5,-171.5 212.5,-190.5 289.5,-190.5 289.5,-171.5 212.5,-171.5"/>
<text text-anchor="middle" x="251" y="-178.5" font-family="Helvetica,sans-Serif" font-size="10.00">call_functions</text>
</a>
</g>
<!-- Node2&#45;&gt;Node3 -->
<g id="edge4" class="edge"><title>Node2&#45;&gt;Node3</title>
<path fill="none" stroke="midnightblue" d="M175.714,-181C184.1,-181 193.172,-181 201.999,-181"/>
<polygon fill="midnightblue" stroke="midnightblue" points="202.194,-184.5 212.194,-181 202.194,-177.5 202.194,-184.5"/>
</g>
<!-- Node4 -->
<g id="node7" class="node"><title>Node4</title>
<a xlink:href="kozos_8c.html#a4dd8e8425a1c0c5d866a9271d243cdef" target="_top" xlink:title="thread_exit">
<polygon fill="none" stroke="black" points="326,-228.5 326,-247.5 392,-247.5 392,-228.5 326,-228.5"/>
<text text-anchor="middle" x="359" y="-235.5" font-family="Helvetica,sans-Serif" font-size="10.00">thread_exit</text>
</a>
</g>
<!-- Node3&#45;&gt;Node4 -->
<g id="edge6" class="edge"><title>Node3&#45;&gt;Node4</title>
<path fill="none" stroke="midnightblue" d="M269.981,-190.669C286.834,-199.731 312.237,-213.391 331.427,-223.711"/>
<polygon fill="midnightblue" stroke="midnightblue" points="329.819,-226.82 340.284,-228.474 333.134,-220.655 329.819,-226.82"/>
</g>
<!-- Node10 -->
<g id="node19" class="node"><title>Node10</title>
<a xlink:href="kozos_8c.html#a8fd64516a2230c46e0e866aa3c54470b" target="_top" xlink:title="system call ">
<polygon fill="none" stroke="black" points="327,-114.5 327,-133.5 391,-133.5 391,-114.5 327,-114.5"/>
<text text-anchor="middle" x="359" y="-121.5" font-family="Helvetica,sans-Serif" font-size="10.00">thread_run</text>
</a>
</g>
<!-- Node3&#45;&gt;Node10 -->
<g id="edge18" class="edge"><title>Node3&#45;&gt;Node10</title>
<path fill="none" stroke="midnightblue" d="M269.981,-171.331C286.834,-162.269 312.237,-148.609 331.427,-138.289"/>
<polygon fill="midnightblue" stroke="midnightblue" points="333.134,-141.345 340.284,-133.526 329.819,-135.18 333.134,-141.345"/>
</g>
<!-- Node5 -->
<g id="node9" class="node"><title>Node5</title>
<a xlink:href="lib_8c.html#a44ddf1a8f6a75ff235a733ff8d90cae3" target="_top" xlink:title="puts">
<polygon fill="none" stroke="black" points="453.5,-266.5 453.5,-285.5 488.5,-285.5 488.5,-266.5 453.5,-266.5"/>
<text text-anchor="middle" x="471" y="-273.5" font-family="Helvetica,sans-Serif" font-size="10.00">puts</text>
</a>
</g>
<!-- Node4&#45;&gt;Node5 -->
<g id="edge8" class="edge"><title>Node4&#45;&gt;Node5</title>
<path fill="none" stroke="midnightblue" d="M387.758,-247.589C404.835,-253.488 426.599,-261.007 443.448,-266.828"/>
<polygon fill="midnightblue" stroke="midnightblue" points="442.624,-270.246 453.219,-270.203 444.91,-263.629 442.624,-270.246"/>
</g>
<!-- Node9 -->
<g id="node17" class="node"><title>Node9</title>
<a xlink:href="lib_8c.html#a89ddf4c406cf5f89be48dd3e4af4cdc4" target="_top" xlink:title="memset">
<polygon fill="none" stroke="black" points="550.5,-190.5 550.5,-209.5 603.5,-209.5 603.5,-190.5 550.5,-190.5"/>
<text text-anchor="middle" x="577" y="-197.5" font-family="Helvetica,sans-Serif" font-size="10.00">memset</text>
</a>
</g>
<!-- Node4&#45;&gt;Node9 -->
<g id="edge16" class="edge"><title>Node4&#45;&gt;Node9</title>
<path fill="none" stroke="midnightblue" d="M392.124,-235.681C423.467,-233.033 472.372,-227.875 514,-219 522.705,-217.144 531.947,-214.622 540.564,-212.023"/>
<polygon fill="midnightblue" stroke="midnightblue" points="541.823,-215.296 550.322,-208.971 539.733,-208.615 541.823,-215.296"/>
</g>
<!-- Node6 -->
<g id="node11" class="node"><title>Node6</title>
<a xlink:href="lib_8c.html#acee36427208c7c321ab875217dca17c4" target="_top" xlink:title="putc">
<polygon fill="none" stroke="black" points="559.5,-266.5 559.5,-285.5 594.5,-285.5 594.5,-266.5 559.5,-266.5"/>
<text text-anchor="middle" x="577" y="-273.5" font-family="Helvetica,sans-Serif" font-size="10.00">putc</text>
</a>
</g>
<!-- Node5&#45;&gt;Node6 -->
<g id="edge10" class="edge"><title>Node5&#45;&gt;Node6</title>
<path fill="none" stroke="midnightblue" d="M488.709,-276C505.009,-276 530.067,-276 549.161,-276"/>
<polygon fill="midnightblue" stroke="midnightblue" points="549.332,-279.5 559.332,-276 549.332,-272.5 549.332,-279.5"/>
</g>
<!-- Node7 -->
<g id="node13" class="node"><title>Node7</title>
<a xlink:href="serial_8c.html#aed0806bd3de71f20d6df8ef6f49bda31" target="_top" xlink:title="serial_send_byte">
<polygon fill="none" stroke="black" points="640.5,-266.5 640.5,-285.5 733.5,-285.5 733.5,-266.5 640.5,-266.5"/>
<text text-anchor="middle" x="687" y="-273.5" font-family="Helvetica,sans-Serif" font-size="10.00">serial_send_byte</text>
</a>
</g>
<!-- Node6&#45;&gt;Node7 -->
<g id="edge12" class="edge"><title>Node6&#45;&gt;Node7</title>
<path fill="none" stroke="midnightblue" d="M594.875,-276C604.518,-276 617.223,-276 630.073,-276"/>
<polygon fill="midnightblue" stroke="midnightblue" points="630.355,-279.5 640.355,-276 630.355,-272.5 630.355,-279.5"/>
</g>
<!-- Node8 -->
<g id="node15" class="node"><title>Node8</title>
<a xlink:href="serial_8c.html#abf48ded30f8aa6fff8cb48dce0af0590" target="_top" xlink:title="serial_is_send_enable">
<polygon fill="none" stroke="black" points="770,-266.5 770,-285.5 888,-285.5 888,-266.5 770,-266.5"/>
<text text-anchor="middle" x="829" y="-273.5" font-family="Helvetica,sans-Serif" font-size="10.00">serial_is_send_enable</text>
</a>
</g>
<!-- Node7&#45;&gt;Node8 -->
<g id="edge14" class="edge"><title>Node7&#45;&gt;Node8</title>
<path fill="none" stroke="midnightblue" d="M733.841,-276C742.095,-276 750.859,-276 759.591,-276"/>
<polygon fill="midnightblue" stroke="midnightblue" points="759.793,-279.5 769.793,-276 759.793,-272.5 759.793,-279.5"/>
</g>
<!-- Node11 -->
<g id="node21" class="node"><title>Node11</title>
<a xlink:href="kozos_8c.html#a2e6488cfd47118e19d4407d3a23eac3f" target="_top" xlink:title="create TCB ">
<polygon fill="none" stroke="black" points="435,-190.5 435,-209.5 507,-209.5 507,-190.5 435,-190.5"/>
<text text-anchor="middle" x="471" y="-197.5" font-family="Helvetica,sans-Serif" font-size="10.00">create_TCB</text>
</a>
</g>
<!-- Node10&#45;&gt;Node11 -->
<g id="edge20" class="edge"><title>Node10&#45;&gt;Node11</title>
<path fill="none" stroke="midnightblue" d="M369.914,-133.829C382.583,-146.015 405.569,-166.898 428,-181 430.778,-182.746 433.743,-184.421 436.765,-186.001"/>
<polygon fill="midnightblue" stroke="midnightblue" points="435.345,-189.203 445.867,-190.44 438.413,-182.911 435.345,-189.203"/>
</g>
<!-- Node12 -->
<g id="node24" class="node"><title>Node12</title>
<a xlink:href="lib_8c.html#a4f18eec0e70dda8f611c6d629494a8de" target="_top" xlink:title="strcpy">
<polygon fill="none" stroke="black" points="449.5,-152.5 449.5,-171.5 492.5,-171.5 492.5,-152.5 449.5,-152.5"/>
<text text-anchor="middle" x="471" y="-159.5" font-family="Helvetica,sans-Serif" font-size="10.00">strcpy</text>
</a>
</g>
<!-- Node10&#45;&gt;Node12 -->
<g id="edge24" class="edge"><title>Node10&#45;&gt;Node12</title>
<path fill="none" stroke="midnightblue" d="M387.758,-133.589C403.57,-139.051 423.4,-145.902 439.627,-151.508"/>
<polygon fill="midnightblue" stroke="midnightblue" points="438.602,-154.856 449.197,-154.813 440.888,-148.24 438.602,-154.856"/>
</g>
<!-- Node13 -->
<g id="node26" class="node"><title>Node13</title>
<a xlink:href="kozos_8c.html#a92177eed4eabc923bcd27462d8ce57b8" target="_top" xlink:title="get_stack_area">
<polygon fill="none" stroke="black" points="428,-114.5 428,-133.5 514,-133.5 514,-114.5 428,-114.5"/>
<text text-anchor="middle" x="471" y="-121.5" font-family="Helvetica,sans-Serif" font-size="10.00">get_stack_area</text>
</a>
</g>
<!-- Node10&#45;&gt;Node13 -->
<g id="edge26" class="edge"><title>Node10&#45;&gt;Node13</title>
<path fill="none" stroke="midnightblue" d="M391.227,-124C399.442,-124 408.533,-124 417.533,-124"/>
<polygon fill="midnightblue" stroke="midnightblue" points="417.604,-127.5 427.604,-124 417.604,-120.5 417.604,-127.5"/>
</g>
<!-- Node14 -->
<g id="node29" class="node"><title>Node14</title>
<a xlink:href="kozos_8c.html#ac4d8f9724e6cfa40d91cd63fa8c275d2" target="_top" xlink:title="thread_end">
<polygon fill="none" stroke="black" points="437,-76.5 437,-95.5 505,-95.5 505,-76.5 437,-76.5"/>
<text text-anchor="middle" x="471" y="-83.5" font-family="Helvetica,sans-Serif" font-size="10.00">thread_end</text>
</a>
</g>
<!-- Node10&#45;&gt;Node14 -->
<g id="edge30" class="edge"><title>Node10&#45;&gt;Node14</title>
<path fill="none" stroke="midnightblue" d="M387.758,-114.411C401.306,-109.731 417.805,-104.031 432.46,-98.9685"/>
<polygon fill="midnightblue" stroke="midnightblue" points="433.942,-102.159 442.251,-95.5859 431.656,-95.543 433.942,-102.159"/>
</g>
<!-- Node17 -->
<g id="node35" class="node"><title>Node17</title>
<a xlink:href="kozos_8c.html#a3ac934c923c7f023b80805c9b7dad8a3" target="_top" xlink:title="start up thread ">
<polygon fill="none" stroke="black" points="440,-38.5 440,-57.5 502,-57.5 502,-38.5 440,-38.5"/>
<text text-anchor="middle" x="471" y="-45.5" font-family="Helvetica,sans-Serif" font-size="10.00">thread_init</text>
</a>
</g>
<!-- Node10&#45;&gt;Node17 -->
<g id="edge36" class="edge"><title>Node10&#45;&gt;Node17</title>
<path fill="none" stroke="midnightblue" d="M369.914,-114.171C382.583,-101.985 405.569,-81.1017 428,-67 430.778,-65.2536 433.743,-63.5793 436.765,-61.9987"/>
<polygon fill="midnightblue" stroke="midnightblue" points="438.413,-65.0891 445.867,-57.5599 435.345,-58.7974 438.413,-65.0891"/>
</g>
<!-- Node18 -->
<g id="node37" class="node"><title>Node18</title>
<a xlink:href="kozos_8c.html#a9cc7c96bdff0e4416f354672b2b1d183" target="_top" xlink:title="put">
<polygon fill="none" stroke="black" points="456.5,-0.5 456.5,-19.5 485.5,-19.5 485.5,-0.5 456.5,-0.5"/>
<text text-anchor="middle" x="471" y="-7.5" font-family="Helvetica,sans-Serif" font-size="10.00">put</text>
</a>
</g>
<!-- Node10&#45;&gt;Node18 -->
<g id="edge38" class="edge"><title>Node10&#45;&gt;Node18</title>
<path fill="none" stroke="midnightblue" d="M364.681,-114.375C374.215,-95.6473 397.582,-53.9616 428,-29 433.44,-24.5355 440.099,-20.8962 446.497,-18.042"/>
<polygon fill="midnightblue" stroke="midnightblue" points="448.135,-21.1567 456.124,-14.1974 445.539,-14.6559 448.135,-21.1567"/>
</g>
<!-- Node11&#45;&gt;Node9 -->
<g id="edge22" class="edge"><title>Node11&#45;&gt;Node9</title>
<path fill="none" stroke="midnightblue" d="M507.21,-200C517.817,-200 529.468,-200 540.118,-200"/>
<polygon fill="midnightblue" stroke="midnightblue" points="540.359,-203.5 550.359,-200 540.359,-196.5 540.359,-203.5"/>
</g>
<!-- Node13&#45;&gt;Node9 -->
<g id="edge28" class="edge"><title>Node13&#45;&gt;Node9</title>
<path fill="none" stroke="midnightblue" d="M496.686,-133.587C502.555,-136.29 508.659,-139.469 514,-143 531.21,-154.377 548.282,-170.527 560.142,-182.734"/>
<polygon fill="midnightblue" stroke="midnightblue" points="557.708,-185.254 567.131,-190.096 562.784,-180.434 557.708,-185.254"/>
</g>
<!-- Node15 -->
<g id="node31" class="node"><title>Node15</title>
<a xlink:href="kozos_8h.html#a0e36d3c55bb22d6d54af1eeff7157ff7" target="_top" xlink:title="スレッド強制終了 ">
<polygon fill="none" stroke="black" points="553,-76.5 553,-95.5 601,-95.5 601,-76.5 553,-76.5"/>
<text text-anchor="middle" x="577" y="-83.5" font-family="Helvetica,sans-Serif" font-size="10.00">kz_exit</text>
</a>
</g>
<!-- Node14&#45;&gt;Node15 -->
<g id="edge32" class="edge"><title>Node14&#45;&gt;Node15</title>
<path fill="none" stroke="midnightblue" d="M505.192,-86C517.238,-86 530.841,-86 542.881,-86"/>
<polygon fill="midnightblue" stroke="midnightblue" points="542.981,-89.5001 552.981,-86 542.98,-82.5001 542.981,-89.5001"/>
</g>
<!-- Node16 -->
<g id="node33" class="node"><title>Node16</title>
<a xlink:href="kozos_8c.html#a2ef06efeac9f498bbabbf145fa8eb107" target="_top" xlink:title="kz_syscall">
<polygon fill="none" stroke="black" points="655,-76.5 655,-95.5 719,-95.5 719,-76.5 655,-76.5"/>
<text text-anchor="middle" x="687" y="-83.5" font-family="Helvetica,sans-Serif" font-size="10.00">kz_syscall</text>
</a>
</g>
<!-- Node15&#45;&gt;Node16 -->
<g id="edge34" class="edge"><title>Node15&#45;&gt;Node16</title>
<path fill="none" stroke="midnightblue" d="M601.169,-86C613.737,-86 629.657,-86 644.301,-86"/>
<polygon fill="midnightblue" stroke="midnightblue" points="644.674,-89.5001 654.674,-86 644.674,-82.5001 644.674,-89.5001"/>
</g>
</g>
</svg>
