<?xml version="1.0" encoding="UTF-8" standalone="no"?>
<!DOCTYPE svg PUBLIC "-//W3C//DTD SVG 1.1//EN"
 "http://www.w3.org/Graphics/SVG/1.1/DTD/svg11.dtd">
<!-- Generated by graphviz version 2.28.0 (20130928.0220)
 -->
<!-- Title: get_vacant_TCB Pages: 1 -->
<svg width="690pt" height="47pt"
 viewBox="0.00 0.00 690.00 47.00" xmlns="http://www.w3.org/2000/svg" xmlns:xlink="http://www.w3.org/1999/xlink">
<g id="graph1" class="graph" transform="scale(1 1) rotate(0) translate(4 43)">
<title>get_vacant_TCB</title>
<!-- Node1 -->
<g id="node1" class="node"><title>Node1</title>
<polygon fill="#bfbfbf" stroke="black" points="0.5,-0.5 0.5,-19.5 93.5,-19.5 93.5,-0.5 0.5,-0.5"/>
<text text-anchor="middle" x="47" y="-7.5" font-family="Helvetica,sans-Serif" font-size="10.00">get_vacant_TCB</text>
</g>
<!-- Node2 -->
<g id="node3" class="node"><title>Node2</title>
<a xlink:href="kozos_8c.html#a97037911d8c4942f91aea9e2d215113f" target="_top" xlink:title="thread_run">
<polygon fill="none" stroke="black" points="130,-0.5 130,-19.5 194,-19.5 194,-0.5 130,-0.5"/>
<text text-anchor="middle" x="162" y="-7.5" font-family="Helvetica,sans-Serif" font-size="10.00">thread_run</text>
</a>
</g>
<!-- Node1&#45;&gt;Node2 -->
<g id="edge2" class="edge"><title>Node1&#45;&gt;Node2</title>
<path fill="none" stroke="midnightblue" d="M103.692,-10C112.652,-10 121.639,-10 129.752,-10"/>
<polygon fill="midnightblue" stroke="midnightblue" points="103.636,-6.5001 93.6357,-10 103.636,-13.5001 103.636,-6.5001"/>
</g>
<!-- Node3 -->
<g id="node5" class="node"><title>Node3</title>
<a xlink:href="kozos_8c.html#acd68041208fa0120669ac78343a47dc0" target="_top" xlink:title="call_functions">
<polygon fill="none" stroke="black" points="230.5,-19.5 230.5,-38.5 307.5,-38.5 307.5,-19.5 230.5,-19.5"/>
<text text-anchor="middle" x="269" y="-26.5" font-family="Helvetica,sans-Serif" font-size="10.00">call_functions</text>
</a>
</g>
<!-- Node2&#45;&gt;Node3 -->
<g id="edge4" class="edge"><title>Node2&#45;&gt;Node3</title>
<path fill="none" stroke="midnightblue" d="M204.128,-17.4422C212.79,-19.0096 221.886,-20.6556 230.41,-22.198"/>
<polygon fill="midnightblue" stroke="midnightblue" points="204.683,-13.9858 194.219,-15.6492 203.436,-20.8739 204.683,-13.9858"/>
</g>
<!-- Node6 -->
<g id="node11" class="node"><title>Node6</title>
<a xlink:href="kozos_8h.html#a7078d5505c1e0c61af51bc66e5025685" target="_top" xlink:title="ライブラリ関数 ">
<polygon fill="none" stroke="black" points="556.5,-0.5 556.5,-19.5 607.5,-19.5 607.5,-0.5 556.5,-0.5"/>
<text text-anchor="middle" x="582" y="-7.5" font-family="Helvetica,sans-Serif" font-size="10.00">kz_start</text>
</a>
</g>
<!-- Node2&#45;&gt;Node6 -->
<g id="edge14" class="edge"><title>Node2&#45;&gt;Node6</title>
<path fill="none" stroke="midnightblue" d="M204.268,-10C290.474,-10 487.38,-10 556.482,-10"/>
<polygon fill="midnightblue" stroke="midnightblue" points="204.076,-6.5001 194.076,-10 204.076,-13.5001 204.076,-6.5001"/>
</g>
<!-- Node4 -->
<g id="node7" class="node"><title>Node4</title>
<a xlink:href="kozos_8c.html#aef8f2fde0f7865d66b9a7daf0e2426e0" target="_top" xlink:title="syscall_proc">
<polygon fill="none" stroke="black" points="344.5,-19.5 344.5,-38.5 417.5,-38.5 417.5,-19.5 344.5,-19.5"/>
<text text-anchor="middle" x="381" y="-26.5" font-family="Helvetica,sans-Serif" font-size="10.00">syscall_proc</text>
</a>
</g>
<!-- Node3&#45;&gt;Node4 -->
<g id="edge6" class="edge"><title>Node3&#45;&gt;Node4</title>
<path fill="none" stroke="midnightblue" d="M317.573,-29C326.601,-29 335.901,-29 344.476,-29"/>
<polygon fill="midnightblue" stroke="midnightblue" points="317.548,-25.5001 307.548,-29 317.548,-32.5001 317.548,-25.5001"/>
</g>
<!-- Node5 -->
<g id="node9" class="node"><title>Node5</title>
<a xlink:href="kozos_8c.html#a69f871c66a43d6f0a644c57def130160" target="_top" xlink:title="syscall_intr">
<polygon fill="none" stroke="black" points="454,-19.5 454,-38.5 520,-38.5 520,-19.5 454,-19.5"/>
<text text-anchor="middle" x="487" y="-26.5" font-family="Helvetica,sans-Serif" font-size="10.00">syscall_intr</text>
</a>
</g>
<!-- Node4&#45;&gt;Node5 -->
<g id="edge8" class="edge"><title>Node4&#45;&gt;Node5</title>
<path fill="none" stroke="midnightblue" d="M427.667,-29C436.476,-29 445.532,-29 453.802,-29"/>
<polygon fill="midnightblue" stroke="midnightblue" points="427.5,-25.5001 417.5,-29 427.5,-32.5001 427.5,-25.5001"/>
</g>
<!-- Node5&#45;&gt;Node6 -->
<g id="edge10" class="edge"><title>Node5&#45;&gt;Node6</title>
<path fill="none" stroke="midnightblue" d="M529.988,-20.4218C538.979,-18.5849 548.198,-16.7015 556.282,-15.0499"/>
<polygon fill="midnightblue" stroke="midnightblue" points="529.102,-17.0304 520.005,-22.4613 530.504,-23.8887 529.102,-17.0304"/>
</g>
<!-- Node7 -->
<g id="node13" class="node"><title>Node7</title>
<a xlink:href="os_2main_8c.html#a840291bc02cba5474a4cb46a9b9566fe" target="_top" xlink:title="main">
<polygon fill="none" stroke="black" points="644,-0.5 644,-19.5 682,-19.5 682,-0.5 644,-0.5"/>
<text text-anchor="middle" x="663" y="-7.5" font-family="Helvetica,sans-Serif" font-size="10.00">main</text>
</a>
</g>
<!-- Node6&#45;&gt;Node7 -->
<g id="edge12" class="edge"><title>Node6&#45;&gt;Node7</title>
<path fill="none" stroke="midnightblue" d="M617.584,-10C626.686,-10 636.142,-10 643.978,-10"/>
<polygon fill="midnightblue" stroke="midnightblue" points="617.563,-6.5001 607.563,-10 617.563,-13.5001 617.563,-6.5001"/>
</g>
</g>
</svg>
