<?xml version="1.0" encoding="UTF-8" standalone="no"?>
<!DOCTYPE svg PUBLIC "-//W3C//DTD SVG 1.1//EN"
 "http://www.w3.org/Graphics/SVG/1.1/DTD/svg11.dtd">
<!-- Generated by graphviz version 2.28.0 (20130928.0220)
 -->
<!-- Title: kz_start Pages: 1 -->
<svg width="998pt" height="408pt"
 viewBox="0.00 0.00 998.00 408.00" xmlns="http://www.w3.org/2000/svg" xmlns:xlink="http://www.w3.org/1999/xlink">
<g id="graph1" class="graph" transform="scale(1 1) rotate(0) translate(4 404)">
<title>kz_start</title>
<!-- Node1 -->
<g id="node1" class="node"><title>Node1</title>
<polygon fill="#bfbfbf" stroke="black" points="0.5,-247.5 0.5,-266.5 51.5,-266.5 51.5,-247.5 0.5,-247.5"/>
<text text-anchor="middle" x="26" y="-254.5" font-family="Helvetica,sans-Serif" font-size="10.00">kz_start</text>
</g>
<!-- Node2 -->
<g id="node3" class="node"><title>Node2</title>
<a xlink:href="kozos_8c.html#a22e9c35c1764d5ebe1d534d207f114b1" target="_top" xlink:title="dispatch">
<polygon fill="none" stroke="black" points="318,-380.5 318,-399.5 372,-399.5 372,-380.5 318,-380.5"/>
<text text-anchor="middle" x="345" y="-387.5" font-family="Helvetica,sans-Serif" font-size="10.00">dispatch</text>
</a>
</g>
<!-- Node1&#45;&gt;Node2 -->
<g id="edge2" class="edge"><title>Node1&#45;&gt;Node2</title>
<path fill="none" stroke="midnightblue" d="M32.3159,-266.55C41.6257,-282.461 62.3525,-314.475 88,-333 154.474,-381.014 254.114,-389.683 307.358,-390.602"/>
<polygon fill="midnightblue" stroke="midnightblue" points="307.646,-394.104 317.676,-390.692 307.707,-387.105 307.646,-394.104"/>
</g>
<!-- Node3 -->
<g id="node5" class="node"><title>Node3</title>
<a xlink:href="lib_8c.html#a89ddf4c406cf5f89be48dd3e4af4cdc4" target="_top" xlink:title="memset">
<polygon fill="none" stroke="black" points="652.5,-190.5 652.5,-209.5 705.5,-209.5 705.5,-190.5 652.5,-190.5"/>
<text text-anchor="middle" x="679" y="-197.5" font-family="Helvetica,sans-Serif" font-size="10.00">memset</text>
</a>
</g>
<!-- Node1&#45;&gt;Node3 -->
<g id="edge4" class="edge"><title>Node1&#45;&gt;Node3</title>
<path fill="none" stroke="midnightblue" d="M51.8076,-253.155C89.8402,-247.603 164.892,-238 229,-238 229,-238 229,-238 458,-238 528.728,-238 546.804,-233.642 616,-219 624.708,-217.157 633.951,-214.641 642.568,-212.042"/>
<polygon fill="midnightblue" stroke="midnightblue" points="643.827,-215.315 652.326,-208.989 641.737,-208.635 643.827,-215.315"/>
</g>
<!-- Node4 -->
<g id="node7" class="node"><title>Node4</title>
<a xlink:href="kozos_8c.html#a7f5d62b70099d281d35e0336463c49fc" target="_top" xlink:title="set interrupt handler ">
<polygon fill="none" stroke="black" points="99.5,-304.5 99.5,-323.5 142.5,-323.5 142.5,-304.5 99.5,-304.5"/>
<text text-anchor="middle" x="121" y="-311.5" font-family="Helvetica,sans-Serif" font-size="10.00">setintr</text>
</a>
</g>
<!-- Node1&#45;&gt;Node4 -->
<g id="edge6" class="edge"><title>Node1&#45;&gt;Node4</title>
<path fill="none" stroke="midnightblue" d="M42.7762,-266.669C57.2931,-275.567 79.0411,-288.896 95.7623,-299.145"/>
<polygon fill="midnightblue" stroke="midnightblue" points="94.1018,-302.232 104.457,-304.474 97.7598,-296.264 94.1018,-302.232"/>
</g>
<!-- Node13 -->
<g id="node26" class="node"><title>Node13</title>
<a xlink:href="kozos_8c.html#ad878125b5a334d151d787886f190ccf2" target="_top" xlink:title="softerr_intr">
<polygon fill="none" stroke="black" points="314,-266.5 314,-285.5 376,-285.5 376,-266.5 314,-266.5"/>
<text text-anchor="middle" x="345" y="-273.5" font-family="Helvetica,sans-Serif" font-size="10.00">softerr_intr</text>
</a>
</g>
<!-- Node1&#45;&gt;Node13 -->
<g id="edge26" class="edge"><title>Node1&#45;&gt;Node13</title>
<path fill="none" stroke="midnightblue" d="M51.6107,-258.475C106.015,-261.736 236.948,-269.584 303.58,-273.577"/>
<polygon fill="midnightblue" stroke="midnightblue" points="303.509,-277.079 313.7,-274.184 303.927,-270.092 303.509,-277.079"/>
</g>
<!-- Node15 -->
<g id="node33" class="node"><title>Node15</title>
<a xlink:href="kozos_8c.html#a69f871c66a43d6f0a644c57def130160" target="_top" xlink:title="syscall_intr">
<polygon fill="none" stroke="black" points="88,-190.5 88,-209.5 154,-209.5 154,-190.5 88,-190.5"/>
<text text-anchor="middle" x="121" y="-197.5" font-family="Helvetica,sans-Serif" font-size="10.00">syscall_intr</text>
</a>
</g>
<!-- Node1&#45;&gt;Node15 -->
<g id="edge36" class="edge"><title>Node1&#45;&gt;Node15</title>
<path fill="none" stroke="midnightblue" d="M42.7762,-247.331C57.2931,-238.433 79.0411,-225.104 95.7623,-214.855"/>
<polygon fill="midnightblue" stroke="midnightblue" points="97.7598,-217.736 104.457,-209.526 94.1018,-211.768 97.7598,-217.736"/>
</g>
<!-- Node18 -->
<g id="node40" class="node"><title>Node18</title>
<a xlink:href="kozos_8c.html#a8fd64516a2230c46e0e866aa3c54470b" target="_top" xlink:title="system call ">
<polygon fill="none" stroke="black" points="425,-123.5 425,-142.5 489,-142.5 489,-123.5 425,-123.5"/>
<text text-anchor="middle" x="457" y="-130.5" font-family="Helvetica,sans-Serif" font-size="10.00">thread_run</text>
</a>
</g>
<!-- Node1&#45;&gt;Node18 -->
<g id="edge66" class="edge"><title>Node1&#45;&gt;Node18</title>
<path fill="none" stroke="midnightblue" d="M31.6198,-247.327C40.1606,-230.626 60.1251,-196.668 88,-181 193.644,-121.619 342.71,-123.585 414.358,-128.806"/>
<polygon fill="midnightblue" stroke="midnightblue" points="414.519,-132.329 424.763,-129.628 415.07,-125.351 414.519,-132.329"/>
</g>
<!-- Node5 -->
<g id="node9" class="node"><title>Node5</title>
<a xlink:href="interrupt_8c.html#a77d3bbf145b56c7a6bc2706b44b71d68" target="_top" xlink:title="softvec_setintr">
<polygon fill="none" stroke="black" points="190,-304.5 190,-323.5 270,-323.5 270,-304.5 190,-304.5"/>
<text text-anchor="middle" x="230" y="-311.5" font-family="Helvetica,sans-Serif" font-size="10.00">softvec_setintr</text>
</a>
</g>
<!-- Node4&#45;&gt;Node5 -->
<g id="edge8" class="edge"><title>Node4&#45;&gt;Node5</title>
<path fill="none" stroke="midnightblue" d="M142.631,-314C153.173,-314 166.495,-314 179.5,-314"/>
<polygon fill="midnightblue" stroke="midnightblue" points="179.803,-317.5 189.803,-314 179.803,-310.5 179.803,-317.5"/>
</g>
<!-- Node6 -->
<g id="node11" class="node"><title>Node6</title>
<a xlink:href="kozos_8c.html#a064de18830e60998f8be0d67a0f2aabf" target="_top" xlink:title="thread_intr">
<polygon fill="none" stroke="black" points="198.5,-342.5 198.5,-361.5 261.5,-361.5 261.5,-342.5 198.5,-342.5"/>
<text text-anchor="middle" x="230" y="-349.5" font-family="Helvetica,sans-Serif" font-size="10.00">thread_intr</text>
</a>
</g>
<!-- Node4&#45;&gt;Node6 -->
<g id="edge10" class="edge"><title>Node4&#45;&gt;Node6</title>
<path fill="none" stroke="midnightblue" d="M142.631,-321.327C156.743,-326.339 175.838,-333.12 192.485,-339.032"/>
<polygon fill="midnightblue" stroke="midnightblue" points="191.353,-342.344 201.948,-342.393 193.695,-335.748 191.353,-342.344"/>
</g>
<!-- Node6&#45;&gt;Node2 -->
<g id="edge24" class="edge"><title>Node6&#45;&gt;Node2</title>
<path fill="none" stroke="midnightblue" d="M259.515,-361.589C274.21,-366.531 292.285,-372.609 307.94,-377.874"/>
<polygon fill="midnightblue" stroke="midnightblue" points="307.224,-381.325 317.818,-381.195 309.455,-374.691 307.224,-381.325"/>
</g>
<!-- Node7 -->
<g id="node13" class="node"><title>Node7</title>
<a xlink:href="kozos_8c.html#a63e3ec45b7bf0028e55f2b9ab1603306" target="_top" xlink:title="schedule">
<polygon fill="none" stroke="black" points="316,-342.5 316,-361.5 374,-361.5 374,-342.5 316,-342.5"/>
<text text-anchor="middle" x="345" y="-349.5" font-family="Helvetica,sans-Serif" font-size="10.00">schedule</text>
</a>
</g>
<!-- Node6&#45;&gt;Node7 -->
<g id="edge12" class="edge"><title>Node6&#45;&gt;Node7</title>
<path fill="none" stroke="midnightblue" d="M261.579,-352C275.149,-352 291.266,-352 305.633,-352"/>
<polygon fill="midnightblue" stroke="midnightblue" points="305.723,-355.5 315.723,-352 305.723,-348.5 305.723,-355.5"/>
</g>
<!-- Node8 -->
<g id="node15" class="node"><title>Node8</title>
<a xlink:href="kozos_8c.html#ad271cfae989a014d777a1f46903d6964" target="_top" xlink:title="kz_sysdown">
<polygon fill="none" stroke="black" points="420.5,-342.5 420.5,-361.5 493.5,-361.5 493.5,-342.5 420.5,-342.5"/>
<text text-anchor="middle" x="457" y="-349.5" font-family="Helvetica,sans-Serif" font-size="10.00">kz_sysdown</text>
</a>
</g>
<!-- Node7&#45;&gt;Node8 -->
<g id="edge14" class="edge"><title>Node7&#45;&gt;Node8</title>
<path fill="none" stroke="midnightblue" d="M374.042,-352C384.983,-352 397.814,-352 410.033,-352"/>
<polygon fill="midnightblue" stroke="midnightblue" points="410.098,-355.5 420.098,-352 410.098,-348.5 410.098,-355.5"/>
</g>
<!-- Node9 -->
<g id="node17" class="node"><title>Node9</title>
<a xlink:href="lib_8c.html#a44ddf1a8f6a75ff235a733ff8d90cae3" target="_top" xlink:title="puts">
<polygon fill="none" stroke="black" points="555.5,-304.5 555.5,-323.5 590.5,-323.5 590.5,-304.5 555.5,-304.5"/>
<text text-anchor="middle" x="573" y="-311.5" font-family="Helvetica,sans-Serif" font-size="10.00">puts</text>
</a>
</g>
<!-- Node8&#45;&gt;Node9 -->
<g id="edge16" class="edge"><title>Node8&#45;&gt;Node9</title>
<path fill="none" stroke="midnightblue" d="M486.767,-342.411C504.852,-336.383 528.011,-328.663 545.623,-322.792"/>
<polygon fill="midnightblue" stroke="midnightblue" points="546.891,-326.059 555.271,-319.576 544.677,-319.418 546.891,-326.059"/>
</g>
<!-- Node10 -->
<g id="node19" class="node"><title>Node10</title>
<a xlink:href="lib_8c.html#acee36427208c7c321ab875217dca17c4" target="_top" xlink:title="putc">
<polygon fill="none" stroke="black" points="661.5,-304.5 661.5,-323.5 696.5,-323.5 696.5,-304.5 661.5,-304.5"/>
<text text-anchor="middle" x="679" y="-311.5" font-family="Helvetica,sans-Serif" font-size="10.00">putc</text>
</a>
</g>
<!-- Node9&#45;&gt;Node10 -->
<g id="edge18" class="edge"><title>Node9&#45;&gt;Node10</title>
<path fill="none" stroke="midnightblue" d="M590.709,-314C607.009,-314 632.067,-314 651.161,-314"/>
<polygon fill="midnightblue" stroke="midnightblue" points="651.332,-317.5 661.332,-314 651.332,-310.5 651.332,-317.5"/>
</g>
<!-- Node11 -->
<g id="node21" class="node"><title>Node11</title>
<a xlink:href="serial_8c.html#aed0806bd3de71f20d6df8ef6f49bda31" target="_top" xlink:title="serial_send_byte">
<polygon fill="none" stroke="black" points="742.5,-304.5 742.5,-323.5 835.5,-323.5 835.5,-304.5 742.5,-304.5"/>
<text text-anchor="middle" x="789" y="-311.5" font-family="Helvetica,sans-Serif" font-size="10.00">serial_send_byte</text>
</a>
</g>
<!-- Node10&#45;&gt;Node11 -->
<g id="edge20" class="edge"><title>Node10&#45;&gt;Node11</title>
<path fill="none" stroke="midnightblue" d="M696.875,-314C706.518,-314 719.223,-314 732.073,-314"/>
<polygon fill="midnightblue" stroke="midnightblue" points="732.355,-317.5 742.355,-314 732.355,-310.5 732.355,-317.5"/>
</g>
<!-- Node12 -->
<g id="node23" class="node"><title>Node12</title>
<a xlink:href="serial_8c.html#abf48ded30f8aa6fff8cb48dce0af0590" target="_top" xlink:title="serial_is_send_enable">
<polygon fill="none" stroke="black" points="872,-304.5 872,-323.5 990,-323.5 990,-304.5 872,-304.5"/>
<text text-anchor="middle" x="931" y="-311.5" font-family="Helvetica,sans-Serif" font-size="10.00">serial_is_send_enable</text>
</a>
</g>
<!-- Node11&#45;&gt;Node12 -->
<g id="edge22" class="edge"><title>Node11&#45;&gt;Node12</title>
<path fill="none" stroke="midnightblue" d="M835.841,-314C844.095,-314 852.859,-314 861.591,-314"/>
<polygon fill="midnightblue" stroke="midnightblue" points="861.793,-317.5 871.793,-314 861.793,-310.5 861.793,-317.5"/>
</g>
<!-- Node13&#45;&gt;Node9 -->
<g id="edge28" class="edge"><title>Node13&#45;&gt;Node9</title>
<path fill="none" stroke="midnightblue" d="M376.048,-284.639C389.417,-288.242 405.406,-292.226 420,-295 463.513,-303.271 514.742,-308.822 545.232,-311.691"/>
<polygon fill="midnightblue" stroke="midnightblue" points="545.196,-315.203 555.473,-312.627 545.833,-308.232 545.196,-315.203"/>
</g>
<!-- Node14 -->
<g id="node29" class="node"><title>Node14</title>
<a xlink:href="kozos_8c.html#a4dd8e8425a1c0c5d866a9271d243cdef" target="_top" xlink:title="thread_exit">
<polygon fill="none" stroke="black" points="424,-266.5 424,-285.5 490,-285.5 490,-266.5 424,-266.5"/>
<text text-anchor="middle" x="457" y="-273.5" font-family="Helvetica,sans-Serif" font-size="10.00">thread_exit</text>
</a>
</g>
<!-- Node13&#45;&gt;Node14 -->
<g id="edge30" class="edge"><title>Node13&#45;&gt;Node14</title>
<path fill="none" stroke="midnightblue" d="M376.058,-276C387.588,-276 400.972,-276 413.454,-276"/>
<polygon fill="midnightblue" stroke="midnightblue" points="413.666,-279.5 423.665,-276 413.665,-272.5 413.666,-279.5"/>
</g>
<!-- Node14&#45;&gt;Node3 -->
<g id="edge34" class="edge"><title>Node14&#45;&gt;Node3</title>
<path fill="none" stroke="midnightblue" d="M490.001,-276.145C522.971,-275.171 575.165,-270.448 616,-252 633.892,-243.917 650.726,-229.163 662.325,-217.43"/>
<polygon fill="midnightblue" stroke="midnightblue" points="665.119,-219.57 669.467,-209.909 660.043,-214.75 665.119,-219.57"/>
</g>
<!-- Node14&#45;&gt;Node9 -->
<g id="edge32" class="edge"><title>Node14&#45;&gt;Node9</title>
<path fill="none" stroke="midnightblue" d="M486.767,-285.589C504.852,-291.617 528.011,-299.337 545.623,-305.208"/>
<polygon fill="midnightblue" stroke="midnightblue" points="544.677,-308.582 555.271,-308.424 546.891,-301.941 544.677,-308.582"/>
</g>
<!-- Node16 -->
<g id="node35" class="node"><title>Node16</title>
<a xlink:href="kozos_8c.html#aef8f2fde0f7865d66b9a7daf0e2426e0" target="_top" xlink:title="syscall_proc">
<polygon fill="none" stroke="black" points="193.5,-190.5 193.5,-209.5 266.5,-209.5 266.5,-190.5 193.5,-190.5"/>
<text text-anchor="middle" x="230" y="-197.5" font-family="Helvetica,sans-Serif" font-size="10.00">syscall_proc</text>
</a>
</g>
<!-- Node15&#45;&gt;Node16 -->
<g id="edge38" class="edge"><title>Node15&#45;&gt;Node16</title>
<path fill="none" stroke="midnightblue" d="M154.104,-200C163.241,-200 173.375,-200 183.161,-200"/>
<polygon fill="midnightblue" stroke="midnightblue" points="183.175,-203.5 193.175,-200 183.175,-196.5 183.175,-203.5"/>
</g>
<!-- Node17 -->
<g id="node37" class="node"><title>Node17</title>
<a xlink:href="kozos_8c.html#acd68041208fa0120669ac78343a47dc0" target="_top" xlink:title="call_functions">
<polygon fill="none" stroke="black" points="306.5,-190.5 306.5,-209.5 383.5,-209.5 383.5,-190.5 306.5,-190.5"/>
<text text-anchor="middle" x="345" y="-197.5" font-family="Helvetica,sans-Serif" font-size="10.00">call_functions</text>
</a>
</g>
<!-- Node16&#45;&gt;Node17 -->
<g id="edge40" class="edge"><title>Node16&#45;&gt;Node17</title>
<path fill="none" stroke="midnightblue" d="M266.754,-200C276.064,-200 286.246,-200 296.075,-200"/>
<polygon fill="midnightblue" stroke="midnightblue" points="296.137,-203.5 306.137,-200 296.137,-196.5 296.137,-203.5"/>
</g>
<!-- Node17&#45;&gt;Node14 -->
<g id="edge42" class="edge"><title>Node17&#45;&gt;Node14</title>
<path fill="none" stroke="midnightblue" d="M359.932,-209.625C378.528,-222.474 411.679,-245.378 433.755,-260.63"/>
<polygon fill="midnightblue" stroke="midnightblue" points="431.965,-263.648 442.182,-266.453 435.944,-257.889 431.965,-263.648"/>
</g>
<!-- Node17&#45;&gt;Node18 -->
<g id="edge44" class="edge"><title>Node17&#45;&gt;Node18</title>
<path fill="none" stroke="midnightblue" d="M361.76,-190.401C379.976,-179.306 410.173,-160.913 431.468,-147.942"/>
<polygon fill="midnightblue" stroke="midnightblue" points="433.549,-150.773 440.269,-142.582 429.908,-144.794 433.549,-150.773"/>
</g>
<!-- Node19 -->
<g id="node42" class="node"><title>Node19</title>
<a xlink:href="kozos_8c.html#a2e6488cfd47118e19d4407d3a23eac3f" target="_top" xlink:title="create TCB ">
<polygon fill="none" stroke="black" points="537,-152.5 537,-171.5 609,-171.5 609,-152.5 537,-152.5"/>
<text text-anchor="middle" x="573" y="-159.5" font-family="Helvetica,sans-Serif" font-size="10.00">create_TCB</text>
</a>
</g>
<!-- Node18&#45;&gt;Node19 -->
<g id="edge46" class="edge"><title>Node18&#45;&gt;Node19</title>
<path fill="none" stroke="midnightblue" d="M489.151,-140.924C500.803,-143.889 514.284,-147.318 526.942,-150.538"/>
<polygon fill="midnightblue" stroke="midnightblue" points="526.312,-153.989 536.866,-153.062 528.038,-147.205 526.312,-153.989"/>
</g>
<!-- Node20 -->
<g id="node45" class="node"><title>Node20</title>
<a xlink:href="lib_8c.html#a4f18eec0e70dda8f611c6d629494a8de" target="_top" xlink:title="strcpy">
<polygon fill="none" stroke="black" points="551.5,-190.5 551.5,-209.5 594.5,-209.5 594.5,-190.5 551.5,-190.5"/>
<text text-anchor="middle" x="573" y="-197.5" font-family="Helvetica,sans-Serif" font-size="10.00">strcpy</text>
</a>
</g>
<!-- Node18&#45;&gt;Node20 -->
<g id="edge50" class="edge"><title>Node18&#45;&gt;Node20</title>
<path fill="none" stroke="midnightblue" d="M470.865,-142.512C484.965,-152.711 508.454,-169.049 530,-181 533.779,-183.096 537.833,-185.153 541.877,-187.095"/>
<polygon fill="midnightblue" stroke="midnightblue" points="540.616,-190.368 551.162,-191.379 543.548,-184.012 540.616,-190.368"/>
</g>
<!-- Node21 -->
<g id="node47" class="node"><title>Node21</title>
<a xlink:href="kozos_8c.html#a92177eed4eabc923bcd27462d8ce57b8" target="_top" xlink:title="get_stack_area">
<polygon fill="none" stroke="black" points="530,-114.5 530,-133.5 616,-133.5 616,-114.5 530,-114.5"/>
<text text-anchor="middle" x="573" y="-121.5" font-family="Helvetica,sans-Serif" font-size="10.00">get_stack_area</text>
</a>
</g>
<!-- Node18&#45;&gt;Node21 -->
<g id="edge52" class="edge"><title>Node18&#45;&gt;Node21</title>
<path fill="none" stroke="midnightblue" d="M489.151,-130.541C498.545,-129.799 509.128,-128.964 519.51,-128.144"/>
<polygon fill="midnightblue" stroke="midnightblue" points="520.08,-131.61 529.773,-127.334 519.529,-124.632 520.08,-131.61"/>
</g>
<!-- Node22 -->
<g id="node50" class="node"><title>Node22</title>
<a xlink:href="kozos_8c.html#ac4d8f9724e6cfa40d91cd63fa8c275d2" target="_top" xlink:title="thread_end">
<polygon fill="none" stroke="black" points="539,-0.5 539,-19.5 607,-19.5 607,-0.5 539,-0.5"/>
<text text-anchor="middle" x="573" y="-7.5" font-family="Helvetica,sans-Serif" font-size="10.00">thread_end</text>
</a>
</g>
<!-- Node18&#45;&gt;Node22 -->
<g id="edge56" class="edge"><title>Node18&#45;&gt;Node22</title>
<path fill="none" stroke="midnightblue" d="M462.416,-123.389C472.048,-103.357 496.774,-56.7056 530,-29 531.936,-27.3855 534.032,-25.8807 536.218,-24.483"/>
<polygon fill="midnightblue" stroke="midnightblue" points="537.922,-27.5401 544.957,-19.6175 534.517,-21.4242 537.922,-27.5401"/>
</g>
<!-- Node25 -->
<g id="node56" class="node"><title>Node25</title>
<a xlink:href="kozos_8c.html#a3ac934c923c7f023b80805c9b7dad8a3" target="_top" xlink:title="start up thread ">
<polygon fill="none" stroke="black" points="542,-76.5 542,-95.5 604,-95.5 604,-76.5 542,-76.5"/>
<text text-anchor="middle" x="573" y="-83.5" font-family="Helvetica,sans-Serif" font-size="10.00">thread_init</text>
</a>
</g>
<!-- Node18&#45;&gt;Node25 -->
<g id="edge62" class="edge"><title>Node18&#45;&gt;Node25</title>
<path fill="none" stroke="midnightblue" d="M481.07,-123.489C497.801,-116.591 520.666,-107.164 539.281,-99.4893"/>
<polygon fill="midnightblue" stroke="midnightblue" points="540.662,-102.706 548.573,-95.6583 537.994,-96.2342 540.662,-102.706"/>
</g>
<!-- Node26 -->
<g id="node58" class="node"><title>Node26</title>
<a xlink:href="kozos_8c.html#a9cc7c96bdff0e4416f354672b2b1d183" target="_top" xlink:title="put">
<polygon fill="none" stroke="black" points="558.5,-38.5 558.5,-57.5 587.5,-57.5 587.5,-38.5 558.5,-38.5"/>
<text text-anchor="middle" x="573" y="-45.5" font-family="Helvetica,sans-Serif" font-size="10.00">put</text>
</a>
</g>
<!-- Node18&#45;&gt;Node26 -->
<g id="edge64" class="edge"><title>Node18&#45;&gt;Node26</title>
<path fill="none" stroke="midnightblue" d="M466.534,-123.449C479.279,-109.613 504.526,-83.8137 530,-67 535.786,-63.1811 542.465,-59.7712 548.771,-56.9307"/>
<polygon fill="midnightblue" stroke="midnightblue" points="550.335,-60.0694 558.19,-52.9589 547.616,-53.6194 550.335,-60.0694"/>
</g>
<!-- Node19&#45;&gt;Node3 -->
<g id="edge48" class="edge"><title>Node19&#45;&gt;Node3</title>
<path fill="none" stroke="midnightblue" d="M600.244,-171.589C613.124,-176.295 628.824,-182.032 642.736,-187.115"/>
<polygon fill="midnightblue" stroke="midnightblue" points="641.89,-190.532 652.484,-190.677 644.292,-183.957 641.89,-190.532"/>
</g>
<!-- Node21&#45;&gt;Node3 -->
<g id="edge54" class="edge"><title>Node21&#45;&gt;Node3</title>
<path fill="none" stroke="midnightblue" d="M598.686,-133.587C604.555,-136.29 610.659,-139.469 616,-143 633.21,-154.377 650.282,-170.527 662.142,-182.734"/>
<polygon fill="midnightblue" stroke="midnightblue" points="659.708,-185.254 669.131,-190.096 664.784,-180.434 659.708,-185.254"/>
</g>
<!-- Node23 -->
<g id="node52" class="node"><title>Node23</title>
<a xlink:href="kozos_8h.html#a0e36d3c55bb22d6d54af1eeff7157ff7" target="_top" xlink:title="スレッド強制終了 ">
<polygon fill="none" stroke="black" points="655,-0.5 655,-19.5 703,-19.5 703,-0.5 655,-0.5"/>
<text text-anchor="middle" x="679" y="-7.5" font-family="Helvetica,sans-Serif" font-size="10.00">kz_exit</text>
</a>
</g>
<!-- Node22&#45;&gt;Node23 -->
<g id="edge58" class="edge"><title>Node22&#45;&gt;Node23</title>
<path fill="none" stroke="midnightblue" d="M607.192,-10C619.238,-10 632.841,-10 644.881,-10"/>
<polygon fill="midnightblue" stroke="midnightblue" points="644.981,-13.5001 654.981,-10 644.98,-6.5001 644.981,-13.5001"/>
</g>
<!-- Node24 -->
<g id="node54" class="node"><title>Node24</title>
<a xlink:href="kozos_8c.html#a2ef06efeac9f498bbabbf145fa8eb107" target="_top" xlink:title="kz_syscall">
<polygon fill="none" stroke="black" points="757,-0.5 757,-19.5 821,-19.5 821,-0.5 757,-0.5"/>
<text text-anchor="middle" x="789" y="-7.5" font-family="Helvetica,sans-Serif" font-size="10.00">kz_syscall</text>
</a>
</g>
<!-- Node23&#45;&gt;Node24 -->
<g id="edge60" class="edge"><title>Node23&#45;&gt;Node24</title>
<path fill="none" stroke="midnightblue" d="M703.169,-10C715.737,-10 731.657,-10 746.301,-10"/>
<polygon fill="midnightblue" stroke="midnightblue" points="746.674,-13.5001 756.674,-10 746.674,-6.5001 746.674,-13.5001"/>
</g>
</g>
</svg>
