<?xml version="1.0" encoding="UTF-8" standalone="no"?>
<!DOCTYPE svg PUBLIC "-//W3C//DTD SVG 1.1//EN"
 "http://www.w3.org/Graphics/SVG/1.1/DTD/svg11.dtd">
<!-- Generated by graphviz version 2.28.0 (20130928.0220)
 -->
<!-- Title: src/os/kozos.h Pages: 1 -->
<svg width="108pt" height="140pt"
 viewBox="0.00 0.00 108.00 140.00" xmlns="http://www.w3.org/2000/svg" xmlns:xlink="http://www.w3.org/1999/xlink">
<g id="graph1" class="graph" transform="scale(1 1) rotate(0) translate(4 136)">
<title>src/os/kozos.h</title>
<!-- Node1 -->
<g id="node1" class="node"><title>Node1</title>
<polygon fill="#bfbfbf" stroke="black" points="2.5,-112.5 2.5,-131.5 85.5,-131.5 85.5,-112.5 2.5,-112.5"/>
<text text-anchor="middle" x="44" y="-119.5" font-family="Helvetica,sans-Serif" font-size="10.00">src/os/kozos.h</text>
</g>
<!-- Node2 -->
<g id="node3" class="node"><title>Node2</title>
<a xlink:href="defines_8h.html" target="_top" xlink:title="../misc/defines.h">
<polygon fill="none" stroke="black" points="-0.5,-0.5 -0.5,-19.5 88.5,-19.5 88.5,-0.5 -0.5,-0.5"/>
<text text-anchor="middle" x="44" y="-7.5" font-family="Helvetica,sans-Serif" font-size="10.00">../misc/defines.h</text>
</a>
</g>
<!-- Node1&#45;&gt;Node2 -->
<g id="edge2" class="edge"><title>Node1&#45;&gt;Node2</title>
<path fill="none" stroke="midnightblue" d="M41.4461,-112.195C38.1335,-99.7219 33.0018,-76.1798 35,-56 35.8744,-47.1697 37.6914,-37.5054 39.4654,-29.4041"/>
<polygon fill="midnightblue" stroke="midnightblue" points="42.9006,-30.0846 41.7652,-19.5508 36.0838,-28.4935 42.9006,-30.0846"/>
</g>
<!-- Node3 -->
<g id="node5" class="node"><title>Node3</title>
<a xlink:href="syscall_8h.html" target="_top" xlink:title="syscall.h">
<polygon fill="none" stroke="black" points="44,-56.5 44,-75.5 100,-75.5 100,-56.5 44,-56.5"/>
<text text-anchor="middle" x="72" y="-63.5" font-family="Helvetica,sans-Serif" font-size="10.00">syscall.h</text>
</a>
</g>
<!-- Node1&#45;&gt;Node3 -->
<g id="edge4" class="edge"><title>Node1&#45;&gt;Node3</title>
<path fill="none" stroke="midnightblue" d="M48.6236,-112.083C52.4563,-104.691 58.0242,-93.9533 62.7646,-84.8111"/>
<polygon fill="midnightblue" stroke="midnightblue" points="65.9663,-86.2398 67.4624,-75.7511 59.752,-83.0175 65.9663,-86.2398"/>
</g>
<!-- Node3&#45;&gt;Node2 -->
<g id="edge6" class="edge"><title>Node3&#45;&gt;Node2</title>
<path fill="none" stroke="midnightblue" d="M67.3764,-56.083C63.5437,-48.6913 57.9758,-37.9533 53.2354,-28.8111"/>
<polygon fill="midnightblue" stroke="midnightblue" points="56.248,-27.0175 48.5376,-19.7511 50.0337,-30.2398 56.248,-27.0175"/>
</g>
</g>
</svg>
