<?xml version="1.0" encoding="UTF-8" standalone="no"?>
<!DOCTYPE svg PUBLIC "-//W3C//DTD SVG 1.1//EN"
 "http://www.w3.org/Graphics/SVG/1.1/DTD/svg11.dtd">
<!-- Generated by graphviz version 2.28.0 (20130928.0220)
 -->
<!-- Title: thread_end Pages: 1 -->
<svg width="260pt" height="28pt"
 viewBox="0.00 0.00 260.00 28.00" xmlns="http://www.w3.org/2000/svg" xmlns:xlink="http://www.w3.org/1999/xlink">
<g id="graph1" class="graph" transform="scale(1 1) rotate(0) translate(4 24)">
<title>thread_end</title>
<!-- Node1 -->
<g id="node1" class="node"><title>Node1</title>
<polygon fill="#bfbfbf" stroke="black" points="0,-0.5 0,-19.5 68,-19.5 68,-0.5 0,-0.5"/>
<text text-anchor="middle" x="34" y="-7.5" font-family="Helvetica,sans-Serif" font-size="10.00">thread_end</text>
</g>
<!-- Node2 -->
<g id="node3" class="node"><title>Node2</title>
<a xlink:href="kozos_8h.html#a0e36d3c55bb22d6d54af1eeff7157ff7" target="_top" xlink:title="スレッド強制終了 ">
<polygon fill="none" stroke="black" points="104,-0.5 104,-19.5 152,-19.5 152,-0.5 104,-0.5"/>
<text text-anchor="middle" x="128" y="-7.5" font-family="Helvetica,sans-Serif" font-size="10.00">kz_exit</text>
</a>
</g>
<!-- Node1&#45;&gt;Node2 -->
<g id="edge2" class="edge"><title>Node1&#45;&gt;Node2</title>
<path fill="none" stroke="midnightblue" d="M68.2141,-10C76.5377,-10 85.4679,-10 93.7912,-10"/>
<polygon fill="midnightblue" stroke="midnightblue" points="93.9181,-13.5001 103.918,-10 93.9181,-6.5001 93.9181,-13.5001"/>
</g>
<!-- Node3 -->
<g id="node5" class="node"><title>Node3</title>
<a xlink:href="kozos_8c.html#a2ef06efeac9f498bbabbf145fa8eb107" target="_top" xlink:title="kz_syscall">
<polygon fill="none" stroke="black" points="188,-0.5 188,-19.5 252,-19.5 252,-0.5 188,-0.5"/>
<text text-anchor="middle" x="220" y="-7.5" font-family="Helvetica,sans-Serif" font-size="10.00">kz_syscall</text>
</a>
</g>
<!-- Node2&#45;&gt;Node3 -->
<g id="edge4" class="edge"><title>Node2&#45;&gt;Node3</title>
<path fill="none" stroke="midnightblue" d="M152.177,-10C159.964,-10 168.9,-10 177.651,-10"/>
<polygon fill="midnightblue" stroke="midnightblue" points="177.759,-13.5001 187.759,-10 177.759,-6.5001 177.759,-13.5001"/>
</g>
</g>
</svg>
