<?xml version="1.0" encoding="UTF-8" standalone="no"?>
<!DOCTYPE svg PUBLIC "-//W3C//DTD SVG 1.1//EN"
 "http://www.w3.org/Graphics/SVG/1.1/DTD/svg11.dtd">
<!-- Generated by graphviz version 2.28.0 (20130928.0220)
 -->
<!-- Title: schedule Pages: 1 -->
<svg width="408pt" height="28pt"
 viewBox="0.00 0.00 408.00 28.00" xmlns="http://www.w3.org/2000/svg" xmlns:xlink="http://www.w3.org/1999/xlink">
<g id="graph1" class="graph" transform="scale(1 1) rotate(0) translate(4 24)">
<title>schedule</title>
<!-- Node1 -->
<g id="node1" class="node"><title>Node1</title>
<polygon fill="#bfbfbf" stroke="black" points="0,-0.5 0,-19.5 58,-19.5 58,-0.5 0,-0.5"/>
<text text-anchor="middle" x="29" y="-7.5" font-family="Helvetica,sans-Serif" font-size="10.00">schedule</text>
</g>
<!-- Node2 -->
<g id="node3" class="node"><title>Node2</title>
<a xlink:href="kozos_8c.html#a064de18830e60998f8be0d67a0f2aabf" target="_top" xlink:title="thread_intr">
<polygon fill="none" stroke="black" points="94.5,-0.5 94.5,-19.5 157.5,-19.5 157.5,-0.5 94.5,-0.5"/>
<text text-anchor="middle" x="126" y="-7.5" font-family="Helvetica,sans-Serif" font-size="10.00">thread_intr</text>
</a>
</g>
<!-- Node1&#45;&gt;Node2 -->
<g id="edge2" class="edge"><title>Node1&#45;&gt;Node2</title>
<path fill="none" stroke="midnightblue" d="M68.4758,-10C77.0956,-10 86.127,-10 94.3775,-10"/>
<polygon fill="midnightblue" stroke="midnightblue" points="68.246,-6.5001 58.2459,-10 68.2459,-13.5001 68.246,-6.5001"/>
</g>
<!-- Node3 -->
<g id="node5" class="node"><title>Node3</title>
<a xlink:href="kozos_8c.html#a7f5d62b70099d281d35e0336463c49fc" target="_top" xlink:title="set interrupt handler ">
<polygon fill="none" stroke="black" points="194.5,-0.5 194.5,-19.5 237.5,-19.5 237.5,-0.5 194.5,-0.5"/>
<text text-anchor="middle" x="216" y="-7.5" font-family="Helvetica,sans-Serif" font-size="10.00">setintr</text>
</a>
</g>
<!-- Node2&#45;&gt;Node3 -->
<g id="edge4" class="edge"><title>Node2&#45;&gt;Node3</title>
<path fill="none" stroke="midnightblue" d="M167.943,-10C177.089,-10 186.411,-10 194.319,-10"/>
<polygon fill="midnightblue" stroke="midnightblue" points="167.778,-6.5001 157.778,-10 167.778,-13.5001 167.778,-6.5001"/>
</g>
<!-- Node4 -->
<g id="node7" class="node"><title>Node4</title>
<a xlink:href="kozos_8h.html#a7078d5505c1e0c61af51bc66e5025685" target="_top" xlink:title="ライブラリ関数 ">
<polygon fill="none" stroke="black" points="274.5,-0.5 274.5,-19.5 325.5,-19.5 325.5,-0.5 274.5,-0.5"/>
<text text-anchor="middle" x="300" y="-7.5" font-family="Helvetica,sans-Serif" font-size="10.00">kz_start</text>
</a>
</g>
<!-- Node3&#45;&gt;Node4 -->
<g id="edge6" class="edge"><title>Node3&#45;&gt;Node4</title>
<path fill="none" stroke="midnightblue" d="M247.871,-10C256.574,-10 265.927,-10 274.223,-10"/>
<polygon fill="midnightblue" stroke="midnightblue" points="247.692,-6.5001 237.692,-10 247.692,-13.5001 247.692,-6.5001"/>
</g>
<!-- Node5 -->
<g id="node9" class="node"><title>Node5</title>
<a xlink:href="os_2main_8c.html#a840291bc02cba5474a4cb46a9b9566fe" target="_top" xlink:title="main">
<polygon fill="none" stroke="black" points="362,-0.5 362,-19.5 400,-19.5 400,-0.5 362,-0.5"/>
<text text-anchor="middle" x="381" y="-7.5" font-family="Helvetica,sans-Serif" font-size="10.00">main</text>
</a>
</g>
<!-- Node4&#45;&gt;Node5 -->
<g id="edge8" class="edge"><title>Node4&#45;&gt;Node5</title>
<path fill="none" stroke="midnightblue" d="M335.584,-10C344.686,-10 354.142,-10 361.978,-10"/>
<polygon fill="midnightblue" stroke="midnightblue" points="335.563,-6.5001 325.563,-10 335.563,-13.5001 335.563,-6.5001"/>
</g>
</g>
</svg>
