<?xml version="1.0" encoding="UTF-8" standalone="no"?>
<!DOCTYPE svg PUBLIC "-//W3C//DTD SVG 1.1//EN"
 "http://www.w3.org/Graphics/SVG/1.1/DTD/svg11.dtd">
<!-- Generated by graphviz version 2.28.0 (20130928.0220)
 -->
<!-- Title: thread_intr Pages: 1 -->
<svg width="704pt" height="66pt"
 viewBox="0.00 0.00 704.00 66.00" xmlns="http://www.w3.org/2000/svg" xmlns:xlink="http://www.w3.org/1999/xlink">
<g id="graph1" class="graph" transform="scale(1 1) rotate(0) translate(4 62)">
<title>thread_intr</title>
<!-- Node1 -->
<g id="node1" class="node"><title>Node1</title>
<polygon fill="#bfbfbf" stroke="black" points="0.5,-19.5 0.5,-38.5 63.5,-38.5 63.5,-19.5 0.5,-19.5"/>
<text text-anchor="middle" x="32" y="-26.5" font-family="Helvetica,sans-Serif" font-size="10.00">thread_intr</text>
</g>
<!-- Node2 -->
<g id="node3" class="node"><title>Node2</title>
<a xlink:href="kozos_8c.html#a22e9c35c1764d5ebe1d534d207f114b1" target="_top" xlink:title="dispatch">
<polygon fill="none" stroke="black" points="102,-38.5 102,-57.5 156,-57.5 156,-38.5 102,-38.5"/>
<text text-anchor="middle" x="129" y="-45.5" font-family="Helvetica,sans-Serif" font-size="10.00">dispatch</text>
</a>
</g>
<!-- Node1&#45;&gt;Node2 -->
<g id="edge2" class="edge"><title>Node1&#45;&gt;Node2</title>
<path fill="none" stroke="midnightblue" d="M63.5815,-35.1163C72.6635,-36.9327 82.6948,-38.939 92.0831,-40.8166"/>
<polygon fill="midnightblue" stroke="midnightblue" points="91.4504,-44.2593 101.943,-42.7885 92.8233,-37.3953 91.4504,-44.2593"/>
</g>
<!-- Node3 -->
<g id="node5" class="node"><title>Node3</title>
<a xlink:href="kozos_8c.html#a63e3ec45b7bf0028e55f2b9ab1603306" target="_top" xlink:title="schedule">
<polygon fill="none" stroke="black" points="100,-0.5 100,-19.5 158,-19.5 158,-0.5 100,-0.5"/>
<text text-anchor="middle" x="129" y="-7.5" font-family="Helvetica,sans-Serif" font-size="10.00">schedule</text>
</a>
</g>
<!-- Node1&#45;&gt;Node3 -->
<g id="edge4" class="edge"><title>Node1&#45;&gt;Node3</title>
<path fill="none" stroke="midnightblue" d="M63.5815,-22.8837C71.9245,-21.2151 81.0685,-19.3863 89.7793,-17.6441"/>
<polygon fill="midnightblue" stroke="midnightblue" points="90.6126,-21.0469 99.732,-15.6536 89.2398,-14.1828 90.6126,-21.0469"/>
</g>
<!-- Node4 -->
<g id="node7" class="node"><title>Node4</title>
<a xlink:href="kozos_8c.html#ad271cfae989a014d777a1f46903d6964" target="_top" xlink:title="kz_sysdown">
<polygon fill="none" stroke="black" points="194.5,-0.5 194.5,-19.5 267.5,-19.5 267.5,-0.5 194.5,-0.5"/>
<text text-anchor="middle" x="231" y="-7.5" font-family="Helvetica,sans-Serif" font-size="10.00">kz_sysdown</text>
</a>
</g>
<!-- Node3&#45;&gt;Node4 -->
<g id="edge6" class="edge"><title>Node3&#45;&gt;Node4</title>
<path fill="none" stroke="midnightblue" d="M158.122,-10C166.177,-10 175.176,-10 184.007,-10"/>
<polygon fill="midnightblue" stroke="midnightblue" points="184.23,-13.5001 194.23,-10 184.23,-6.5001 184.23,-13.5001"/>
</g>
<!-- Node5 -->
<g id="node9" class="node"><title>Node5</title>
<a xlink:href="lib_8c.html#a44ddf1a8f6a75ff235a733ff8d90cae3" target="_top" xlink:title="puts">
<polygon fill="none" stroke="black" points="304.5,-0.5 304.5,-19.5 339.5,-19.5 339.5,-0.5 304.5,-0.5"/>
<text text-anchor="middle" x="322" y="-7.5" font-family="Helvetica,sans-Serif" font-size="10.00">puts</text>
</a>
</g>
<!-- Node4&#45;&gt;Node5 -->
<g id="edge8" class="edge"><title>Node4&#45;&gt;Node5</title>
<path fill="none" stroke="midnightblue" d="M267.687,-10C276.43,-10 285.645,-10 293.909,-10"/>
<polygon fill="midnightblue" stroke="midnightblue" points="294.106,-13.5001 304.106,-10 294.106,-6.5001 294.106,-13.5001"/>
</g>
<!-- Node6 -->
<g id="node11" class="node"><title>Node6</title>
<a xlink:href="lib_8c.html#acee36427208c7c321ab875217dca17c4" target="_top" xlink:title="putc">
<polygon fill="none" stroke="black" points="376.5,-0.5 376.5,-19.5 411.5,-19.5 411.5,-0.5 376.5,-0.5"/>
<text text-anchor="middle" x="394" y="-7.5" font-family="Helvetica,sans-Serif" font-size="10.00">putc</text>
</a>
</g>
<!-- Node5&#45;&gt;Node6 -->
<g id="edge10" class="edge"><title>Node5&#45;&gt;Node6</title>
<path fill="none" stroke="midnightblue" d="M339.589,-10C347.407,-10 356.939,-10 365.774,-10"/>
<polygon fill="midnightblue" stroke="midnightblue" points="366.044,-13.5001 376.044,-10 366.044,-6.5001 366.044,-13.5001"/>
</g>
<!-- Node7 -->
<g id="node13" class="node"><title>Node7</title>
<a xlink:href="serial_8c.html#aed0806bd3de71f20d6df8ef6f49bda31" target="_top" xlink:title="serial_send_byte">
<polygon fill="none" stroke="black" points="448.5,-0.5 448.5,-19.5 541.5,-19.5 541.5,-0.5 448.5,-0.5"/>
<text text-anchor="middle" x="495" y="-7.5" font-family="Helvetica,sans-Serif" font-size="10.00">serial_send_byte</text>
</a>
</g>
<!-- Node6&#45;&gt;Node7 -->
<g id="edge12" class="edge"><title>Node6&#45;&gt;Node7</title>
<path fill="none" stroke="midnightblue" d="M411.794,-10C419.246,-10 428.487,-10 438.056,-10"/>
<polygon fill="midnightblue" stroke="midnightblue" points="438.084,-13.5001 448.084,-10 438.084,-6.5001 438.084,-13.5001"/>
</g>
<!-- Node8 -->
<g id="node15" class="node"><title>Node8</title>
<a xlink:href="serial_8c.html#abf48ded30f8aa6fff8cb48dce0af0590" target="_top" xlink:title="serial_is_send_enable">
<polygon fill="none" stroke="black" points="578,-0.5 578,-19.5 696,-19.5 696,-0.5 578,-0.5"/>
<text text-anchor="middle" x="637" y="-7.5" font-family="Helvetica,sans-Serif" font-size="10.00">serial_is_send_enable</text>
</a>
</g>
<!-- Node7&#45;&gt;Node8 -->
<g id="edge14" class="edge"><title>Node7&#45;&gt;Node8</title>
<path fill="none" stroke="midnightblue" d="M541.841,-10C550.095,-10 558.859,-10 567.591,-10"/>
<polygon fill="midnightblue" stroke="midnightblue" points="567.793,-13.5001 577.793,-10 567.793,-6.5001 567.793,-13.5001"/>
</g>
</g>
</svg>
