<?xml version="1.0" encoding="UTF-8" standalone="no"?>
<!DOCTYPE svg PUBLIC "-//W3C//DTD SVG 1.1//EN"
 "http://www.w3.org/Graphics/SVG/1.1/DTD/svg11.dtd">
<!-- Generated by graphviz version 2.28.0 (20130928.0220)
 -->
<!-- Title: thread_run Pages: 1 -->
<svg width="560pt" height="47pt"
 viewBox="0.00 0.00 560.00 47.00" xmlns="http://www.w3.org/2000/svg" xmlns:xlink="http://www.w3.org/1999/xlink">
<g id="graph1" class="graph" transform="scale(1 1) rotate(0) translate(4 43)">
<title>thread_run</title>
<!-- Node1 -->
<g id="node1" class="node"><title>Node1</title>
<polygon fill="#bfbfbf" stroke="black" points="0,-0.5 0,-19.5 64,-19.5 64,-0.5 0,-0.5"/>
<text text-anchor="middle" x="32" y="-7.5" font-family="Helvetica,sans-Serif" font-size="10.00">thread_run</text>
</g>
<!-- Node2 -->
<g id="node3" class="node"><title>Node2</title>
<a xlink:href="kozos_8c.html#acd68041208fa0120669ac78343a47dc0" target="_top" xlink:title="call_functions">
<polygon fill="none" stroke="black" points="100.5,-19.5 100.5,-38.5 177.5,-38.5 177.5,-19.5 100.5,-19.5"/>
<text text-anchor="middle" x="139" y="-26.5" font-family="Helvetica,sans-Serif" font-size="10.00">call_functions</text>
</a>
</g>
<!-- Node1&#45;&gt;Node2 -->
<g id="edge2" class="edge"><title>Node1&#45;&gt;Node2</title>
<path fill="none" stroke="midnightblue" d="M74.1281,-17.4422C82.7901,-19.0096 91.886,-20.6556 100.41,-22.198"/>
<polygon fill="midnightblue" stroke="midnightblue" points="74.6826,-13.9858 64.2192,-15.6492 73.4361,-20.8739 74.6826,-13.9858"/>
</g>
<!-- Node5 -->
<g id="node9" class="node"><title>Node5</title>
<a xlink:href="kozos_8h.html#a7078d5505c1e0c61af51bc66e5025685" target="_top" xlink:title="ライブラリ関数 ">
<polygon fill="none" stroke="black" points="426.5,-0.5 426.5,-19.5 477.5,-19.5 477.5,-0.5 426.5,-0.5"/>
<text text-anchor="middle" x="452" y="-7.5" font-family="Helvetica,sans-Serif" font-size="10.00">kz_start</text>
</a>
</g>
<!-- Node1&#45;&gt;Node5 -->
<g id="edge12" class="edge"><title>Node1&#45;&gt;Node5</title>
<path fill="none" stroke="midnightblue" d="M74.2681,-10C160.474,-10 357.38,-10 426.482,-10"/>
<polygon fill="midnightblue" stroke="midnightblue" points="74.0765,-6.5001 64.0764,-10 74.0764,-13.5001 74.0765,-6.5001"/>
</g>
<!-- Node3 -->
<g id="node5" class="node"><title>Node3</title>
<a xlink:href="kozos_8c.html#aef8f2fde0f7865d66b9a7daf0e2426e0" target="_top" xlink:title="syscall_proc">
<polygon fill="none" stroke="black" points="214.5,-19.5 214.5,-38.5 287.5,-38.5 287.5,-19.5 214.5,-19.5"/>
<text text-anchor="middle" x="251" y="-26.5" font-family="Helvetica,sans-Serif" font-size="10.00">syscall_proc</text>
</a>
</g>
<!-- Node2&#45;&gt;Node3 -->
<g id="edge4" class="edge"><title>Node2&#45;&gt;Node3</title>
<path fill="none" stroke="midnightblue" d="M187.573,-29C196.601,-29 205.901,-29 214.476,-29"/>
<polygon fill="midnightblue" stroke="midnightblue" points="187.548,-25.5001 177.548,-29 187.548,-32.5001 187.548,-25.5001"/>
</g>
<!-- Node4 -->
<g id="node7" class="node"><title>Node4</title>
<a xlink:href="kozos_8c.html#a69f871c66a43d6f0a644c57def130160" target="_top" xlink:title="syscall_intr">
<polygon fill="none" stroke="black" points="324,-19.5 324,-38.5 390,-38.5 390,-19.5 324,-19.5"/>
<text text-anchor="middle" x="357" y="-26.5" font-family="Helvetica,sans-Serif" font-size="10.00">syscall_intr</text>
</a>
</g>
<!-- Node3&#45;&gt;Node4 -->
<g id="edge6" class="edge"><title>Node3&#45;&gt;Node4</title>
<path fill="none" stroke="midnightblue" d="M297.667,-29C306.476,-29 315.532,-29 323.802,-29"/>
<polygon fill="midnightblue" stroke="midnightblue" points="297.5,-25.5001 287.5,-29 297.5,-32.5001 297.5,-25.5001"/>
</g>
<!-- Node4&#45;&gt;Node5 -->
<g id="edge8" class="edge"><title>Node4&#45;&gt;Node5</title>
<path fill="none" stroke="midnightblue" d="M399.988,-20.4218C408.979,-18.5849 418.198,-16.7015 426.282,-15.0499"/>
<polygon fill="midnightblue" stroke="midnightblue" points="399.102,-17.0304 390.005,-22.4613 400.504,-23.8887 399.102,-17.0304"/>
</g>
<!-- Node6 -->
<g id="node11" class="node"><title>Node6</title>
<a xlink:href="os_2main_8c.html#a840291bc02cba5474a4cb46a9b9566fe" target="_top" xlink:title="main">
<polygon fill="none" stroke="black" points="514,-0.5 514,-19.5 552,-19.5 552,-0.5 514,-0.5"/>
<text text-anchor="middle" x="533" y="-7.5" font-family="Helvetica,sans-Serif" font-size="10.00">main</text>
</a>
</g>
<!-- Node5&#45;&gt;Node6 -->
<g id="edge10" class="edge"><title>Node5&#45;&gt;Node6</title>
<path fill="none" stroke="midnightblue" d="M487.584,-10C496.686,-10 506.142,-10 513.978,-10"/>
<polygon fill="midnightblue" stroke="midnightblue" points="487.563,-6.5001 477.563,-10 487.563,-13.5001 487.563,-6.5001"/>
</g>
</g>
</svg>
