<?xml version="1.0" encoding="UTF-8" standalone="no"?>
<!DOCTYPE svg PUBLIC "-//W3C//DTD SVG 1.1//EN"
 "http://www.w3.org/Graphics/SVG/1.1/DTD/svg11.dtd">
<!-- Generated by graphviz version 2.28.0 (20130928.0220)
 -->
<!-- Title: kz_sysdown Pages: 1 -->
<svg width="518pt" height="28pt"
 viewBox="0.00 0.00 518.00 28.00" xmlns="http://www.w3.org/2000/svg" xmlns:xlink="http://www.w3.org/1999/xlink">
<g id="graph1" class="graph" transform="scale(1 1) rotate(0) translate(4 24)">
<title>kz_sysdown</title>
<!-- Node1 -->
<g id="node1" class="node"><title>Node1</title>
<polygon fill="#bfbfbf" stroke="black" points="0.5,-0.5 0.5,-19.5 73.5,-19.5 73.5,-0.5 0.5,-0.5"/>
<text text-anchor="middle" x="37" y="-7.5" font-family="Helvetica,sans-Serif" font-size="10.00">kz_sysdown</text>
</g>
<!-- Node2 -->
<g id="node3" class="node"><title>Node2</title>
<a xlink:href="kozos_8c.html#a63e3ec45b7bf0028e55f2b9ab1603306" target="_top" xlink:title="schedule">
<polygon fill="none" stroke="black" points="110,-0.5 110,-19.5 168,-19.5 168,-0.5 110,-0.5"/>
<text text-anchor="middle" x="139" y="-7.5" font-family="Helvetica,sans-Serif" font-size="10.00">schedule</text>
</a>
</g>
<!-- Node1&#45;&gt;Node2 -->
<g id="edge2" class="edge"><title>Node1&#45;&gt;Node2</title>
<path fill="none" stroke="midnightblue" d="M83.796,-10C92.6613,-10 101.704,-10 109.799,-10"/>
<polygon fill="midnightblue" stroke="midnightblue" points="83.5379,-6.5001 73.5378,-10 83.5378,-13.5001 83.5379,-6.5001"/>
</g>
<!-- Node3 -->
<g id="node5" class="node"><title>Node3</title>
<a xlink:href="kozos_8c.html#a064de18830e60998f8be0d67a0f2aabf" target="_top" xlink:title="thread_intr">
<polygon fill="none" stroke="black" points="204.5,-0.5 204.5,-19.5 267.5,-19.5 267.5,-0.5 204.5,-0.5"/>
<text text-anchor="middle" x="236" y="-7.5" font-family="Helvetica,sans-Serif" font-size="10.00">thread_intr</text>
</a>
</g>
<!-- Node2&#45;&gt;Node3 -->
<g id="edge4" class="edge"><title>Node2&#45;&gt;Node3</title>
<path fill="none" stroke="midnightblue" d="M178.476,-10C187.096,-10 196.127,-10 204.378,-10"/>
<polygon fill="midnightblue" stroke="midnightblue" points="178.246,-6.5001 168.246,-10 178.246,-13.5001 178.246,-6.5001"/>
</g>
<!-- Node4 -->
<g id="node7" class="node"><title>Node4</title>
<a xlink:href="kozos_8c.html#a7f5d62b70099d281d35e0336463c49fc" target="_top" xlink:title="set interrupt handler ">
<polygon fill="none" stroke="black" points="304.5,-0.5 304.5,-19.5 347.5,-19.5 347.5,-0.5 304.5,-0.5"/>
<text text-anchor="middle" x="326" y="-7.5" font-family="Helvetica,sans-Serif" font-size="10.00">setintr</text>
</a>
</g>
<!-- Node3&#45;&gt;Node4 -->
<g id="edge6" class="edge"><title>Node3&#45;&gt;Node4</title>
<path fill="none" stroke="midnightblue" d="M277.943,-10C287.089,-10 296.411,-10 304.319,-10"/>
<polygon fill="midnightblue" stroke="midnightblue" points="277.778,-6.5001 267.778,-10 277.778,-13.5001 277.778,-6.5001"/>
</g>
<!-- Node5 -->
<g id="node9" class="node"><title>Node5</title>
<a xlink:href="kozos_8h.html#a7078d5505c1e0c61af51bc66e5025685" target="_top" xlink:title="ライブラリ関数 ">
<polygon fill="none" stroke="black" points="384.5,-0.5 384.5,-19.5 435.5,-19.5 435.5,-0.5 384.5,-0.5"/>
<text text-anchor="middle" x="410" y="-7.5" font-family="Helvetica,sans-Serif" font-size="10.00">kz_start</text>
</a>
</g>
<!-- Node4&#45;&gt;Node5 -->
<g id="edge8" class="edge"><title>Node4&#45;&gt;Node5</title>
<path fill="none" stroke="midnightblue" d="M357.871,-10C366.574,-10 375.927,-10 384.223,-10"/>
<polygon fill="midnightblue" stroke="midnightblue" points="357.692,-6.5001 347.692,-10 357.692,-13.5001 357.692,-6.5001"/>
</g>
<!-- Node6 -->
<g id="node11" class="node"><title>Node6</title>
<a xlink:href="os_2main_8c.html#a840291bc02cba5474a4cb46a9b9566fe" target="_top" xlink:title="main">
<polygon fill="none" stroke="black" points="472,-0.5 472,-19.5 510,-19.5 510,-0.5 472,-0.5"/>
<text text-anchor="middle" x="491" y="-7.5" font-family="Helvetica,sans-Serif" font-size="10.00">main</text>
</a>
</g>
<!-- Node5&#45;&gt;Node6 -->
<g id="edge10" class="edge"><title>Node5&#45;&gt;Node6</title>
<path fill="none" stroke="midnightblue" d="M445.584,-10C454.686,-10 464.142,-10 471.978,-10"/>
<polygon fill="midnightblue" stroke="midnightblue" points="445.563,-6.5001 435.563,-10 445.563,-13.5001 445.563,-6.5001"/>
</g>
</g>
</svg>
