<?xml version="1.0" encoding="UTF-8" standalone="no"?>
<!DOCTYPE svg PUBLIC "-//W3C//DTD SVG 1.1//EN"
 "http://www.w3.org/Graphics/SVG/1.1/DTD/svg11.dtd">
<!-- Generated by graphviz version 2.28.0 (20130928.0220)
 -->
<!-- Title: kz_syscall Pages: 1 -->
<svg width="858pt" height="104pt"
 viewBox="0.00 0.00 858.00 104.00" xmlns="http://www.w3.org/2000/svg" xmlns:xlink="http://www.w3.org/1999/xlink">
<g id="graph1" class="graph" transform="scale(1 1) rotate(0) translate(4 100)">
<title>kz_syscall</title>
<!-- Node1 -->
<g id="node1" class="node"><title>Node1</title>
<polygon fill="#bfbfbf" stroke="black" points="0,-19.5 0,-38.5 64,-38.5 64,-19.5 0,-19.5"/>
<text text-anchor="middle" x="32" y="-26.5" font-family="Helvetica,sans-Serif" font-size="10.00">kz_syscall</text>
</g>
<!-- Node2 -->
<g id="node3" class="node"><title>Node2</title>
<a xlink:href="syscall_8c.html#a0e36d3c55bb22d6d54af1eeff7157ff7" target="_top" xlink:title="スレッド強制終了 ">
<polygon fill="none" stroke="black" points="100,-38.5 100,-57.5 148,-57.5 148,-38.5 100,-38.5"/>
<text text-anchor="middle" x="124" y="-45.5" font-family="Helvetica,sans-Serif" font-size="10.00">kz_exit</text>
</a>
</g>
<!-- Node1&#45;&gt;Node2 -->
<g id="edge2" class="edge"><title>Node1&#45;&gt;Node2</title>
<path fill="none" stroke="midnightblue" d="M74.0377,-37.6635C82.8712,-39.5284 91.9098,-41.4365 99.778,-43.0976"/>
<polygon fill="midnightblue" stroke="midnightblue" points="74.7324,-34.2331 64.2251,-35.592 73.2864,-41.0821 74.7324,-34.2331"/>
</g>
<!-- Node10 -->
<g id="node20" class="node"><title>Node10</title>
<a xlink:href="syscall_8c.html#a31494feb57a45fd53bbbe76c98b8630e" target="_top" xlink:title="システムコール ">
<polygon fill="none" stroke="black" points="195,-0.5 195,-19.5 241,-19.5 241,-0.5 195,-0.5"/>
<text text-anchor="middle" x="218" y="-7.5" font-family="Helvetica,sans-Serif" font-size="10.00">kz_run</text>
</a>
</g>
<!-- Node1&#45;&gt;Node10 -->
<g id="edge20" class="edge"><title>Node1&#45;&gt;Node10</title>
<path fill="none" stroke="midnightblue" d="M74.2783,-24.7376C111.605,-20.8832 165.136,-15.3555 194.9,-12.2821"/>
<polygon fill="midnightblue" stroke="midnightblue" points="73.8007,-21.2682 64.2131,-25.7769 74.5197,-28.2312 73.8007,-21.2682"/>
</g>
<!-- Node3 -->
<g id="node5" class="node"><title>Node3</title>
<a xlink:href="kozos_8c.html#ac4d8f9724e6cfa40d91cd63fa8c275d2" target="_top" xlink:title="thread_end">
<polygon fill="none" stroke="black" points="184,-38.5 184,-57.5 252,-57.5 252,-38.5 184,-38.5"/>
<text text-anchor="middle" x="218" y="-45.5" font-family="Helvetica,sans-Serif" font-size="10.00">thread_end</text>
</a>
</g>
<!-- Node2&#45;&gt;Node3 -->
<g id="edge4" class="edge"><title>Node2&#45;&gt;Node3</title>
<path fill="none" stroke="midnightblue" d="M158.29,-48C166.566,-48 175.437,-48 183.713,-48"/>
<polygon fill="midnightblue" stroke="midnightblue" points="158.216,-44.5001 148.215,-48 158.215,-51.5001 158.216,-44.5001"/>
</g>
<!-- Node4 -->
<g id="node7" class="node"><title>Node4</title>
<a xlink:href="kozos_8c.html#a8fd64516a2230c46e0e866aa3c54470b" target="_top" xlink:title="system call ">
<polygon fill="none" stroke="black" points="293,-38.5 293,-57.5 357,-57.5 357,-38.5 293,-38.5"/>
<text text-anchor="middle" x="325" y="-45.5" font-family="Helvetica,sans-Serif" font-size="10.00">thread_run</text>
</a>
</g>
<!-- Node3&#45;&gt;Node4 -->
<g id="edge6" class="edge"><title>Node3&#45;&gt;Node4</title>
<path fill="none" stroke="midnightblue" d="M262.238,-48C272.475,-48 283.197,-48 292.781,-48"/>
<polygon fill="midnightblue" stroke="midnightblue" points="262.223,-44.5001 252.223,-48 262.223,-51.5001 262.223,-44.5001"/>
</g>
<!-- Node5 -->
<g id="node9" class="node"><title>Node5</title>
<a xlink:href="kozos_8c.html#acd68041208fa0120669ac78343a47dc0" target="_top" xlink:title="call_functions">
<polygon fill="none" stroke="black" points="398.5,-76.5 398.5,-95.5 475.5,-95.5 475.5,-76.5 398.5,-76.5"/>
<text text-anchor="middle" x="437" y="-83.5" font-family="Helvetica,sans-Serif" font-size="10.00">call_functions</text>
</a>
</g>
<!-- Node4&#45;&gt;Node5 -->
<g id="edge8" class="edge"><title>Node4&#45;&gt;Node5</title>
<path fill="none" stroke="midnightblue" d="M363.55,-60.9718C378.205,-66.0344 394.704,-71.7341 408.251,-76.4141"/>
<polygon fill="midnightblue" stroke="midnightblue" points="364.352,-57.5461 353.758,-57.589 362.067,-64.1624 364.352,-57.5461"/>
</g>
<!-- Node8 -->
<g id="node15" class="node"><title>Node8</title>
<a xlink:href="kozos_8h.html#a7078d5505c1e0c61af51bc66e5025685" target="_top" xlink:title="ライブラリ関数 ">
<polygon fill="none" stroke="black" points="724.5,-38.5 724.5,-57.5 775.5,-57.5 775.5,-38.5 724.5,-38.5"/>
<text text-anchor="middle" x="750" y="-45.5" font-family="Helvetica,sans-Serif" font-size="10.00">kz_start</text>
</a>
</g>
<!-- Node4&#45;&gt;Node8 -->
<g id="edge18" class="edge"><title>Node4&#45;&gt;Node8</title>
<path fill="none" stroke="midnightblue" d="M367.134,-48C454.124,-48 654.481,-48 724.393,-48"/>
<polygon fill="midnightblue" stroke="midnightblue" points="367.104,-44.5001 357.104,-48 367.104,-51.5001 367.104,-44.5001"/>
</g>
<!-- Node6 -->
<g id="node11" class="node"><title>Node6</title>
<a xlink:href="kozos_8c.html#aef8f2fde0f7865d66b9a7daf0e2426e0" target="_top" xlink:title="syscall_proc">
<polygon fill="none" stroke="black" points="512.5,-76.5 512.5,-95.5 585.5,-95.5 585.5,-76.5 512.5,-76.5"/>
<text text-anchor="middle" x="549" y="-83.5" font-family="Helvetica,sans-Serif" font-size="10.00">syscall_proc</text>
</a>
</g>
<!-- Node5&#45;&gt;Node6 -->
<g id="edge10" class="edge"><title>Node5&#45;&gt;Node6</title>
<path fill="none" stroke="midnightblue" d="M485.573,-86C494.601,-86 503.901,-86 512.476,-86"/>
<polygon fill="midnightblue" stroke="midnightblue" points="485.548,-82.5001 475.548,-86 485.548,-89.5001 485.548,-82.5001"/>
</g>
<!-- Node7 -->
<g id="node13" class="node"><title>Node7</title>
<a xlink:href="kozos_8c.html#a69f871c66a43d6f0a644c57def130160" target="_top" xlink:title="syscall_intr">
<polygon fill="none" stroke="black" points="622,-76.5 622,-95.5 688,-95.5 688,-76.5 622,-76.5"/>
<text text-anchor="middle" x="655" y="-83.5" font-family="Helvetica,sans-Serif" font-size="10.00">syscall_intr</text>
</a>
</g>
<!-- Node6&#45;&gt;Node7 -->
<g id="edge12" class="edge"><title>Node6&#45;&gt;Node7</title>
<path fill="none" stroke="midnightblue" d="M595.667,-86C604.476,-86 613.532,-86 621.802,-86"/>
<polygon fill="midnightblue" stroke="midnightblue" points="595.5,-82.5001 585.5,-86 595.5,-89.5001 595.5,-82.5001"/>
</g>
<!-- Node7&#45;&gt;Node8 -->
<g id="edge14" class="edge"><title>Node7&#45;&gt;Node8</title>
<path fill="none" stroke="midnightblue" d="M688.823,-72.5886C700.94,-67.6376 714.416,-62.1309 725.54,-57.5859"/>
<polygon fill="midnightblue" stroke="midnightblue" points="687.401,-69.3885 679.468,-76.411 690.049,-75.8685 687.401,-69.3885"/>
</g>
<!-- Node9 -->
<g id="node17" class="node"><title>Node9</title>
<a xlink:href="os_2main_8c.html#a840291bc02cba5474a4cb46a9b9566fe" target="_top" xlink:title="main">
<polygon fill="none" stroke="black" points="812,-19.5 812,-38.5 850,-38.5 850,-19.5 812,-19.5"/>
<text text-anchor="middle" x="831" y="-26.5" font-family="Helvetica,sans-Serif" font-size="10.00">main</text>
</a>
</g>
<!-- Node8&#45;&gt;Node9 -->
<g id="edge16" class="edge"><title>Node8&#45;&gt;Node9</title>
<path fill="none" stroke="midnightblue" d="M785.291,-39.7529C794.483,-37.5421 804.058,-35.2392 811.978,-33.3344"/>
<polygon fill="midnightblue" stroke="midnightblue" points="784.467,-36.351 775.563,-42.0924 786.104,-43.1569 784.467,-36.351"/>
</g>
<!-- Node11 -->
<g id="node22" class="node"><title>Node11</title>
<a xlink:href="os_2main_8c.html#aabc6304dfeadad471d074b11c6e057dd" target="_top" xlink:title="start_threads">
<polygon fill="none" stroke="black" points="288,-0.5 288,-19.5 362,-19.5 362,-0.5 288,-0.5"/>
<text text-anchor="middle" x="325" y="-7.5" font-family="Helvetica,sans-Serif" font-size="10.00">start_threads</text>
</a>
</g>
<!-- Node10&#45;&gt;Node11 -->
<g id="edge22" class="edge"><title>Node10&#45;&gt;Node11</title>
<path fill="none" stroke="midnightblue" d="M251.173,-10C262.809,-10 276.021,-10 287.967,-10"/>
<polygon fill="midnightblue" stroke="midnightblue" points="251.011,-6.5001 241.011,-10 251.011,-13.5001 251.011,-6.5001"/>
</g>
<!-- Node11&#45;&gt;Node9 -->
<g id="edge24" class="edge"><title>Node11&#45;&gt;Node9</title>
<path fill="none" stroke="midnightblue" d="M372.162,-10C417.066,-10 487.214,-10 548,-10 548,-10 548,-10 656,-10 713.129,-10 780.189,-20.2468 811.784,-25.6905"/>
<polygon fill="midnightblue" stroke="midnightblue" points="372.145,-6.5001 362.145,-10 372.145,-13.5001 372.145,-6.5001"/>
</g>
</g>
</svg>
