<?xml version="1.0" encoding="UTF-8" standalone="no"?>
<!DOCTYPE svg PUBLIC "-//W3C//DTD SVG 1.1//EN"
 "http://www.w3.org/Graphics/SVG/1.1/DTD/svg11.dtd">
<!-- Generated by graphviz version 2.28.0 (20130928.0220)
 -->
<!-- Title: thread_end Pages: 1 -->
<svg width="664pt" height="47pt"
 viewBox="0.00 0.00 664.00 47.00" xmlns="http://www.w3.org/2000/svg" xmlns:xlink="http://www.w3.org/1999/xlink">
<g id="graph1" class="graph" transform="scale(1 1) rotate(0) translate(4 43)">
<title>thread_end</title>
<!-- Node1 -->
<g id="node1" class="node"><title>Node1</title>
<polygon fill="#bfbfbf" stroke="black" points="0,-0.5 0,-19.5 68,-19.5 68,-0.5 0,-0.5"/>
<text text-anchor="middle" x="34" y="-7.5" font-family="Helvetica,sans-Serif" font-size="10.00">thread_end</text>
</g>
<!-- Node2 -->
<g id="node3" class="node"><title>Node2</title>
<a xlink:href="kozos_8c.html#a8fd64516a2230c46e0e866aa3c54470b" target="_top" xlink:title="system call ">
<polygon fill="none" stroke="black" points="104,-0.5 104,-19.5 168,-19.5 168,-0.5 104,-0.5"/>
<text text-anchor="middle" x="136" y="-7.5" font-family="Helvetica,sans-Serif" font-size="10.00">thread_run</text>
</a>
</g>
<!-- Node1&#45;&gt;Node2 -->
<g id="edge2" class="edge"><title>Node1&#45;&gt;Node2</title>
<path fill="none" stroke="midnightblue" d="M78.2577,-10C86.8159,-10 95.6425,-10 103.71,-10"/>
<polygon fill="midnightblue" stroke="midnightblue" points="78.0209,-6.5001 68.0209,-10 78.0208,-13.5001 78.0209,-6.5001"/>
</g>
<!-- Node3 -->
<g id="node5" class="node"><title>Node3</title>
<a xlink:href="kozos_8c.html#acd68041208fa0120669ac78343a47dc0" target="_top" xlink:title="call_functions">
<polygon fill="none" stroke="black" points="204.5,-19.5 204.5,-38.5 281.5,-38.5 281.5,-19.5 204.5,-19.5"/>
<text text-anchor="middle" x="243" y="-26.5" font-family="Helvetica,sans-Serif" font-size="10.00">call_functions</text>
</a>
</g>
<!-- Node2&#45;&gt;Node3 -->
<g id="edge4" class="edge"><title>Node2&#45;&gt;Node3</title>
<path fill="none" stroke="midnightblue" d="M178.128,-17.4422C186.79,-19.0096 195.886,-20.6556 204.41,-22.198"/>
<polygon fill="midnightblue" stroke="midnightblue" points="178.683,-13.9858 168.219,-15.6492 177.436,-20.8739 178.683,-13.9858"/>
</g>
<!-- Node6 -->
<g id="node11" class="node"><title>Node6</title>
<a xlink:href="kozos_8h.html#a7078d5505c1e0c61af51bc66e5025685" target="_top" xlink:title="ライブラリ関数 ">
<polygon fill="none" stroke="black" points="530.5,-0.5 530.5,-19.5 581.5,-19.5 581.5,-0.5 530.5,-0.5"/>
<text text-anchor="middle" x="556" y="-7.5" font-family="Helvetica,sans-Serif" font-size="10.00">kz_start</text>
</a>
</g>
<!-- Node2&#45;&gt;Node6 -->
<g id="edge14" class="edge"><title>Node2&#45;&gt;Node6</title>
<path fill="none" stroke="midnightblue" d="M178.268,-10C264.474,-10 461.38,-10 530.482,-10"/>
<polygon fill="midnightblue" stroke="midnightblue" points="178.076,-6.5001 168.076,-10 178.076,-13.5001 178.076,-6.5001"/>
</g>
<!-- Node4 -->
<g id="node7" class="node"><title>Node4</title>
<a xlink:href="kozos_8c.html#aef8f2fde0f7865d66b9a7daf0e2426e0" target="_top" xlink:title="syscall_proc">
<polygon fill="none" stroke="black" points="318.5,-19.5 318.5,-38.5 391.5,-38.5 391.5,-19.5 318.5,-19.5"/>
<text text-anchor="middle" x="355" y="-26.5" font-family="Helvetica,sans-Serif" font-size="10.00">syscall_proc</text>
</a>
</g>
<!-- Node3&#45;&gt;Node4 -->
<g id="edge6" class="edge"><title>Node3&#45;&gt;Node4</title>
<path fill="none" stroke="midnightblue" d="M291.573,-29C300.601,-29 309.901,-29 318.476,-29"/>
<polygon fill="midnightblue" stroke="midnightblue" points="291.548,-25.5001 281.548,-29 291.548,-32.5001 291.548,-25.5001"/>
</g>
<!-- Node5 -->
<g id="node9" class="node"><title>Node5</title>
<a xlink:href="kozos_8c.html#a69f871c66a43d6f0a644c57def130160" target="_top" xlink:title="syscall_intr">
<polygon fill="none" stroke="black" points="428,-19.5 428,-38.5 494,-38.5 494,-19.5 428,-19.5"/>
<text text-anchor="middle" x="461" y="-26.5" font-family="Helvetica,sans-Serif" font-size="10.00">syscall_intr</text>
</a>
</g>
<!-- Node4&#45;&gt;Node5 -->
<g id="edge8" class="edge"><title>Node4&#45;&gt;Node5</title>
<path fill="none" stroke="midnightblue" d="M401.667,-29C410.476,-29 419.532,-29 427.802,-29"/>
<polygon fill="midnightblue" stroke="midnightblue" points="401.5,-25.5001 391.5,-29 401.5,-32.5001 401.5,-25.5001"/>
</g>
<!-- Node5&#45;&gt;Node6 -->
<g id="edge10" class="edge"><title>Node5&#45;&gt;Node6</title>
<path fill="none" stroke="midnightblue" d="M503.988,-20.4218C512.979,-18.5849 522.198,-16.7015 530.282,-15.0499"/>
<polygon fill="midnightblue" stroke="midnightblue" points="503.102,-17.0304 494.005,-22.4613 504.504,-23.8887 503.102,-17.0304"/>
</g>
<!-- Node7 -->
<g id="node13" class="node"><title>Node7</title>
<a xlink:href="os_2main_8c.html#a840291bc02cba5474a4cb46a9b9566fe" target="_top" xlink:title="main">
<polygon fill="none" stroke="black" points="618,-0.5 618,-19.5 656,-19.5 656,-0.5 618,-0.5"/>
<text text-anchor="middle" x="637" y="-7.5" font-family="Helvetica,sans-Serif" font-size="10.00">main</text>
</a>
</g>
<!-- Node6&#45;&gt;Node7 -->
<g id="edge12" class="edge"><title>Node6&#45;&gt;Node7</title>
<path fill="none" stroke="midnightblue" d="M591.584,-10C600.686,-10 610.142,-10 617.978,-10"/>
<polygon fill="midnightblue" stroke="midnightblue" points="591.563,-6.5001 581.563,-10 591.563,-13.5001 591.563,-6.5001"/>
</g>
</g>
</svg>
