<?xml version="1.0" encoding="UTF-8" standalone="no"?>
<!DOCTYPE svg PUBLIC "-//W3C//DTD SVG 1.1//EN"
 "http://www.w3.org/Graphics/SVG/1.1/DTD/svg11.dtd">
<!-- Generated by graphviz version 2.28.0 (20130928.0220)
 -->
<!-- Title: syscall_proc Pages: 1 -->
<svg width="794pt" height="294pt"
 viewBox="0.00 0.00 794.00 294.00" xmlns="http://www.w3.org/2000/svg" xmlns:xlink="http://www.w3.org/1999/xlink">
<g id="graph1" class="graph" transform="scale(1 1) rotate(0) translate(4 290)">
<title>syscall_proc</title>
<!-- Node1 -->
<g id="node1" class="node"><title>Node1</title>
<polygon fill="#bfbfbf" stroke="black" points="0.5,-171.5 0.5,-190.5 73.5,-190.5 73.5,-171.5 0.5,-171.5"/>
<text text-anchor="middle" x="37" y="-178.5" font-family="Helvetica,sans-Serif" font-size="10.00">syscall_proc</text>
</g>
<!-- Node2 -->
<g id="node3" class="node"><title>Node2</title>
<a xlink:href="kozos_8c.html#acd68041208fa0120669ac78343a47dc0" target="_top" xlink:title="call_functions">
<polygon fill="none" stroke="black" points="110.5,-171.5 110.5,-190.5 187.5,-190.5 187.5,-171.5 110.5,-171.5"/>
<text text-anchor="middle" x="149" y="-178.5" font-family="Helvetica,sans-Serif" font-size="10.00">call_functions</text>
</a>
</g>
<!-- Node1&#45;&gt;Node2 -->
<g id="edge2" class="edge"><title>Node1&#45;&gt;Node2</title>
<path fill="none" stroke="midnightblue" d="M73.7138,-181C82.1005,-181 91.1721,-181 99.9992,-181"/>
<polygon fill="midnightblue" stroke="midnightblue" points="100.194,-184.5 110.194,-181 100.194,-177.5 100.194,-184.5"/>
</g>
<!-- Node3 -->
<g id="node5" class="node"><title>Node3</title>
<a xlink:href="kozos_8c.html#a4dd8e8425a1c0c5d866a9271d243cdef" target="_top" xlink:title="thread_exit">
<polygon fill="none" stroke="black" points="224,-228.5 224,-247.5 290,-247.5 290,-228.5 224,-228.5"/>
<text text-anchor="middle" x="257" y="-235.5" font-family="Helvetica,sans-Serif" font-size="10.00">thread_exit</text>
</a>
</g>
<!-- Node2&#45;&gt;Node3 -->
<g id="edge4" class="edge"><title>Node2&#45;&gt;Node3</title>
<path fill="none" stroke="midnightblue" d="M167.981,-190.669C184.834,-199.731 210.237,-213.391 229.427,-223.711"/>
<polygon fill="midnightblue" stroke="midnightblue" points="227.819,-226.82 238.284,-228.474 231.134,-220.655 227.819,-226.82"/>
</g>
<!-- Node9 -->
<g id="node17" class="node"><title>Node9</title>
<a xlink:href="kozos_8c.html#a8fd64516a2230c46e0e866aa3c54470b" target="_top" xlink:title="system call ">
<polygon fill="none" stroke="black" points="225,-114.5 225,-133.5 289,-133.5 289,-114.5 225,-114.5"/>
<text text-anchor="middle" x="257" y="-121.5" font-family="Helvetica,sans-Serif" font-size="10.00">thread_run</text>
</a>
</g>
<!-- Node2&#45;&gt;Node9 -->
<g id="edge16" class="edge"><title>Node2&#45;&gt;Node9</title>
<path fill="none" stroke="midnightblue" d="M167.981,-171.331C184.834,-162.269 210.237,-148.609 229.427,-138.289"/>
<polygon fill="midnightblue" stroke="midnightblue" points="231.134,-141.345 238.284,-133.526 227.819,-135.18 231.134,-141.345"/>
</g>
<!-- Node4 -->
<g id="node7" class="node"><title>Node4</title>
<a xlink:href="lib_8c.html#a44ddf1a8f6a75ff235a733ff8d90cae3" target="_top" xlink:title="puts">
<polygon fill="none" stroke="black" points="351.5,-266.5 351.5,-285.5 386.5,-285.5 386.5,-266.5 351.5,-266.5"/>
<text text-anchor="middle" x="369" y="-273.5" font-family="Helvetica,sans-Serif" font-size="10.00">puts</text>
</a>
</g>
<!-- Node3&#45;&gt;Node4 -->
<g id="edge6" class="edge"><title>Node3&#45;&gt;Node4</title>
<path fill="none" stroke="midnightblue" d="M285.758,-247.589C302.835,-253.488 324.599,-261.007 341.448,-266.828"/>
<polygon fill="midnightblue" stroke="midnightblue" points="340.624,-270.246 351.219,-270.203 342.91,-263.629 340.624,-270.246"/>
</g>
<!-- Node8 -->
<g id="node15" class="node"><title>Node8</title>
<a xlink:href="lib_8c.html#a89ddf4c406cf5f89be48dd3e4af4cdc4" target="_top" xlink:title="memset">
<polygon fill="none" stroke="black" points="448.5,-190.5 448.5,-209.5 501.5,-209.5 501.5,-190.5 448.5,-190.5"/>
<text text-anchor="middle" x="475" y="-197.5" font-family="Helvetica,sans-Serif" font-size="10.00">memset</text>
</a>
</g>
<!-- Node3&#45;&gt;Node8 -->
<g id="edge14" class="edge"><title>Node3&#45;&gt;Node8</title>
<path fill="none" stroke="midnightblue" d="M290.124,-235.681C321.467,-233.033 370.372,-227.875 412,-219 420.705,-217.144 429.947,-214.622 438.564,-212.023"/>
<polygon fill="midnightblue" stroke="midnightblue" points="439.823,-215.296 448.322,-208.971 437.733,-208.615 439.823,-215.296"/>
</g>
<!-- Node5 -->
<g id="node9" class="node"><title>Node5</title>
<a xlink:href="lib_8c.html#acee36427208c7c321ab875217dca17c4" target="_top" xlink:title="putc">
<polygon fill="none" stroke="black" points="457.5,-266.5 457.5,-285.5 492.5,-285.5 492.5,-266.5 457.5,-266.5"/>
<text text-anchor="middle" x="475" y="-273.5" font-family="Helvetica,sans-Serif" font-size="10.00">putc</text>
</a>
</g>
<!-- Node4&#45;&gt;Node5 -->
<g id="edge8" class="edge"><title>Node4&#45;&gt;Node5</title>
<path fill="none" stroke="midnightblue" d="M386.709,-276C403.009,-276 428.067,-276 447.161,-276"/>
<polygon fill="midnightblue" stroke="midnightblue" points="447.332,-279.5 457.332,-276 447.332,-272.5 447.332,-279.5"/>
</g>
<!-- Node6 -->
<g id="node11" class="node"><title>Node6</title>
<a xlink:href="serial_8c.html#aed0806bd3de71f20d6df8ef6f49bda31" target="_top" xlink:title="serial_send_byte">
<polygon fill="none" stroke="black" points="538.5,-266.5 538.5,-285.5 631.5,-285.5 631.5,-266.5 538.5,-266.5"/>
<text text-anchor="middle" x="585" y="-273.5" font-family="Helvetica,sans-Serif" font-size="10.00">serial_send_byte</text>
</a>
</g>
<!-- Node5&#45;&gt;Node6 -->
<g id="edge10" class="edge"><title>Node5&#45;&gt;Node6</title>
<path fill="none" stroke="midnightblue" d="M492.875,-276C502.518,-276 515.223,-276 528.073,-276"/>
<polygon fill="midnightblue" stroke="midnightblue" points="528.355,-279.5 538.355,-276 528.355,-272.5 528.355,-279.5"/>
</g>
<!-- Node7 -->
<g id="node13" class="node"><title>Node7</title>
<a xlink:href="serial_8c.html#abf48ded30f8aa6fff8cb48dce0af0590" target="_top" xlink:title="serial_is_send_enable">
<polygon fill="none" stroke="black" points="668,-266.5 668,-285.5 786,-285.5 786,-266.5 668,-266.5"/>
<text text-anchor="middle" x="727" y="-273.5" font-family="Helvetica,sans-Serif" font-size="10.00">serial_is_send_enable</text>
</a>
</g>
<!-- Node6&#45;&gt;Node7 -->
<g id="edge12" class="edge"><title>Node6&#45;&gt;Node7</title>
<path fill="none" stroke="midnightblue" d="M631.841,-276C640.095,-276 648.859,-276 657.591,-276"/>
<polygon fill="midnightblue" stroke="midnightblue" points="657.793,-279.5 667.793,-276 657.793,-272.5 657.793,-279.5"/>
</g>
<!-- Node10 -->
<g id="node19" class="node"><title>Node10</title>
<a xlink:href="kozos_8c.html#a2e6488cfd47118e19d4407d3a23eac3f" target="_top" xlink:title="create TCB ">
<polygon fill="none" stroke="black" points="333,-190.5 333,-209.5 405,-209.5 405,-190.5 333,-190.5"/>
<text text-anchor="middle" x="369" y="-197.5" font-family="Helvetica,sans-Serif" font-size="10.00">create_TCB</text>
</a>
</g>
<!-- Node9&#45;&gt;Node10 -->
<g id="edge18" class="edge"><title>Node9&#45;&gt;Node10</title>
<path fill="none" stroke="midnightblue" d="M267.914,-133.829C280.583,-146.015 303.569,-166.898 326,-181 328.778,-182.746 331.743,-184.421 334.765,-186.001"/>
<polygon fill="midnightblue" stroke="midnightblue" points="333.345,-189.203 343.867,-190.44 336.413,-182.911 333.345,-189.203"/>
</g>
<!-- Node11 -->
<g id="node22" class="node"><title>Node11</title>
<a xlink:href="lib_8c.html#a4f18eec0e70dda8f611c6d629494a8de" target="_top" xlink:title="strcpy">
<polygon fill="none" stroke="black" points="347.5,-152.5 347.5,-171.5 390.5,-171.5 390.5,-152.5 347.5,-152.5"/>
<text text-anchor="middle" x="369" y="-159.5" font-family="Helvetica,sans-Serif" font-size="10.00">strcpy</text>
</a>
</g>
<!-- Node9&#45;&gt;Node11 -->
<g id="edge22" class="edge"><title>Node9&#45;&gt;Node11</title>
<path fill="none" stroke="midnightblue" d="M285.758,-133.589C301.57,-139.051 321.4,-145.902 337.627,-151.508"/>
<polygon fill="midnightblue" stroke="midnightblue" points="336.602,-154.856 347.197,-154.813 338.888,-148.24 336.602,-154.856"/>
</g>
<!-- Node12 -->
<g id="node24" class="node"><title>Node12</title>
<a xlink:href="kozos_8c.html#a92177eed4eabc923bcd27462d8ce57b8" target="_top" xlink:title="get_stack_area">
<polygon fill="none" stroke="black" points="326,-114.5 326,-133.5 412,-133.5 412,-114.5 326,-114.5"/>
<text text-anchor="middle" x="369" y="-121.5" font-family="Helvetica,sans-Serif" font-size="10.00">get_stack_area</text>
</a>
</g>
<!-- Node9&#45;&gt;Node12 -->
<g id="edge24" class="edge"><title>Node9&#45;&gt;Node12</title>
<path fill="none" stroke="midnightblue" d="M289.227,-124C297.442,-124 306.533,-124 315.533,-124"/>
<polygon fill="midnightblue" stroke="midnightblue" points="315.604,-127.5 325.604,-124 315.604,-120.5 315.604,-127.5"/>
</g>
<!-- Node13 -->
<g id="node27" class="node"><title>Node13</title>
<a xlink:href="kozos_8c.html#ac4d8f9724e6cfa40d91cd63fa8c275d2" target="_top" xlink:title="thread_end">
<polygon fill="none" stroke="black" points="335,-76.5 335,-95.5 403,-95.5 403,-76.5 335,-76.5"/>
<text text-anchor="middle" x="369" y="-83.5" font-family="Helvetica,sans-Serif" font-size="10.00">thread_end</text>
</a>
</g>
<!-- Node9&#45;&gt;Node13 -->
<g id="edge28" class="edge"><title>Node9&#45;&gt;Node13</title>
<path fill="none" stroke="midnightblue" d="M285.758,-114.411C299.306,-109.731 315.805,-104.031 330.46,-98.9685"/>
<polygon fill="midnightblue" stroke="midnightblue" points="331.942,-102.159 340.251,-95.5859 329.656,-95.543 331.942,-102.159"/>
</g>
<!-- Node16 -->
<g id="node33" class="node"><title>Node16</title>
<a xlink:href="kozos_8c.html#a3ac934c923c7f023b80805c9b7dad8a3" target="_top" xlink:title="start up thread ">
<polygon fill="none" stroke="black" points="338,-38.5 338,-57.5 400,-57.5 400,-38.5 338,-38.5"/>
<text text-anchor="middle" x="369" y="-45.5" font-family="Helvetica,sans-Serif" font-size="10.00">thread_init</text>
</a>
</g>
<!-- Node9&#45;&gt;Node16 -->
<g id="edge34" class="edge"><title>Node9&#45;&gt;Node16</title>
<path fill="none" stroke="midnightblue" d="M267.914,-114.171C280.583,-101.985 303.569,-81.1017 326,-67 328.778,-65.2536 331.743,-63.5793 334.765,-61.9987"/>
<polygon fill="midnightblue" stroke="midnightblue" points="336.413,-65.0891 343.867,-57.5599 333.345,-58.7974 336.413,-65.0891"/>
</g>
<!-- Node17 -->
<g id="node35" class="node"><title>Node17</title>
<a xlink:href="kozos_8c.html#a9cc7c96bdff0e4416f354672b2b1d183" target="_top" xlink:title="put">
<polygon fill="none" stroke="black" points="354.5,-0.5 354.5,-19.5 383.5,-19.5 383.5,-0.5 354.5,-0.5"/>
<text text-anchor="middle" x="369" y="-7.5" font-family="Helvetica,sans-Serif" font-size="10.00">put</text>
</a>
</g>
<!-- Node9&#45;&gt;Node17 -->
<g id="edge36" class="edge"><title>Node9&#45;&gt;Node17</title>
<path fill="none" stroke="midnightblue" d="M262.681,-114.375C272.215,-95.6473 295.582,-53.9616 326,-29 331.44,-24.5355 338.099,-20.8962 344.497,-18.042"/>
<polygon fill="midnightblue" stroke="midnightblue" points="346.135,-21.1567 354.124,-14.1974 343.539,-14.6559 346.135,-21.1567"/>
</g>
<!-- Node10&#45;&gt;Node8 -->
<g id="edge20" class="edge"><title>Node10&#45;&gt;Node8</title>
<path fill="none" stroke="midnightblue" d="M405.21,-200C415.817,-200 427.468,-200 438.118,-200"/>
<polygon fill="midnightblue" stroke="midnightblue" points="438.359,-203.5 448.359,-200 438.359,-196.5 438.359,-203.5"/>
</g>
<!-- Node12&#45;&gt;Node8 -->
<g id="edge26" class="edge"><title>Node12&#45;&gt;Node8</title>
<path fill="none" stroke="midnightblue" d="M394.686,-133.587C400.555,-136.29 406.659,-139.469 412,-143 429.21,-154.377 446.282,-170.527 458.142,-182.734"/>
<polygon fill="midnightblue" stroke="midnightblue" points="455.708,-185.254 465.131,-190.096 460.784,-180.434 455.708,-185.254"/>
</g>
<!-- Node14 -->
<g id="node29" class="node"><title>Node14</title>
<a xlink:href="kozos_8h.html#a0e36d3c55bb22d6d54af1eeff7157ff7" target="_top" xlink:title="スレッド強制終了 ">
<polygon fill="none" stroke="black" points="451,-76.5 451,-95.5 499,-95.5 499,-76.5 451,-76.5"/>
<text text-anchor="middle" x="475" y="-83.5" font-family="Helvetica,sans-Serif" font-size="10.00">kz_exit</text>
</a>
</g>
<!-- Node13&#45;&gt;Node14 -->
<g id="edge30" class="edge"><title>Node13&#45;&gt;Node14</title>
<path fill="none" stroke="midnightblue" d="M403.192,-86C415.238,-86 428.841,-86 440.881,-86"/>
<polygon fill="midnightblue" stroke="midnightblue" points="440.981,-89.5001 450.981,-86 440.98,-82.5001 440.981,-89.5001"/>
</g>
<!-- Node15 -->
<g id="node31" class="node"><title>Node15</title>
<a xlink:href="kozos_8c.html#a2ef06efeac9f498bbabbf145fa8eb107" target="_top" xlink:title="kz_syscall">
<polygon fill="none" stroke="black" points="553,-76.5 553,-95.5 617,-95.5 617,-76.5 553,-76.5"/>
<text text-anchor="middle" x="585" y="-83.5" font-family="Helvetica,sans-Serif" font-size="10.00">kz_syscall</text>
</a>
</g>
<!-- Node14&#45;&gt;Node15 -->
<g id="edge32" class="edge"><title>Node14&#45;&gt;Node15</title>
<path fill="none" stroke="midnightblue" d="M499.169,-86C511.737,-86 527.657,-86 542.301,-86"/>
<polygon fill="midnightblue" stroke="midnightblue" points="542.674,-89.5001 552.674,-86 542.674,-82.5001 542.674,-89.5001"/>
</g>
</g>
</svg>
