<?xml version="1.0" encoding="UTF-8" standalone="no"?>
<!DOCTYPE svg PUBLIC "-//W3C//DTD SVG 1.1//EN"
 "http://www.w3.org/Graphics/SVG/1.1/DTD/svg11.dtd">
<!-- Generated by graphviz version 2.28.0 (20130928.0220)
 -->
<!-- Title: thread_run Pages: 1 -->
<!--zoomable 47 -->
<svg id="main" version="1.1" xmlns="http://www.w3.org/2000/svg" xmlns:xlink="http://www.w3.org/1999/xlink" xml:space="preserve" onload="init(evt)">
<style type="text/css"><![CDATA[
.edge:hover path { stroke: red; }
.edge:hover polygon { stroke: red; fill: red; }
]]></style>
<script type="text/javascript"><![CDATA[
var edges = document.getElementsByTagName('g');
if (edges && edges.length) {
  for (var i=0;i<edges.length;i++) {
    if (edges[i].id.substr(0,4)=='edge') {
      edges[i].setAttribute('class','edge');
    }
  }
}
]]></script>
        <defs>
                <circle id="rim" cx="0" cy="0" r="7"/>
                <circle id="rim2" cx="0" cy="0" r="3.5"/>
                <g id="zoomPlus">
                        <use xlink:href="#rim" fill="#404040">
                                <set attributeName="fill" to="#808080" begin="zoomplus.mouseover" end="zoomplus.mouseout"/>
                        </use>
                        <path d="M-4,0h8M0,-4v8" fill="none" stroke="white" stroke-width="1.5" pointer-events="none"/>
                </g>
                <g id="zoomMin">
                        <use xlink:href="#rim" fill="#404040">
                                <set attributeName="fill" to="#808080" begin="zoomminus.mouseover" end="zoomminus.mouseout"/>
                        </use>
                        <path d="M-4,0h8" fill="none" stroke="white" stroke-width="1.5" pointer-events="none"/>
                </g>
                <g id="dirArrow">
                        <path fill="none" stroke="white" stroke-width="1.5" d="M0,-3.0v7 M-2.5,-0.5L0,-3.0L2.5,-0.5"/>
                </g>
               <g id="resetDef">
                       <use xlink:href="#rim2" fill="#404040">
                               <set attributeName="fill" to="#808080" begin="reset.mouseover" end="reset.mouseout"/>
                       </use>
               </g>
        </defs>

<script type="text/javascript">
var viewWidth = 560;
var viewHeight = 47;
var sectionId = 'dynsection-34';
</script>
<script xlink:href="svgpan.js"/>
<svg id="graph" class="graph">
<g id="viewport">
<title>thread_run</title>
<!-- Node1 -->
<g id="node1" class="node"><title>Node1</title>
<polygon fill="#bfbfbf" stroke="black" points="0,-0.5 0,-19.5 64,-19.5 64,-0.5 0,-0.5"/>
<text text-anchor="middle" x="32" y="-7.5" font-family="Helvetica,sans-Serif" font-size="10.00">thread_run</text>
</g>
<!-- Node2 -->
<g id="node3" class="node"><title>Node2</title>
<a xlink:href="kozos_8c.html#acd68041208fa0120669ac78343a47dc0" target="_top" xlink:title="call_functions">
<polygon fill="none" stroke="black" points="100.5,-19.5 100.5,-38.5 177.5,-38.5 177.5,-19.5 100.5,-19.5"/>
<text text-anchor="middle" x="139" y="-26.5" font-family="Helvetica,sans-Serif" font-size="10.00">call_functions</text>
</a>
</g>
<!-- Node1&#45;&gt;Node2 -->
<g id="edge2" class="edge"><title>Node1&#45;&gt;Node2</title>
<path fill="none" stroke="midnightblue" d="M74.1281,-17.4422C82.7901,-19.0096 91.886,-20.6556 100.41,-22.198"/>
<polygon fill="midnightblue" stroke="midnightblue" points="74.6826,-13.9858 64.2192,-15.6492 73.4361,-20.8739 74.6826,-13.9858"/>
</g>
<!-- Node5 -->
<g id="node9" class="node"><title>Node5</title>
<a xlink:href="kozos_8h.html#a7078d5505c1e0c61af51bc66e5025685" target="_top" xlink:title="ライブラリ関数 ">
<polygon fill="none" stroke="black" points="426.5,-0.5 426.5,-19.5 477.5,-19.5 477.5,-0.5 426.5,-0.5"/>
<text text-anchor="middle" x="452" y="-7.5" font-family="Helvetica,sans-Serif" font-size="10.00">kz_start</text>
</a>
</g>
<!-- Node1&#45;&gt;Node5 -->
<g id="edge12" class="edge"><title>Node1&#45;&gt;Node5</title>
<path fill="none" stroke="midnightblue" d="M74.2681,-10C160.474,-10 357.38,-10 426.482,-10"/>
<polygon fill="midnightblue" stroke="midnightblue" points="74.0765,-6.5001 64.0764,-10 74.0764,-13.5001 74.0765,-6.5001"/>
</g>
<!-- Node3 -->
<g id="node5" class="node"><title>Node3</title>
<a xlink:href="kozos_8c.html#aef8f2fde0f7865d66b9a7daf0e2426e0" target="_top" xlink:title="syscall_proc">
<polygon fill="none" stroke="black" points="214.5,-19.5 214.5,-38.5 287.5,-38.5 287.5,-19.5 214.5,-19.5"/>
<text text-anchor="middle" x="251" y="-26.5" font-family="Helvetica,sans-Serif" font-size="10.00">syscall_proc</text>
</a>
</g>
<!-- Node2&#45;&gt;Node3 -->
<g id="edge4" class="edge"><title>Node2&#45;&gt;Node3</title>
<path fill="none" stroke="midnightblue" d="M187.573,-29C196.601,-29 205.901,-29 214.476,-29"/>
<polygon fill="midnightblue" stroke="midnightblue" points="187.548,-25.5001 177.548,-29 187.548,-32.5001 187.548,-25.5001"/>
</g>
<!-- Node4 -->
<g id="node7" class="node"><title>Node4</title>
<a xlink:href="kozos_8c.html#a69f871c66a43d6f0a644c57def130160" target="_top" xlink:title="syscall_intr">
<polygon fill="none" stroke="black" points="324,-19.5 324,-38.5 390,-38.5 390,-19.5 324,-19.5"/>
<text text-anchor="middle" x="357" y="-26.5" font-family="Helvetica,sans-Serif" font-size="10.00">syscall_intr</text>
</a>
</g>
<!-- Node3&#45;&gt;Node4 -->
<g id="edge6" class="edge"><title>Node3&#45;&gt;Node4</title>
<path fill="none" stroke="midnightblue" d="M297.667,-29C306.476,-29 315.532,-29 323.802,-29"/>
<polygon fill="midnightblue" stroke="midnightblue" points="297.5,-25.5001 287.5,-29 297.5,-32.5001 297.5,-25.5001"/>
</g>
<!-- Node4&#45;&gt;Node5 -->
<g id="edge8" class="edge"><title>Node4&#45;&gt;Node5</title>
<path fill="none" stroke="midnightblue" d="M399.988,-20.4218C408.979,-18.5849 418.198,-16.7015 426.282,-15.0499"/>
<polygon fill="midnightblue" stroke="midnightblue" points="399.102,-17.0304 390.005,-22.4613 400.504,-23.8887 399.102,-17.0304"/>
</g>
<!-- Node6 -->
<g id="node11" class="node"><title>Node6</title>
<a xlink:href="os_2main_8c.html#a840291bc02cba5474a4cb46a9b9566fe" target="_top" xlink:title="main">
<polygon fill="none" stroke="black" points="514,-0.5 514,-19.5 552,-19.5 552,-0.5 514,-0.5"/>
<text text-anchor="middle" x="533" y="-7.5" font-family="Helvetica,sans-Serif" font-size="10.00">main</text>
</a>
</g>
<!-- Node5&#45;&gt;Node6 -->
<g id="edge10" class="edge"><title>Node5&#45;&gt;Node6</title>
<path fill="none" stroke="midnightblue" d="M487.584,-10C496.686,-10 506.142,-10 513.978,-10"/>
<polygon fill="midnightblue" stroke="midnightblue" points="487.563,-6.5001 477.563,-10 487.563,-13.5001 487.563,-6.5001"/>
</g>
</g>
</svg>
        <g id="navigator" transform="translate(0 0)" fill="#404254">
                <rect fill="#f2f5e9" fill-opacity="0.5" stroke="#606060" stroke-width=".5" x="0" y="0" width="60" height="60"/>
                <use id="zoomplus" xlink:href="#zoomPlus" x="17" y="9" onmousedown="handleZoom(evt,'in')"/>
                <use id="zoomminus" xlink:href="#zoomMin" x="42" y="9" onmousedown="handleZoom(evt,'out')"/>
                <use id="reset" xlink:href="#resetDef" x="30" y="36" onmousedown="handleReset()"/>
                <g id="arrowUp" xlink:href="#dirArrow" transform="translate(30 24)" onmousedown="handlePan(0,-1)">
                  <use xlink:href="#rim" fill="#404040">
                        <set attributeName="fill" to="#808080" begin="arrowUp.mouseover" end="arrowUp.mouseout"/>
                  </use>
                  <path fill="none" stroke="white" stroke-width="1.5" d="M0,-3.0v7 M-2.5,-0.5L0,-3.0L2.5,-0.5"/>
                </g>
                <g id="arrowRight" xlink:href="#dirArrow" transform="rotate(90) translate(36 -43)" onmousedown="handlePan(1,0)">
                  <use xlink:href="#rim" fill="#404040">
                        <set attributeName="fill" to="#808080" begin="arrowRight.mouseover" end="arrowRight.mouseout"/>
                  </use>
                  <path fill="none" stroke="white" stroke-width="1.5" d="M0,-3.0v7 M-2.5,-0.5L0,-3.0L2.5,-0.5"/>
                </g>
                <g id="arrowDown" xlink:href="#dirArrow" transform="rotate(180) translate(-30 -48)" onmousedown="handlePan(0,1)">
                  <use xlink:href="#rim" fill="#404040">
                        <set attributeName="fill" to="#808080" begin="arrowDown.mouseover" end="arrowDown.mouseout"/>
                  </use>
                  <path fill="none" stroke="white" stroke-width="1.5" d="M0,-3.0v7 M-2.5,-0.5L0,-3.0L2.5,-0.5"/>
                </g>
                <g id="arrowLeft" xlink:href="#dirArrow" transform="rotate(270) translate(-36 17)" onmousedown="handlePan(-1,0)">
                  <use xlink:href="#rim" fill="#404040">
                        <set attributeName="fill" to="#808080" begin="arrowLeft.mouseover" end="arrowLeft.mouseout"/>
                  </use>
                  <path fill="none" stroke="white" stroke-width="1.5" d="M0,-3.0v7 M-2.5,-0.5L0,-3.0L2.5,-0.5"/>
                </g>
        </g>
        <svg viewBox="0 0 15 15" width="100%" height="30px" preserveAspectRatio="xMaxYMin meet">
         <g id="arrow_out" transform="scale(0.3 0.3)">
          <a xlink:href="kozos_8c_a8fd64516a2230c46e0e866aa3c54470b_icgraph_org.svg" target="_base">
           <rect id="button" ry="5" rx="5" y="6" x="6" height="38" width="38"
                fill="#f2f5e9" fill-opacity="0.5" stroke="#606060" stroke-width="1.0"/>
           <path id="arrow"
             d="M 11.500037,31.436501 C 11.940474,20.09759 22.043105,11.32322 32.158766,21.979434 L 37.068811,17.246167 C 37.068811,17.246167 37.088388,32 37.088388,32 L 22.160133,31.978069 C 22.160133,31.978069 26.997745,27.140456 26.997745,27.140456 C 18.528582,18.264221 13.291696,25.230495 11.500037,31.436501 z"
             style="fill:#404040;"/>
          </a>
         </g>
        </svg>
</svg>
