<?xml version="1.0" encoding="UTF-8" standalone="no"?>
<!DOCTYPE svg PUBLIC "-//W3C//DTD SVG 1.1//EN"
 "http://www.w3.org/Graphics/SVG/1.1/DTD/svg11.dtd">
<!-- Generated by graphviz version 2.28.0 (20130928.0220)
 -->
<!-- Title: put Pages: 1 -->
<svg width="648pt" height="180pt"
 viewBox="0.00 0.00 648.00 180.00" xmlns="http://www.w3.org/2000/svg" xmlns:xlink="http://www.w3.org/1999/xlink">
<g id="graph1" class="graph" transform="scale(1 1) rotate(0) translate(4 176)">
<title>put</title>
<!-- Node1 -->
<g id="node1" class="node"><title>Node1</title>
<polygon fill="#bfbfbf" stroke="black" points="0.5,-76.5 0.5,-95.5 29.5,-95.5 29.5,-76.5 0.5,-76.5"/>
<text text-anchor="middle" x="15" y="-83.5" font-family="Helvetica,sans-Serif" font-size="10.00">put</text>
</g>
<!-- Node2 -->
<g id="node3" class="node"><title>Node2</title>
<a xlink:href="kozos_8c.html#aff4b5a25b795dce424539eb82b95d9b6" target="_top" xlink:title="thread_chpri">
<polygon fill="none" stroke="black" points="73.5,-152.5 73.5,-171.5 144.5,-171.5 144.5,-152.5 73.5,-152.5"/>
<text text-anchor="middle" x="109" y="-159.5" font-family="Helvetica,sans-Serif" font-size="10.00">thread_chpri</text>
</a>
</g>
<!-- Node1&#45;&gt;Node2 -->
<g id="edge2" class="edge"><title>Node1&#45;&gt;Node2</title>
<path fill="none" stroke="midnightblue" d="M28.3714,-103.741C37.6252,-116.005 51.1921,-132.026 66,-143 70.8867,-146.621 76.5735,-149.767 82.1548,-152.401"/>
<polygon fill="midnightblue" stroke="midnightblue" points="31.1574,-101.621 22.4395,-95.6004 25.5001,-105.744 31.1574,-101.621"/>
</g>
<!-- Node3 -->
<g id="node5" class="node"><title>Node3</title>
<a xlink:href="kozos_8c.html#aaeef3def4ae919a6db761b31bf1b800f" target="_top" xlink:title="thread_getid">
<polygon fill="none" stroke="black" points="72.5,-114.5 72.5,-133.5 145.5,-133.5 145.5,-114.5 72.5,-114.5"/>
<text text-anchor="middle" x="109" y="-121.5" font-family="Helvetica,sans-Serif" font-size="10.00">thread_getid</text>
</a>
</g>
<!-- Node1&#45;&gt;Node3 -->
<g id="edge4" class="edge"><title>Node1&#45;&gt;Node3</title>
<path fill="none" stroke="midnightblue" d="M38.9599,-95.4834C52.9245,-101.251 70.708,-108.597 84.7288,-114.388"/>
<polygon fill="midnightblue" stroke="midnightblue" points="40.1537,-92.1898 29.5749,-91.607 37.4814,-98.6596 40.1537,-92.1898"/>
</g>
<!-- Node4 -->
<g id="node7" class="node"><title>Node4</title>
<a xlink:href="kozos_8c.html#a8fd64516a2230c46e0e866aa3c54470b" target="_top" xlink:title="system call ">
<polygon fill="none" stroke="black" points="77,-76.5 77,-95.5 141,-95.5 141,-76.5 77,-76.5"/>
<text text-anchor="middle" x="109" y="-83.5" font-family="Helvetica,sans-Serif" font-size="10.00">thread_run</text>
</a>
</g>
<!-- Node1&#45;&gt;Node4 -->
<g id="edge6" class="edge"><title>Node1&#45;&gt;Node4</title>
<path fill="none" stroke="midnightblue" d="M39.5767,-86C50.912,-86 64.6522,-86 76.837,-86"/>
<polygon fill="midnightblue" stroke="midnightblue" points="39.575,-82.5001 29.5749,-86 39.5749,-89.5001 39.575,-82.5001"/>
</g>
<!-- Node10 -->
<g id="node20" class="node"><title>Node10</title>
<a xlink:href="kozos_8c.html#a5c84d6deaccd84a660f082b63ec85e19" target="_top" xlink:title="thread_wait">
<polygon fill="none" stroke="black" points="75,-38.5 75,-57.5 143,-57.5 143,-38.5 75,-38.5"/>
<text text-anchor="middle" x="109" y="-45.5" font-family="Helvetica,sans-Serif" font-size="10.00">thread_wait</text>
</a>
</g>
<!-- Node1&#45;&gt;Node10 -->
<g id="edge20" class="edge"><title>Node1&#45;&gt;Node10</title>
<path fill="none" stroke="midnightblue" d="M38.9599,-76.5166C52.9245,-70.7486 70.708,-63.4032 84.7288,-57.612"/>
<polygon fill="midnightblue" stroke="midnightblue" points="37.4814,-73.3404 29.5749,-80.393 40.1537,-79.8102 37.4814,-73.3404"/>
</g>
<!-- Node11 -->
<g id="node22" class="node"><title>Node11</title>
<a xlink:href="kozos_8c.html#af731266922183ab6c1bb67d0b6bb84fa" target="_top" xlink:title="thread_wakeup">
<polygon fill="none" stroke="black" points="66,-0.5 66,-19.5 152,-19.5 152,-0.5 66,-0.5"/>
<text text-anchor="middle" x="109" y="-7.5" font-family="Helvetica,sans-Serif" font-size="10.00">thread_wakeup</text>
</a>
</g>
<!-- Node1&#45;&gt;Node11 -->
<g id="edge22" class="edge"><title>Node1&#45;&gt;Node11</title>
<path fill="none" stroke="midnightblue" d="M28.3714,-68.2591C37.6252,-55.9948 51.1921,-39.9741 66,-29 70.8867,-25.3785 76.5735,-22.2327 82.1548,-19.5993"/>
<polygon fill="midnightblue" stroke="midnightblue" points="25.5001,-66.2564 22.4395,-76.3996 31.1574,-70.3789 25.5001,-66.2564"/>
</g>
<!-- Node5 -->
<g id="node9" class="node"><title>Node5</title>
<a xlink:href="kozos_8c.html#acd68041208fa0120669ac78343a47dc0" target="_top" xlink:title="call_functions">
<polygon fill="none" stroke="black" points="188.5,-95.5 188.5,-114.5 265.5,-114.5 265.5,-95.5 188.5,-95.5"/>
<text text-anchor="middle" x="227" y="-102.5" font-family="Helvetica,sans-Serif" font-size="10.00">call_functions</text>
</a>
</g>
<!-- Node4&#45;&gt;Node5 -->
<g id="edge8" class="edge"><title>Node4&#45;&gt;Node5</title>
<path fill="none" stroke="midnightblue" d="M150.96,-92.709C163.083,-94.6946 176.295,-96.8587 188.208,-98.8099"/>
<polygon fill="midnightblue" stroke="midnightblue" points="151.52,-89.2542 141.086,-91.0917 150.389,-96.1621 151.52,-89.2542"/>
</g>
<!-- Node8 -->
<g id="node15" class="node"><title>Node8</title>
<a xlink:href="kozos_8h.html#a7078d5505c1e0c61af51bc66e5025685" target="_top" xlink:title="ライブラリ関数 ">
<polygon fill="none" stroke="black" points="514.5,-76.5 514.5,-95.5 565.5,-95.5 565.5,-76.5 514.5,-76.5"/>
<text text-anchor="middle" x="540" y="-83.5" font-family="Helvetica,sans-Serif" font-size="10.00">kz_start</text>
</a>
</g>
<!-- Node4&#45;&gt;Node8 -->
<g id="edge18" class="edge"><title>Node4&#45;&gt;Node8</title>
<path fill="none" stroke="midnightblue" d="M151.353,-86C239.465,-86 443.439,-86 514.251,-86"/>
<polygon fill="midnightblue" stroke="midnightblue" points="151.198,-82.5001 141.198,-86 151.198,-89.5001 151.198,-82.5001"/>
</g>
<!-- Node6 -->
<g id="node11" class="node"><title>Node6</title>
<a xlink:href="kozos_8c.html#aef8f2fde0f7865d66b9a7daf0e2426e0" target="_top" xlink:title="syscall_proc">
<polygon fill="none" stroke="black" points="302.5,-95.5 302.5,-114.5 375.5,-114.5 375.5,-95.5 302.5,-95.5"/>
<text text-anchor="middle" x="339" y="-102.5" font-family="Helvetica,sans-Serif" font-size="10.00">syscall_proc</text>
</a>
</g>
<!-- Node5&#45;&gt;Node6 -->
<g id="edge10" class="edge"><title>Node5&#45;&gt;Node6</title>
<path fill="none" stroke="midnightblue" d="M275.573,-105C284.601,-105 293.901,-105 302.476,-105"/>
<polygon fill="midnightblue" stroke="midnightblue" points="275.548,-101.5 265.548,-105 275.548,-108.5 275.548,-101.5"/>
</g>
<!-- Node7 -->
<g id="node13" class="node"><title>Node7</title>
<a xlink:href="kozos_8c.html#a69f871c66a43d6f0a644c57def130160" target="_top" xlink:title="syscall_intr">
<polygon fill="none" stroke="black" points="412,-95.5 412,-114.5 478,-114.5 478,-95.5 412,-95.5"/>
<text text-anchor="middle" x="445" y="-102.5" font-family="Helvetica,sans-Serif" font-size="10.00">syscall_intr</text>
</a>
</g>
<!-- Node6&#45;&gt;Node7 -->
<g id="edge12" class="edge"><title>Node6&#45;&gt;Node7</title>
<path fill="none" stroke="midnightblue" d="M385.667,-105C394.476,-105 403.532,-105 411.802,-105"/>
<polygon fill="midnightblue" stroke="midnightblue" points="385.5,-101.5 375.5,-105 385.5,-108.5 385.5,-101.5"/>
</g>
<!-- Node7&#45;&gt;Node8 -->
<g id="edge14" class="edge"><title>Node7&#45;&gt;Node8</title>
<path fill="none" stroke="midnightblue" d="M487.988,-96.4218C496.979,-94.5849 506.198,-92.7015 514.282,-91.0499"/>
<polygon fill="midnightblue" stroke="midnightblue" points="487.102,-93.0304 478.005,-98.4613 488.504,-99.8887 487.102,-93.0304"/>
</g>
<!-- Node9 -->
<g id="node17" class="node"><title>Node9</title>
<a xlink:href="os_2main_8c.html#a840291bc02cba5474a4cb46a9b9566fe" target="_top" xlink:title="main">
<polygon fill="none" stroke="black" points="602,-76.5 602,-95.5 640,-95.5 640,-76.5 602,-76.5"/>
<text text-anchor="middle" x="621" y="-83.5" font-family="Helvetica,sans-Serif" font-size="10.00">main</text>
</a>
</g>
<!-- Node8&#45;&gt;Node9 -->
<g id="edge16" class="edge"><title>Node8&#45;&gt;Node9</title>
<path fill="none" stroke="midnightblue" d="M575.584,-86C584.686,-86 594.142,-86 601.978,-86"/>
<polygon fill="midnightblue" stroke="midnightblue" points="575.563,-82.5001 565.563,-86 575.563,-89.5001 575.563,-82.5001"/>
</g>
</g>
</svg>
