<?xml version="1.0" encoding="UTF-8" standalone="no"?>
<!DOCTYPE svg PUBLIC "-//W3C//DTD SVG 1.1//EN"
 "http://www.w3.org/Graphics/SVG/1.1/DTD/svg11.dtd">
<!-- Generated by graphviz version 2.28.0 (20130928.0220)
 -->
<!-- Title: src/misc/lib.h Pages: 1 -->
<svg width="766pt" height="84pt"
 viewBox="0.00 0.00 766.00 84.00" xmlns="http://www.w3.org/2000/svg" xmlns:xlink="http://www.w3.org/1999/xlink">
<g id="graph1" class="graph" transform="scale(1 1) rotate(0) translate(4 80)">
<title>src/misc/lib.h</title>
<!-- Node1 -->
<g id="node1" class="node"><title>Node1</title>
<polygon fill="#bfbfbf" stroke="black" points="377,-56.5 377,-75.5 451,-75.5 451,-56.5 377,-56.5"/>
<text text-anchor="middle" x="414" y="-63.5" font-family="Helvetica,sans-Serif" font-size="10.00">src/misc/lib.h</text>
</g>
<!-- Node2 -->
<g id="node3" class="node"><title>Node2</title>
<a xlink:href="elf_8c.html" target="_top" xlink:title="src/bootload/elf.c">
<polygon fill="none" stroke="black" points="0,-0.5 0,-19.5 94,-19.5 94,-0.5 0,-0.5"/>
<text text-anchor="middle" x="47" y="-7.5" font-family="Helvetica,sans-Serif" font-size="10.00">src/bootload/elf.c</text>
</a>
</g>
<!-- Node1&#45;&gt;Node2 -->
<g id="edge2" class="edge"><title>Node1&#45;&gt;Node2</title>
<path fill="none" stroke="midnightblue" d="M366.538,-58.3679C305.516,-49.7871 196.295,-34.2457 103,-20 100.08,-19.5541 97.0749,-19.0891 94.0454,-18.6156"/>
<polygon fill="midnightblue" stroke="midnightblue" points="366.242,-61.8606 376.632,-59.7856 367.216,-54.9287 366.242,-61.8606"/>
</g>
<!-- Node3 -->
<g id="node5" class="node"><title>Node3</title>
<a xlink:href="bootload_2main_8c.html" target="_top" xlink:title="src/bootload/main.c">
<polygon fill="none" stroke="black" points="112.5,-0.5 112.5,-19.5 217.5,-19.5 217.5,-0.5 112.5,-0.5"/>
<text text-anchor="middle" x="165" y="-7.5" font-family="Helvetica,sans-Serif" font-size="10.00">src/bootload/main.c</text>
</a>
</g>
<!-- Node1&#45;&gt;Node3 -->
<g id="edge4" class="edge"><title>Node1&#45;&gt;Node3</title>
<path fill="none" stroke="midnightblue" d="M367.052,-54.8184C320.002,-44.615 248.399,-29.0864 204.269,-19.5162"/>
<polygon fill="midnightblue" stroke="midnightblue" points="366.476,-58.275 376.991,-56.974 367.96,-51.434 366.476,-58.275"/>
</g>
<!-- Node4 -->
<g id="node7" class="node"><title>Node4</title>
<a xlink:href="xmodem_8c.html" target="_top" xlink:title="src/bootload/xmodem.c">
<polygon fill="none" stroke="black" points="235.5,-0.5 235.5,-19.5 358.5,-19.5 358.5,-0.5 235.5,-0.5"/>
<text text-anchor="middle" x="297" y="-7.5" font-family="Helvetica,sans-Serif" font-size="10.00">src/bootload/xmodem.c</text>
</a>
</g>
<!-- Node1&#45;&gt;Node4 -->
<g id="edge6" class="edge"><title>Node1&#45;&gt;Node4</title>
<path fill="none" stroke="midnightblue" d="M386.336,-52.2321C364.451,-42.1312 334.503,-28.3091 315.452,-19.5164"/>
<polygon fill="midnightblue" stroke="midnightblue" points="384.915,-55.4308 395.461,-56.4435 387.848,-49.075 384.915,-55.4308"/>
</g>
<!-- Node5 -->
<g id="node9" class="node"><title>Node5</title>
<a xlink:href="lib_8c.html" target="_top" xlink:title="src/misc/lib.c">
<polygon fill="none" stroke="black" points="377,-0.5 377,-19.5 451,-19.5 451,-0.5 377,-0.5"/>
<text text-anchor="middle" x="414" y="-7.5" font-family="Helvetica,sans-Serif" font-size="10.00">src/misc/lib.c</text>
</a>
</g>
<!-- Node1&#45;&gt;Node5 -->
<g id="edge8" class="edge"><title>Node1&#45;&gt;Node5</title>
<path fill="none" stroke="midnightblue" d="M414,-45.8045C414,-36.9102 414,-26.7798 414,-19.7511"/>
<polygon fill="midnightblue" stroke="midnightblue" points="410.5,-46.083 414,-56.083 417.5,-46.083 410.5,-46.083"/>
</g>
<!-- Node6 -->
<g id="node11" class="node"><title>Node6</title>
<a xlink:href="kozos_8c.html" target="_top" xlink:title="src/os/kozos.c">
<polygon fill="none" stroke="black" points="469.5,-0.5 469.5,-19.5 552.5,-19.5 552.5,-0.5 469.5,-0.5"/>
<text text-anchor="middle" x="511" y="-7.5" font-family="Helvetica,sans-Serif" font-size="10.00">src/os/kozos.c</text>
</a>
</g>
<!-- Node1&#45;&gt;Node6 -->
<g id="edge10" class="edge"><title>Node1&#45;&gt;Node6</title>
<path fill="none" stroke="midnightblue" d="M438.335,-51.4526C456.243,-41.4835 480.054,-28.2279 495.454,-19.6545"/>
<polygon fill="midnightblue" stroke="midnightblue" points="436.62,-48.4018 429.585,-56.324 440.025,-54.5179 436.62,-48.4018"/>
</g>
<!-- Node7 -->
<g id="node13" class="node"><title>Node7</title>
<a xlink:href="os_2main_8c.html" target="_top" xlink:title="src/os/main.c">
<polygon fill="none" stroke="black" points="570.5,-0.5 570.5,-19.5 647.5,-19.5 647.5,-0.5 570.5,-0.5"/>
<text text-anchor="middle" x="609" y="-7.5" font-family="Helvetica,sans-Serif" font-size="10.00">src/os/main.c</text>
</a>
</g>
<!-- Node1&#45;&gt;Node7 -->
<g id="edge12" class="edge"><title>Node1&#45;&gt;Node7</title>
<path fill="none" stroke="midnightblue" d="M454.81,-53.6986C491.613,-43.507 544.929,-28.7429 578.246,-19.5164"/>
<polygon fill="midnightblue" stroke="midnightblue" points="453.602,-50.4016 444.898,-56.4435 455.47,-57.1477 453.602,-50.4016"/>
</g>
<!-- Node8 -->
<g id="node15" class="node"><title>Node8</title>
<a xlink:href="test08__1_8c.html" target="_top" xlink:title="src/os/test08_1.c">
<polygon fill="none" stroke="black" points="666,-0.5 666,-19.5 758,-19.5 758,-0.5 666,-0.5"/>
<text text-anchor="middle" x="712" y="-7.5" font-family="Helvetica,sans-Serif" font-size="10.00">src/os/test08_1.c</text>
</a>
</g>
<!-- Node1&#45;&gt;Node8 -->
<g id="edge14" class="edge"><title>Node1&#45;&gt;Node8</title>
<path fill="none" stroke="midnightblue" d="M461.162,-56.4539C517.23,-46.294 610.187,-29.4493 665.82,-19.3682"/>
<polygon fill="midnightblue" stroke="midnightblue" points="460.355,-53.043 451.139,-58.27 461.603,-59.9308 460.355,-53.043"/>
</g>
</g>
</svg>
