<?xml version="1.0" encoding="UTF-8" standalone="no"?>
<!DOCTYPE svg PUBLIC "-//W3C//DTD SVG 1.1//EN"
 "http://www.w3.org/Graphics/SVG/1.1/DTD/svg11.dtd">
<!-- Generated by graphviz version 2.28.0 (20130928.0220)
 -->
<!-- Title: memcpy Pages: 1 -->
<svg width="486pt" height="28pt"
 viewBox="0.00 0.00 486.00 28.00" xmlns="http://www.w3.org/2000/svg" xmlns:xlink="http://www.w3.org/1999/xlink">
<g id="graph1" class="graph" transform="scale(1 1) rotate(0) translate(4 24)">
<title>memcpy</title>
<!-- Node1 -->
<g id="node1" class="node"><title>Node1</title>
<polygon fill="#bfbfbf" stroke="black" points="0.5,-0.5 0.5,-19.5 55.5,-19.5 55.5,-0.5 0.5,-0.5"/>
<text text-anchor="middle" x="28" y="-7.5" font-family="Helvetica,sans-Serif" font-size="10.00">memcpy</text>
</g>
<!-- Node2 -->
<g id="node3" class="node"><title>Node2</title>
<a xlink:href="elf_8c.html#a59e612053a62a485fef60d4bea2b80e0" target="_top" xlink:title="elf_load_header">
<polygon fill="none" stroke="black" points="92,-0.5 92,-19.5 182,-19.5 182,-0.5 92,-0.5"/>
<text text-anchor="middle" x="137" y="-7.5" font-family="Helvetica,sans-Serif" font-size="10.00">elf_load_header</text>
</a>
</g>
<!-- Node1&#45;&gt;Node2 -->
<g id="edge2" class="edge"><title>Node1&#45;&gt;Node2</title>
<path fill="none" stroke="midnightblue" d="M65.8855,-10C74.214,-10 83.1389,-10 91.7356,-10"/>
<polygon fill="midnightblue" stroke="midnightblue" points="65.7246,-6.5001 55.7246,-10 65.7246,-13.5001 65.7246,-6.5001"/>
</g>
<!-- Node3 -->
<g id="node5" class="node"><title>Node3</title>
<a xlink:href="elf_8c.html#ab6ee5a7e957e5a4e552dfa2fe3724c13" target="_top" xlink:title="elf_load_program">
<polygon fill="none" stroke="black" points="218.5,-0.5 218.5,-19.5 313.5,-19.5 313.5,-0.5 218.5,-0.5"/>
<text text-anchor="middle" x="266" y="-7.5" font-family="Helvetica,sans-Serif" font-size="10.00">elf_load_program</text>
</a>
</g>
<!-- Node2&#45;&gt;Node3 -->
<g id="edge4" class="edge"><title>Node2&#45;&gt;Node3</title>
<path fill="none" stroke="midnightblue" d="M192.168,-10C200.906,-10 209.884,-10 218.423,-10"/>
<polygon fill="midnightblue" stroke="midnightblue" points="192.062,-6.5001 182.062,-10 192.062,-13.5001 192.062,-6.5001"/>
</g>
<!-- Node4 -->
<g id="node7" class="node"><title>Node4</title>
<a xlink:href="elf_8h.html#a58b7300af370cb019f7098d7446f640d" target="_top" xlink:title="elf_load">
<polygon fill="none" stroke="black" points="350.5,-0.5 350.5,-19.5 403.5,-19.5 403.5,-0.5 350.5,-0.5"/>
<text text-anchor="middle" x="377" y="-7.5" font-family="Helvetica,sans-Serif" font-size="10.00">elf_load</text>
</a>
</g>
<!-- Node3&#45;&gt;Node4 -->
<g id="edge6" class="edge"><title>Node3&#45;&gt;Node4</title>
<path fill="none" stroke="midnightblue" d="M323.665,-10C333.011,-10 342.272,-10 350.346,-10"/>
<polygon fill="midnightblue" stroke="midnightblue" points="323.542,-6.5001 313.542,-10 323.542,-13.5001 323.542,-6.5001"/>
</g>
<!-- Node5 -->
<g id="node9" class="node"><title>Node5</title>
<a xlink:href="bootload_2main_8c.html#a840291bc02cba5474a4cb46a9b9566fe" target="_top" xlink:title="main">
<polygon fill="none" stroke="black" points="440,-0.5 440,-19.5 478,-19.5 478,-0.5 440,-0.5"/>
<text text-anchor="middle" x="459" y="-7.5" font-family="Helvetica,sans-Serif" font-size="10.00">main</text>
</a>
</g>
<!-- Node4&#45;&gt;Node5 -->
<g id="edge8" class="edge"><title>Node4&#45;&gt;Node5</title>
<path fill="none" stroke="midnightblue" d="M413.956,-10C422.843,-10 432,-10 439.646,-10"/>
<polygon fill="midnightblue" stroke="midnightblue" points="413.753,-6.5001 403.753,-10 413.753,-13.5001 413.753,-6.5001"/>
</g>
</g>
</svg>
