<?xml version="1.0" encoding="UTF-8" standalone="no"?>
<!DOCTYPE svg PUBLIC "-//W3C//DTD SVG 1.1//EN"
 "http://www.w3.org/Graphics/SVG/1.1/DTD/svg11.dtd">
<!-- Generated by graphviz version 2.28.0 (20130928.0220)
 -->
<!-- Title: memset Pages: 1 -->
<!--zoomable 173 -->
<svg id="main" version="1.1" xmlns="http://www.w3.org/2000/svg" xmlns:xlink="http://www.w3.org/1999/xlink" xml:space="preserve" onload="init(evt)">
<style type="text/css"><![CDATA[
.edge:hover path { stroke: red; }
.edge:hover polygon { stroke: red; fill: red; }
]]></style>
<script type="text/javascript"><![CDATA[
var edges = document.getElementsByTagName('g');
if (edges && edges.length) {
  for (var i=0;i<edges.length;i++) {
    if (edges[i].id.substr(0,4)=='edge') {
      edges[i].setAttribute('class','edge');
    }
  }
}
]]></script>
        <defs>
                <circle id="rim" cx="0" cy="0" r="7"/>
                <circle id="rim2" cx="0" cy="0" r="3.5"/>
                <g id="zoomPlus">
                        <use xlink:href="#rim" fill="#404040">
                                <set attributeName="fill" to="#808080" begin="zoomplus.mouseover" end="zoomplus.mouseout"/>
                        </use>
                        <path d="M-4,0h8M0,-4v8" fill="none" stroke="white" stroke-width="1.5" pointer-events="none"/>
                </g>
                <g id="zoomMin">
                        <use xlink:href="#rim" fill="#404040">
                                <set attributeName="fill" to="#808080" begin="zoomminus.mouseover" end="zoomminus.mouseout"/>
                        </use>
                        <path d="M-4,0h8" fill="none" stroke="white" stroke-width="1.5" pointer-events="none"/>
                </g>
                <g id="dirArrow">
                        <path fill="none" stroke="white" stroke-width="1.5" d="M0,-3.0v7 M-2.5,-0.5L0,-3.0L2.5,-0.5"/>
                </g>
               <g id="resetDef">
                       <use xlink:href="#rim2" fill="#404040">
                               <set attributeName="fill" to="#808080" begin="reset.mouseover" end="reset.mouseout"/>
                       </use>
               </g>
        </defs>

<script type="text/javascript">
var viewWidth = 808;
var viewHeight = 173;
var sectionId = 'dynsection-7';
</script>
<script xlink:href="svgpan.js"/>
<svg id="graph" class="graph">
<g id="viewport">
<title>memset</title>
<!-- Node1 -->
<g id="node1" class="node"><title>Node1</title>
<polygon fill="#bfbfbf" stroke="black" points="0.5,-76.5 0.5,-95.5 53.5,-95.5 53.5,-76.5 0.5,-76.5"/>
<text text-anchor="middle" x="27" y="-83.5" font-family="Helvetica,sans-Serif" font-size="10.00">memset</text>
</g>
<!-- Node2 -->
<g id="node3" class="node"><title>Node2</title>
<a xlink:href="kozos_8c.html#a2e6488cfd47118e19d4407d3a23eac3f" target="_top" xlink:title="create TCB ">
<polygon fill="none" stroke="black" points="99,-114.5 99,-133.5 171,-133.5 171,-114.5 99,-114.5"/>
<text text-anchor="middle" x="135" y="-121.5" font-family="Helvetica,sans-Serif" font-size="10.00">create_TCB</text>
</a>
</g>
<!-- Node1&#45;&gt;Node2 -->
<g id="edge2" class="edge"><title>Node1&#45;&gt;Node2</title>
<path fill="none" stroke="midnightblue" d="M63.2668,-98.6428C77.6898,-103.813 94.093,-109.694 107.47,-114.489"/>
<polygon fill="midnightblue" stroke="midnightblue" points="64.2542,-95.2787 53.6596,-95.1987 61.8919,-101.868 64.2542,-95.2787"/>
</g>
<!-- Node7 -->
<g id="node13" class="node"><title>Node7</title>
<a xlink:href="kozos_8h.html#a7078d5505c1e0c61af51bc66e5025685" target="_top" xlink:title="ライブラリ関数 ">
<polygon fill="none" stroke="black" points="674.5,-95.5 674.5,-114.5 725.5,-114.5 725.5,-95.5 674.5,-95.5"/>
<text text-anchor="middle" x="700" y="-102.5" font-family="Helvetica,sans-Serif" font-size="10.00">kz_start</text>
</a>
</g>
<!-- Node1&#45;&gt;Node7 -->
<g id="edge30" class="edge"><title>Node1&#45;&gt;Node7</title>
<path fill="none" stroke="midnightblue" d="M41.7349,-103.633C53.1276,-116.869 70.5619,-134.17 90,-143 160.425,-174.992 185.649,-162 263,-162 263,-162 263,-162 500,-162 568.102,-162 644.423,-130.767 679.478,-114.541"/>
<polygon fill="midnightblue" stroke="midnightblue" points="44.2201,-101.145 35.1604,-95.6523 38.8172,-105.596 44.2201,-101.145"/>
</g>
<!-- Node9 -->
<g id="node18" class="node"><title>Node9</title>
<a xlink:href="elf_8c.html#a59e612053a62a485fef60d4bea2b80e0" target="_top" xlink:title="elf_load_header">
<polygon fill="none" stroke="black" points="90,-0.5 90,-19.5 180,-19.5 180,-0.5 90,-0.5"/>
<text text-anchor="middle" x="135" y="-7.5" font-family="Helvetica,sans-Serif" font-size="10.00">elf_load_header</text>
</a>
</g>
<!-- Node1&#45;&gt;Node9 -->
<g id="edge18" class="edge"><title>Node1&#45;&gt;Node9</title>
<path fill="none" stroke="midnightblue" d="M45.9922,-69.2636C57.9778,-58.5378 74.3468,-44.6773 90,-34 97.6196,-28.8025 106.473,-23.7945 114.232,-19.7101"/>
<polygon fill="midnightblue" stroke="midnightblue" points="43.5044,-66.7951 38.4575,-76.1106 48.2121,-71.9756 43.5044,-66.7951"/>
</g>
<!-- Node13 -->
<g id="node26" class="node"><title>Node13</title>
<a xlink:href="kozos_8c.html#a92177eed4eabc923bcd27462d8ce57b8" target="_top" xlink:title="get_stack_area">
<polygon fill="none" stroke="black" points="92,-76.5 92,-95.5 178,-95.5 178,-76.5 92,-76.5"/>
<text text-anchor="middle" x="135" y="-83.5" font-family="Helvetica,sans-Serif" font-size="10.00">get_stack_area</text>
</a>
</g>
<!-- Node1&#45;&gt;Node13 -->
<g id="edge26" class="edge"><title>Node1&#45;&gt;Node13</title>
<path fill="none" stroke="midnightblue" d="M63.7556,-86C72.7043,-86 82.3892,-86 91.6252,-86"/>
<polygon fill="midnightblue" stroke="midnightblue" points="63.6597,-82.5001 53.6596,-86 63.6596,-89.5001 63.6597,-82.5001"/>
</g>
<!-- Node14 -->
<g id="node30" class="node"><title>Node14</title>
<a xlink:href="kozos_8c.html#a4dd8e8425a1c0c5d866a9271d243cdef" target="_top" xlink:title="thread_exit">
<polygon fill="none" stroke="black" points="231,-38.5 231,-57.5 297,-57.5 297,-38.5 231,-38.5"/>
<text text-anchor="middle" x="264" y="-45.5" font-family="Helvetica,sans-Serif" font-size="10.00">thread_exit</text>
</a>
</g>
<!-- Node1&#45;&gt;Node14 -->
<g id="edge32" class="edge"><title>Node1&#45;&gt;Node14</title>
<path fill="none" stroke="midnightblue" d="M63.4188,-73.8937C72.0361,-71.2973 81.2826,-68.7978 90,-67 138.532,-56.9914 195.882,-52.0087 230.834,-49.72"/>
<polygon fill="midnightblue" stroke="midnightblue" points="62.158,-70.6209 53.6613,-76.9499 64.2503,-77.3009 62.158,-70.6209"/>
</g>
<!-- Node3 -->
<g id="node5" class="node"><title>Node3</title>
<a xlink:href="kozos_8c.html#a8fd64516a2230c46e0e866aa3c54470b" target="_top" xlink:title="system call ">
<polygon fill="none" stroke="black" points="232,-95.5 232,-114.5 296,-114.5 296,-95.5 232,-95.5"/>
<text text-anchor="middle" x="264" y="-102.5" font-family="Helvetica,sans-Serif" font-size="10.00">thread_run</text>
</a>
</g>
<!-- Node2&#45;&gt;Node3 -->
<g id="edge4" class="edge"><title>Node2&#45;&gt;Node3</title>
<path fill="none" stroke="midnightblue" d="M181.219,-117.235C198.031,-114.72 216.712,-111.925 231.97,-109.642"/>
<polygon fill="midnightblue" stroke="midnightblue" points="180.412,-113.817 171.039,-118.758 181.447,-120.74 180.412,-113.817"/>
</g>
<!-- Node4 -->
<g id="node7" class="node"><title>Node4</title>
<a xlink:href="kozos_8c.html#acd68041208fa0120669ac78343a47dc0" target="_top" xlink:title="call_functions">
<polygon fill="none" stroke="black" points="348.5,-76.5 348.5,-95.5 425.5,-95.5 425.5,-76.5 348.5,-76.5"/>
<text text-anchor="middle" x="387" y="-83.5" font-family="Helvetica,sans-Serif" font-size="10.00">call_functions</text>
</a>
</g>
<!-- Node3&#45;&gt;Node4 -->
<g id="edge6" class="edge"><title>Node3&#45;&gt;Node4</title>
<path fill="none" stroke="midnightblue" d="M306.281,-98.5179C319.958,-96.3702 335.098,-93.993 348.476,-91.8921"/>
<polygon fill="midnightblue" stroke="midnightblue" points="305.496,-95.0981 296.161,-100.107 306.582,-102.013 305.496,-95.0981"/>
</g>
<!-- Node3&#45;&gt;Node7 -->
<g id="edge16" class="edge"><title>Node3&#45;&gt;Node7</title>
<path fill="none" stroke="midnightblue" d="M306.479,-105C395.62,-105 603.143,-105 674.435,-105"/>
<polygon fill="midnightblue" stroke="midnightblue" points="306.212,-101.5 296.212,-105 306.212,-108.5 306.212,-101.5"/>
</g>
<!-- Node5 -->
<g id="node9" class="node"><title>Node5</title>
<a xlink:href="kozos_8c.html#aef8f2fde0f7865d66b9a7daf0e2426e0" target="_top" xlink:title="syscall_proc">
<polygon fill="none" stroke="black" points="462.5,-76.5 462.5,-95.5 535.5,-95.5 535.5,-76.5 462.5,-76.5"/>
<text text-anchor="middle" x="499" y="-83.5" font-family="Helvetica,sans-Serif" font-size="10.00">syscall_proc</text>
</a>
</g>
<!-- Node4&#45;&gt;Node5 -->
<g id="edge8" class="edge"><title>Node4&#45;&gt;Node5</title>
<path fill="none" stroke="midnightblue" d="M435.573,-86C444.601,-86 453.901,-86 462.476,-86"/>
<polygon fill="midnightblue" stroke="midnightblue" points="435.548,-82.5001 425.548,-86 435.548,-89.5001 435.548,-82.5001"/>
</g>
<!-- Node6 -->
<g id="node11" class="node"><title>Node6</title>
<a xlink:href="kozos_8c.html#a69f871c66a43d6f0a644c57def130160" target="_top" xlink:title="syscall_intr">
<polygon fill="none" stroke="black" points="572,-76.5 572,-95.5 638,-95.5 638,-76.5 572,-76.5"/>
<text text-anchor="middle" x="605" y="-83.5" font-family="Helvetica,sans-Serif" font-size="10.00">syscall_intr</text>
</a>
</g>
<!-- Node5&#45;&gt;Node6 -->
<g id="edge10" class="edge"><title>Node5&#45;&gt;Node6</title>
<path fill="none" stroke="midnightblue" d="M545.667,-86C554.476,-86 563.532,-86 571.802,-86"/>
<polygon fill="midnightblue" stroke="midnightblue" points="545.5,-82.5001 535.5,-86 545.5,-89.5001 545.5,-82.5001"/>
</g>
<!-- Node6&#45;&gt;Node7 -->
<g id="edge12" class="edge"><title>Node6&#45;&gt;Node7</title>
<path fill="none" stroke="midnightblue" d="M647.988,-94.5782C656.979,-96.4151 666.198,-98.2985 674.282,-99.9501"/>
<polygon fill="midnightblue" stroke="midnightblue" points="648.504,-91.1113 638.005,-92.5387 647.102,-97.9696 648.504,-91.1113"/>
</g>
<!-- Node8 -->
<g id="node15" class="node"><title>Node8</title>
<a xlink:href="os_2main_8c.html#a840291bc02cba5474a4cb46a9b9566fe" target="_top" xlink:title="main">
<polygon fill="none" stroke="black" points="762,-95.5 762,-114.5 800,-114.5 800,-95.5 762,-95.5"/>
<text text-anchor="middle" x="781" y="-102.5" font-family="Helvetica,sans-Serif" font-size="10.00">main</text>
</a>
</g>
<!-- Node7&#45;&gt;Node8 -->
<g id="edge14" class="edge"><title>Node7&#45;&gt;Node8</title>
<path fill="none" stroke="midnightblue" d="M735.584,-105C744.686,-105 754.142,-105 761.978,-105"/>
<polygon fill="midnightblue" stroke="midnightblue" points="735.563,-101.5 725.563,-105 735.563,-108.5 735.563,-101.5"/>
</g>
<!-- Node10 -->
<g id="node20" class="node"><title>Node10</title>
<a xlink:href="elf_8c.html#ab6ee5a7e957e5a4e552dfa2fe3724c13" target="_top" xlink:title="elf_load_program">
<polygon fill="none" stroke="black" points="216.5,-0.5 216.5,-19.5 311.5,-19.5 311.5,-0.5 216.5,-0.5"/>
<text text-anchor="middle" x="264" y="-7.5" font-family="Helvetica,sans-Serif" font-size="10.00">elf_load_program</text>
</a>
</g>
<!-- Node9&#45;&gt;Node10 -->
<g id="edge20" class="edge"><title>Node9&#45;&gt;Node10</title>
<path fill="none" stroke="midnightblue" d="M190.168,-10C198.906,-10 207.884,-10 216.423,-10"/>
<polygon fill="midnightblue" stroke="midnightblue" points="190.062,-6.5001 180.062,-10 190.062,-13.5001 190.062,-6.5001"/>
</g>
<!-- Node11 -->
<g id="node22" class="node"><title>Node11</title>
<a xlink:href="elf_8h.html#a58b7300af370cb019f7098d7446f640d" target="_top" xlink:title="elf_load">
<polygon fill="none" stroke="black" points="360.5,-0.5 360.5,-19.5 413.5,-19.5 413.5,-0.5 360.5,-0.5"/>
<text text-anchor="middle" x="387" y="-7.5" font-family="Helvetica,sans-Serif" font-size="10.00">elf_load</text>
</a>
</g>
<!-- Node10&#45;&gt;Node11 -->
<g id="edge22" class="edge"><title>Node10&#45;&gt;Node11</title>
<path fill="none" stroke="midnightblue" d="M321.966,-10C335.4,-10 349.068,-10 360.307,-10"/>
<polygon fill="midnightblue" stroke="midnightblue" points="321.782,-6.5001 311.782,-10 321.782,-13.5001 321.782,-6.5001"/>
</g>
<!-- Node12 -->
<g id="node24" class="node"><title>Node12</title>
<a xlink:href="bootload_2main_8c.html#a840291bc02cba5474a4cb46a9b9566fe" target="_top" xlink:title="main">
<polygon fill="none" stroke="black" points="480,-0.5 480,-19.5 518,-19.5 518,-0.5 480,-0.5"/>
<text text-anchor="middle" x="499" y="-7.5" font-family="Helvetica,sans-Serif" font-size="10.00">main</text>
</a>
</g>
<!-- Node11&#45;&gt;Node12 -->
<g id="edge24" class="edge"><title>Node11&#45;&gt;Node12</title>
<path fill="none" stroke="midnightblue" d="M423.524,-10C442.309,-10 464.574,-10 479.836,-10"/>
<polygon fill="midnightblue" stroke="midnightblue" points="423.513,-6.5001 413.513,-10 423.513,-13.5001 423.513,-6.5001"/>
</g>
<!-- Node13&#45;&gt;Node3 -->
<g id="edge28" class="edge"><title>Node13&#45;&gt;Node3</title>
<path fill="none" stroke="midnightblue" d="M188.326,-93.8283C203.074,-96.0346 218.652,-98.3652 231.742,-100.324"/>
<polygon fill="midnightblue" stroke="midnightblue" points="188.697,-90.3449 178.289,-92.3267 187.661,-97.2679 188.697,-90.3449"/>
</g>
<!-- Node14&#45;&gt;Node4 -->
<g id="edge34" class="edge"><title>Node14&#45;&gt;Node4</title>
<path fill="none" stroke="midnightblue" d="M305.377,-60.6804C321.726,-65.8148 340.288,-71.6441 355.476,-76.4141"/>
<polygon fill="midnightblue" stroke="midnightblue" points="306.123,-57.2461 295.533,-57.589 304.025,-63.9245 306.123,-57.2461"/>
</g>
<!-- Node15 -->
<g id="node33" class="node"><title>Node15</title>
<a xlink:href="kozos_8c.html#ad878125b5a334d151d787886f190ccf2" target="_top" xlink:title="softerr_intr">
<polygon fill="none" stroke="black" points="574,-38.5 574,-57.5 636,-57.5 636,-38.5 574,-38.5"/>
<text text-anchor="middle" x="605" y="-45.5" font-family="Helvetica,sans-Serif" font-size="10.00">softerr_intr</text>
</a>
</g>
<!-- Node14&#45;&gt;Node15 -->
<g id="edge36" class="edge"><title>Node14&#45;&gt;Node15</title>
<path fill="none" stroke="midnightblue" d="M307.354,-48C376.873,-48 513.49,-48 573.969,-48"/>
<polygon fill="midnightblue" stroke="midnightblue" points="307.198,-44.5001 297.198,-48 307.198,-51.5001 307.198,-44.5001"/>
</g>
<!-- Node15&#45;&gt;Node7 -->
<g id="edge38" class="edge"><title>Node15&#45;&gt;Node7</title>
<path fill="none" stroke="midnightblue" d="M631.141,-62.859C633.464,-64.2524 635.778,-65.6486 638,-67 653.67,-76.5315 671.457,-87.6463 683.764,-95.3833"/>
<polygon fill="midnightblue" stroke="midnightblue" points="632.701,-59.714 622.319,-57.5989 629.116,-65.7264 632.701,-59.714"/>
</g>
</g>
</svg>
        <g id="navigator" transform="translate(0 0)" fill="#404254">
                <rect fill="#f2f5e9" fill-opacity="0.5" stroke="#606060" stroke-width=".5" x="0" y="0" width="60" height="60"/>
                <use id="zoomplus" xlink:href="#zoomPlus" x="17" y="9" onmousedown="handleZoom(evt,'in')"/>
                <use id="zoomminus" xlink:href="#zoomMin" x="42" y="9" onmousedown="handleZoom(evt,'out')"/>
                <use id="reset" xlink:href="#resetDef" x="30" y="36" onmousedown="handleReset()"/>
                <g id="arrowUp" xlink:href="#dirArrow" transform="translate(30 24)" onmousedown="handlePan(0,-1)">
                  <use xlink:href="#rim" fill="#404040">
                        <set attributeName="fill" to="#808080" begin="arrowUp.mouseover" end="arrowUp.mouseout"/>
                  </use>
                  <path fill="none" stroke="white" stroke-width="1.5" d="M0,-3.0v7 M-2.5,-0.5L0,-3.0L2.5,-0.5"/>
                </g>
                <g id="arrowRight" xlink:href="#dirArrow" transform="rotate(90) translate(36 -43)" onmousedown="handlePan(1,0)">
                  <use xlink:href="#rim" fill="#404040">
                        <set attributeName="fill" to="#808080" begin="arrowRight.mouseover" end="arrowRight.mouseout"/>
                  </use>
                  <path fill="none" stroke="white" stroke-width="1.5" d="M0,-3.0v7 M-2.5,-0.5L0,-3.0L2.5,-0.5"/>
                </g>
                <g id="arrowDown" xlink:href="#dirArrow" transform="rotate(180) translate(-30 -48)" onmousedown="handlePan(0,1)">
                  <use xlink:href="#rim" fill="#404040">
                        <set attributeName="fill" to="#808080" begin="arrowDown.mouseover" end="arrowDown.mouseout"/>
                  </use>
                  <path fill="none" stroke="white" stroke-width="1.5" d="M0,-3.0v7 M-2.5,-0.5L0,-3.0L2.5,-0.5"/>
                </g>
                <g id="arrowLeft" xlink:href="#dirArrow" transform="rotate(270) translate(-36 17)" onmousedown="handlePan(-1,0)">
                  <use xlink:href="#rim" fill="#404040">
                        <set attributeName="fill" to="#808080" begin="arrowLeft.mouseover" end="arrowLeft.mouseout"/>
                  </use>
                  <path fill="none" stroke="white" stroke-width="1.5" d="M0,-3.0v7 M-2.5,-0.5L0,-3.0L2.5,-0.5"/>
                </g>
        </g>
        <svg viewBox="0 0 15 15" width="100%" height="30px" preserveAspectRatio="xMaxYMin meet">
         <g id="arrow_out" transform="scale(0.3 0.3)">
          <a xlink:href="lib_8c_a89ddf4c406cf5f89be48dd3e4af4cdc4_icgraph_org.svg" target="_base">
           <rect id="button" ry="5" rx="5" y="6" x="6" height="38" width="38"
                fill="#f2f5e9" fill-opacity="0.5" stroke="#606060" stroke-width="1.0"/>
           <path id="arrow"
             d="M 11.500037,31.436501 C 11.940474,20.09759 22.043105,11.32322 32.158766,21.979434 L 37.068811,17.246167 C 37.068811,17.246167 37.088388,32 37.088388,32 L 22.160133,31.978069 C 22.160133,31.978069 26.997745,27.140456 26.997745,27.140456 C 18.528582,18.264221 13.291696,25.230495 11.500037,31.436501 z"
             style="fill:#404040;"/>
          </a>
         </g>
        </svg>
</svg>
