<?xml version="1.0" encoding="UTF-8" standalone="no"?>
<!DOCTYPE svg PUBLIC "-//W3C//DTD SVG 1.1//EN"
 "http://www.w3.org/Graphics/SVG/1.1/DTD/svg11.dtd">
<!-- Generated by graphviz version 2.28.0 (20130928.0220)
 -->
<!-- Title: src/misc/lib.c Pages: 1 -->
<svg width="247pt" height="84pt"
 viewBox="0.00 0.00 247.00 84.00" xmlns="http://www.w3.org/2000/svg" xmlns:xlink="http://www.w3.org/1999/xlink">
<g id="graph1" class="graph" transform="scale(1 1) rotate(0) translate(4 80)">
<title>src/misc/lib.c</title>
<!-- Node1 -->
<g id="node1" class="node"><title>Node1</title>
<polygon fill="#bfbfbf" stroke="black" points="110,-56.5 110,-75.5 184,-75.5 184,-56.5 110,-56.5"/>
<text text-anchor="middle" x="147" y="-63.5" font-family="Helvetica,sans-Serif" font-size="10.00">src/misc/lib.c</text>
</g>
<!-- Node2 -->
<g id="node3" class="node"><title>Node2</title>
<a xlink:href="defines_8h.html" target="_top" xlink:title="../misc/defines.h">
<polygon fill="none" stroke="black" points="-0.5,-0.5 -0.5,-19.5 88.5,-19.5 88.5,-0.5 -0.5,-0.5"/>
<text text-anchor="middle" x="44" y="-7.5" font-family="Helvetica,sans-Serif" font-size="10.00">../misc/defines.h</text>
</a>
</g>
<!-- Node1&#45;&gt;Node2 -->
<g id="edge2" class="edge"><title>Node1&#45;&gt;Node2</title>
<path fill="none" stroke="midnightblue" d="M130.451,-56.324C114.008,-47.7034 88.5652,-34.3643 69.5316,-24.3855"/>
<polygon fill="midnightblue" stroke="midnightblue" points="70.9895,-21.198 60.5077,-19.6545 67.7391,-27.3977 70.9895,-21.198"/>
</g>
<!-- Node3 -->
<g id="node5" class="node"><title>Node3</title>
<a xlink:href="serial_8h.html" target="_top" xlink:title="../misc/serial.h">
<polygon fill="none" stroke="black" points="107,-0.5 107,-19.5 187,-19.5 187,-0.5 107,-0.5"/>
<text text-anchor="middle" x="147" y="-7.5" font-family="Helvetica,sans-Serif" font-size="10.00">../misc/serial.h</text>
</a>
</g>
<!-- Node1&#45;&gt;Node3 -->
<g id="edge4" class="edge"><title>Node1&#45;&gt;Node3</title>
<path fill="none" stroke="midnightblue" d="M147,-56.083C147,-49.0059 147,-38.8611 147,-29.9865"/>
<polygon fill="midnightblue" stroke="midnightblue" points="150.5,-29.751 147,-19.7511 143.5,-29.7511 150.5,-29.751"/>
</g>
<!-- Node4 -->
<g id="node7" class="node"><title>Node4</title>
<a xlink:href="lib_8h.html" target="_top" xlink:title="lib.h">
<polygon fill="none" stroke="black" points="205,-0.5 205,-19.5 239,-19.5 239,-0.5 205,-0.5"/>
<text text-anchor="middle" x="222" y="-7.5" font-family="Helvetica,sans-Serif" font-size="10.00">lib.h</text>
</a>
</g>
<!-- Node1&#45;&gt;Node4 -->
<g id="edge6" class="edge"><title>Node1&#45;&gt;Node4</title>
<path fill="none" stroke="midnightblue" d="M159.05,-56.324C170.463,-48.1066 187.831,-35.6017 201.435,-25.8069"/>
<polygon fill="midnightblue" stroke="midnightblue" points="203.66,-28.5174 209.731,-19.8339 199.57,-22.8366 203.66,-28.5174"/>
</g>
</g>
</svg>
