<?xml version="1.0" encoding="UTF-8" standalone="no"?>
<!DOCTYPE svg PUBLIC "-//W3C//DTD SVG 1.1//EN"
 "http://www.w3.org/Graphics/SVG/1.1/DTD/svg11.dtd">
<!-- Generated by graphviz version 2.28.0 (20130928.0220)
 -->
<!-- Title: gets Pages: 1 -->
<svg width="548pt" height="66pt"
 viewBox="0.00 0.00 548.00 66.00" xmlns="http://www.w3.org/2000/svg" xmlns:xlink="http://www.w3.org/1999/xlink">
<g id="graph1" class="graph" transform="scale(1 1) rotate(0) translate(4 62)">
<title>gets</title>
<!-- Node1 -->
<g id="node1" class="node"><title>Node1</title>
<polygon fill="#bfbfbf" stroke="black" points="0,-19.5 0,-38.5 36,-38.5 36,-19.5 0,-19.5"/>
<text text-anchor="middle" x="18" y="-26.5" font-family="Helvetica,sans-Serif" font-size="10.00">gets</text>
</g>
<!-- Node2 -->
<g id="node3" class="node"><title>Node2</title>
<a xlink:href="lib_8c.html#ae0ca7622f88a0818572688d85919e6fe" target="_top" xlink:title="getc">
<polygon fill="none" stroke="black" points="72,-19.5 72,-38.5 108,-38.5 108,-19.5 72,-19.5"/>
<text text-anchor="middle" x="90" y="-26.5" font-family="Helvetica,sans-Serif" font-size="10.00">getc</text>
</a>
</g>
<!-- Node1&#45;&gt;Node2 -->
<g id="edge2" class="edge"><title>Node1&#45;&gt;Node2</title>
<path fill="none" stroke="midnightblue" d="M36.3034,-29C44.0173,-29 53.2875,-29 61.8876,-29"/>
<polygon fill="midnightblue" stroke="midnightblue" points="61.8957,-32.5001 71.8957,-29 61.8956,-25.5001 61.8957,-32.5001"/>
</g>
<!-- Node3 -->
<g id="node5" class="node"><title>Node3</title>
<a xlink:href="lib_8c.html#acee36427208c7c321ab875217dca17c4" target="_top" xlink:title="putc">
<polygon fill="none" stroke="black" points="171.5,-38.5 171.5,-57.5 206.5,-57.5 206.5,-38.5 171.5,-38.5"/>
<text text-anchor="middle" x="189" y="-45.5" font-family="Helvetica,sans-Serif" font-size="10.00">putc</text>
</a>
</g>
<!-- Node2&#45;&gt;Node3 -->
<g id="edge4" class="edge"><title>Node2&#45;&gt;Node3</title>
<path fill="none" stroke="midnightblue" d="M108.342,-32.3968C123.143,-35.2961 144.66,-39.5107 161.6,-42.8289"/>
<polygon fill="midnightblue" stroke="midnightblue" points="160.97,-46.2718 171.456,-44.7594 162.315,-39.4024 160.97,-46.2718"/>
</g>
<!-- Node6 -->
<g id="node11" class="node"><title>Node6</title>
<a xlink:href="serial_8c.html#ab041beadc1139b4c1b12e30e5c21a383" target="_top" xlink:title="serial_recv_byte">
<polygon fill="none" stroke="black" points="144,-0.5 144,-19.5 234,-19.5 234,-0.5 144,-0.5"/>
<text text-anchor="middle" x="189" y="-7.5" font-family="Helvetica,sans-Serif" font-size="10.00">serial_recv_byte</text>
</a>
</g>
<!-- Node2&#45;&gt;Node6 -->
<g id="edge10" class="edge"><title>Node2&#45;&gt;Node6</title>
<path fill="none" stroke="midnightblue" d="M108.342,-25.6032C115.625,-24.1765 124.534,-22.4314 133.724,-20.6314"/>
<polygon fill="midnightblue" stroke="midnightblue" points="134.602,-24.0261 143.742,-18.669 133.256,-17.1566 134.602,-24.0261"/>
</g>
<!-- Node4 -->
<g id="node7" class="node"><title>Node4</title>
<a xlink:href="serial_8c.html#aed0806bd3de71f20d6df8ef6f49bda31" target="_top" xlink:title="serial_send_byte">
<polygon fill="none" stroke="black" points="281.5,-38.5 281.5,-57.5 374.5,-57.5 374.5,-38.5 281.5,-38.5"/>
<text text-anchor="middle" x="328" y="-45.5" font-family="Helvetica,sans-Serif" font-size="10.00">serial_send_byte</text>
</a>
</g>
<!-- Node3&#45;&gt;Node4 -->
<g id="edge6" class="edge"><title>Node3&#45;&gt;Node4</title>
<path fill="none" stroke="midnightblue" d="M206.525,-48C222.582,-48 247.881,-48 271.159,-48"/>
<polygon fill="midnightblue" stroke="midnightblue" points="271.324,-51.5001 281.324,-48 271.324,-44.5001 271.324,-51.5001"/>
</g>
<!-- Node5 -->
<g id="node9" class="node"><title>Node5</title>
<a xlink:href="serial_8c.html#abf48ded30f8aa6fff8cb48dce0af0590" target="_top" xlink:title="serial_is_send_enable">
<polygon fill="none" stroke="black" points="422,-38.5 422,-57.5 540,-57.5 540,-38.5 422,-38.5"/>
<text text-anchor="middle" x="481" y="-45.5" font-family="Helvetica,sans-Serif" font-size="10.00">serial_is_send_enable</text>
</a>
</g>
<!-- Node4&#45;&gt;Node5 -->
<g id="edge8" class="edge"><title>Node4&#45;&gt;Node5</title>
<path fill="none" stroke="midnightblue" d="M374.715,-48C386.427,-48 399.278,-48 411.855,-48"/>
<polygon fill="midnightblue" stroke="midnightblue" points="411.855,-51.5001 421.855,-48 411.855,-44.5001 411.855,-51.5001"/>
</g>
<!-- Node7 -->
<g id="node13" class="node"><title>Node7</title>
<a xlink:href="serial_8c.html#a3592a8e9f7fc0651cfcbc638d6192040" target="_top" xlink:title="serial_is_recv_enable">
<polygon fill="none" stroke="black" points="270.5,-0.5 270.5,-19.5 385.5,-19.5 385.5,-0.5 270.5,-0.5"/>
<text text-anchor="middle" x="328" y="-7.5" font-family="Helvetica,sans-Serif" font-size="10.00">serial_is_recv_enable</text>
</a>
</g>
<!-- Node6&#45;&gt;Node7 -->
<g id="edge12" class="edge"><title>Node6&#45;&gt;Node7</title>
<path fill="none" stroke="midnightblue" d="M234.102,-10C242.513,-10 251.489,-10 260.421,-10"/>
<polygon fill="midnightblue" stroke="midnightblue" points="260.455,-13.5001 270.455,-10 260.455,-6.5001 260.455,-13.5001"/>
</g>
</g>
</svg>
