<?xml version="1.0" encoding="UTF-8" standalone="no"?>
<!DOCTYPE svg PUBLIC "-//W3C//DTD SVG 1.1//EN"
 "http://www.w3.org/Graphics/SVG/1.1/DTD/svg11.dtd">
<!-- Generated by graphviz version 2.28.0 (20130928.0220)
 -->
<!-- Title: getc Pages: 1 -->
<svg width="416pt" height="66pt"
 viewBox="0.00 0.00 416.00 66.00" xmlns="http://www.w3.org/2000/svg" xmlns:xlink="http://www.w3.org/1999/xlink">
<g id="graph1" class="graph" transform="scale(1 1) rotate(0) translate(4 62)">
<title>getc</title>
<!-- Node1 -->
<g id="node1" class="node"><title>Node1</title>
<polygon fill="#bfbfbf" stroke="black" points="0,-19.5 0,-38.5 36,-38.5 36,-19.5 0,-19.5"/>
<text text-anchor="middle" x="18" y="-26.5" font-family="Helvetica,sans-Serif" font-size="10.00">getc</text>
</g>
<!-- Node2 -->
<g id="node3" class="node"><title>Node2</title>
<a xlink:href="lib_8h.html#ac414099aa125e8638ec89b7593865b12" target="_top" xlink:title="gets">
<polygon fill="none" stroke="black" points="72,-19.5 72,-38.5 108,-38.5 108,-19.5 72,-19.5"/>
<text text-anchor="middle" x="90" y="-26.5" font-family="Helvetica,sans-Serif" font-size="10.00">gets</text>
</a>
</g>
<!-- Node1&#45;&gt;Node2 -->
<g id="edge2" class="edge"><title>Node1&#45;&gt;Node2</title>
<path fill="none" stroke="midnightblue" d="M46.3349,-29C54.9463,-29 64.2087,-29 71.8957,-29"/>
<polygon fill="midnightblue" stroke="midnightblue" points="46.3034,-25.5001 36.3034,-29 46.3033,-32.5001 46.3034,-25.5001"/>
</g>
<!-- Node3 -->
<g id="node5" class="node"><title>Node3</title>
<a xlink:href="bootload_2main_8c.html#a840291bc02cba5474a4cb46a9b9566fe" target="_top" xlink:title="main">
<polygon fill="none" stroke="black" points="165,-38.5 165,-57.5 203,-57.5 203,-38.5 165,-38.5"/>
<text text-anchor="middle" x="184" y="-45.5" font-family="Helvetica,sans-Serif" font-size="10.00">main</text>
</a>
</g>
<!-- Node2&#45;&gt;Node3 -->
<g id="edge4" class="edge"><title>Node2&#45;&gt;Node3</title>
<path fill="none" stroke="midnightblue" d="M118.107,-34.5981C133.166,-37.7083 151.496,-41.4938 164.829,-44.2473"/>
<polygon fill="midnightblue" stroke="midnightblue" points="118.806,-31.1687 108.304,-32.5738 117.39,-38.024 118.806,-31.1687"/>
</g>
<!-- Node4 -->
<g id="node7" class="node"><title>Node4</title>
<a xlink:href="test08__1_8c.html#a365da73ee00836b826de141b6d662a78" target="_top" xlink:title="ユーザースレッド ">
<polygon fill="none" stroke="black" points="144,-0.5 144,-19.5 224,-19.5 224,-0.5 144,-0.5"/>
<text text-anchor="middle" x="184" y="-7.5" font-family="Helvetica,sans-Serif" font-size="10.00">test08_1_main</text>
</a>
</g>
<!-- Node2&#45;&gt;Node4 -->
<g id="edge6" class="edge"><title>Node2&#45;&gt;Node4</title>
<path fill="none" stroke="midnightblue" d="M118.174,-23.388C126.161,-21.7385 135.063,-19.8999 143.65,-18.1266"/>
<polygon fill="midnightblue" stroke="midnightblue" points="117.39,-19.976 108.304,-25.4262 118.806,-26.8313 117.39,-19.976"/>
</g>
<!-- Node5 -->
<g id="node9" class="node"><title>Node5</title>
<a xlink:href="os_2main_8c.html#aabc6304dfeadad471d074b11c6e057dd" target="_top" xlink:title="start_threads">
<polygon fill="none" stroke="black" points="260,-0.5 260,-19.5 334,-19.5 334,-0.5 260,-0.5"/>
<text text-anchor="middle" x="297" y="-7.5" font-family="Helvetica,sans-Serif" font-size="10.00">start_threads</text>
</a>
</g>
<!-- Node4&#45;&gt;Node5 -->
<g id="edge8" class="edge"><title>Node4&#45;&gt;Node5</title>
<path fill="none" stroke="midnightblue" d="M234.41,-10C242.958,-10 251.702,-10 259.816,-10"/>
<polygon fill="midnightblue" stroke="midnightblue" points="234.134,-6.5001 224.134,-10 234.134,-13.5001 234.134,-6.5001"/>
</g>
<!-- Node6 -->
<g id="node11" class="node"><title>Node6</title>
<a xlink:href="os_2main_8c.html#a840291bc02cba5474a4cb46a9b9566fe" target="_top" xlink:title="main">
<polygon fill="none" stroke="black" points="370,-0.5 370,-19.5 408,-19.5 408,-0.5 370,-0.5"/>
<text text-anchor="middle" x="389" y="-7.5" font-family="Helvetica,sans-Serif" font-size="10.00">main</text>
</a>
</g>
<!-- Node5&#45;&gt;Node6 -->
<g id="edge10" class="edge"><title>Node5&#45;&gt;Node6</title>
<path fill="none" stroke="midnightblue" d="M344.326,-10C353.437,-10 362.476,-10 369.946,-10"/>
<polygon fill="midnightblue" stroke="midnightblue" points="344.088,-6.5001 334.088,-10 344.088,-13.5001 344.088,-6.5001"/>
</g>
</g>
</svg>
