<?xml version="1.0" encoding="UTF-8" standalone="no"?>
<!DOCTYPE svg PUBLIC "-//W3C//DTD SVG 1.1//EN"
 "http://www.w3.org/Graphics/SVG/1.1/DTD/svg11.dtd">
<!-- Generated by graphviz version 2.28.0 (20130928.0220)
 -->
<!-- Title: putxval Pages: 1 -->
<svg width="484pt" height="28pt"
 viewBox="0.00 0.00 484.00 28.00" xmlns="http://www.w3.org/2000/svg" xmlns:xlink="http://www.w3.org/1999/xlink">
<g id="graph1" class="graph" transform="scale(1 1) rotate(0) translate(4 24)">
<title>putxval</title>
<!-- Node1 -->
<g id="node1" class="node"><title>Node1</title>
<polygon fill="#bfbfbf" stroke="black" points="0,-0.5 0,-19.5 48,-19.5 48,-0.5 0,-0.5"/>
<text text-anchor="middle" x="24" y="-7.5" font-family="Helvetica,sans-Serif" font-size="10.00">putxval</text>
</g>
<!-- Node2 -->
<g id="node3" class="node"><title>Node2</title>
<a xlink:href="lib_8c.html#a44ddf1a8f6a75ff235a733ff8d90cae3" target="_top" xlink:title="puts">
<polygon fill="none" stroke="black" points="84.5,-0.5 84.5,-19.5 119.5,-19.5 119.5,-0.5 84.5,-0.5"/>
<text text-anchor="middle" x="102" y="-7.5" font-family="Helvetica,sans-Serif" font-size="10.00">puts</text>
</a>
</g>
<!-- Node1&#45;&gt;Node2 -->
<g id="edge2" class="edge"><title>Node1&#45;&gt;Node2</title>
<path fill="none" stroke="midnightblue" d="M48.2155,-10C56.4413,-10 65.7621,-10 74.2577,-10"/>
<polygon fill="midnightblue" stroke="midnightblue" points="74.433,-13.5001 84.433,-10 74.4329,-6.5001 74.433,-13.5001"/>
</g>
<!-- Node3 -->
<g id="node5" class="node"><title>Node3</title>
<a xlink:href="lib_8c.html#acee36427208c7c321ab875217dca17c4" target="_top" xlink:title="putc">
<polygon fill="none" stroke="black" points="156.5,-0.5 156.5,-19.5 191.5,-19.5 191.5,-0.5 156.5,-0.5"/>
<text text-anchor="middle" x="174" y="-7.5" font-family="Helvetica,sans-Serif" font-size="10.00">putc</text>
</a>
</g>
<!-- Node2&#45;&gt;Node3 -->
<g id="edge4" class="edge"><title>Node2&#45;&gt;Node3</title>
<path fill="none" stroke="midnightblue" d="M119.589,-10C127.407,-10 136.939,-10 145.774,-10"/>
<polygon fill="midnightblue" stroke="midnightblue" points="146.044,-13.5001 156.044,-10 146.044,-6.5001 146.044,-13.5001"/>
</g>
<!-- Node4 -->
<g id="node7" class="node"><title>Node4</title>
<a xlink:href="serial_8c.html#aed0806bd3de71f20d6df8ef6f49bda31" target="_top" xlink:title="serial_send_byte">
<polygon fill="none" stroke="black" points="228.5,-0.5 228.5,-19.5 321.5,-19.5 321.5,-0.5 228.5,-0.5"/>
<text text-anchor="middle" x="275" y="-7.5" font-family="Helvetica,sans-Serif" font-size="10.00">serial_send_byte</text>
</a>
</g>
<!-- Node3&#45;&gt;Node4 -->
<g id="edge6" class="edge"><title>Node3&#45;&gt;Node4</title>
<path fill="none" stroke="midnightblue" d="M191.794,-10C199.246,-10 208.487,-10 218.056,-10"/>
<polygon fill="midnightblue" stroke="midnightblue" points="218.084,-13.5001 228.084,-10 218.084,-6.5001 218.084,-13.5001"/>
</g>
<!-- Node5 -->
<g id="node9" class="node"><title>Node5</title>
<a xlink:href="serial_8c.html#abf48ded30f8aa6fff8cb48dce0af0590" target="_top" xlink:title="serial_is_send_enable">
<polygon fill="none" stroke="black" points="358,-0.5 358,-19.5 476,-19.5 476,-0.5 358,-0.5"/>
<text text-anchor="middle" x="417" y="-7.5" font-family="Helvetica,sans-Serif" font-size="10.00">serial_is_send_enable</text>
</a>
</g>
<!-- Node4&#45;&gt;Node5 -->
<g id="edge8" class="edge"><title>Node4&#45;&gt;Node5</title>
<path fill="none" stroke="midnightblue" d="M321.841,-10C330.095,-10 338.859,-10 347.591,-10"/>
<polygon fill="midnightblue" stroke="midnightblue" points="347.793,-13.5001 357.793,-10 347.793,-6.5001 347.793,-13.5001"/>
</g>
</g>
</svg>
