<?xml version="1.0" encoding="UTF-8" standalone="no"?>
<!DOCTYPE svg PUBLIC "-//W3C//DTD SVG 1.1//EN"
 "http://www.w3.org/Graphics/SVG/1.1/DTD/svg11.dtd">
<!-- Generated by graphviz version 2.28.0 (20130928.0220)
 -->
<!-- Title: main Pages: 1 -->
<!--zoomable 591 -->
<svg id="main" version="1.1" xmlns="http://www.w3.org/2000/svg" xmlns:xlink="http://www.w3.org/1999/xlink" xml:space="preserve" onload="init(evt)">
<style type="text/css"><![CDATA[
.edge:hover path { stroke: red; }
.edge:hover polygon { stroke: red; fill: red; }
]]></style>
<script type="text/javascript"><![CDATA[
var edges = document.getElementsByTagName('g');
if (edges && edges.length) {
  for (var i=0;i<edges.length;i++) {
    if (edges[i].id.substr(0,4)=='edge') {
      edges[i].setAttribute('class','edge');
    }
  }
}
]]></script>
        <defs>
                <circle id="rim" cx="0" cy="0" r="7"/>
                <circle id="rim2" cx="0" cy="0" r="3.5"/>
                <g id="zoomPlus">
                        <use xlink:href="#rim" fill="#404040">
                                <set attributeName="fill" to="#808080" begin="zoomplus.mouseover" end="zoomplus.mouseout"/>
                        </use>
                        <path d="M-4,0h8M0,-4v8" fill="none" stroke="white" stroke-width="1.5" pointer-events="none"/>
                </g>
                <g id="zoomMin">
                        <use xlink:href="#rim" fill="#404040">
                                <set attributeName="fill" to="#808080" begin="zoomminus.mouseover" end="zoomminus.mouseout"/>
                        </use>
                        <path d="M-4,0h8" fill="none" stroke="white" stroke-width="1.5" pointer-events="none"/>
                </g>
                <g id="dirArrow">
                        <path fill="none" stroke="white" stroke-width="1.5" d="M0,-3.0v7 M-2.5,-0.5L0,-3.0L2.5,-0.5"/>
                </g>
               <g id="resetDef">
                       <use xlink:href="#rim2" fill="#404040">
                               <set attributeName="fill" to="#808080" begin="reset.mouseover" end="reset.mouseout"/>
                       </use>
               </g>
        </defs>

<script type="text/javascript">
var viewWidth = 1132;
var viewHeight = 591;
var sectionId = 'dynsection-1';
</script>
<script xlink:href="svgpan.js"/>
<svg id="graph" class="graph">
<g id="viewport">
<title>main</title>
<!-- Node1 -->
<g id="node1" class="node"><title>Node1</title>
<polygon fill="#bfbfbf" stroke="black" points="0,-152.5 0,-171.5 38,-171.5 38,-152.5 0,-152.5"/>
<text text-anchor="middle" x="19" y="-159.5" font-family="Helvetica,sans-Serif" font-size="10.00">main</text>
</g>
<!-- Node2 -->
<g id="node3" class="node"><title>Node2</title>
<a xlink:href="kozos_8c.html#a4eea8b8785168bbebe79a49cab406171" target="_top" xlink:title="ライブラリ関数 ">
<polygon fill="none" stroke="black" points="74.5,-285.5 74.5,-304.5 125.5,-304.5 125.5,-285.5 74.5,-285.5"/>
<text text-anchor="middle" x="100" y="-292.5" font-family="Helvetica,sans-Serif" font-size="10.00">kz_start</text>
</a>
</g>
<!-- Node1&#45;&gt;Node2 -->
<g id="edge2" class="edge"><title>Node1&#45;&gt;Node2</title>
<path fill="none" stroke="midnightblue" d="M25.6815,-171.565C38.7136,-193.505 70.9442,-247.767 88.003,-276.486"/>
<polygon fill="midnightblue" stroke="midnightblue" points="85.0407,-278.353 93.1569,-285.163 91.0591,-274.778 85.0407,-278.353"/>
</g>
<!-- Node9 -->
<g id="node17" class="node"><title>Node9</title>
<a xlink:href="lib_8c.html#a44ddf1a8f6a75ff235a733ff8d90cae3" target="_top" xlink:title="puts">
<polygon fill="none" stroke="black" points="631.5,-171.5 631.5,-190.5 666.5,-190.5 666.5,-171.5 631.5,-171.5"/>
<text text-anchor="middle" x="649" y="-178.5" font-family="Helvetica,sans-Serif" font-size="10.00">puts</text>
</a>
</g>
<!-- Node1&#45;&gt;Node9 -->
<g id="edge70" class="edge"><title>Node1&#45;&gt;Node9</title>
<path fill="none" stroke="midnightblue" d="M38.2874,-162C69.9901,-162 137.208,-162 194,-162 194,-162 194,-162 421,-162 493.579,-162 578.759,-171.765 621.171,-177.294"/>
<polygon fill="midnightblue" stroke="midnightblue" points="620.864,-180.784 631.239,-178.632 621.787,-173.845 620.864,-180.784"/>
</g>
<!-- Node28 -->
<g id="node64" class="node"><title>Node28</title>
<a xlink:href="os_2main_8c.html#aabc6304dfeadad471d074b11c6e057dd" target="_top" xlink:title="start_threads">
<polygon fill="none" stroke="black" points="267,-114.5 267,-133.5 341,-133.5 341,-114.5 267,-114.5"/>
<text text-anchor="middle" x="304" y="-121.5" font-family="Helvetica,sans-Serif" font-size="10.00">start_threads</text>
</a>
</g>
<!-- Node1&#45;&gt;Node28 -->
<g id="edge72" class="edge"><title>Node1&#45;&gt;Node28</title>
<path fill="none" stroke="midnightblue" d="M38.3432,-156.517C48.723,-153.599 61.992,-150.173 74,-148 136.717,-136.649 210.141,-130.128 256.607,-126.823"/>
<polygon fill="midnightblue" stroke="midnightblue" points="256.936,-130.309 266.671,-126.128 256.453,-123.325 256.936,-130.309"/>
</g>
<!-- Node3 -->
<g id="node5" class="node"><title>Node3</title>
<a xlink:href="lib_8c.html#a89ddf4c406cf5f89be48dd3e4af4cdc4" target="_top" xlink:title="memset">
<polygon fill="none" stroke="black" points="746.5,-344.5 746.5,-363.5 799.5,-363.5 799.5,-344.5 746.5,-344.5"/>
<text text-anchor="middle" x="773" y="-351.5" font-family="Helvetica,sans-Serif" font-size="10.00">memset</text>
</a>
</g>
<!-- Node2&#45;&gt;Node3 -->
<g id="edge4" class="edge"><title>Node2&#45;&gt;Node3</title>
<path fill="none" stroke="midnightblue" d="M125.743,-303.434C136.759,-307 149.942,-311.01 162,-314 206.758,-325.098 218.18,-327.812 264,-333 440.245,-352.954 652.797,-354.522 736.071,-354.273"/>
<polygon fill="midnightblue" stroke="midnightblue" points="736.277,-357.772 746.263,-354.231 736.248,-350.772 736.277,-357.772"/>
</g>
<!-- Node4 -->
<g id="node7" class="node"><title>Node4</title>
<a xlink:href="kozos_8c.html#a7f5d62b70099d281d35e0336463c49fc" target="_top" xlink:title="set interrupt handler ">
<polygon fill="none" stroke="black" points="173.5,-285.5 173.5,-304.5 216.5,-304.5 216.5,-285.5 173.5,-285.5"/>
<text text-anchor="middle" x="195" y="-292.5" font-family="Helvetica,sans-Serif" font-size="10.00">setintr</text>
</a>
</g>
<!-- Node2&#45;&gt;Node4 -->
<g id="edge6" class="edge"><title>Node2&#45;&gt;Node4</title>
<path fill="none" stroke="midnightblue" d="M125.922,-295C137.408,-295 151.15,-295 163.271,-295"/>
<polygon fill="midnightblue" stroke="midnightblue" points="163.407,-298.5 173.407,-295 163.407,-291.5 163.407,-298.5"/>
</g>
<!-- Node13 -->
<g id="node25" class="node"><title>Node13</title>
<a xlink:href="kozos_8c.html#a22e9c35c1764d5ebe1d534d207f114b1" target="_top" xlink:title="dispatch">
<polygon fill="none" stroke="black" points="393,-228.5 393,-247.5 447,-247.5 447,-228.5 393,-228.5"/>
<text text-anchor="middle" x="420" y="-235.5" font-family="Helvetica,sans-Serif" font-size="10.00">dispatch</text>
</a>
</g>
<!-- Node2&#45;&gt;Node13 -->
<g id="edge68" class="edge"><title>Node2&#45;&gt;Node13</title>
<path fill="none" stroke="midnightblue" d="M125.743,-286.566C136.759,-283 149.942,-278.99 162,-276 239.449,-256.796 332.592,-245.986 382.748,-241.141"/>
<polygon fill="midnightblue" stroke="midnightblue" points="383.15,-244.618 392.778,-240.196 382.493,-237.649 383.15,-244.618"/>
</g>
<!-- Node14 -->
<g id="node27" class="node"><title>Node14</title>
<a xlink:href="kozos_8c.html#a69f871c66a43d6f0a644c57def130160" target="_top" xlink:title="syscall_intr">
<polygon fill="none" stroke="black" points="162,-418.5 162,-437.5 228,-437.5 228,-418.5 162,-418.5"/>
<text text-anchor="middle" x="195" y="-425.5" font-family="Helvetica,sans-Serif" font-size="10.00">syscall_intr</text>
</a>
</g>
<!-- Node2&#45;&gt;Node14 -->
<g id="edge26" class="edge"><title>Node2&#45;&gt;Node14</title>
<path fill="none" stroke="midnightblue" d="M104.744,-304.577C112.911,-324.632 133.871,-371.848 162,-404 164.526,-406.888 167.453,-409.647 170.489,-412.198"/>
<polygon fill="midnightblue" stroke="midnightblue" points="168.519,-415.099 178.582,-418.413 172.783,-409.547 168.519,-415.099"/>
</g>
<!-- Node17 -->
<g id="node33" class="node"><title>Node17</title>
<a xlink:href="kozos_8c.html#a8fd64516a2230c46e0e866aa3c54470b" target="_top" xlink:title="system call ">
<polygon fill="none" stroke="black" points="501,-433.5 501,-452.5 565,-452.5 565,-433.5 501,-433.5"/>
<text text-anchor="middle" x="533" y="-440.5" font-family="Helvetica,sans-Serif" font-size="10.00">thread_run</text>
</a>
</g>
<!-- Node2&#45;&gt;Node17 -->
<g id="edge66" class="edge"><title>Node2&#45;&gt;Node17</title>
<path fill="none" stroke="midnightblue" d="M106.1,-304.506C115.092,-320.231 135.362,-351.373 162,-366 279.296,-430.408 331.858,-370.447 460,-409 475.978,-413.807 492.895,-421.64 506.314,-428.576"/>
<polygon fill="midnightblue" stroke="midnightblue" points="504.931,-431.805 515.403,-433.412 508.219,-425.625 504.931,-431.805"/>
</g>
<!-- Node27 -->
<g id="node57" class="node"><title>Node27</title>
<a xlink:href="kozos_8c.html#ad878125b5a334d151d787886f190ccf2" target="_top" xlink:title="softerr_intr">
<polygon fill="none" stroke="black" points="389,-190.5 389,-209.5 451,-209.5 451,-190.5 389,-190.5"/>
<text text-anchor="middle" x="420" y="-197.5" font-family="Helvetica,sans-Serif" font-size="10.00">softerr_intr</text>
</a>
</g>
<!-- Node2&#45;&gt;Node27 -->
<g id="edge60" class="edge"><title>Node2&#45;&gt;Node27</title>
<path fill="none" stroke="midnightblue" d="M113.911,-285.459C125.83,-277.078 144.312,-265.139 162,-258 235.412,-228.372 327.03,-212.295 378.681,-204.988"/>
<polygon fill="midnightblue" stroke="midnightblue" points="379.338,-208.431 388.768,-203.601 378.384,-201.496 379.338,-208.431"/>
</g>
<!-- Node5 -->
<g id="node9" class="node"><title>Node5</title>
<a xlink:href="interrupt_8c.html#a77d3bbf145b56c7a6bc2706b44b71d68" target="_top" xlink:title="softvec_setintr">
<polygon fill="none" stroke="black" points="264,-266.5 264,-285.5 344,-285.5 344,-266.5 264,-266.5"/>
<text text-anchor="middle" x="304" y="-273.5" font-family="Helvetica,sans-Serif" font-size="10.00">softvec_setintr</text>
</a>
</g>
<!-- Node4&#45;&gt;Node5 -->
<g id="edge8" class="edge"><title>Node4&#45;&gt;Node5</title>
<path fill="none" stroke="midnightblue" d="M216.631,-291.337C227.277,-289.446 240.759,-287.052 253.886,-284.721"/>
<polygon fill="midnightblue" stroke="midnightblue" points="254.569,-288.155 263.803,-282.96 253.345,-281.263 254.569,-288.155"/>
</g>
<!-- Node6 -->
<g id="node11" class="node"><title>Node6</title>
<a xlink:href="kozos_8c.html#a064de18830e60998f8be0d67a0f2aabf" target="_top" xlink:title="thread_intr">
<polygon fill="none" stroke="black" points="272.5,-304.5 272.5,-323.5 335.5,-323.5 335.5,-304.5 272.5,-304.5"/>
<text text-anchor="middle" x="304" y="-311.5" font-family="Helvetica,sans-Serif" font-size="10.00">thread_intr</text>
</a>
</g>
<!-- Node4&#45;&gt;Node6 -->
<g id="edge10" class="edge"><title>Node4&#45;&gt;Node6</title>
<path fill="none" stroke="midnightblue" d="M216.631,-298.663C229.583,-300.963 246.732,-304.008 262.333,-306.779"/>
<polygon fill="midnightblue" stroke="midnightblue" points="261.844,-310.247 272.302,-308.549 263.068,-303.354 261.844,-310.247"/>
</g>
<!-- Node7 -->
<g id="node13" class="node"><title>Node7</title>
<a xlink:href="kozos_8c.html#a63e3ec45b7bf0028e55f2b9ab1603306" target="_top" xlink:title="schedule">
<polygon fill="none" stroke="black" points="391,-266.5 391,-285.5 449,-285.5 449,-266.5 391,-266.5"/>
<text text-anchor="middle" x="420" y="-273.5" font-family="Helvetica,sans-Serif" font-size="10.00">schedule</text>
</a>
</g>
<!-- Node6&#45;&gt;Node7 -->
<g id="edge12" class="edge"><title>Node6&#45;&gt;Node7</title>
<path fill="none" stroke="midnightblue" d="M333.767,-304.411C348.051,-299.65 365.501,-293.833 380.882,-288.706"/>
<polygon fill="midnightblue" stroke="midnightblue" points="382.257,-291.937 390.637,-285.454 380.043,-285.296 382.257,-291.937"/>
</g>
<!-- Node6&#45;&gt;Node13 -->
<g id="edge24" class="edge"><title>Node6&#45;&gt;Node13</title>
<path fill="none" stroke="midnightblue" d="M328.066,-304.46C333.511,-301.756 339.142,-298.564 344,-295 362.759,-281.24 361.241,-270.76 380,-257 382.201,-255.385 384.561,-253.847 386.991,-252.395"/>
<polygon fill="midnightblue" stroke="midnightblue" points="388.816,-255.387 395.934,-247.54 385.476,-249.235 388.816,-255.387"/>
</g>
<!-- Node8 -->
<g id="node15" class="node"><title>Node8</title>
<a xlink:href="kozos_8c.html#ad271cfae989a014d777a1f46903d6964" target="_top" xlink:title="kz_sysdown">
<polygon fill="none" stroke="black" points="496.5,-247.5 496.5,-266.5 569.5,-266.5 569.5,-247.5 496.5,-247.5"/>
<text text-anchor="middle" x="533" y="-254.5" font-family="Helvetica,sans-Serif" font-size="10.00">kz_sysdown</text>
</a>
</g>
<!-- Node7&#45;&gt;Node8 -->
<g id="edge14" class="edge"><title>Node7&#45;&gt;Node8</title>
<path fill="none" stroke="midnightblue" d="M449.01,-271.205C460.362,-269.262 473.766,-266.968 486.453,-264.796"/>
<polygon fill="midnightblue" stroke="midnightblue" points="487.155,-268.227 496.421,-263.09 485.974,-261.328 487.155,-268.227"/>
</g>
<!-- Node8&#45;&gt;Node9 -->
<g id="edge16" class="edge"><title>Node8&#45;&gt;Node9</title>
<path fill="none" stroke="midnightblue" d="M548.438,-247.375C567.797,-234.469 602.373,-211.418 625.25,-196.167"/>
<polygon fill="midnightblue" stroke="midnightblue" points="627.3,-199.007 633.679,-190.547 623.417,-193.182 627.3,-199.007"/>
</g>
<!-- Node10 -->
<g id="node19" class="node"><title>Node10</title>
<a xlink:href="lib_8c.html#acee36427208c7c321ab875217dca17c4" target="_top" xlink:title="putc">
<polygon fill="none" stroke="black" points="755.5,-114.5 755.5,-133.5 790.5,-133.5 790.5,-114.5 755.5,-114.5"/>
<text text-anchor="middle" x="773" y="-121.5" font-family="Helvetica,sans-Serif" font-size="10.00">putc</text>
</a>
</g>
<!-- Node9&#45;&gt;Node10 -->
<g id="edge18" class="edge"><title>Node9&#45;&gt;Node10</title>
<path fill="none" stroke="midnightblue" d="M666.708,-173.194C687.241,-163.6 722.303,-147.219 746.281,-136.016"/>
<polygon fill="midnightblue" stroke="midnightblue" points="747.916,-139.116 755.494,-131.712 744.953,-132.774 747.916,-139.116"/>
</g>
<!-- Node11 -->
<g id="node21" class="node"><title>Node11</title>
<a xlink:href="serial_8c.html#aed0806bd3de71f20d6df8ef6f49bda31" target="_top" xlink:title="serial_send_byte">
<polygon fill="none" stroke="black" points="865.5,-114.5 865.5,-133.5 958.5,-133.5 958.5,-114.5 865.5,-114.5"/>
<text text-anchor="middle" x="912" y="-121.5" font-family="Helvetica,sans-Serif" font-size="10.00">serial_send_byte</text>
</a>
</g>
<!-- Node10&#45;&gt;Node11 -->
<g id="edge20" class="edge"><title>Node10&#45;&gt;Node11</title>
<path fill="none" stroke="midnightblue" d="M790.525,-124C806.582,-124 831.881,-124 855.159,-124"/>
<polygon fill="midnightblue" stroke="midnightblue" points="855.324,-127.5 865.324,-124 855.324,-120.5 855.324,-127.5"/>
</g>
<!-- Node12 -->
<g id="node23" class="node"><title>Node12</title>
<a xlink:href="serial_8c.html#abf48ded30f8aa6fff8cb48dce0af0590" target="_top" xlink:title="serial_is_send_enable">
<polygon fill="none" stroke="black" points="1006,-114.5 1006,-133.5 1124,-133.5 1124,-114.5 1006,-114.5"/>
<text text-anchor="middle" x="1065" y="-121.5" font-family="Helvetica,sans-Serif" font-size="10.00">serial_is_send_enable</text>
</a>
</g>
<!-- Node11&#45;&gt;Node12 -->
<g id="edge22" class="edge"><title>Node11&#45;&gt;Node12</title>
<path fill="none" stroke="midnightblue" d="M958.715,-124C970.427,-124 983.278,-124 995.855,-124"/>
<polygon fill="midnightblue" stroke="midnightblue" points="995.855,-127.5 1005.85,-124 995.855,-120.5 995.855,-127.5"/>
</g>
<!-- Node15 -->
<g id="node29" class="node"><title>Node15</title>
<a xlink:href="kozos_8c.html#aef8f2fde0f7865d66b9a7daf0e2426e0" target="_top" xlink:title="syscall_proc">
<polygon fill="none" stroke="black" points="267.5,-418.5 267.5,-437.5 340.5,-437.5 340.5,-418.5 267.5,-418.5"/>
<text text-anchor="middle" x="304" y="-425.5" font-family="Helvetica,sans-Serif" font-size="10.00">syscall_proc</text>
</a>
</g>
<!-- Node14&#45;&gt;Node15 -->
<g id="edge28" class="edge"><title>Node14&#45;&gt;Node15</title>
<path fill="none" stroke="midnightblue" d="M228.104,-428C237.241,-428 247.375,-428 257.161,-428"/>
<polygon fill="midnightblue" stroke="midnightblue" points="257.175,-431.5 267.175,-428 257.175,-424.5 257.175,-431.5"/>
</g>
<!-- Node16 -->
<g id="node31" class="node"><title>Node16</title>
<a xlink:href="kozos_8c.html#acd68041208fa0120669ac78343a47dc0" target="_top" xlink:title="call_functions">
<polygon fill="none" stroke="black" points="381.5,-418.5 381.5,-437.5 458.5,-437.5 458.5,-418.5 381.5,-418.5"/>
<text text-anchor="middle" x="420" y="-425.5" font-family="Helvetica,sans-Serif" font-size="10.00">call_functions</text>
</a>
</g>
<!-- Node15&#45;&gt;Node16 -->
<g id="edge30" class="edge"><title>Node15&#45;&gt;Node16</title>
<path fill="none" stroke="midnightblue" d="M340.758,-428C350.454,-428 361.108,-428 371.348,-428"/>
<polygon fill="midnightblue" stroke="midnightblue" points="371.399,-431.5 381.399,-428 371.399,-424.5 371.399,-431.5"/>
</g>
<!-- Node16&#45;&gt;Node17 -->
<g id="edge32" class="edge"><title>Node16&#45;&gt;Node17</title>
<path fill="none" stroke="midnightblue" d="M458.58,-433.078C468.863,-434.468 480.065,-435.982 490.552,-437.399"/>
<polygon fill="midnightblue" stroke="midnightblue" points="490.36,-440.905 500.739,-438.775 491.298,-433.968 490.36,-440.905"/>
</g>
<!-- Node26 -->
<g id="node53" class="node"><title>Node26</title>
<a xlink:href="kozos_8c.html#a4dd8e8425a1c0c5d866a9271d243cdef" target="_top" xlink:title="thread_exit">
<polygon fill="none" stroke="black" points="500,-294.5 500,-313.5 566,-313.5 566,-294.5 500,-294.5"/>
<text text-anchor="middle" x="533" y="-301.5" font-family="Helvetica,sans-Serif" font-size="10.00">thread_exit</text>
</a>
</g>
<!-- Node16&#45;&gt;Node26 -->
<g id="edge54" class="edge"><title>Node16&#45;&gt;Node26</title>
<path fill="none" stroke="midnightblue" d="M429.71,-418.27C448.433,-397.354 492.733,-347.865 516.422,-321.402"/>
<polygon fill="midnightblue" stroke="midnightblue" points="519.269,-323.47 523.33,-313.685 514.053,-318.801 519.269,-323.47"/>
</g>
<!-- Node18 -->
<g id="node35" class="node"><title>Node18</title>
<a xlink:href="kozos_8c.html#a2e6488cfd47118e19d4407d3a23eac3f" target="_top" xlink:title="create TCB ">
<polygon fill="none" stroke="black" points="613,-373.5 613,-392.5 685,-392.5 685,-373.5 613,-373.5"/>
<text text-anchor="middle" x="649" y="-380.5" font-family="Helvetica,sans-Serif" font-size="10.00">create_TCB</text>
</a>
</g>
<!-- Node17&#45;&gt;Node18 -->
<g id="edge34" class="edge"><title>Node17&#45;&gt;Node18</title>
<path fill="none" stroke="midnightblue" d="M549.782,-433.45C564.216,-424.851 586.262,-412.057 606,-402 609.334,-400.301 612.85,-398.59 616.372,-396.926"/>
<polygon fill="midnightblue" stroke="midnightblue" points="617.969,-400.044 625.584,-392.677 615.037,-393.687 617.969,-400.044"/>
</g>
<!-- Node19 -->
<g id="node38" class="node"><title>Node19</title>
<a xlink:href="lib_8c.html#a4f18eec0e70dda8f611c6d629494a8de" target="_top" xlink:title="strcpy">
<polygon fill="none" stroke="black" points="627.5,-525.5 627.5,-544.5 670.5,-544.5 670.5,-525.5 627.5,-525.5"/>
<text text-anchor="middle" x="649" y="-532.5" font-family="Helvetica,sans-Serif" font-size="10.00">strcpy</text>
</a>
</g>
<!-- Node17&#45;&gt;Node19 -->
<g id="edge38" class="edge"><title>Node17&#45;&gt;Node19</title>
<path fill="none" stroke="midnightblue" d="M541.505,-452.632C553.688,-467.755 579.127,-497.275 606,-516 609.72,-518.592 613.851,-520.968 618.028,-523.095"/>
<polygon fill="midnightblue" stroke="midnightblue" points="616.565,-526.275 627.106,-527.345 619.533,-519.935 616.565,-526.275"/>
</g>
<!-- Node20 -->
<g id="node40" class="node"><title>Node20</title>
<a xlink:href="kozos_8c.html#a92177eed4eabc923bcd27462d8ce57b8" target="_top" xlink:title="get_stack_area">
<polygon fill="none" stroke="black" points="606,-563.5 606,-582.5 692,-582.5 692,-563.5 606,-563.5"/>
<text text-anchor="middle" x="649" y="-570.5" font-family="Helvetica,sans-Serif" font-size="10.00">get_stack_area</text>
</a>
</g>
<!-- Node17&#45;&gt;Node20 -->
<g id="edge40" class="edge"><title>Node17&#45;&gt;Node20</title>
<path fill="none" stroke="midnightblue" d="M537.964,-452.626C547.058,-473.657 571.338,-524.201 606,-554 607.775,-555.526 609.693,-556.951 611.698,-558.279"/>
<polygon fill="midnightblue" stroke="midnightblue" points="610.445,-561.593 620.87,-563.485 613.901,-555.505 610.445,-561.593"/>
</g>
<!-- Node21 -->
<g id="node43" class="node"><title>Node21</title>
<a xlink:href="kozos_8c.html#ac4d8f9724e6cfa40d91cd63fa8c275d2" target="_top" xlink:title="thread_end">
<polygon fill="none" stroke="black" points="615,-411.5 615,-430.5 683,-430.5 683,-411.5 615,-411.5"/>
<text text-anchor="middle" x="649" y="-418.5" font-family="Helvetica,sans-Serif" font-size="10.00">thread_end</text>
</a>
</g>
<!-- Node17&#45;&gt;Node21 -->
<g id="edge44" class="edge"><title>Node17&#45;&gt;Node21</title>
<path fill="none" stroke="midnightblue" d="M565.151,-436.988C577.444,-434.616 591.772,-431.851 605.022,-429.294"/>
<polygon fill="midnightblue" stroke="midnightblue" points="605.737,-432.721 614.892,-427.389 604.41,-425.848 605.737,-432.721"/>
</g>
<!-- Node24 -->
<g id="node49" class="node"><title>Node24</title>
<a xlink:href="kozos_8c.html#a3ac934c923c7f023b80805c9b7dad8a3" target="_top" xlink:title="start up thread ">
<polygon fill="none" stroke="black" points="618,-487.5 618,-506.5 680,-506.5 680,-487.5 618,-487.5"/>
<text text-anchor="middle" x="649" y="-494.5" font-family="Helvetica,sans-Serif" font-size="10.00">thread_init</text>
</a>
</g>
<!-- Node17&#45;&gt;Node24 -->
<g id="edge50" class="edge"><title>Node17&#45;&gt;Node24</title>
<path fill="none" stroke="midnightblue" d="M553.183,-452.504C567.649,-459.627 588.007,-469.559 606,-478 609.645,-479.71 613.48,-481.482 617.289,-483.225"/>
<polygon fill="midnightblue" stroke="midnightblue" points="616.029,-486.497 626.581,-487.448 618.925,-480.124 616.029,-486.497"/>
</g>
<!-- Node25 -->
<g id="node51" class="node"><title>Node25</title>
<a xlink:href="kozos_8c.html#a9cc7c96bdff0e4416f354672b2b1d183" target="_top" xlink:title="put">
<polygon fill="none" stroke="black" points="634.5,-449.5 634.5,-468.5 663.5,-468.5 663.5,-449.5 634.5,-449.5"/>
<text text-anchor="middle" x="649" y="-456.5" font-family="Helvetica,sans-Serif" font-size="10.00">put</text>
</a>
</g>
<!-- Node17&#45;&gt;Node25 -->
<g id="edge52" class="edge"><title>Node17&#45;&gt;Node25</title>
<path fill="none" stroke="midnightblue" d="M565.151,-447.372C583.754,-449.983 607.018,-453.248 624.153,-455.653"/>
<polygon fill="midnightblue" stroke="midnightblue" points="624.029,-459.17 634.419,-457.094 625.002,-452.238 624.029,-459.17"/>
</g>
<!-- Node18&#45;&gt;Node3 -->
<g id="edge36" class="edge"><title>Node18&#45;&gt;Node3</title>
<path fill="none" stroke="midnightblue" d="M685.287,-374.612C701.336,-370.797 720.291,-366.292 736.379,-362.467"/>
<polygon fill="midnightblue" stroke="midnightblue" points="737.559,-365.784 746.478,-360.067 735.94,-358.974 737.559,-365.784"/>
</g>
<!-- Node20&#45;&gt;Node3 -->
<g id="edge42" class="edge"><title>Node20&#45;&gt;Node3</title>
<path fill="none" stroke="midnightblue" d="M680.412,-563.438C684.794,-560.951 688.871,-557.851 692,-554 738.51,-496.757 690.171,-455.316 728,-392 732.986,-383.655 740.448,-376.21 747.818,-370.17"/>
<polygon fill="midnightblue" stroke="midnightblue" points="750.422,-372.587 756.272,-363.754 746.19,-367.011 750.422,-372.587"/>
</g>
<!-- Node22 -->
<g id="node45" class="node"><title>Node22</title>
<a xlink:href="kozos_8h.html#a0e36d3c55bb22d6d54af1eeff7157ff7" target="_top" xlink:title="スレッド強制終了 ">
<polygon fill="none" stroke="black" points="749,-401.5 749,-420.5 797,-420.5 797,-401.5 749,-401.5"/>
<text text-anchor="middle" x="773" y="-408.5" font-family="Helvetica,sans-Serif" font-size="10.00">kz_exit</text>
</a>
</g>
<!-- Node21&#45;&gt;Node22 -->
<g id="edge46" class="edge"><title>Node21&#45;&gt;Node22</title>
<path fill="none" stroke="midnightblue" d="M683.015,-418.294C700.196,-416.886 721.159,-415.167 738.421,-413.752"/>
<polygon fill="midnightblue" stroke="midnightblue" points="738.944,-417.221 748.625,-412.916 738.372,-410.245 738.944,-417.221"/>
</g>
<!-- Node23 -->
<g id="node47" class="node"><title>Node23</title>
<a xlink:href="kozos_8c.html#a2ef06efeac9f498bbabbf145fa8eb107" target="_top" xlink:title="kz_syscall">
<polygon fill="none" stroke="black" points="880,-228.5 880,-247.5 944,-247.5 944,-228.5 880,-228.5"/>
<text text-anchor="middle" x="912" y="-235.5" font-family="Helvetica,sans-Serif" font-size="10.00">kz_syscall</text>
</a>
</g>
<!-- Node22&#45;&gt;Node23 -->
<g id="edge48" class="edge"><title>Node22&#45;&gt;Node23</title>
<path fill="none" stroke="midnightblue" d="M786.714,-401.454C795.942,-394.197 808.433,-383.672 818,-373 852.177,-334.874 884.248,-283.662 900.293,-256.586"/>
<polygon fill="midnightblue" stroke="midnightblue" points="903.422,-258.17 905.454,-247.772 897.381,-254.633 903.422,-258.17"/>
</g>
<!-- Node26&#45;&gt;Node3 -->
<g id="edge58" class="edge"><title>Node26&#45;&gt;Node3</title>
<path fill="none" stroke="midnightblue" d="M566.283,-308.447C598.362,-313.117 648.865,-321.145 692,-331 706.738,-334.367 722.789,-338.823 736.62,-342.915"/>
<polygon fill="midnightblue" stroke="midnightblue" points="735.664,-346.282 746.248,-345.81 737.679,-339.579 735.664,-346.282"/>
</g>
<!-- Node26&#45;&gt;Node9 -->
<g id="edge56" class="edge"><title>Node26&#45;&gt;Node9</title>
<path fill="none" stroke="midnightblue" d="M547.922,-294.302C554.858,-289.196 563.193,-282.629 570,-276 595.321,-251.339 620.528,-218.821 635.169,-198.937"/>
<polygon fill="midnightblue" stroke="midnightblue" points="638.063,-200.909 641.115,-190.763 632.402,-196.791 638.063,-200.909"/>
</g>
<!-- Node27&#45;&gt;Node9 -->
<g id="edge62" class="edge"><title>Node27&#45;&gt;Node9</title>
<path fill="none" stroke="midnightblue" d="M451.144,-197.477C495.744,-193.744 578.614,-186.808 621.204,-183.243"/>
<polygon fill="midnightblue" stroke="midnightblue" points="621.685,-186.715 631.358,-182.393 621.101,-179.739 621.685,-186.715"/>
</g>
<!-- Node27&#45;&gt;Node26 -->
<g id="edge64" class="edge"><title>Node27&#45;&gt;Node26</title>
<path fill="none" stroke="midnightblue" d="M445.813,-209.517C450.838,-212.125 455.848,-215.282 460,-219 482.319,-238.991 475.873,-253.803 496,-276 499.922,-280.326 504.573,-284.483 509.206,-288.21"/>
<polygon fill="midnightblue" stroke="midnightblue" points="507.283,-291.144 517.366,-294.397 511.512,-285.566 507.283,-291.144"/>
</g>
<!-- Node29 -->
<g id="node66" class="node"><title>Node29</title>
<a xlink:href="kozos_8h.html#a31494feb57a45fd53bbbe76c98b8630e" target="_top" xlink:title="システムコール ">
<polygon fill="none" stroke="black" points="750,-228.5 750,-247.5 796,-247.5 796,-228.5 750,-228.5"/>
<text text-anchor="middle" x="773" y="-235.5" font-family="Helvetica,sans-Serif" font-size="10.00">kz_run</text>
</a>
</g>
<!-- Node28&#45;&gt;Node29 -->
<g id="edge74" class="edge"><title>Node28&#45;&gt;Node29</title>
<path fill="none" stroke="midnightblue" d="M341.223,-119.853C412.277,-113.328 573.338,-106.569 692,-162 720.191,-175.169 744.813,-202.221 759.047,-220.238"/>
<polygon fill="midnightblue" stroke="midnightblue" points="756.319,-222.433 765.17,-228.257 761.883,-218.185 756.319,-222.433"/>
</g>
<!-- Node30 -->
<g id="node69" class="node"><title>Node30</title>
<a xlink:href="kozos_8h.html#a365da73ee00836b826de141b6d662a78" target="_top" xlink:title="ユーザースレッド ">
<polygon fill="none" stroke="black" points="380,-57.5 380,-76.5 460,-76.5 460,-57.5 380,-57.5"/>
<text text-anchor="middle" x="420" y="-64.5" font-family="Helvetica,sans-Serif" font-size="10.00">test08_1_main</text>
</a>
</g>
<!-- Node28&#45;&gt;Node30 -->
<g id="edge78" class="edge"><title>Node28&#45;&gt;Node30</title>
<path fill="none" stroke="midnightblue" d="M324.081,-114.459C342.33,-105.335 370.069,-91.4656 390.855,-81.0726"/>
<polygon fill="midnightblue" stroke="midnightblue" points="392.478,-84.1743 399.857,-76.5716 389.347,-77.9133 392.478,-84.1743"/>
</g>
<!-- Node29&#45;&gt;Node23 -->
<g id="edge76" class="edge"><title>Node29&#45;&gt;Node23</title>
<path fill="none" stroke="midnightblue" d="M796.011,-238C815.866,-238 845.588,-238 869.84,-238"/>
<polygon fill="midnightblue" stroke="midnightblue" points="869.854,-241.5 879.854,-238 869.854,-234.5 869.854,-241.5"/>
</g>
<!-- Node30&#45;&gt;Node9 -->
<g id="edge80" class="edge"><title>Node30&#45;&gt;Node9</title>
<path fill="none" stroke="midnightblue" d="M460.101,-57.4632C491.628,-51.9295 536.137,-49.1387 570,-67 608.013,-87.0502 631.029,-134.895 641.417,-161.794"/>
<polygon fill="midnightblue" stroke="midnightblue" points="638.167,-163.098 644.891,-171.285 644.74,-160.691 638.167,-163.098"/>
</g>
<!-- Node31 -->
<g id="node72" class="node"><title>Node31</title>
<a xlink:href="lib_8c.html#ac414099aa125e8638ec89b7593865b12" target="_top" xlink:title="gets">
<polygon fill="none" stroke="black" points="515,-0.5 515,-19.5 551,-19.5 551,-0.5 515,-0.5"/>
<text text-anchor="middle" x="533" y="-7.5" font-family="Helvetica,sans-Serif" font-size="10.00">gets</text>
</a>
</g>
<!-- Node30&#45;&gt;Node31 -->
<g id="edge82" class="edge"><title>Node30&#45;&gt;Node31</title>
<path fill="none" stroke="midnightblue" d="M439.579,-57.4595C457.694,-48.1573 485.413,-33.9233 505.771,-23.4692"/>
<polygon fill="midnightblue" stroke="midnightblue" points="507.525,-26.5029 514.822,-18.8213 504.327,-20.2759 507.525,-26.5029"/>
</g>
<!-- Node35 -->
<g id="node81" class="node"><title>Node35</title>
<a xlink:href="lib_8c.html#a33518be6fe96efe10f366f211a8726c9" target="_top" xlink:title="strncmp">
<polygon fill="none" stroke="black" points="507.5,-76.5 507.5,-95.5 558.5,-95.5 558.5,-76.5 507.5,-76.5"/>
<text text-anchor="middle" x="533" y="-83.5" font-family="Helvetica,sans-Serif" font-size="10.00">strncmp</text>
</a>
</g>
<!-- Node30&#45;&gt;Node35 -->
<g id="edge92" class="edge"><title>Node30&#45;&gt;Node35</title>
<path fill="none" stroke="midnightblue" d="M460.134,-73.6987C472.3,-75.7811 485.618,-78.0607 497.447,-80.0856"/>
<polygon fill="midnightblue" stroke="midnightblue" points="496.946,-83.5506 507.393,-81.7881 498.127,-76.651 496.946,-83.5506"/>
</g>
<!-- Node32 -->
<g id="node74" class="node"><title>Node32</title>
<a xlink:href="lib_8c.html#ae0ca7622f88a0818572688d85919e6fe" target="_top" xlink:title="getc">
<polygon fill="none" stroke="black" points="631,-38.5 631,-57.5 667,-57.5 667,-38.5 631,-38.5"/>
<text text-anchor="middle" x="649" y="-45.5" font-family="Helvetica,sans-Serif" font-size="10.00">getc</text>
</a>
</g>
<!-- Node31&#45;&gt;Node32 -->
<g id="edge84" class="edge"><title>Node31&#45;&gt;Node32</title>
<path fill="none" stroke="midnightblue" d="M551.314,-15.7714C569.919,-21.973 599.723,-31.9075 621.326,-39.1088"/>
<polygon fill="midnightblue" stroke="midnightblue" points="620.303,-42.4569 630.896,-42.2988 622.516,-35.8161 620.303,-42.4569"/>
</g>
<!-- Node32&#45;&gt;Node10 -->
<g id="edge90" class="edge"><title>Node32&#45;&gt;Node10</title>
<path fill="none" stroke="midnightblue" d="M665.451,-57.6255C686.26,-70.5883 723.499,-93.7861 747.978,-109.035"/>
<polygon fill="midnightblue" stroke="midnightblue" points="746.336,-112.136 756.674,-114.453 750.037,-106.194 746.336,-112.136"/>
</g>
<!-- Node33 -->
<g id="node76" class="node"><title>Node33</title>
<a xlink:href="serial_8c.html#ab041beadc1139b4c1b12e30e5c21a383" target="_top" xlink:title="serial_recv_byte">
<polygon fill="none" stroke="black" points="728,-38.5 728,-57.5 818,-57.5 818,-38.5 728,-38.5"/>
<text text-anchor="middle" x="773" y="-45.5" font-family="Helvetica,sans-Serif" font-size="10.00">serial_recv_byte</text>
</a>
</g>
<!-- Node32&#45;&gt;Node33 -->
<g id="edge86" class="edge"><title>Node32&#45;&gt;Node33</title>
<path fill="none" stroke="midnightblue" d="M667.221,-48C680.466,-48 699.532,-48 717.778,-48"/>
<polygon fill="midnightblue" stroke="midnightblue" points="717.789,-51.5001 727.789,-48 717.789,-44.5001 717.789,-51.5001"/>
</g>
<!-- Node34 -->
<g id="node78" class="node"><title>Node34</title>
<a xlink:href="serial_8c.html#a3592a8e9f7fc0651cfcbc638d6192040" target="_top" xlink:title="serial_is_recv_enable">
<polygon fill="none" stroke="black" points="854.5,-38.5 854.5,-57.5 969.5,-57.5 969.5,-38.5 854.5,-38.5"/>
<text text-anchor="middle" x="912" y="-45.5" font-family="Helvetica,sans-Serif" font-size="10.00">serial_is_recv_enable</text>
</a>
</g>
<!-- Node33&#45;&gt;Node34 -->
<g id="edge88" class="edge"><title>Node33&#45;&gt;Node34</title>
<path fill="none" stroke="midnightblue" d="M818.102,-48C826.513,-48 835.489,-48 844.421,-48"/>
<polygon fill="midnightblue" stroke="midnightblue" points="844.455,-51.5001 854.455,-48 844.455,-44.5001 844.455,-51.5001"/>
</g>
</g>
</svg>
        <g id="navigator" transform="translate(0 0)" fill="#404254">
                <rect fill="#f2f5e9" fill-opacity="0.5" stroke="#606060" stroke-width=".5" x="0" y="0" width="60" height="60"/>
                <use id="zoomplus" xlink:href="#zoomPlus" x="17" y="9" onmousedown="handleZoom(evt,'in')"/>
                <use id="zoomminus" xlink:href="#zoomMin" x="42" y="9" onmousedown="handleZoom(evt,'out')"/>
                <use id="reset" xlink:href="#resetDef" x="30" y="36" onmousedown="handleReset()"/>
                <g id="arrowUp" xlink:href="#dirArrow" transform="translate(30 24)" onmousedown="handlePan(0,-1)">
                  <use xlink:href="#rim" fill="#404040">
                        <set attributeName="fill" to="#808080" begin="arrowUp.mouseover" end="arrowUp.mouseout"/>
                  </use>
                  <path fill="none" stroke="white" stroke-width="1.5" d="M0,-3.0v7 M-2.5,-0.5L0,-3.0L2.5,-0.5"/>
                </g>
                <g id="arrowRight" xlink:href="#dirArrow" transform="rotate(90) translate(36 -43)" onmousedown="handlePan(1,0)">
                  <use xlink:href="#rim" fill="#404040">
                        <set attributeName="fill" to="#808080" begin="arrowRight.mouseover" end="arrowRight.mouseout"/>
                  </use>
                  <path fill="none" stroke="white" stroke-width="1.5" d="M0,-3.0v7 M-2.5,-0.5L0,-3.0L2.5,-0.5"/>
                </g>
                <g id="arrowDown" xlink:href="#dirArrow" transform="rotate(180) translate(-30 -48)" onmousedown="handlePan(0,1)">
                  <use xlink:href="#rim" fill="#404040">
                        <set attributeName="fill" to="#808080" begin="arrowDown.mouseover" end="arrowDown.mouseout"/>
                  </use>
                  <path fill="none" stroke="white" stroke-width="1.5" d="M0,-3.0v7 M-2.5,-0.5L0,-3.0L2.5,-0.5"/>
                </g>
                <g id="arrowLeft" xlink:href="#dirArrow" transform="rotate(270) translate(-36 17)" onmousedown="handlePan(-1,0)">
                  <use xlink:href="#rim" fill="#404040">
                        <set attributeName="fill" to="#808080" begin="arrowLeft.mouseover" end="arrowLeft.mouseout"/>
                  </use>
                  <path fill="none" stroke="white" stroke-width="1.5" d="M0,-3.0v7 M-2.5,-0.5L0,-3.0L2.5,-0.5"/>
                </g>
        </g>
        <svg viewBox="0 0 15 15" width="100%" height="30px" preserveAspectRatio="xMaxYMin meet">
         <g id="arrow_out" transform="scale(0.3 0.3)">
          <a xlink:href="os_2main_8c_a840291bc02cba5474a4cb46a9b9566fe_cgraph_org.svg" target="_base">
           <rect id="button" ry="5" rx="5" y="6" x="6" height="38" width="38"
                fill="#f2f5e9" fill-opacity="0.5" stroke="#606060" stroke-width="1.0"/>
           <path id="arrow"
             d="M 11.500037,31.436501 C 11.940474,20.09759 22.043105,11.32322 32.158766,21.979434 L 37.068811,17.246167 C 37.068811,17.246167 37.088388,32 37.088388,32 L 22.160133,31.978069 C 22.160133,31.978069 26.997745,27.140456 26.997745,27.140456 C 18.528582,18.264221 13.291696,25.230495 11.500037,31.436501 z"
             style="fill:#404040;"/>
          </a>
         </g>
        </svg>
</svg>
