<?xml version="1.0" encoding="UTF-8" standalone="no"?>
<!DOCTYPE svg PUBLIC "-//W3C//DTD SVG 1.1//EN"
 "http://www.w3.org/Graphics/SVG/1.1/DTD/svg11.dtd">
<!-- Generated by graphviz version 2.28.0 (20130928.0220)
 -->
<!-- Title: getc Pages: 1 -->
<svg width="322pt" height="66pt"
 viewBox="0.00 0.00 322.00 66.00" xmlns="http://www.w3.org/2000/svg" xmlns:xlink="http://www.w3.org/1999/xlink">
<g id="graph1" class="graph" transform="scale(1 1) rotate(0) translate(4 62)">
<title>getc</title>
<!-- Node1 -->
<g id="node1" class="node"><title>Node1</title>
<polygon fill="#bfbfbf" stroke="black" points="0,-19.5 0,-38.5 36,-38.5 36,-19.5 0,-19.5"/>
<text text-anchor="middle" x="18" y="-26.5" font-family="Helvetica,sans-Serif" font-size="10.00">getc</text>
</g>
<!-- Node2 -->
<g id="node3" class="node"><title>Node2</title>
<a xlink:href="bootload_2lib_8c.html#acee36427208c7c321ab875217dca17c4" target="_top" xlink:title="putc">
<polygon fill="none" stroke="black" points="99.5,-38.5 99.5,-57.5 134.5,-57.5 134.5,-38.5 99.5,-38.5"/>
<text text-anchor="middle" x="117" y="-45.5" font-family="Helvetica,sans-Serif" font-size="10.00">putc</text>
</a>
</g>
<!-- Node1&#45;&gt;Node2 -->
<g id="edge2" class="edge"><title>Node1&#45;&gt;Node2</title>
<path fill="none" stroke="midnightblue" d="M36.3417,-32.3968C51.1434,-35.2961 72.6598,-39.5107 89.6003,-42.8289"/>
<polygon fill="midnightblue" stroke="midnightblue" points="88.9696,-46.2718 99.456,-44.7594 90.3153,-39.4024 88.9696,-46.2718"/>
</g>
<!-- Node3 -->
<g id="node5" class="node"><title>Node3</title>
<a xlink:href="serial_8c.html#ab041beadc1139b4c1b12e30e5c21a383" target="_top" xlink:title="serial_recv_byte">
<polygon fill="none" stroke="black" points="72,-0.5 72,-19.5 162,-19.5 162,-0.5 72,-0.5"/>
<text text-anchor="middle" x="117" y="-7.5" font-family="Helvetica,sans-Serif" font-size="10.00">serial_recv_byte</text>
</a>
</g>
<!-- Node1&#45;&gt;Node3 -->
<g id="edge4" class="edge"><title>Node1&#45;&gt;Node3</title>
<path fill="none" stroke="midnightblue" d="M36.3417,-25.6032C43.625,-24.1765 52.5342,-22.4314 61.724,-20.6314"/>
<polygon fill="midnightblue" stroke="midnightblue" points="62.6016,-24.0261 71.7423,-18.669 61.256,-17.1566 62.6016,-24.0261"/>
</g>
<!-- Node4 -->
<g id="node7" class="node"><title>Node4</title>
<a xlink:href="serial_8c.html#a3592a8e9f7fc0651cfcbc638d6192040" target="_top" xlink:title="serial_is_recv_enable">
<polygon fill="none" stroke="black" points="198.5,-0.5 198.5,-19.5 313.5,-19.5 313.5,-0.5 198.5,-0.5"/>
<text text-anchor="middle" x="256" y="-7.5" font-family="Helvetica,sans-Serif" font-size="10.00">serial_is_recv_enable</text>
</a>
</g>
<!-- Node3&#45;&gt;Node4 -->
<g id="edge6" class="edge"><title>Node3&#45;&gt;Node4</title>
<path fill="none" stroke="midnightblue" d="M162.102,-10C170.513,-10 179.489,-10 188.421,-10"/>
<polygon fill="midnightblue" stroke="midnightblue" points="188.455,-13.5001 198.455,-10 188.455,-6.5001 188.455,-13.5001"/>
</g>
</g>
</svg>
