<?xml version="1.0" encoding="UTF-8" standalone="no"?>
<!DOCTYPE svg PUBLIC "-//W3C//DTD SVG 1.1//EN"
 "http://www.w3.org/Graphics/SVG/1.1/DTD/svg11.dtd">
<!-- Generated by graphviz version 2.28.0 (20130928.0220)
 -->
<!-- Title: putxval Pages: 1 -->
<svg width="208pt" height="47pt"
 viewBox="0.00 0.00 208.00 47.00" xmlns="http://www.w3.org/2000/svg" xmlns:xlink="http://www.w3.org/1999/xlink">
<g id="graph1" class="graph" transform="scale(1 1) rotate(0) translate(4 43)">
<title>putxval</title>
<!-- Node1 -->
<g id="node1" class="node"><title>Node1</title>
<polygon fill="#bfbfbf" stroke="black" points="0,-0.5 0,-19.5 48,-19.5 48,-0.5 0,-0.5"/>
<text text-anchor="middle" x="24" y="-7.5" font-family="Helvetica,sans-Serif" font-size="10.00">putxval</text>
</g>
<!-- Node2 -->
<g id="node3" class="node"><title>Node2</title>
<a xlink:href="bootload_2main_8c.html#ad259a6e944deb3853bf6f2d7fa233c63" target="_top" xlink:title="dump">
<polygon fill="none" stroke="black" points="84.5,-19.5 84.5,-38.5 125.5,-38.5 125.5,-19.5 84.5,-19.5"/>
<text text-anchor="middle" x="105" y="-26.5" font-family="Helvetica,sans-Serif" font-size="10.00">dump</text>
</a>
</g>
<!-- Node1&#45;&gt;Node2 -->
<g id="edge2" class="edge"><title>Node1&#45;&gt;Node2</title>
<path fill="none" stroke="midnightblue" d="M58.0781,-17.9555C67.02,-20.1061 76.4131,-22.3652 84.3577,-24.2759"/>
<polygon fill="midnightblue" stroke="midnightblue" points="58.8165,-14.5334 48.2753,-15.5979 57.1796,-21.3393 58.8165,-14.5334"/>
</g>
<!-- Node3 -->
<g id="node5" class="node"><title>Node3</title>
<a xlink:href="bootload_2main_8c.html#a840291bc02cba5474a4cb46a9b9566fe" target="_top" xlink:title="main">
<polygon fill="none" stroke="black" points="162,-0.5 162,-19.5 200,-19.5 200,-0.5 162,-0.5"/>
<text text-anchor="middle" x="181" y="-7.5" font-family="Helvetica,sans-Serif" font-size="10.00">main</text>
</a>
</g>
<!-- Node1&#45;&gt;Node3 -->
<g id="edge6" class="edge"><title>Node1&#45;&gt;Node3</title>
<path fill="none" stroke="midnightblue" d="M58.3467,-10C90.0804,-10 136.635,-10 161.964,-10"/>
<polygon fill="midnightblue" stroke="midnightblue" points="58.2051,-6.5001 48.2051,-10 58.205,-13.5001 58.2051,-6.5001"/>
</g>
<!-- Node2&#45;&gt;Node3 -->
<g id="edge4" class="edge"><title>Node2&#45;&gt;Node3</title>
<path fill="none" stroke="midnightblue" d="M135.522,-21.42C144.436,-19.1312 153.955,-16.6872 161.89,-14.6498"/>
<polygon fill="midnightblue" stroke="midnightblue" points="134.646,-18.0313 125.831,-23.9083 136.387,-24.8114 134.646,-18.0313"/>
</g>
</g>
</svg>
