<?xml version="1.0" encoding="UTF-8" standalone="no"?>
<!DOCTYPE svg PUBLIC "-//W3C//DTD SVG 1.1//EN"
 "http://www.w3.org/Graphics/SVG/1.1/DTD/svg11.dtd">
<!-- Generated by graphviz version 2.28.0 (20130928.0220)
 -->
<!-- Title: src/os/main.c Pages: 1 -->
<svg width="226pt" height="196pt"
 viewBox="0.00 0.00 225.84 196.00" xmlns="http://www.w3.org/2000/svg" xmlns:xlink="http://www.w3.org/1999/xlink">
<g id="graph1" class="graph" transform="scale(1 1) rotate(0) translate(4 192)">
<title>src/os/main.c</title>
<!-- Node1 -->
<g id="node1" class="node"><title>Node1</title>
<polygon fill="#bfbfbf" stroke="black" points="30.3401,-168.5 30.3401,-187.5 107.34,-187.5 107.34,-168.5 30.3401,-168.5"/>
<text text-anchor="middle" x="68.8401" y="-175.5" font-family="Helvetica,sans-Serif" font-size="10.00">src/os/main.c</text>
</g>
<!-- Node2 -->
<g id="node3" class="node"><title>Node2</title>
<a xlink:href="defines_8h.html" target="_top" xlink:title="../misc/defines.h">
<polygon fill="none" stroke="black" points="52.3401,-0.5 52.3401,-19.5 141.34,-19.5 141.34,-0.5 52.3401,-0.5"/>
<text text-anchor="middle" x="96.8401" y="-7.5" font-family="Helvetica,sans-Serif" font-size="10.00">../misc/defines.h</text>
</a>
</g>
<!-- Node1&#45;&gt;Node2 -->
<g id="edge2" class="edge"><title>Node1&#45;&gt;Node2</title>
<path fill="none" stroke="midnightblue" d="M58.0304,-168.233C34.3436,-147.934 -18.1028,-96.3585 6.84005,-56 16.5135,-40.348 33.4623,-29.958 50.0621,-23.1496"/>
<polygon fill="midnightblue" stroke="midnightblue" points="51.5906,-26.3151 59.7378,-19.5421 49.1451,-19.7561 51.5906,-26.3151"/>
</g>
<!-- Node3 -->
<g id="node5" class="node"><title>Node3</title>
<a xlink:href="interrupt_8h.html" target="_top" xlink:title="../misc/interrupt.h">
<polygon fill="none" stroke="black" points="15.8401,-56.5 15.8401,-75.5 105.84,-75.5 105.84,-56.5 15.8401,-56.5"/>
<text text-anchor="middle" x="60.8401" y="-63.5" font-family="Helvetica,sans-Serif" font-size="10.00">../misc/interrupt.h</text>
</a>
</g>
<!-- Node1&#45;&gt;Node3 -->
<g id="edge4" class="edge"><title>Node1&#45;&gt;Node3</title>
<path fill="none" stroke="midnightblue" d="M66.1101,-168.486C63.3892,-159.52 59.3981,-144.935 57.8401,-132 55.9802,-116.559 56.9884,-98.9274 58.3177,-85.9267"/>
<polygon fill="midnightblue" stroke="midnightblue" points="61.8089,-86.2068 59.5046,-75.8656 54.8571,-85.3867 61.8089,-86.2068"/>
</g>
<!-- Node4 -->
<g id="node8" class="node"><title>Node4</title>
<a xlink:href="lib_8h.html" target="_top" xlink:title="../misc/lib.h">
<polygon fill="none" stroke="black" points="67.3401,-112.5 67.3401,-131.5 132.34,-131.5 132.34,-112.5 67.3401,-112.5"/>
<text text-anchor="middle" x="99.8401" y="-119.5" font-family="Helvetica,sans-Serif" font-size="10.00">../misc/lib.h</text>
</a>
</g>
<!-- Node1&#45;&gt;Node4 -->
<g id="edge8" class="edge"><title>Node1&#45;&gt;Node4</title>
<path fill="none" stroke="midnightblue" d="M73.9591,-168.083C78.2476,-160.613 84.4983,-149.724 89.7824,-140.52"/>
<polygon fill="midnightblue" stroke="midnightblue" points="92.873,-142.166 94.8163,-131.751 86.8022,-138.681 92.873,-142.166"/>
</g>
<!-- Node5 -->
<g id="node10" class="node"><title>Node5</title>
<a xlink:href="kozos_8h.html" target="_top" xlink:title="kozos.h">
<polygon fill="none" stroke="black" points="150.84,-112.5 150.84,-131.5 202.84,-131.5 202.84,-112.5 150.84,-112.5"/>
<text text-anchor="middle" x="176.84" y="-119.5" font-family="Helvetica,sans-Serif" font-size="10.00">kozos.h</text>
</a>
</g>
<!-- Node1&#45;&gt;Node5 -->
<g id="edge10" class="edge"><title>Node1&#45;&gt;Node5</title>
<path fill="none" stroke="midnightblue" d="M86.1921,-168.324C103.512,-159.664 130.355,-146.242 150.342,-136.249"/>
<polygon fill="midnightblue" stroke="midnightblue" points="152.152,-139.257 159.531,-131.655 149.021,-132.996 152.152,-139.257"/>
</g>
<!-- Node3&#45;&gt;Node2 -->
<g id="edge6" class="edge"><title>Node3&#45;&gt;Node2</title>
<path fill="none" stroke="midnightblue" d="M66.7847,-56.083C71.8173,-48.5341 79.1768,-37.4948 85.3535,-28.2298"/>
<polygon fill="midnightblue" stroke="midnightblue" points="88.3711,-30.0131 91.006,-19.7511 82.5468,-26.1301 88.3711,-30.0131"/>
</g>
<!-- Node5&#45;&gt;Node2 -->
<g id="edge12" class="edge"><title>Node5&#45;&gt;Node2</title>
<path fill="none" stroke="midnightblue" d="M170.563,-112.368C157.36,-94.2153 126.514,-51.8015 109.197,-27.9902"/>
<polygon fill="midnightblue" stroke="midnightblue" points="111.801,-25.6202 103.088,-19.5914 106.14,-29.7374 111.801,-25.6202"/>
</g>
<!-- Node6 -->
<g id="node13" class="node"><title>Node6</title>
<a xlink:href="syscall_8h.html" target="_top" xlink:title="syscall.h">
<polygon fill="none" stroke="black" points="161.84,-56.5 161.84,-75.5 217.84,-75.5 217.84,-56.5 161.84,-56.5"/>
<text text-anchor="middle" x="189.84" y="-63.5" font-family="Helvetica,sans-Serif" font-size="10.00">syscall.h</text>
</a>
</g>
<!-- Node5&#45;&gt;Node6 -->
<g id="edge14" class="edge"><title>Node5&#45;&gt;Node6</title>
<path fill="none" stroke="midnightblue" d="M178.987,-112.083C180.709,-104.927 183.187,-94.6353 185.34,-85.6911"/>
<polygon fill="midnightblue" stroke="midnightblue" points="188.795,-86.2925 187.733,-75.7511 181.99,-84.6541 188.795,-86.2925"/>
</g>
<!-- Node6&#45;&gt;Node2 -->
<g id="edge16" class="edge"><title>Node6&#45;&gt;Node2</title>
<path fill="none" stroke="midnightblue" d="M174.898,-56.324C160.255,-47.8215 137.706,-34.7288 120.602,-24.7975"/>
<polygon fill="midnightblue" stroke="midnightblue" points="122.15,-21.6491 111.745,-19.6545 118.635,-27.7027 122.15,-21.6491"/>
</g>
</g>
</svg>
