<?xml version="1.0" encoding="UTF-8" standalone="no"?>
<!DOCTYPE svg PUBLIC "-//W3C//DTD SVG 1.1//EN"
 "http://www.w3.org/Graphics/SVG/1.1/DTD/svg11.dtd">
<!-- Generated by graphviz version 2.28.0 (20130928.0220)
 -->
<!-- Title: memcmp Pages: 1 -->
<svg width="326pt" height="28pt"
 viewBox="0.00 0.00 326.00 28.00" xmlns="http://www.w3.org/2000/svg" xmlns:xlink="http://www.w3.org/1999/xlink">
<g id="graph1" class="graph" transform="scale(1 1) rotate(0) translate(4 24)">
<title>memcmp</title>
<!-- Node1 -->
<g id="node1" class="node"><title>Node1</title>
<polygon fill="#bfbfbf" stroke="black" points="0,-0.5 0,-19.5 58,-19.5 58,-0.5 0,-0.5"/>
<text text-anchor="middle" x="29" y="-7.5" font-family="Helvetica,sans-Serif" font-size="10.00">memcmp</text>
</g>
<!-- Node2 -->
<g id="node3" class="node"><title>Node2</title>
<a xlink:href="elf_8c.html#a6fe593c95dbcbfa1df84c139d4a0e6d6" target="_top" xlink:title="elf_check">
<polygon fill="none" stroke="black" points="94.5,-0.5 94.5,-19.5 153.5,-19.5 153.5,-0.5 94.5,-0.5"/>
<text text-anchor="middle" x="124" y="-7.5" font-family="Helvetica,sans-Serif" font-size="10.00">elf_check</text>
</a>
</g>
<!-- Node1&#45;&gt;Node2 -->
<g id="edge2" class="edge"><title>Node1&#45;&gt;Node2</title>
<path fill="none" stroke="midnightblue" d="M68.4351,-10C77.0877,-10 86.1245,-10 94.2974,-10"/>
<polygon fill="midnightblue" stroke="midnightblue" points="68.1555,-6.5001 58.1554,-10 68.1554,-13.5001 68.1555,-6.5001"/>
</g>
<!-- Node3 -->
<g id="node5" class="node"><title>Node3</title>
<a xlink:href="elf_8h.html#a58b7300af370cb019f7098d7446f640d" target="_top" xlink:title="elf_load">
<polygon fill="none" stroke="black" points="190.5,-0.5 190.5,-19.5 243.5,-19.5 243.5,-0.5 190.5,-0.5"/>
<text text-anchor="middle" x="217" y="-7.5" font-family="Helvetica,sans-Serif" font-size="10.00">elf_load</text>
</a>
</g>
<!-- Node2&#45;&gt;Node3 -->
<g id="edge4" class="edge"><title>Node2&#45;&gt;Node3</title>
<path fill="none" stroke="midnightblue" d="M164.048,-10C172.989,-10 182.269,-10 190.47,-10"/>
<polygon fill="midnightblue" stroke="midnightblue" points="163.793,-6.5001 153.793,-10 163.793,-13.5001 163.793,-6.5001"/>
</g>
<!-- Node4 -->
<g id="node7" class="node"><title>Node4</title>
<a xlink:href="bootload_2main_8c.html#a840291bc02cba5474a4cb46a9b9566fe" target="_top" xlink:title="main">
<polygon fill="none" stroke="black" points="280,-0.5 280,-19.5 318,-19.5 318,-0.5 280,-0.5"/>
<text text-anchor="middle" x="299" y="-7.5" font-family="Helvetica,sans-Serif" font-size="10.00">main</text>
</a>
</g>
<!-- Node3&#45;&gt;Node4 -->
<g id="edge6" class="edge"><title>Node3&#45;&gt;Node4</title>
<path fill="none" stroke="midnightblue" d="M253.956,-10C262.843,-10 272,-10 279.646,-10"/>
<polygon fill="midnightblue" stroke="midnightblue" points="253.753,-6.5001 243.753,-10 253.753,-13.5001 253.753,-6.5001"/>
</g>
</g>
</svg>
