<?xml version="1.0" encoding="UTF-8" standalone="no"?>
<!DOCTYPE svg PUBLIC "-//W3C//DTD SVG 1.1//EN"
 "http://www.w3.org/Graphics/SVG/1.1/DTD/svg11.dtd">
<!-- Generated by graphviz version 2.28.0 (20130928.0220)
 -->
<!-- Title: putc Pages: 1 -->
<!--zoomable 332 -->
<svg id="main" version="1.1" xmlns="http://www.w3.org/2000/svg" xmlns:xlink="http://www.w3.org/1999/xlink" xml:space="preserve" onload="init(evt)">
<style type="text/css"><![CDATA[
.edge:hover path { stroke: red; }
.edge:hover polygon { stroke: red; fill: red; }
]]></style>
<script type="text/javascript"><![CDATA[
var edges = document.getElementsByTagName('g');
if (edges && edges.length) {
  for (var i=0;i<edges.length;i++) {
    if (edges[i].id.substr(0,4)=='edge') {
      edges[i].setAttribute('class','edge');
    }
  }
}
]]></script>
        <defs>
                <circle id="rim" cx="0" cy="0" r="7"/>
                <circle id="rim2" cx="0" cy="0" r="3.5"/>
                <g id="zoomPlus">
                        <use xlink:href="#rim" fill="#404040">
                                <set attributeName="fill" to="#808080" begin="zoomplus.mouseover" end="zoomplus.mouseout"/>
                        </use>
                        <path d="M-4,0h8M0,-4v8" fill="none" stroke="white" stroke-width="1.5" pointer-events="none"/>
                </g>
                <g id="zoomMin">
                        <use xlink:href="#rim" fill="#404040">
                                <set attributeName="fill" to="#808080" begin="zoomminus.mouseover" end="zoomminus.mouseout"/>
                        </use>
                        <path d="M-4,0h8" fill="none" stroke="white" stroke-width="1.5" pointer-events="none"/>
                </g>
                <g id="dirArrow">
                        <path fill="none" stroke="white" stroke-width="1.5" d="M0,-3.0v7 M-2.5,-0.5L0,-3.0L2.5,-0.5"/>
                </g>
               <g id="resetDef">
                       <use xlink:href="#rim2" fill="#404040">
                               <set attributeName="fill" to="#808080" begin="reset.mouseover" end="reset.mouseout"/>
                       </use>
               </g>
        </defs>

<script type="text/javascript">
var viewWidth = 738;
var viewHeight = 332;
var sectionId = 'dynsection-9';
</script>
<script xlink:href="svgpan.js"/>
<svg id="graph" class="graph">
<g id="viewport">
<title>putc</title>
<!-- Node1 -->
<g id="node1" class="node"><title>Node1</title>
<polygon fill="#bfbfbf" stroke="black" points="0.5,-199.5 0.5,-218.5 35.5,-218.5 35.5,-199.5 0.5,-199.5"/>
<text text-anchor="middle" x="18" y="-206.5" font-family="Helvetica,sans-Serif" font-size="10.00">putc</text>
</g>
<!-- Node2 -->
<g id="node3" class="node"><title>Node2</title>
<a xlink:href="os_2lib_8h.html#ae0ca7622f88a0818572688d85919e6fe" target="_top" xlink:title="getc">
<polygon fill="none" stroke="black" points="72,-247.5 72,-266.5 108,-266.5 108,-247.5 72,-247.5"/>
<text text-anchor="middle" x="90" y="-254.5" font-family="Helvetica,sans-Serif" font-size="10.00">getc</text>
</a>
</g>
<!-- Node1&#45;&gt;Node2 -->
<g id="edge2" class="edge"><title>Node1&#45;&gt;Node2</title>
<path fill="none" stroke="midnightblue" d="M41.4544,-224.397C52.4193,-231.916 65.2774,-240.733 74.8555,-247.301"/>
<polygon fill="midnightblue" stroke="midnightblue" points="43.3922,-221.482 33.1655,-218.714 39.4335,-227.255 43.3922,-221.482"/>
</g>
<!-- Node8 -->
<g id="node15" class="node"><title>Node8</title>
<a xlink:href="os_2lib_8h.html#a44ddf1a8f6a75ff235a733ff8d90cae3" target="_top" xlink:title="puts">
<polygon fill="none" stroke="black" points="72.5,-152.5 72.5,-171.5 107.5,-171.5 107.5,-152.5 72.5,-152.5"/>
<text text-anchor="middle" x="90" y="-159.5" font-family="Helvetica,sans-Serif" font-size="10.00">puts</text>
</a>
</g>
<!-- Node1&#45;&gt;Node8 -->
<g id="edge14" class="edge"><title>Node1&#45;&gt;Node8</title>
<path fill="none" stroke="midnightblue" d="M41.6603,-193.785C52.3967,-186.576 64.9097,-178.175 74.3737,-171.821"/>
<polygon fill="midnightblue" stroke="midnightblue" points="39.5167,-191.009 33.1655,-199.489 43.4188,-196.82 39.5167,-191.009"/>
</g>
<!-- Node3 -->
<g id="node5" class="node"><title>Node3</title>
<a xlink:href="os_2lib_8h.html#ac414099aa125e8638ec89b7593865b12" target="_top" xlink:title="gets">
<polygon fill="none" stroke="black" points="163,-304.5 163,-323.5 199,-323.5 199,-304.5 163,-304.5"/>
<text text-anchor="middle" x="181" y="-311.5" font-family="Helvetica,sans-Serif" font-size="10.00">gets</text>
</a>
</g>
<!-- Node2&#45;&gt;Node3 -->
<g id="edge4" class="edge"><title>Node2&#45;&gt;Node3</title>
<path fill="none" stroke="midnightblue" d="M114.9,-272.307C130.891,-282.548 151.435,-295.706 165.125,-304.474"/>
<polygon fill="midnightblue" stroke="midnightblue" points="116.406,-269.115 106.098,-266.669 112.631,-275.01 116.406,-269.115"/>
</g>
<!-- Node4 -->
<g id="node7" class="node"><title>Node4</title>
<a xlink:href="bootload_2main_8c.html#a840291bc02cba5474a4cb46a9b9566fe" target="_top" xlink:title="main">
<polygon fill="none" stroke="black" points="388,-190.5 388,-209.5 426,-209.5 426,-190.5 388,-190.5"/>
<text text-anchor="middle" x="407" y="-197.5" font-family="Helvetica,sans-Serif" font-size="10.00">main</text>
</a>
</g>
<!-- Node3&#45;&gt;Node4 -->
<g id="edge6" class="edge"><title>Node3&#45;&gt;Node4</title>
<path fill="none" stroke="midnightblue" d="M209.298,-316.694C241.357,-318.545 295.092,-317.448 334,-295 369.313,-274.626 392.914,-229.352 401.917,-209.566"/>
<polygon fill="midnightblue" stroke="midnightblue" points="209.534,-313.202 199.31,-315.979 209.035,-320.184 209.534,-313.202"/>
</g>
<!-- Node5 -->
<g id="node9" class="node"><title>Node5</title>
<a xlink:href="test08__1_8c.html#a365da73ee00836b826de141b6d662a78" target="_top" xlink:title="ユーザースレッド ">
<polygon fill="none" stroke="black" points="254,-266.5 254,-285.5 334,-285.5 334,-266.5 254,-266.5"/>
<text text-anchor="middle" x="294" y="-273.5" font-family="Helvetica,sans-Serif" font-size="10.00">test08_1_main</text>
</a>
</g>
<!-- Node3&#45;&gt;Node5 -->
<g id="edge8" class="edge"><title>Node3&#45;&gt;Node5</title>
<path fill="none" stroke="midnightblue" d="M209.189,-304.692C226.136,-298.891 247.891,-291.443 264.99,-285.589"/>
<polygon fill="midnightblue" stroke="midnightblue" points="207.671,-301.512 199.344,-308.062 209.938,-308.135 207.671,-301.512"/>
</g>
<!-- Node6 -->
<g id="node11" class="node"><title>Node6</title>
<a xlink:href="os_2main_8c.html#aabc6304dfeadad471d074b11c6e057dd" target="_top" xlink:title="start_threads">
<polygon fill="none" stroke="black" points="582,-180.5 582,-199.5 656,-199.5 656,-180.5 582,-180.5"/>
<text text-anchor="middle" x="619" y="-187.5" font-family="Helvetica,sans-Serif" font-size="10.00">start_threads</text>
</a>
</g>
<!-- Node5&#45;&gt;Node6 -->
<g id="edge10" class="edge"><title>Node5&#45;&gt;Node6</title>
<path fill="none" stroke="midnightblue" d="M340.744,-263.82C405.615,-246.548 522.999,-215.294 582.039,-199.575"/>
<polygon fill="midnightblue" stroke="midnightblue" points="339.564,-260.513 330.801,-266.468 341.365,-267.277 339.564,-260.513"/>
</g>
<!-- Node7 -->
<g id="node13" class="node"><title>Node7</title>
<a xlink:href="os_2main_8c.html#a840291bc02cba5474a4cb46a9b9566fe" target="_top" xlink:title="main">
<polygon fill="none" stroke="black" points="692,-118.5 692,-137.5 730,-137.5 730,-118.5 692,-118.5"/>
<text text-anchor="middle" x="711" y="-125.5" font-family="Helvetica,sans-Serif" font-size="10.00">main</text>
</a>
</g>
<!-- Node6&#45;&gt;Node7 -->
<g id="edge12" class="edge"><title>Node6&#45;&gt;Node7</title>
<path fill="none" stroke="midnightblue" d="M642.729,-174.342C659.507,-162.784 681.807,-147.422 696.036,-137.619"/>
<polygon fill="midnightblue" stroke="midnightblue" points="640.312,-171.757 634.062,-180.312 644.283,-177.522 640.312,-171.757"/>
</g>
<!-- Node8&#45;&gt;Node4 -->
<g id="edge32" class="edge"><title>Node8&#45;&gt;Node4</title>
<path fill="none" stroke="midnightblue" d="M117.087,-150.638C125.511,-147.518 135.002,-144.564 144,-143 227.753,-128.441 253.306,-138.263 334,-165 353.922,-171.601 375.392,-182.592 389.653,-190.497"/>
<polygon fill="midnightblue" stroke="midnightblue" points="115.802,-147.382 107.78,-154.304 118.367,-153.895 115.802,-147.382"/>
</g>
<!-- Node8&#45;&gt;Node5 -->
<g id="edge62" class="edge"><title>Node8&#45;&gt;Node5</title>
<path fill="none" stroke="midnightblue" d="M96.1098,-181.487C103.026,-203.687 117.644,-239.186 144,-257 176.3,-278.832 221.689,-281.644 253.864,-280.206"/>
<polygon fill="midnightblue" stroke="midnightblue" points="99.4483,-180.433 93.3154,-171.793 92.7222,-182.372 99.4483,-180.433"/>
</g>
<!-- Node9 -->
<g id="node17" class="node"><title>Node9</title>
<a xlink:href="elf_8c.html#a6fe593c95dbcbfa1df84c139d4a0e6d6" target="_top" xlink:title="elf_check">
<polygon fill="none" stroke="black" points="151.5,-228.5 151.5,-247.5 210.5,-247.5 210.5,-228.5 151.5,-228.5"/>
<text text-anchor="middle" x="181" y="-235.5" font-family="Helvetica,sans-Serif" font-size="10.00">elf_check</text>
</a>
</g>
<!-- Node8&#45;&gt;Node9 -->
<g id="edge16" class="edge"><title>Node8&#45;&gt;Node9</title>
<path fill="none" stroke="midnightblue" d="M106.895,-179.165C117.053,-189.728 130.762,-203.252 144,-214 150.298,-219.113 157.689,-224.184 164.131,-228.337"/>
<polygon fill="midnightblue" stroke="midnightblue" points="109.303,-176.617 99.8861,-171.761 104.219,-181.429 109.303,-176.617"/>
</g>
<!-- Node11 -->
<g id="node22" class="node"><title>Node11</title>
<a xlink:href="os_2lib_8h.html#aa600a4b9613354c8112b41d02a80b5d0" target="_top" xlink:title="putxval">
<polygon fill="none" stroke="black" points="157,-152.5 157,-171.5 205,-171.5 205,-152.5 157,-152.5"/>
<text text-anchor="middle" x="181" y="-159.5" font-family="Helvetica,sans-Serif" font-size="10.00">putxval</text>
</a>
</g>
<!-- Node8&#45;&gt;Node11 -->
<g id="edge22" class="edge"><title>Node8&#45;&gt;Node11</title>
<path fill="none" stroke="midnightblue" d="M117.99,-162C130.429,-162 145.04,-162 156.954,-162"/>
<polygon fill="midnightblue" stroke="midnightblue" points="117.74,-158.5 107.74,-162 117.74,-165.5 117.74,-158.5"/>
</g>
<!-- Node12 -->
<g id="node24" class="node"><title>Node12</title>
<a xlink:href="bootload_2main_8c.html#ad259a6e944deb3853bf6f2d7fa233c63" target="_top" xlink:title="dump">
<polygon fill="none" stroke="black" points="273.5,-190.5 273.5,-209.5 314.5,-209.5 314.5,-190.5 273.5,-190.5"/>
<text text-anchor="middle" x="294" y="-197.5" font-family="Helvetica,sans-Serif" font-size="10.00">dump</text>
</a>
</g>
<!-- Node8&#45;&gt;Node12 -->
<g id="edge30" class="edge"><title>Node8&#45;&gt;Node12</title>
<path fill="none" stroke="midnightblue" d="M117.504,-172.777C125.866,-175.829 135.215,-178.892 144,-181 189.644,-191.954 244.764,-196.897 273.469,-198.867"/>
<polygon fill="midnightblue" stroke="midnightblue" points="118.49,-169.407 107.899,-169.122 116.001,-175.95 118.49,-169.407"/>
</g>
<!-- Node13 -->
<g id="node30" class="node"><title>Node13</title>
<a xlink:href="kozos_8c.html#a4dd8e8425a1c0c5d866a9271d243cdef" target="_top" xlink:title="thread_exit">
<polygon fill="none" stroke="black" points="148,-76.5 148,-95.5 214,-95.5 214,-76.5 148,-76.5"/>
<text text-anchor="middle" x="181" y="-83.5" font-family="Helvetica,sans-Serif" font-size="10.00">thread_exit</text>
</a>
</g>
<!-- Node8&#45;&gt;Node13 -->
<g id="edge34" class="edge"><title>Node8&#45;&gt;Node13</title>
<path fill="none" stroke="midnightblue" d="M106.895,-144.835C117.053,-134.272 130.762,-120.748 144,-110 150.298,-104.887 157.689,-99.8163 164.131,-95.6626"/>
<polygon fill="midnightblue" stroke="midnightblue" points="104.219,-142.571 99.8861,-152.239 109.303,-147.383 104.219,-142.571"/>
</g>
<!-- Node18 -->
<g id="node41" class="node"><title>Node18</title>
<a xlink:href="kozos_8c.html#ad878125b5a334d151d787886f190ccf2" target="_top" xlink:title="softerr_intr">
<polygon fill="none" stroke="black" points="263,-38.5 263,-57.5 325,-57.5 325,-38.5 263,-38.5"/>
<text text-anchor="middle" x="294" y="-45.5" font-family="Helvetica,sans-Serif" font-size="10.00">softerr_intr</text>
</a>
</g>
<!-- Node8&#45;&gt;Node18 -->
<g id="edge50" class="edge"><title>Node8&#45;&gt;Node18</title>
<path fill="none" stroke="midnightblue" d="M96.1098,-142.513C103.026,-120.313 117.644,-84.814 144,-67 179.433,-43.0509 230.617,-41.989 262.829,-44.3188"/>
<polygon fill="midnightblue" stroke="midnightblue" points="92.7222,-141.628 93.3154,-152.207 99.4483,-143.567 92.7222,-141.628"/>
</g>
<!-- Node19 -->
<g id="node45" class="node"><title>Node19</title>
<a xlink:href="kozos_8h.html#aa4c201474d0562849b57ee7bd9ccd364" target="_top" xlink:title="kz_sysdown">
<polygon fill="none" stroke="black" points="144.5,-0.5 144.5,-19.5 217.5,-19.5 217.5,-0.5 144.5,-0.5"/>
<text text-anchor="middle" x="181" y="-7.5" font-family="Helvetica,sans-Serif" font-size="10.00">kz_sysdown</text>
</a>
</g>
<!-- Node8&#45;&gt;Node19 -->
<g id="edge52" class="edge"><title>Node8&#45;&gt;Node19</title>
<path fill="none" stroke="midnightblue" d="M95.3348,-142.239C102.028,-115.355 117.016,-66.8496 144,-34 148.673,-28.3118 155.043,-23.4615 161.127,-19.6412"/>
<polygon fill="midnightblue" stroke="midnightblue" points="91.8445,-141.792 92.9633,-152.328 98.6587,-143.394 91.8445,-141.792"/>
</g>
<!-- Node10 -->
<g id="node19" class="node"><title>Node10</title>
<a xlink:href="elf_8h.html#a58b7300af370cb019f7098d7446f640d" target="_top" xlink:title="elf_load">
<polygon fill="none" stroke="black" points="267.5,-228.5 267.5,-247.5 320.5,-247.5 320.5,-228.5 267.5,-228.5"/>
<text text-anchor="middle" x="294" y="-235.5" font-family="Helvetica,sans-Serif" font-size="10.00">elf_load</text>
</a>
</g>
<!-- Node9&#45;&gt;Node10 -->
<g id="edge18" class="edge"><title>Node9&#45;&gt;Node10</title>
<path fill="none" stroke="midnightblue" d="M220.843,-238C236.186,-238 253.402,-238 267.168,-238"/>
<polygon fill="midnightblue" stroke="midnightblue" points="220.585,-234.5 210.585,-238 220.585,-241.5 220.585,-234.5"/>
</g>
<!-- Node10&#45;&gt;Node4 -->
<g id="edge20" class="edge"><title>Node10&#45;&gt;Node4</title>
<path fill="none" stroke="midnightblue" d="M330.321,-225.908C349.386,-219.381 372.127,-211.596 387.671,-206.275"/>
<polygon fill="midnightblue" stroke="midnightblue" points="329.072,-222.636 320.745,-229.187 331.339,-229.259 329.072,-222.636"/>
</g>
<!-- Node11&#45;&gt;Node4 -->
<g id="edge28" class="edge"><title>Node11&#45;&gt;Node4</title>
<path fill="none" stroke="midnightblue" d="M215.291,-164.87C246.222,-167.84 293.477,-173.157 334,-181 352.531,-184.587 373.343,-190.262 387.808,-194.477"/>
<polygon fill="midnightblue" stroke="midnightblue" points="215.351,-161.36 205.069,-163.916 214.701,-168.33 215.351,-161.36"/>
</g>
<!-- Node11&#45;&gt;Node12 -->
<g id="edge24" class="edge"><title>Node11&#45;&gt;Node12</title>
<path fill="none" stroke="midnightblue" d="M214.788,-173.225C233.86,-179.754 257.257,-187.764 273.466,-193.313"/>
<polygon fill="midnightblue" stroke="midnightblue" points="215.864,-169.894 205.269,-169.966 213.597,-176.516 215.864,-169.894"/>
</g>
<!-- Node12&#45;&gt;Node4 -->
<g id="edge26" class="edge"><title>Node12&#45;&gt;Node4</title>
<path fill="none" stroke="midnightblue" d="M324.759,-200C344.812,-200 370.624,-200 387.711,-200"/>
<polygon fill="midnightblue" stroke="midnightblue" points="324.589,-196.5 314.589,-200 324.589,-203.5 324.589,-196.5"/>
</g>
<!-- Node14 -->
<g id="node32" class="node"><title>Node14</title>
<a xlink:href="kozos_8c.html#acd68041208fa0120669ac78343a47dc0" target="_top" xlink:title="call_functions">
<polygon fill="none" stroke="black" points="255.5,-76.5 255.5,-95.5 332.5,-95.5 332.5,-76.5 255.5,-76.5"/>
<text text-anchor="middle" x="294" y="-83.5" font-family="Helvetica,sans-Serif" font-size="10.00">call_functions</text>
</a>
</g>
<!-- Node13&#45;&gt;Node14 -->
<g id="edge36" class="edge"><title>Node13&#45;&gt;Node14</title>
<path fill="none" stroke="midnightblue" d="M224.138,-86C234.445,-86 245.406,-86 255.481,-86"/>
<polygon fill="midnightblue" stroke="midnightblue" points="224.106,-82.5001 214.106,-86 224.106,-89.5001 224.106,-82.5001"/>
</g>
<!-- Node13&#45;&gt;Node18 -->
<g id="edge46" class="edge"><title>Node13&#45;&gt;Node18</title>
<path fill="none" stroke="midnightblue" d="M219.891,-73.0282C234.68,-67.9656 251.329,-62.2659 264.999,-57.5859"/>
<polygon fill="midnightblue" stroke="midnightblue" points="218.337,-69.8607 210.01,-76.411 220.605,-76.4834 218.337,-69.8607"/>
</g>
<!-- Node15 -->
<g id="node34" class="node"><title>Node15</title>
<a xlink:href="kozos_8c.html#aef8f2fde0f7865d66b9a7daf0e2426e0" target="_top" xlink:title="syscall_proc">
<polygon fill="none" stroke="black" points="370.5,-76.5 370.5,-95.5 443.5,-95.5 443.5,-76.5 370.5,-76.5"/>
<text text-anchor="middle" x="407" y="-83.5" font-family="Helvetica,sans-Serif" font-size="10.00">syscall_proc</text>
</a>
</g>
<!-- Node14&#45;&gt;Node15 -->
<g id="edge38" class="edge"><title>Node14&#45;&gt;Node15</title>
<path fill="none" stroke="midnightblue" d="M342.823,-86C352.054,-86 361.574,-86 370.335,-86"/>
<polygon fill="midnightblue" stroke="midnightblue" points="342.58,-82.5001 332.58,-86 342.58,-89.5001 342.58,-82.5001"/>
</g>
<!-- Node16 -->
<g id="node36" class="node"><title>Node16</title>
<a xlink:href="kozos_8c.html#a69f871c66a43d6f0a644c57def130160" target="_top" xlink:title="syscall_intr">
<polygon fill="none" stroke="black" points="480,-76.5 480,-95.5 546,-95.5 546,-76.5 480,-76.5"/>
<text text-anchor="middle" x="513" y="-83.5" font-family="Helvetica,sans-Serif" font-size="10.00">syscall_intr</text>
</a>
</g>
<!-- Node15&#45;&gt;Node16 -->
<g id="edge40" class="edge"><title>Node15&#45;&gt;Node16</title>
<path fill="none" stroke="midnightblue" d="M453.667,-86C462.476,-86 471.532,-86 479.802,-86"/>
<polygon fill="midnightblue" stroke="midnightblue" points="453.5,-82.5001 443.5,-86 453.5,-89.5001 453.5,-82.5001"/>
</g>
<!-- Node17 -->
<g id="node38" class="node"><title>Node17</title>
<a xlink:href="kozos_8h.html#a7078d5505c1e0c61af51bc66e5025685" target="_top" xlink:title="ライブラリ関数 ">
<polygon fill="none" stroke="black" points="593.5,-57.5 593.5,-76.5 644.5,-76.5 644.5,-57.5 593.5,-57.5"/>
<text text-anchor="middle" x="619" y="-64.5" font-family="Helvetica,sans-Serif" font-size="10.00">kz_start</text>
</a>
</g>
<!-- Node16&#45;&gt;Node17 -->
<g id="edge42" class="edge"><title>Node16&#45;&gt;Node17</title>
<path fill="none" stroke="midnightblue" d="M556.021,-78.3231C568.749,-75.9977 582.306,-73.521 593.485,-71.4787"/>
<polygon fill="midnightblue" stroke="midnightblue" points="555.26,-74.9041 546.052,-80.1443 556.518,-81.7901 555.26,-74.9041"/>
</g>
<!-- Node17&#45;&gt;Node7 -->
<g id="edge44" class="edge"><title>Node17&#45;&gt;Node7</title>
<path fill="none" stroke="midnightblue" d="M642.674,-82.3683C659.342,-93.6653 681.483,-108.672 695.739,-118.334"/>
<polygon fill="midnightblue" stroke="midnightblue" points="644.304,-79.2446 634.062,-76.5312 640.377,-85.039 644.304,-79.2446"/>
</g>
<!-- Node18&#45;&gt;Node17 -->
<g id="edge48" class="edge"><title>Node18&#45;&gt;Node17</title>
<path fill="none" stroke="midnightblue" d="M335.379,-50.3752C403.162,-54.3625 537.844,-62.285 593.28,-65.5459"/>
<polygon fill="midnightblue" stroke="midnightblue" points="335.285,-46.8638 325.097,-49.7704 334.874,-53.8517 335.285,-46.8638"/>
</g>
<!-- Node20 -->
<g id="node47" class="node"><title>Node20</title>
<a xlink:href="kozos_8c.html#a63e3ec45b7bf0028e55f2b9ab1603306" target="_top" xlink:title="schedule">
<polygon fill="none" stroke="black" points="265,-0.5 265,-19.5 323,-19.5 323,-0.5 265,-0.5"/>
<text text-anchor="middle" x="294" y="-7.5" font-family="Helvetica,sans-Serif" font-size="10.00">schedule</text>
</a>
</g>
<!-- Node19&#45;&gt;Node20 -->
<g id="edge54" class="edge"><title>Node19&#45;&gt;Node20</title>
<path fill="none" stroke="midnightblue" d="M227.984,-10C240.441,-10 253.557,-10 264.721,-10"/>
<polygon fill="midnightblue" stroke="midnightblue" points="227.732,-6.5001 217.732,-10 227.732,-13.5001 227.732,-6.5001"/>
</g>
<!-- Node21 -->
<g id="node49" class="node"><title>Node21</title>
<a xlink:href="kozos_8c.html#a064de18830e60998f8be0d67a0f2aabf" target="_top" xlink:title="thread_intr">
<polygon fill="none" stroke="black" points="375.5,-0.5 375.5,-19.5 438.5,-19.5 438.5,-0.5 375.5,-0.5"/>
<text text-anchor="middle" x="407" y="-7.5" font-family="Helvetica,sans-Serif" font-size="10.00">thread_intr</text>
</a>
</g>
<!-- Node20&#45;&gt;Node21 -->
<g id="edge56" class="edge"><title>Node20&#45;&gt;Node21</title>
<path fill="none" stroke="midnightblue" d="M333.152,-10C346.901,-10 362.229,-10 375.265,-10"/>
<polygon fill="midnightblue" stroke="midnightblue" points="333.01,-6.5001 323.01,-10 333.01,-13.5001 333.01,-6.5001"/>
</g>
<!-- Node22 -->
<g id="node51" class="node"><title>Node22</title>
<a xlink:href="kozos_8c.html#a7f5d62b70099d281d35e0336463c49fc" target="_top" xlink:title="setintr">
<polygon fill="none" stroke="black" points="491.5,-0.5 491.5,-19.5 534.5,-19.5 534.5,-0.5 491.5,-0.5"/>
<text text-anchor="middle" x="513" y="-7.5" font-family="Helvetica,sans-Serif" font-size="10.00">setintr</text>
</a>
</g>
<!-- Node21&#45;&gt;Node22 -->
<g id="edge58" class="edge"><title>Node21&#45;&gt;Node22</title>
<path fill="none" stroke="midnightblue" d="M448.965,-10C463.532,-10 479.311,-10 491.437,-10"/>
<polygon fill="midnightblue" stroke="midnightblue" points="448.641,-6.5001 438.641,-10 448.641,-13.5001 448.641,-6.5001"/>
</g>
<!-- Node22&#45;&gt;Node17 -->
<g id="edge60" class="edge"><title>Node22&#45;&gt;Node17</title>
<path fill="none" stroke="midnightblue" d="M540.628,-24.5939C559.488,-34.9309 584.247,-48.5009 600.618,-57.4735"/>
<polygon fill="midnightblue" stroke="midnightblue" points="542.094,-21.4063 531.642,-19.6693 538.729,-27.5448 542.094,-21.4063"/>
</g>
</g>
</svg>
        <g id="navigator" transform="translate(0 0)" fill="#404254">
                <rect fill="#f2f5e9" fill-opacity="0.5" stroke="#606060" stroke-width=".5" x="0" y="0" width="60" height="60"/>
                <use id="zoomplus" xlink:href="#zoomPlus" x="17" y="9" onmousedown="handleZoom(evt,'in')"/>
                <use id="zoomminus" xlink:href="#zoomMin" x="42" y="9" onmousedown="handleZoom(evt,'out')"/>
                <use id="reset" xlink:href="#resetDef" x="30" y="36" onmousedown="handleReset()"/>
                <g id="arrowUp" xlink:href="#dirArrow" transform="translate(30 24)" onmousedown="handlePan(0,-1)">
                  <use xlink:href="#rim" fill="#404040">
                        <set attributeName="fill" to="#808080" begin="arrowUp.mouseover" end="arrowUp.mouseout"/>
                  </use>
                  <path fill="none" stroke="white" stroke-width="1.5" d="M0,-3.0v7 M-2.5,-0.5L0,-3.0L2.5,-0.5"/>
                </g>
                <g id="arrowRight" xlink:href="#dirArrow" transform="rotate(90) translate(36 -43)" onmousedown="handlePan(1,0)">
                  <use xlink:href="#rim" fill="#404040">
                        <set attributeName="fill" to="#808080" begin="arrowRight.mouseover" end="arrowRight.mouseout"/>
                  </use>
                  <path fill="none" stroke="white" stroke-width="1.5" d="M0,-3.0v7 M-2.5,-0.5L0,-3.0L2.5,-0.5"/>
                </g>
                <g id="arrowDown" xlink:href="#dirArrow" transform="rotate(180) translate(-30 -48)" onmousedown="handlePan(0,1)">
                  <use xlink:href="#rim" fill="#404040">
                        <set attributeName="fill" to="#808080" begin="arrowDown.mouseover" end="arrowDown.mouseout"/>
                  </use>
                  <path fill="none" stroke="white" stroke-width="1.5" d="M0,-3.0v7 M-2.5,-0.5L0,-3.0L2.5,-0.5"/>
                </g>
                <g id="arrowLeft" xlink:href="#dirArrow" transform="rotate(270) translate(-36 17)" onmousedown="handlePan(-1,0)">
                  <use xlink:href="#rim" fill="#404040">
                        <set attributeName="fill" to="#808080" begin="arrowLeft.mouseover" end="arrowLeft.mouseout"/>
                  </use>
                  <path fill="none" stroke="white" stroke-width="1.5" d="M0,-3.0v7 M-2.5,-0.5L0,-3.0L2.5,-0.5"/>
                </g>
        </g>
        <svg viewBox="0 0 15 15" width="100%" height="30px" preserveAspectRatio="xMaxYMin meet">
         <g id="arrow_out" transform="scale(0.3 0.3)">
          <a xlink:href="os_2lib_8h_acee36427208c7c321ab875217dca17c4_icgraph_org.svg" target="_base">
           <rect id="button" ry="5" rx="5" y="6" x="6" height="38" width="38"
                fill="#f2f5e9" fill-opacity="0.5" stroke="#606060" stroke-width="1.0"/>
           <path id="arrow"
             d="M 11.500037,31.436501 C 11.940474,20.09759 22.043105,11.32322 32.158766,21.979434 L 37.068811,17.246167 C 37.068811,17.246167 37.088388,32 37.088388,32 L 22.160133,31.978069 C 22.160133,31.978069 26.997745,27.140456 26.997745,27.140456 C 18.528582,18.264221 13.291696,25.230495 11.500037,31.436501 z"
             style="fill:#404040;"/>
          </a>
         </g>
        </svg>
</svg>
