<?xml version="1.0" encoding="UTF-8" standalone="no"?>
<!DOCTYPE svg PUBLIC "-//W3C//DTD SVG 1.1//EN"
 "http://www.w3.org/Graphics/SVG/1.1/DTD/svg11.dtd">
<!-- Generated by graphviz version 2.28.0 (20130928.0220)
 -->
<!-- Title: src/os/lib.h Pages: 1 -->
<svg width="379pt" height="84pt"
 viewBox="0.00 0.00 379.00 84.00" xmlns="http://www.w3.org/2000/svg" xmlns:xlink="http://www.w3.org/1999/xlink">
<g id="graph1" class="graph" transform="scale(1 1) rotate(0) translate(4 80)">
<title>src/os/lib.h</title>
<!-- Node1 -->
<g id="node1" class="node"><title>Node1</title>
<polygon fill="#bfbfbf" stroke="black" points="144.5,-56.5 144.5,-75.5 209.5,-75.5 209.5,-56.5 144.5,-56.5"/>
<text text-anchor="middle" x="177" y="-63.5" font-family="Helvetica,sans-Serif" font-size="10.00">src/os/lib.h</text>
</g>
<!-- Node2 -->
<g id="node3" class="node"><title>Node2</title>
<a xlink:href="kozos_8c.html" target="_top" xlink:title="src/os/kozos.c">
<polygon fill="none" stroke="black" points="-0.5,-0.5 -0.5,-19.5 82.5,-19.5 82.5,-0.5 -0.5,-0.5"/>
<text text-anchor="middle" x="41" y="-7.5" font-family="Helvetica,sans-Serif" font-size="10.00">src/os/kozos.c</text>
</a>
</g>
<!-- Node1&#45;&gt;Node2 -->
<g id="edge2" class="edge"><title>Node1&#45;&gt;Node2</title>
<path fill="none" stroke="midnightblue" d="M145.865,-52.6377C120.343,-42.504 84.8913,-28.4274 62.4488,-19.5164"/>
<polygon fill="midnightblue" stroke="midnightblue" points="144.865,-56.0061 155.45,-56.4435 147.448,-49.5002 144.865,-56.0061"/>
</g>
<!-- Node3 -->
<g id="node5" class="node"><title>Node3</title>
<a xlink:href="os_2lib_8c.html" target="_top" xlink:title="src/os/lib.c">
<polygon fill="none" stroke="black" points="100.5,-0.5 100.5,-19.5 165.5,-19.5 165.5,-0.5 100.5,-0.5"/>
<text text-anchor="middle" x="133" y="-7.5" font-family="Helvetica,sans-Serif" font-size="10.00">src/os/lib.c</text>
</a>
</g>
<!-- Node1&#45;&gt;Node3 -->
<g id="edge4" class="edge"><title>Node1&#45;&gt;Node3</title>
<path fill="none" stroke="midnightblue" d="M163.265,-48.144C155.599,-38.7357 146.367,-27.4046 140.131,-19.7511"/>
<polygon fill="midnightblue" stroke="midnightblue" points="160.704,-50.5415 169.734,-56.083 166.131,-46.1198 160.704,-50.5415"/>
</g>
<!-- Node4 -->
<g id="node7" class="node"><title>Node4</title>
<a xlink:href="os_2main_8c.html" target="_top" xlink:title="src/os/main.c">
<polygon fill="none" stroke="black" points="183.5,-0.5 183.5,-19.5 260.5,-19.5 260.5,-0.5 183.5,-0.5"/>
<text text-anchor="middle" x="222" y="-7.5" font-family="Helvetica,sans-Serif" font-size="10.00">src/os/main.c</text>
</a>
</g>
<!-- Node1&#45;&gt;Node4 -->
<g id="edge6" class="edge"><title>Node1&#45;&gt;Node4</title>
<path fill="none" stroke="midnightblue" d="M191.047,-48.144C198.887,-38.7357 208.329,-27.4046 214.707,-19.7511"/>
<polygon fill="midnightblue" stroke="midnightblue" points="188.144,-46.1601 184.431,-56.083 193.521,-50.6414 188.144,-46.1601"/>
</g>
<!-- Node5 -->
<g id="node9" class="node"><title>Node5</title>
<a xlink:href="test08__1_8c.html" target="_top" xlink:title="src/os/test08_1.c">
<polygon fill="none" stroke="black" points="279,-0.5 279,-19.5 371,-19.5 371,-0.5 279,-0.5"/>
<text text-anchor="middle" x="325" y="-7.5" font-family="Helvetica,sans-Serif" font-size="10.00">src/os/test08_1.c</text>
</a>
</g>
<!-- Node1&#45;&gt;Node5 -->
<g id="edge8" class="edge"><title>Node1&#45;&gt;Node5</title>
<path fill="none" stroke="midnightblue" d="M210.147,-52.9058C237.972,-42.7536 277.02,-28.5063 301.659,-19.5164"/>
<polygon fill="midnightblue" stroke="midnightblue" points="208.646,-49.7279 200.451,-56.4435 211.045,-56.3038 208.646,-49.7279"/>
</g>
</g>
</svg>
