<?xml version="1.0" encoding="UTF-8" standalone="no"?>
<!DOCTYPE svg PUBLIC "-//W3C//DTD SVG 1.1//EN"
 "http://www.w3.org/Graphics/SVG/1.1/DTD/svg11.dtd">
<!-- Generated by graphviz version 2.28.0 (20130928.0220)
 -->
<!-- Title: start_threads Pages: 1 -->
<svg width="802pt" height="142pt"
 viewBox="0.00 0.00 802.00 142.00" xmlns="http://www.w3.org/2000/svg" xmlns:xlink="http://www.w3.org/1999/xlink">
<g id="graph1" class="graph" transform="scale(1 1) rotate(0) translate(4 138)">
<title>start_threads</title>
<!-- Node1 -->
<g id="node1" class="node"><title>Node1</title>
<polygon fill="#bfbfbf" stroke="black" points="0,-75.5 0,-94.5 74,-94.5 74,-75.5 0,-75.5"/>
<text text-anchor="middle" x="37" y="-82.5" font-family="Helvetica,sans-Serif" font-size="10.00">start_threads</text>
</g>
<!-- Node2 -->
<g id="node3" class="node"><title>Node2</title>
<a xlink:href="kozos_8h.html#a31494feb57a45fd53bbbe76c98b8630e" target="_top" xlink:title="システムコール ">
<polygon fill="none" stroke="black" points="127,-104.5 127,-123.5 173,-123.5 173,-104.5 127,-104.5"/>
<text text-anchor="middle" x="150" y="-111.5" font-family="Helvetica,sans-Serif" font-size="10.00">kz_run</text>
</a>
</g>
<!-- Node1&#45;&gt;Node2 -->
<g id="edge2" class="edge"><title>Node1&#45;&gt;Node2</title>
<path fill="none" stroke="midnightblue" d="M74.0385,-94.4155C87.8604,-98.0266 103.526,-102.119 116.949,-105.626"/>
<polygon fill="midnightblue" stroke="midnightblue" points="116.15,-109.035 126.71,-108.176 117.919,-102.262 116.15,-109.035"/>
</g>
<!-- Node4 -->
<g id="node7" class="node"><title>Node4</title>
<a xlink:href="kozos_8h.html#a365da73ee00836b826de141b6d662a78" target="_top" xlink:title="ユーザースレッド ">
<polygon fill="none" stroke="black" points="110,-47.5 110,-66.5 190,-66.5 190,-47.5 110,-47.5"/>
<text text-anchor="middle" x="150" y="-54.5" font-family="Helvetica,sans-Serif" font-size="10.00">test08_1_main</text>
</a>
</g>
<!-- Node1&#45;&gt;Node4 -->
<g id="edge6" class="edge"><title>Node1&#45;&gt;Node4</title>
<path fill="none" stroke="midnightblue" d="M74.0385,-75.9092C82.7783,-73.7046 92.2554,-71.314 101.437,-68.998"/>
<polygon fill="midnightblue" stroke="midnightblue" points="102.394,-72.3662 111.234,-66.5265 100.682,-65.5788 102.394,-72.3662"/>
</g>
<!-- Node3 -->
<g id="node5" class="node"><title>Node3</title>
<a xlink:href="kozos_8c.html#a2ef06efeac9f498bbabbf145fa8eb107" target="_top" xlink:title="kz_syscall">
<polygon fill="none" stroke="black" points="226,-114.5 226,-133.5 290,-133.5 290,-114.5 226,-114.5"/>
<text text-anchor="middle" x="258" y="-121.5" font-family="Helvetica,sans-Serif" font-size="10.00">kz_syscall</text>
</a>
</g>
<!-- Node2&#45;&gt;Node3 -->
<g id="edge4" class="edge"><title>Node2&#45;&gt;Node3</title>
<path fill="none" stroke="midnightblue" d="M173.221,-116.096C185.532,-117.258 201.232,-118.739 215.707,-120.104"/>
<polygon fill="midnightblue" stroke="midnightblue" points="215.679,-123.617 225.964,-121.072 216.337,-116.648 215.679,-123.617"/>
</g>
<!-- Node5 -->
<g id="node9" class="node"><title>Node5</title>
<a xlink:href="lib_8c.html#a44ddf1a8f6a75ff235a733ff8d90cae3" target="_top" xlink:title="puts">
<polygon fill="none" stroke="black" points="326.5,-76.5 326.5,-95.5 361.5,-95.5 361.5,-76.5 326.5,-76.5"/>
<text text-anchor="middle" x="344" y="-83.5" font-family="Helvetica,sans-Serif" font-size="10.00">puts</text>
</a>
</g>
<!-- Node4&#45;&gt;Node5 -->
<g id="edge8" class="edge"><title>Node4&#45;&gt;Node5</title>
<path fill="none" stroke="midnightblue" d="M190.317,-62.9386C227.773,-68.596 283.165,-76.9625 315.919,-81.9097"/>
<polygon fill="midnightblue" stroke="midnightblue" points="315.69,-85.4147 326.101,-83.4475 316.736,-78.4932 315.69,-85.4147"/>
</g>
<!-- Node9 -->
<g id="node17" class="node"><title>Node9</title>
<a xlink:href="lib_8c.html#ac414099aa125e8638ec89b7593865b12" target="_top" xlink:title="gets">
<polygon fill="none" stroke="black" points="240,-38.5 240,-57.5 276,-57.5 276,-38.5 240,-38.5"/>
<text text-anchor="middle" x="258" y="-45.5" font-family="Helvetica,sans-Serif" font-size="10.00">gets</text>
</a>
</g>
<!-- Node4&#45;&gt;Node9 -->
<g id="edge16" class="edge"><title>Node4&#45;&gt;Node9</title>
<path fill="none" stroke="midnightblue" d="M190.169,-53.6743C203.264,-52.5625 217.569,-51.3479 229.573,-50.3287"/>
<polygon fill="midnightblue" stroke="midnightblue" points="230.181,-53.7898 239.849,-49.4562 229.588,-46.8149 230.181,-53.7898"/>
</g>
<!-- Node13 -->
<g id="node26" class="node"><title>Node13</title>
<a xlink:href="lib_8c.html#a33518be6fe96efe10f366f211a8726c9" target="_top" xlink:title="strncmp">
<polygon fill="none" stroke="black" points="232.5,-0.5 232.5,-19.5 283.5,-19.5 283.5,-0.5 232.5,-0.5"/>
<text text-anchor="middle" x="258" y="-7.5" font-family="Helvetica,sans-Serif" font-size="10.00">strncmp</text>
</a>
</g>
<!-- Node4&#45;&gt;Node13 -->
<g id="edge26" class="edge"><title>Node4&#45;&gt;Node13</title>
<path fill="none" stroke="midnightblue" d="M172.451,-47.4888C187.723,-40.7172 208.49,-31.5091 225.621,-23.9135"/>
<polygon fill="midnightblue" stroke="midnightblue" points="227.494,-26.9113 235.217,-19.6583 224.657,-20.5122 227.494,-26.9113"/>
</g>
<!-- Node6 -->
<g id="node11" class="node"><title>Node6</title>
<a xlink:href="lib_8c.html#acee36427208c7c321ab875217dca17c4" target="_top" xlink:title="putc">
<polygon fill="none" stroke="black" points="425.5,-76.5 425.5,-95.5 460.5,-95.5 460.5,-76.5 425.5,-76.5"/>
<text text-anchor="middle" x="443" y="-83.5" font-family="Helvetica,sans-Serif" font-size="10.00">putc</text>
</a>
</g>
<!-- Node5&#45;&gt;Node6 -->
<g id="edge10" class="edge"><title>Node5&#45;&gt;Node6</title>
<path fill="none" stroke="midnightblue" d="M361.896,-86C376.501,-86 397.877,-86 414.875,-86"/>
<polygon fill="midnightblue" stroke="midnightblue" points="415.298,-89.5001 425.298,-86 415.297,-82.5001 415.298,-89.5001"/>
</g>
<!-- Node7 -->
<g id="node13" class="node"><title>Node7</title>
<a xlink:href="serial_8c.html#aed0806bd3de71f20d6df8ef6f49bda31" target="_top" xlink:title="serial_send_byte">
<polygon fill="none" stroke="black" points="535.5,-76.5 535.5,-95.5 628.5,-95.5 628.5,-76.5 535.5,-76.5"/>
<text text-anchor="middle" x="582" y="-83.5" font-family="Helvetica,sans-Serif" font-size="10.00">serial_send_byte</text>
</a>
</g>
<!-- Node6&#45;&gt;Node7 -->
<g id="edge12" class="edge"><title>Node6&#45;&gt;Node7</title>
<path fill="none" stroke="midnightblue" d="M460.525,-86C476.582,-86 501.881,-86 525.159,-86"/>
<polygon fill="midnightblue" stroke="midnightblue" points="525.324,-89.5001 535.324,-86 525.324,-82.5001 525.324,-89.5001"/>
</g>
<!-- Node8 -->
<g id="node15" class="node"><title>Node8</title>
<a xlink:href="serial_8c.html#abf48ded30f8aa6fff8cb48dce0af0590" target="_top" xlink:title="serial_is_send_enable">
<polygon fill="none" stroke="black" points="676,-76.5 676,-95.5 794,-95.5 794,-76.5 676,-76.5"/>
<text text-anchor="middle" x="735" y="-83.5" font-family="Helvetica,sans-Serif" font-size="10.00">serial_is_send_enable</text>
</a>
</g>
<!-- Node7&#45;&gt;Node8 -->
<g id="edge14" class="edge"><title>Node7&#45;&gt;Node8</title>
<path fill="none" stroke="midnightblue" d="M628.715,-86C640.427,-86 653.278,-86 665.855,-86"/>
<polygon fill="midnightblue" stroke="midnightblue" points="665.855,-89.5001 675.855,-86 665.855,-82.5001 665.855,-89.5001"/>
</g>
<!-- Node10 -->
<g id="node19" class="node"><title>Node10</title>
<a xlink:href="lib_8c.html#ae0ca7622f88a0818572688d85919e6fe" target="_top" xlink:title="getc">
<polygon fill="none" stroke="black" points="326,-38.5 326,-57.5 362,-57.5 362,-38.5 326,-38.5"/>
<text text-anchor="middle" x="344" y="-45.5" font-family="Helvetica,sans-Serif" font-size="10.00">getc</text>
</a>
</g>
<!-- Node9&#45;&gt;Node10 -->
<g id="edge18" class="edge"><title>Node9&#45;&gt;Node10</title>
<path fill="none" stroke="midnightblue" d="M276.405,-48C287.743,-48 302.773,-48 315.685,-48"/>
<polygon fill="midnightblue" stroke="midnightblue" points="315.905,-51.5001 325.905,-48 315.905,-44.5001 315.905,-51.5001"/>
</g>
<!-- Node10&#45;&gt;Node6 -->
<g id="edge24" class="edge"><title>Node10&#45;&gt;Node6</title>
<path fill="none" stroke="midnightblue" d="M362.342,-54.7936C377.283,-60.647 399.066,-69.1806 416.079,-75.8452"/>
<polygon fill="midnightblue" stroke="midnightblue" points="414.868,-79.13 425.456,-79.5188 417.422,-72.6123 414.868,-79.13"/>
</g>
<!-- Node11 -->
<g id="node21" class="node"><title>Node11</title>
<a xlink:href="serial_8c.html#ab041beadc1139b4c1b12e30e5c21a383" target="_top" xlink:title="serial_recv_byte">
<polygon fill="none" stroke="black" points="398,-38.5 398,-57.5 488,-57.5 488,-38.5 398,-38.5"/>
<text text-anchor="middle" x="443" y="-45.5" font-family="Helvetica,sans-Serif" font-size="10.00">serial_recv_byte</text>
</a>
</g>
<!-- Node10&#45;&gt;Node11 -->
<g id="edge20" class="edge"><title>Node10&#45;&gt;Node11</title>
<path fill="none" stroke="midnightblue" d="M362.342,-48C369.625,-48 378.534,-48 387.724,-48"/>
<polygon fill="midnightblue" stroke="midnightblue" points="387.742,-51.5001 397.742,-48 387.742,-44.5001 387.742,-51.5001"/>
</g>
<!-- Node12 -->
<g id="node23" class="node"><title>Node12</title>
<a xlink:href="serial_8c.html#a3592a8e9f7fc0651cfcbc638d6192040" target="_top" xlink:title="serial_is_recv_enable">
<polygon fill="none" stroke="black" points="524.5,-38.5 524.5,-57.5 639.5,-57.5 639.5,-38.5 524.5,-38.5"/>
<text text-anchor="middle" x="582" y="-45.5" font-family="Helvetica,sans-Serif" font-size="10.00">serial_is_recv_enable</text>
</a>
</g>
<!-- Node11&#45;&gt;Node12 -->
<g id="edge22" class="edge"><title>Node11&#45;&gt;Node12</title>
<path fill="none" stroke="midnightblue" d="M488.102,-48C496.513,-48 505.489,-48 514.421,-48"/>
<polygon fill="midnightblue" stroke="midnightblue" points="514.455,-51.5001 524.455,-48 514.455,-44.5001 514.455,-51.5001"/>
</g>
</g>
</svg>
