<?xml version="1.0" encoding="UTF-8" standalone="no"?>
<!DOCTYPE svg PUBLIC "-//W3C//DTD SVG 1.1//EN"
 "http://www.w3.org/Graphics/SVG/1.1/DTD/svg11.dtd">
<!-- Generated by graphviz version 2.28.0 (20130928.0220)
 -->
<!-- Title: src/misc/serial.h Pages: 1 -->
<svg width="453pt" height="84pt"
 viewBox="0.00 0.00 453.00 84.00" xmlns="http://www.w3.org/2000/svg" xmlns:xlink="http://www.w3.org/1999/xlink">
<g id="graph1" class="graph" transform="scale(1 1) rotate(0) translate(4 80)">
<title>src/misc/serial.h</title>
<!-- Node1 -->
<g id="node1" class="node"><title>Node1</title>
<polygon fill="#bfbfbf" stroke="black" points="197.5,-56.5 197.5,-75.5 286.5,-75.5 286.5,-56.5 197.5,-56.5"/>
<text text-anchor="middle" x="242" y="-63.5" font-family="Helvetica,sans-Serif" font-size="10.00">src/misc/serial.h</text>
</g>
<!-- Node2 -->
<g id="node3" class="node"><title>Node2</title>
<a xlink:href="bootload_2main_8c.html" target="_top" xlink:title="src/bootload/main.c">
<polygon fill="none" stroke="black" points="-0.5,-0.5 -0.5,-19.5 104.5,-19.5 104.5,-0.5 -0.5,-0.5"/>
<text text-anchor="middle" x="52" y="-7.5" font-family="Helvetica,sans-Serif" font-size="10.00">src/bootload/main.c</text>
</a>
</g>
<!-- Node1&#45;&gt;Node2 -->
<g id="edge2" class="edge"><title>Node1&#45;&gt;Node2</title>
<path fill="none" stroke="midnightblue" d="M202.236,-53.6986C166.377,-43.507 114.429,-28.7429 81.9652,-19.5164"/>
<polygon fill="midnightblue" stroke="midnightblue" points="201.318,-57.0763 211.894,-56.4435 203.232,-50.343 201.318,-57.0763"/>
</g>
<!-- Node3 -->
<g id="node5" class="node"><title>Node3</title>
<a xlink:href="xmodem_8c.html" target="_top" xlink:title="src/bootload/xmodem.c">
<polygon fill="none" stroke="black" points="122.5,-0.5 122.5,-19.5 245.5,-19.5 245.5,-0.5 122.5,-0.5"/>
<text text-anchor="middle" x="184" y="-7.5" font-family="Helvetica,sans-Serif" font-size="10.00">src/bootload/xmodem.c</text>
</a>
</g>
<!-- Node1&#45;&gt;Node3 -->
<g id="edge4" class="edge"><title>Node1&#45;&gt;Node3</title>
<path fill="none" stroke="midnightblue" d="M225.087,-49.2533C214.797,-39.6731 202.034,-27.7906 193.488,-19.8339"/>
<polygon fill="midnightblue" stroke="midnightblue" points="222.977,-52.0714 232.681,-56.324 227.747,-46.9481 222.977,-52.0714"/>
</g>
<!-- Node4 -->
<g id="node7" class="node"><title>Node4</title>
<a xlink:href="lib_8c.html" target="_top" xlink:title="src/misc/lib.c">
<polygon fill="none" stroke="black" points="264,-0.5 264,-19.5 338,-19.5 338,-0.5 264,-0.5"/>
<text text-anchor="middle" x="301" y="-7.5" font-family="Helvetica,sans-Serif" font-size="10.00">src/misc/lib.c</text>
</a>
</g>
<!-- Node1&#45;&gt;Node4 -->
<g id="edge6" class="edge"><title>Node1&#45;&gt;Node4</title>
<path fill="none" stroke="midnightblue" d="M258.895,-49.5372C269.415,-39.9087 282.569,-27.8694 291.348,-19.8339"/>
<polygon fill="midnightblue" stroke="midnightblue" points="256.493,-46.9905 251.479,-56.324 261.219,-52.1542 256.493,-46.9905"/>
</g>
<!-- Node5 -->
<g id="node9" class="node"><title>Node5</title>
<a xlink:href="serial_8c.html" target="_top" xlink:title="src/misc/serial.c">
<polygon fill="none" stroke="black" points="356.5,-0.5 356.5,-19.5 445.5,-19.5 445.5,-0.5 356.5,-0.5"/>
<text text-anchor="middle" x="401" y="-7.5" font-family="Helvetica,sans-Serif" font-size="10.00">src/misc/serial.c</text>
</a>
</g>
<!-- Node1&#45;&gt;Node5 -->
<g id="edge8" class="edge"><title>Node1&#45;&gt;Node5</title>
<path fill="none" stroke="midnightblue" d="M276.827,-53.172C306.766,-43.0039 349.221,-28.5852 375.924,-19.5164"/>
<polygon fill="midnightblue" stroke="midnightblue" points="275.537,-49.9136 267.194,-56.4435 277.788,-56.5417 275.537,-49.9136"/>
</g>
</g>
</svg>
