<?xml version="1.0" encoding="UTF-8" standalone="no"?>
<!DOCTYPE svg PUBLIC "-//W3C//DTD SVG 1.1//EN"
 "http://www.w3.org/Graphics/SVG/1.1/DTD/svg11.dtd">
<!-- Generated by graphviz version 2.28.0 (20130928.0220)
 -->
<!-- Title: src/misc/serial.h Pages: 1 -->
<svg width="554pt" height="84pt"
 viewBox="0.00 0.00 554.00 84.00" xmlns="http://www.w3.org/2000/svg" xmlns:xlink="http://www.w3.org/1999/xlink">
<g id="graph1" class="graph" transform="scale(1 1) rotate(0) translate(4 80)">
<title>src/misc/serial.h</title>
<!-- Node1 -->
<g id="node1" class="node"><title>Node1</title>
<polygon fill="#bfbfbf" stroke="black" points="250.5,-56.5 250.5,-75.5 339.5,-75.5 339.5,-56.5 250.5,-56.5"/>
<text text-anchor="middle" x="295" y="-63.5" font-family="Helvetica,sans-Serif" font-size="10.00">src/misc/serial.h</text>
</g>
<!-- Node2 -->
<g id="node3" class="node"><title>Node2</title>
<a xlink:href="bootload_2lib_8c.html" target="_top" xlink:title="src/bootload/lib.c">
<polygon fill="none" stroke="black" points="-0.5,-0.5 -0.5,-19.5 92.5,-19.5 92.5,-0.5 -0.5,-0.5"/>
<text text-anchor="middle" x="46" y="-7.5" font-family="Helvetica,sans-Serif" font-size="10.00">src/bootload/lib.c</text>
</a>
</g>
<!-- Node1&#45;&gt;Node2 -->
<g id="edge2" class="edge"><title>Node1&#45;&gt;Node2</title>
<path fill="none" stroke="midnightblue" d="M245.576,-54.2815C198.521,-44.0769 128.633,-28.9203 85.2702,-19.5164"/>
<polygon fill="midnightblue" stroke="midnightblue" points="245.031,-57.7445 255.545,-56.4435 246.514,-50.9036 245.031,-57.7445"/>
</g>
<!-- Node3 -->
<g id="node5" class="node"><title>Node3</title>
<a xlink:href="bootload_2main_8c.html" target="_top" xlink:title="src/bootload/main.c">
<polygon fill="none" stroke="black" points="110.5,-0.5 110.5,-19.5 215.5,-19.5 215.5,-0.5 110.5,-0.5"/>
<text text-anchor="middle" x="163" y="-7.5" font-family="Helvetica,sans-Serif" font-size="10.00">src/bootload/main.c</text>
</a>
</g>
<!-- Node1&#45;&gt;Node3 -->
<g id="edge4" class="edge"><title>Node1&#45;&gt;Node3</title>
<path fill="none" stroke="midnightblue" d="M264.781,-52.6377C240.01,-42.504 205.6,-28.4274 183.818,-19.5164"/>
<polygon fill="midnightblue" stroke="midnightblue" points="263.503,-55.8966 274.084,-56.4435 266.154,-49.4177 263.503,-55.8966"/>
</g>
<!-- Node4 -->
<g id="node7" class="node"><title>Node4</title>
<a xlink:href="xmodem_8c.html" target="_top" xlink:title="src/bootload/xmodem.c">
<polygon fill="none" stroke="black" points="233.5,-0.5 233.5,-19.5 356.5,-19.5 356.5,-0.5 233.5,-0.5"/>
<text text-anchor="middle" x="295" y="-7.5" font-family="Helvetica,sans-Serif" font-size="10.00">src/bootload/xmodem.c</text>
</a>
</g>
<!-- Node1&#45;&gt;Node4 -->
<g id="edge6" class="edge"><title>Node1&#45;&gt;Node4</title>
<path fill="none" stroke="midnightblue" d="M295,-45.8045C295,-36.9102 295,-26.7798 295,-19.7511"/>
<polygon fill="midnightblue" stroke="midnightblue" points="291.5,-46.083 295,-56.083 298.5,-46.083 291.5,-46.083"/>
</g>
<!-- Node5 -->
<g id="node9" class="node"><title>Node5</title>
<a xlink:href="serial_8c.html" target="_top" xlink:title="src/misc/serial.c">
<polygon fill="none" stroke="black" points="374.5,-0.5 374.5,-19.5 463.5,-19.5 463.5,-0.5 374.5,-0.5"/>
<text text-anchor="middle" x="419" y="-7.5" font-family="Helvetica,sans-Serif" font-size="10.00">src/misc/serial.c</text>
</a>
</g>
<!-- Node1&#45;&gt;Node5 -->
<g id="edge8" class="edge"><title>Node1&#45;&gt;Node5</title>
<path fill="none" stroke="midnightblue" d="M324.007,-52.3678C347.229,-42.2553 379.163,-28.3486 399.444,-19.5164"/>
<polygon fill="midnightblue" stroke="midnightblue" points="322.419,-49.2419 314.648,-56.4435 325.214,-55.6597 322.419,-49.2419"/>
</g>
<!-- Node6 -->
<g id="node11" class="node"><title>Node6</title>
<a xlink:href="os_2lib_8c.html" target="_top" xlink:title="src/os/lib.c">
<polygon fill="none" stroke="black" points="481.5,-0.5 481.5,-19.5 546.5,-19.5 546.5,-0.5 481.5,-0.5"/>
<text text-anchor="middle" x="514" y="-7.5" font-family="Helvetica,sans-Serif" font-size="10.00">src/os/lib.c</text>
</a>
</g>
<!-- Node1&#45;&gt;Node6 -->
<g id="edge10" class="edge"><title>Node1&#45;&gt;Node6</title>
<path fill="none" stroke="midnightblue" d="M339.665,-53.9866C381.69,-43.6243 443.627,-28.3522 481.25,-19.0755"/>
<polygon fill="midnightblue" stroke="midnightblue" points="338.572,-50.6512 329.701,-56.4435 340.248,-57.4476 338.572,-50.6512"/>
</g>
</g>
</svg>
