<?xml version="1.0" encoding="UTF-8" standalone="no"?>
<!DOCTYPE svg PUBLIC "-//W3C//DTD SVG 1.1//EN"
 "http://www.w3.org/Graphics/SVG/1.1/DTD/svg11.dtd">
<!-- Generated by graphviz version 2.28.0 (20130928.0220)
 -->
<!-- Title: src/misc/serial.c Pages: 1 -->
<svg width="131pt" height="84pt"
 viewBox="0.00 0.00 131.00 84.00" xmlns="http://www.w3.org/2000/svg" xmlns:xlink="http://www.w3.org/1999/xlink">
<g id="graph1" class="graph" transform="scale(1 1) rotate(0) translate(4 80)">
<title>src/misc/serial.c</title>
<!-- Node1 -->
<g id="node1" class="node"><title>Node1</title>
<polygon fill="#bfbfbf" stroke="black" points="18.5,-56.5 18.5,-75.5 107.5,-75.5 107.5,-56.5 18.5,-56.5"/>
<text text-anchor="middle" x="63" y="-63.5" font-family="Helvetica,sans-Serif" font-size="10.00">src/misc/serial.c</text>
</g>
<!-- Node2 -->
<g id="node3" class="node"><title>Node2</title>
<a xlink:href="defines_8h.html" target="_top" xlink:title="defines.h">
<polygon fill="none" stroke="black" points="-0.5,-0.5 -0.5,-19.5 56.5,-19.5 56.5,-0.5 -0.5,-0.5"/>
<text text-anchor="middle" x="28" y="-7.5" font-family="Helvetica,sans-Serif" font-size="10.00">defines.h</text>
</a>
</g>
<!-- Node1&#45;&gt;Node2 -->
<g id="edge2" class="edge"><title>Node1&#45;&gt;Node2</title>
<path fill="none" stroke="midnightblue" d="M57.2205,-56.083C52.3276,-48.5341 45.1726,-37.4948 39.1674,-28.2298"/>
<polygon fill="midnightblue" stroke="midnightblue" points="42.048,-26.239 33.672,-19.7511 36.174,-30.0463 42.048,-26.239"/>
</g>
<!-- Node3 -->
<g id="node5" class="node"><title>Node3</title>
<a xlink:href="serial_8h.html" target="_top" xlink:title="serial.h">
<polygon fill="none" stroke="black" points="74.5,-0.5 74.5,-19.5 123.5,-19.5 123.5,-0.5 74.5,-0.5"/>
<text text-anchor="middle" x="99" y="-7.5" font-family="Helvetica,sans-Serif" font-size="10.00">serial.h</text>
</a>
</g>
<!-- Node1&#45;&gt;Node3 -->
<g id="edge4" class="edge"><title>Node1&#45;&gt;Node3</title>
<path fill="none" stroke="midnightblue" d="M68.9447,-56.083C73.9773,-48.5341 81.3368,-37.4948 87.5135,-28.2298"/>
<polygon fill="midnightblue" stroke="midnightblue" points="90.5311,-30.0131 93.1659,-19.7511 84.7067,-26.1301 90.5311,-30.0131"/>
</g>
</g>
</svg>
