<?xml version="1.0" encoding="UTF-8" standalone="no"?>
<!DOCTYPE svg PUBLIC "-//W3C//DTD SVG 1.1//EN"
 "http://www.w3.org/Graphics/SVG/1.1/DTD/svg11.dtd">
<!-- Generated by graphviz version 2.28.0 (20130928.0220)
 -->
<!-- Title: serial_is_send_enable Pages: 1 -->
<!--zoomable 389 -->
<svg id="main" version="1.1" xmlns="http://www.w3.org/2000/svg" xmlns:xlink="http://www.w3.org/1999/xlink" xml:space="preserve" onload="init(evt)">
<style type="text/css"><![CDATA[
.edge:hover path { stroke: red; }
.edge:hover polygon { stroke: red; fill: red; }
]]></style>
<script type="text/javascript"><![CDATA[
var edges = document.getElementsByTagName('g');
if (edges && edges.length) {
  for (var i=0;i<edges.length;i++) {
    if (edges[i].id.substr(0,4)=='edge') {
      edges[i].setAttribute('class','edge');
    }
  }
}
]]></script>
        <defs>
                <circle id="rim" cx="0" cy="0" r="7"/>
                <circle id="rim2" cx="0" cy="0" r="3.5"/>
                <g id="zoomPlus">
                        <use xlink:href="#rim" fill="#404040">
                                <set attributeName="fill" to="#808080" begin="zoomplus.mouseover" end="zoomplus.mouseout"/>
                        </use>
                        <path d="M-4,0h8M0,-4v8" fill="none" stroke="white" stroke-width="1.5" pointer-events="none"/>
                </g>
                <g id="zoomMin">
                        <use xlink:href="#rim" fill="#404040">
                                <set attributeName="fill" to="#808080" begin="zoomminus.mouseover" end="zoomminus.mouseout"/>
                        </use>
                        <path d="M-4,0h8" fill="none" stroke="white" stroke-width="1.5" pointer-events="none"/>
                </g>
                <g id="dirArrow">
                        <path fill="none" stroke="white" stroke-width="1.5" d="M0,-3.0v7 M-2.5,-0.5L0,-3.0L2.5,-0.5"/>
                </g>
               <g id="resetDef">
                       <use xlink:href="#rim2" fill="#404040">
                               <set attributeName="fill" to="#808080" begin="reset.mouseover" end="reset.mouseout"/>
                       </use>
               </g>
        </defs>

<script type="text/javascript">
var viewWidth = 1112;
var viewHeight = 389;
var sectionId = 'dynsection-2';
</script>
<script xlink:href="svgpan.js"/>
<svg id="graph" class="graph">
<g id="viewport">
<title>serial_is_send_enable</title>
<!-- Node1 -->
<g id="node1" class="node"><title>Node1</title>
<polygon fill="#bfbfbf" stroke="black" points="0,-38.5 0,-57.5 118,-57.5 118,-38.5 0,-38.5"/>
<text text-anchor="middle" x="59" y="-45.5" font-family="Helvetica,sans-Serif" font-size="10.00">serial_is_send_enable</text>
</g>
<!-- Node2 -->
<g id="node3" class="node"><title>Node2</title>
<a xlink:href="serial_8h.html#aed0806bd3de71f20d6df8ef6f49bda31" target="_top" xlink:title="serial_send_byte">
<polygon fill="none" stroke="black" points="154.5,-38.5 154.5,-57.5 247.5,-57.5 247.5,-38.5 154.5,-38.5"/>
<text text-anchor="middle" x="201" y="-45.5" font-family="Helvetica,sans-Serif" font-size="10.00">serial_send_byte</text>
</a>
</g>
<!-- Node1&#45;&gt;Node2 -->
<g id="edge2" class="edge"><title>Node1&#45;&gt;Node2</title>
<path fill="none" stroke="midnightblue" d="M128.38,-48C137.129,-48 145.913,-48 154.183,-48"/>
<polygon fill="midnightblue" stroke="midnightblue" points="128.156,-44.5001 118.156,-48 128.156,-51.5001 128.156,-44.5001"/>
</g>
<!-- Node3 -->
<g id="node5" class="node"><title>Node3</title>
<a xlink:href="xmodem_8c.html#ab4c69c95abc670bdcd0211e0b502691e" target="_top" xlink:title="xmodem_wait">
<polygon fill="none" stroke="black" points="284,-0.5 284,-19.5 364,-19.5 364,-0.5 284,-0.5"/>
<text text-anchor="middle" x="324" y="-7.5" font-family="Helvetica,sans-Serif" font-size="10.00">xmodem_wait</text>
</a>
</g>
<!-- Node2&#45;&gt;Node3 -->
<g id="edge4" class="edge"><title>Node2&#45;&gt;Node3</title>
<path fill="none" stroke="midnightblue" d="M242.377,-35.3196C258.726,-30.1852 277.288,-24.3559 292.476,-19.5859"/>
<polygon fill="midnightblue" stroke="midnightblue" points="241.025,-32.0755 232.533,-38.411 243.123,-38.7539 241.025,-32.0755"/>
</g>
<!-- Node4 -->
<g id="node7" class="node"><title>Node4</title>
<a xlink:href="xmodem_8h.html#abe91c5bfd131f00e3485727decb0faca" target="_top" xlink:title="xmodem_recv">
<polygon fill="none" stroke="black" points="400.5,-19.5 400.5,-38.5 481.5,-38.5 481.5,-19.5 400.5,-19.5"/>
<text text-anchor="middle" x="441" y="-26.5" font-family="Helvetica,sans-Serif" font-size="10.00">xmodem_recv</text>
</a>
</g>
<!-- Node2&#45;&gt;Node4 -->
<g id="edge10" class="edge"><title>Node2&#45;&gt;Node4</title>
<path fill="none" stroke="midnightblue" d="M257.813,-43.5443C301.617,-40.0474 361.509,-35.2661 400.47,-32.1558"/>
<polygon fill="midnightblue" stroke="midnightblue" points="257.297,-40.0743 247.607,-44.3591 257.854,-47.0521 257.297,-40.0743"/>
</g>
<!-- Node6 -->
<g id="node12" class="node"><title>Node6</title>
<a xlink:href="lib_8h.html#acee36427208c7c321ab875217dca17c4" target="_top" xlink:title="putc">
<polygon fill="none" stroke="black" points="306.5,-76.5 306.5,-95.5 341.5,-95.5 341.5,-76.5 306.5,-76.5"/>
<text text-anchor="middle" x="324" y="-83.5" font-family="Helvetica,sans-Serif" font-size="10.00">putc</text>
</a>
</g>
<!-- Node2&#45;&gt;Node6 -->
<g id="edge12" class="edge"><title>Node2&#45;&gt;Node6</title>
<path fill="none" stroke="midnightblue" d="M242.225,-60.6327C264.032,-67.4811 289.812,-75.5774 306.279,-80.7487"/>
<polygon fill="midnightblue" stroke="midnightblue" points="243.123,-57.2461 232.533,-57.589 241.025,-63.9245 243.123,-57.2461"/>
</g>
<!-- Node3&#45;&gt;Node4 -->
<g id="edge6" class="edge"><title>Node3&#45;&gt;Node4</title>
<path fill="none" stroke="midnightblue" d="M374.24,-18.1354C382.887,-19.564 391.789,-21.0347 400.14,-22.4145"/>
<polygon fill="midnightblue" stroke="midnightblue" points="374.692,-14.6626 364.255,-16.4856 373.551,-21.5689 374.692,-14.6626"/>
</g>
<!-- Node5 -->
<g id="node9" class="node"><title>Node5</title>
<a xlink:href="bootload_2main_8c.html#a840291bc02cba5474a4cb46a9b9566fe" target="_top" xlink:title="main">
<polygon fill="none" stroke="black" points="762,-114.5 762,-133.5 800,-133.5 800,-114.5 762,-114.5"/>
<text text-anchor="middle" x="781" y="-121.5" font-family="Helvetica,sans-Serif" font-size="10.00">main</text>
</a>
</g>
<!-- Node4&#45;&gt;Node5 -->
<g id="edge8" class="edge"><title>Node4&#45;&gt;Node5</title>
<path fill="none" stroke="midnightblue" d="M491.855,-29.0519C546.974,-30.8115 637.314,-38.8173 708,-70 732.875,-80.9733 757.198,-101.976 770.227,-114.306"/>
<polygon fill="midnightblue" stroke="midnightblue" points="491.739,-25.5478 481.651,-28.785 491.556,-32.5454 491.739,-25.5478"/>
</g>
<!-- Node7 -->
<g id="node14" class="node"><title>Node7</title>
<a xlink:href="lib_8h.html#ae0ca7622f88a0818572688d85919e6fe" target="_top" xlink:title="getc">
<polygon fill="none" stroke="black" points="423,-67.5 423,-86.5 459,-86.5 459,-67.5 423,-67.5"/>
<text text-anchor="middle" x="441" y="-74.5" font-family="Helvetica,sans-Serif" font-size="10.00">getc</text>
</a>
</g>
<!-- Node6&#45;&gt;Node7 -->
<g id="edge14" class="edge"><title>Node6&#45;&gt;Node7</title>
<path fill="none" stroke="midnightblue" d="M351.987,-83.888C373.94,-82.1699 404.248,-79.798 422.962,-78.3334"/>
<polygon fill="midnightblue" stroke="midnightblue" points="351.665,-80.4024 341.969,-84.672 352.211,-87.381 351.665,-80.4024"/>
</g>
<!-- Node12 -->
<g id="node25" class="node"><title>Node12</title>
<a xlink:href="lib_8h.html#a44ddf1a8f6a75ff235a733ff8d90cae3" target="_top" xlink:title="puts">
<polygon fill="none" stroke="black" points="423.5,-209.5 423.5,-228.5 458.5,-228.5 458.5,-209.5 423.5,-209.5"/>
<text text-anchor="middle" x="441" y="-216.5" font-family="Helvetica,sans-Serif" font-size="10.00">puts</text>
</a>
</g>
<!-- Node6&#45;&gt;Node12 -->
<g id="edge26" class="edge"><title>Node6&#45;&gt;Node12</title>
<path fill="none" stroke="midnightblue" d="M340.065,-103.423C364.535,-131.723 412.127,-186.765 431.494,-209.163"/>
<polygon fill="midnightblue" stroke="midnightblue" points="342.459,-100.84 333.271,-95.565 337.164,-105.419 342.459,-100.84"/>
</g>
<!-- Node8 -->
<g id="node16" class="node"><title>Node8</title>
<a xlink:href="lib_8h.html#ac414099aa125e8638ec89b7593865b12" target="_top" xlink:title="gets">
<polygon fill="none" stroke="black" points="537,-57.5 537,-76.5 573,-76.5 573,-57.5 537,-57.5"/>
<text text-anchor="middle" x="555" y="-64.5" font-family="Helvetica,sans-Serif" font-size="10.00">gets</text>
</a>
</g>
<!-- Node7&#45;&gt;Node8 -->
<g id="edge16" class="edge"><title>Node7&#45;&gt;Node8</title>
<path fill="none" stroke="midnightblue" d="M469.254,-74.5666C490.323,-72.6854 518.841,-70.1392 536.83,-68.5331"/>
<polygon fill="midnightblue" stroke="midnightblue" points="468.659,-71.1057 459.01,-75.4812 469.282,-78.0779 468.659,-71.1057"/>
</g>
<!-- Node8&#45;&gt;Node5 -->
<g id="edge18" class="edge"><title>Node8&#45;&gt;Node5</title>
<path fill="none" stroke="midnightblue" d="M583.195,-69.0414C614,-71.868 665.446,-78.1538 708,-91 727.482,-96.8813 748.503,-106.992 762.771,-114.476"/>
<polygon fill="midnightblue" stroke="midnightblue" points="583.472,-65.5524 573.209,-68.1808 582.871,-72.5265 583.472,-65.5524"/>
</g>
<!-- Node9 -->
<g id="node19" class="node"><title>Node9</title>
<a xlink:href="test08__1_8c.html#a365da73ee00836b826de141b6d662a78" target="_top" xlink:title="ユーザースレッド ">
<polygon fill="none" stroke="black" points="628,-171.5 628,-190.5 708,-190.5 708,-171.5 628,-171.5"/>
<text text-anchor="middle" x="668" y="-178.5" font-family="Helvetica,sans-Serif" font-size="10.00">test08_1_main</text>
</a>
</g>
<!-- Node8&#45;&gt;Node9 -->
<g id="edge20" class="edge"><title>Node8&#45;&gt;Node9</title>
<path fill="none" stroke="midnightblue" d="M566.268,-85.3296C578.665,-106.125 601.221,-139.997 628,-162 632.423,-165.634 637.657,-168.785 642.83,-171.419"/>
<polygon fill="midnightblue" stroke="midnightblue" points="569.21,-83.427 561.165,-76.5327 563.155,-86.9391 569.21,-83.427"/>
</g>
<!-- Node10 -->
<g id="node21" class="node"><title>Node10</title>
<a xlink:href="os_2main_8c.html#aabc6304dfeadad471d074b11c6e057dd" target="_top" xlink:title="start_threads">
<polygon fill="none" stroke="black" points="956,-228.5 956,-247.5 1030,-247.5 1030,-228.5 956,-228.5"/>
<text text-anchor="middle" x="993" y="-235.5" font-family="Helvetica,sans-Serif" font-size="10.00">start_threads</text>
</a>
</g>
<!-- Node9&#45;&gt;Node10 -->
<g id="edge22" class="edge"><title>Node9&#45;&gt;Node10</title>
<path fill="none" stroke="midnightblue" d="M718.363,-189.711C783.868,-201.271 897.979,-221.408 955.961,-231.64"/>
<polygon fill="midnightblue" stroke="midnightblue" points="718.739,-186.224 708.283,-187.932 717.523,-193.117 718.739,-186.224"/>
</g>
<!-- Node11 -->
<g id="node23" class="node"><title>Node11</title>
<a xlink:href="os_2main_8c.html#a840291bc02cba5474a4cb46a9b9566fe" target="_top" xlink:title="main">
<polygon fill="none" stroke="black" points="1066,-266.5 1066,-285.5 1104,-285.5 1104,-266.5 1066,-266.5"/>
<text text-anchor="middle" x="1085" y="-273.5" font-family="Helvetica,sans-Serif" font-size="10.00">main</text>
</a>
</g>
<!-- Node10&#45;&gt;Node11 -->
<g id="edge24" class="edge"><title>Node10&#45;&gt;Node11</title>
<path fill="none" stroke="midnightblue" d="M1026.06,-251.538C1039.42,-257.176 1054.43,-263.515 1065.83,-268.327"/>
<polygon fill="midnightblue" stroke="midnightblue" points="1027.28,-248.254 1016.71,-247.589 1024.56,-254.703 1027.28,-248.254"/>
</g>
<!-- Node12&#45;&gt;Node5 -->
<g id="edge50" class="edge"><title>Node12&#45;&gt;Node5</title>
<path fill="none" stroke="midnightblue" d="M450.506,-200.301C462.077,-177.42 485.166,-139.781 518,-124 601.428,-83.9022 717.777,-107.554 761.989,-118.941"/>
<polygon fill="midnightblue" stroke="midnightblue" points="447.323,-198.843 446.131,-209.37 453.628,-201.884 447.323,-198.843"/>
</g>
<!-- Node12&#45;&gt;Node9 -->
<g id="edge62" class="edge"><title>Node12&#45;&gt;Node9</title>
<path fill="none" stroke="midnightblue" d="M468.447,-214.533C507.83,-207.882 582.142,-195.332 627.839,-187.614"/>
<polygon fill="midnightblue" stroke="midnightblue" points="467.822,-211.089 458.545,-216.206 468.988,-217.992 467.822,-211.089"/>
</g>
<!-- Node13 -->
<g id="node27" class="node"><title>Node13</title>
<a xlink:href="bootload_2main_8c.html#ad259a6e944deb3853bf6f2d7fa233c63" target="_top" xlink:title="メモリの16進ダンプ出力 ">
<polygon fill="none" stroke="black" points="647.5,-209.5 647.5,-228.5 688.5,-228.5 688.5,-209.5 647.5,-209.5"/>
<text text-anchor="middle" x="668" y="-216.5" font-family="Helvetica,sans-Serif" font-size="10.00">dump</text>
</a>
</g>
<!-- Node12&#45;&gt;Node13 -->
<g id="edge28" class="edge"><title>Node12&#45;&gt;Node13</title>
<path fill="none" stroke="midnightblue" d="M468.587,-219C514.301,-219 606.782,-219 647.267,-219"/>
<polygon fill="midnightblue" stroke="midnightblue" points="468.545,-215.5 458.545,-219 468.545,-222.5 468.545,-215.5"/>
</g>
<!-- Node14 -->
<g id="node30" class="node"><title>Node14</title>
<a xlink:href="elf_8c.html#a6fe593c95dbcbfa1df84c139d4a0e6d6" target="_top" xlink:title="elf_check">
<polygon fill="none" stroke="black" points="525.5,-133.5 525.5,-152.5 584.5,-152.5 584.5,-133.5 525.5,-133.5"/>
<text text-anchor="middle" x="555" y="-140.5" font-family="Helvetica,sans-Serif" font-size="10.00">elf_check</text>
</a>
</g>
<!-- Node12&#45;&gt;Node14 -->
<g id="edge32" class="edge"><title>Node12&#45;&gt;Node14</title>
<path fill="none" stroke="midnightblue" d="M464.627,-203.413C479.715,-193.046 500.007,-179.153 518,-167 525.096,-162.207 533.011,-156.924 539.609,-152.537"/>
<polygon fill="midnightblue" stroke="midnightblue" points="462.229,-200.815 455.973,-209.365 466.196,-206.582 462.229,-200.815"/>
</g>
<!-- Node16 -->
<g id="node35" class="node"><title>Node16</title>
<a xlink:href="kozos_8h.html#aa4c201474d0562849b57ee7bd9ccd364" target="_top" xlink:title="kz_sysdown">
<polygon fill="none" stroke="black" points="518.5,-285.5 518.5,-304.5 591.5,-304.5 591.5,-285.5 518.5,-285.5"/>
<text text-anchor="middle" x="555" y="-292.5" font-family="Helvetica,sans-Serif" font-size="10.00">kz_sysdown</text>
</a>
</g>
<!-- Node12&#45;&gt;Node16 -->
<g id="edge38" class="edge"><title>Node12&#45;&gt;Node16</title>
<path fill="none" stroke="midnightblue" d="M461.721,-235.151C476.712,-247.087 498.082,-263.386 518,-276 523.254,-279.327 529.15,-282.612 534.625,-285.491"/>
<polygon fill="midnightblue" stroke="midnightblue" points="463.676,-232.231 453.692,-228.688 459.287,-237.685 463.676,-232.231"/>
</g>
<!-- Node21 -->
<g id="node47" class="node"><title>Node21</title>
<a xlink:href="lib_8h.html#aa600a4b9613354c8112b41d02a80b5d0" target="_top" xlink:title="putxval">
<polygon fill="none" stroke="black" points="531,-247.5 531,-266.5 579,-266.5 579,-247.5 531,-247.5"/>
<text text-anchor="middle" x="555" y="-254.5" font-family="Helvetica,sans-Serif" font-size="10.00">putxval</text>
</a>
</g>
<!-- Node12&#45;&gt;Node21 -->
<g id="edge52" class="edge"><title>Node12&#45;&gt;Node21</title>
<path fill="none" stroke="midnightblue" d="M468.047,-227.837C487.022,-234.275 512.499,-242.919 530.781,-249.122"/>
<polygon fill="midnightblue" stroke="midnightblue" points="469.12,-224.506 458.526,-224.607 466.871,-231.134 469.12,-224.506"/>
</g>
<!-- Node22 -->
<g id="node51" class="node"><title>Node22</title>
<a xlink:href="kozos_8c.html#ad878125b5a334d151d787886f190ccf2" target="_top" xlink:title="softerr_intr">
<polygon fill="none" stroke="black" points="637,-361.5 637,-380.5 699,-380.5 699,-361.5 637,-361.5"/>
<text text-anchor="middle" x="668" y="-368.5" font-family="Helvetica,sans-Serif" font-size="10.00">softerr_intr</text>
</a>
</g>
<!-- Node12&#45;&gt;Node22 -->
<g id="edge58" class="edge"><title>Node12&#45;&gt;Node22</title>
<path fill="none" stroke="midnightblue" d="M447.077,-238.449C455.979,-268.323 477.436,-324.885 518,-352 553.555,-375.767 604.705,-376.88 636.877,-374.611"/>
<polygon fill="midnightblue" stroke="midnightblue" points="450.427,-237.435 444.353,-228.755 443.688,-239.329 450.427,-237.435"/>
</g>
<!-- Node23 -->
<g id="node55" class="node"><title>Node23</title>
<a xlink:href="kozos_8c.html#a4dd8e8425a1c0c5d866a9271d243cdef" target="_top" xlink:title="thread_exit">
<polygon fill="none" stroke="black" points="522,-323.5 522,-342.5 588,-342.5 588,-323.5 522,-323.5"/>
<text text-anchor="middle" x="555" y="-330.5" font-family="Helvetica,sans-Serif" font-size="10.00">thread_exit</text>
</a>
</g>
<!-- Node12&#45;&gt;Node23 -->
<g id="edge64" class="edge"><title>Node12&#45;&gt;Node23</title>
<path fill="none" stroke="midnightblue" d="M453.225,-237.177C466.65,-257.797 490.755,-291.475 518,-314 522.248,-317.512 527.25,-320.648 532.151,-323.311"/>
<polygon fill="midnightblue" stroke="midnightblue" points="456.157,-235.266 447.835,-228.709 450.252,-239.025 456.157,-235.266"/>
</g>
<!-- Node13&#45;&gt;Node5 -->
<g id="edge30" class="edge"><title>Node13&#45;&gt;Node5</title>
<path fill="none" stroke="midnightblue" d="M698.015,-206.332C701.492,-204.393 704.903,-202.272 708,-200 734.966,-180.22 760.364,-149.612 772.517,-133.96"/>
<polygon fill="midnightblue" stroke="midnightblue" points="696.143,-203.358 688.828,-211.023 699.326,-209.593 696.143,-203.358"/>
</g>
<!-- Node15 -->
<g id="node32" class="node"><title>Node15</title>
<a xlink:href="elf_8h.html#a58b7300af370cb019f7098d7446f640d" target="_top" xlink:title="elf_load">
<polygon fill="none" stroke="black" points="641.5,-133.5 641.5,-152.5 694.5,-152.5 694.5,-133.5 641.5,-133.5"/>
<text text-anchor="middle" x="668" y="-140.5" font-family="Helvetica,sans-Serif" font-size="10.00">elf_load</text>
</a>
</g>
<!-- Node14&#45;&gt;Node15 -->
<g id="edge34" class="edge"><title>Node14&#45;&gt;Node15</title>
<path fill="none" stroke="midnightblue" d="M594.843,-143C610.186,-143 627.402,-143 641.168,-143"/>
<polygon fill="midnightblue" stroke="midnightblue" points="594.585,-139.5 584.585,-143 594.585,-146.5 594.585,-139.5"/>
</g>
<!-- Node15&#45;&gt;Node5 -->
<g id="edge36" class="edge"><title>Node15&#45;&gt;Node5</title>
<path fill="none" stroke="midnightblue" d="M704.847,-136.864C723.802,-133.619 746.27,-129.774 761.671,-127.137"/>
<polygon fill="midnightblue" stroke="midnightblue" points="704.011,-133.456 694.745,-138.593 705.192,-140.356 704.011,-133.456"/>
</g>
<!-- Node17 -->
<g id="node37" class="node"><title>Node17</title>
<a xlink:href="kozos_8c.html#a63e3ec45b7bf0028e55f2b9ab1603306" target="_top" xlink:title="schedule">
<polygon fill="none" stroke="black" points="639,-285.5 639,-304.5 697,-304.5 697,-285.5 639,-285.5"/>
<text text-anchor="middle" x="668" y="-292.5" font-family="Helvetica,sans-Serif" font-size="10.00">schedule</text>
</a>
</g>
<!-- Node16&#45;&gt;Node17 -->
<g id="edge40" class="edge"><title>Node16&#45;&gt;Node17</title>
<path fill="none" stroke="midnightblue" d="M601.984,-295C614.441,-295 627.557,-295 638.721,-295"/>
<polygon fill="midnightblue" stroke="midnightblue" points="601.732,-291.5 591.732,-295 601.732,-298.5 601.732,-291.5"/>
</g>
<!-- Node18 -->
<g id="node39" class="node"><title>Node18</title>
<a xlink:href="kozos_8c.html#a064de18830e60998f8be0d67a0f2aabf" target="_top" xlink:title="thread_intr">
<polygon fill="none" stroke="black" points="749.5,-285.5 749.5,-304.5 812.5,-304.5 812.5,-285.5 749.5,-285.5"/>
<text text-anchor="middle" x="781" y="-292.5" font-family="Helvetica,sans-Serif" font-size="10.00">thread_intr</text>
</a>
</g>
<!-- Node17&#45;&gt;Node18 -->
<g id="edge42" class="edge"><title>Node17&#45;&gt;Node18</title>
<path fill="none" stroke="midnightblue" d="M707.152,-295C720.901,-295 736.229,-295 749.265,-295"/>
<polygon fill="midnightblue" stroke="midnightblue" points="707.01,-291.5 697.01,-295 707.01,-298.5 707.01,-291.5"/>
</g>
<!-- Node19 -->
<g id="node41" class="node"><title>Node19</title>
<a xlink:href="kozos_8c.html#a7f5d62b70099d281d35e0336463c49fc" target="_top" xlink:title="set interrupt handler ">
<polygon fill="none" stroke="black" points="865.5,-285.5 865.5,-304.5 908.5,-304.5 908.5,-285.5 865.5,-285.5"/>
<text text-anchor="middle" x="887" y="-292.5" font-family="Helvetica,sans-Serif" font-size="10.00">setintr</text>
</a>
</g>
<!-- Node18&#45;&gt;Node19 -->
<g id="edge44" class="edge"><title>Node18&#45;&gt;Node19</title>
<path fill="none" stroke="midnightblue" d="M822.965,-295C837.532,-295 853.311,-295 865.437,-295"/>
<polygon fill="midnightblue" stroke="midnightblue" points="822.641,-291.5 812.641,-295 822.641,-298.5 822.641,-291.5"/>
</g>
<!-- Node20 -->
<g id="node43" class="node"><title>Node20</title>
<a xlink:href="kozos_8h.html#a7078d5505c1e0c61af51bc66e5025685" target="_top" xlink:title="ライブラリ関数 ">
<polygon fill="none" stroke="black" points="967.5,-304.5 967.5,-323.5 1018.5,-323.5 1018.5,-304.5 967.5,-304.5"/>
<text text-anchor="middle" x="993" y="-311.5" font-family="Helvetica,sans-Serif" font-size="10.00">kz_start</text>
</a>
</g>
<!-- Node19&#45;&gt;Node20 -->
<g id="edge46" class="edge"><title>Node19&#45;&gt;Node20</title>
<path fill="none" stroke="midnightblue" d="M918.735,-300.615C934.283,-303.456 952.896,-306.856 967.471,-309.519"/>
<polygon fill="midnightblue" stroke="midnightblue" points="919.013,-297.108 908.547,-298.754 917.755,-303.994 919.013,-297.108"/>
</g>
<!-- Node20&#45;&gt;Node11 -->
<g id="edge48" class="edge"><title>Node20&#45;&gt;Node11</title>
<path fill="none" stroke="midnightblue" d="M1026.06,-300.462C1039.42,-294.824 1054.43,-288.485 1065.83,-283.673"/>
<polygon fill="midnightblue" stroke="midnightblue" points="1024.56,-297.297 1016.71,-304.411 1027.28,-303.746 1024.56,-297.297"/>
</g>
<!-- Node21&#45;&gt;Node5 -->
<g id="edge56" class="edge"><title>Node21&#45;&gt;Node5</title>
<path fill="none" stroke="midnightblue" d="M589.117,-260.624C621.867,-262.527 672.147,-260.775 708,-238 747.913,-212.646 769.667,-156.325 777.068,-133.693"/>
<polygon fill="midnightblue" stroke="midnightblue" points="589.367,-257.133 579.14,-259.899 588.86,-264.114 589.367,-257.133"/>
</g>
<!-- Node21&#45;&gt;Node13 -->
<g id="edge54" class="edge"><title>Node21&#45;&gt;Node13</title>
<path fill="none" stroke="midnightblue" d="M588.788,-245.775C607.86,-239.246 631.257,-231.236 647.466,-225.687"/>
<polygon fill="midnightblue" stroke="midnightblue" points="587.597,-242.484 579.269,-249.034 589.864,-249.106 587.597,-242.484"/>
</g>
<!-- Node22&#45;&gt;Node20 -->
<g id="edge60" class="edge"><title>Node22&#45;&gt;Node20</title>
<path fill="none" stroke="midnightblue" d="M709.201,-372.934C759.521,-374.233 847.866,-372.788 920,-352 941.594,-345.777 964.139,-332.625 978.123,-323.552"/>
<polygon fill="midnightblue" stroke="midnightblue" points="709.163,-369.431 699.06,-372.621 708.947,-376.428 709.163,-369.431"/>
</g>
<!-- Node23&#45;&gt;Node22 -->
<g id="edge74" class="edge"><title>Node23&#45;&gt;Node22</title>
<path fill="none" stroke="midnightblue" d="M593.891,-345.972C608.68,-351.034 625.329,-356.734 638.999,-361.414"/>
<polygon fill="midnightblue" stroke="midnightblue" points="594.605,-342.517 584.01,-342.589 592.337,-349.139 594.605,-342.517"/>
</g>
<!-- Node24 -->
<g id="node57" class="node"><title>Node24</title>
<a xlink:href="kozos_8c.html#acd68041208fa0120669ac78343a47dc0" target="_top" xlink:title="call_functions">
<polygon fill="none" stroke="black" points="629.5,-323.5 629.5,-342.5 706.5,-342.5 706.5,-323.5 629.5,-323.5"/>
<text text-anchor="middle" x="668" y="-330.5" font-family="Helvetica,sans-Serif" font-size="10.00">call_functions</text>
</a>
</g>
<!-- Node23&#45;&gt;Node24 -->
<g id="edge66" class="edge"><title>Node23&#45;&gt;Node24</title>
<path fill="none" stroke="midnightblue" d="M598.138,-333C608.445,-333 619.406,-333 629.481,-333"/>
<polygon fill="midnightblue" stroke="midnightblue" points="598.106,-329.5 588.106,-333 598.106,-336.5 598.106,-329.5"/>
</g>
<!-- Node25 -->
<g id="node59" class="node"><title>Node25</title>
<a xlink:href="kozos_8c.html#aef8f2fde0f7865d66b9a7daf0e2426e0" target="_top" xlink:title="syscall_proc">
<polygon fill="none" stroke="black" points="744.5,-323.5 744.5,-342.5 817.5,-342.5 817.5,-323.5 744.5,-323.5"/>
<text text-anchor="middle" x="781" y="-330.5" font-family="Helvetica,sans-Serif" font-size="10.00">syscall_proc</text>
</a>
</g>
<!-- Node24&#45;&gt;Node25 -->
<g id="edge68" class="edge"><title>Node24&#45;&gt;Node25</title>
<path fill="none" stroke="midnightblue" d="M716.823,-333C726.054,-333 735.574,-333 744.335,-333"/>
<polygon fill="midnightblue" stroke="midnightblue" points="716.58,-329.5 706.58,-333 716.58,-336.5 716.58,-329.5"/>
</g>
<!-- Node26 -->
<g id="node61" class="node"><title>Node26</title>
<a xlink:href="kozos_8c.html#a69f871c66a43d6f0a644c57def130160" target="_top" xlink:title="syscall_intr">
<polygon fill="none" stroke="black" points="854,-323.5 854,-342.5 920,-342.5 920,-323.5 854,-323.5"/>
<text text-anchor="middle" x="887" y="-330.5" font-family="Helvetica,sans-Serif" font-size="10.00">syscall_intr</text>
</a>
</g>
<!-- Node25&#45;&gt;Node26 -->
<g id="edge70" class="edge"><title>Node25&#45;&gt;Node26</title>
<path fill="none" stroke="midnightblue" d="M827.667,-333C836.476,-333 845.532,-333 853.802,-333"/>
<polygon fill="midnightblue" stroke="midnightblue" points="827.5,-329.5 817.5,-333 827.5,-336.5 827.5,-329.5"/>
</g>
<!-- Node26&#45;&gt;Node20 -->
<g id="edge72" class="edge"><title>Node26&#45;&gt;Node20</title>
<path fill="none" stroke="midnightblue" d="M930.021,-325.323C942.749,-322.998 956.306,-320.521 967.485,-318.479"/>
<polygon fill="midnightblue" stroke="midnightblue" points="929.26,-321.904 920.052,-327.144 930.518,-328.79 929.26,-321.904"/>
</g>
</g>
</svg>
        <g id="navigator" transform="translate(0 0)" fill="#404254">
                <rect fill="#f2f5e9" fill-opacity="0.5" stroke="#606060" stroke-width=".5" x="0" y="0" width="60" height="60"/>
                <use id="zoomplus" xlink:href="#zoomPlus" x="17" y="9" onmousedown="handleZoom(evt,'in')"/>
                <use id="zoomminus" xlink:href="#zoomMin" x="42" y="9" onmousedown="handleZoom(evt,'out')"/>
                <use id="reset" xlink:href="#resetDef" x="30" y="36" onmousedown="handleReset()"/>
                <g id="arrowUp" xlink:href="#dirArrow" transform="translate(30 24)" onmousedown="handlePan(0,-1)">
                  <use xlink:href="#rim" fill="#404040">
                        <set attributeName="fill" to="#808080" begin="arrowUp.mouseover" end="arrowUp.mouseout"/>
                  </use>
                  <path fill="none" stroke="white" stroke-width="1.5" d="M0,-3.0v7 M-2.5,-0.5L0,-3.0L2.5,-0.5"/>
                </g>
                <g id="arrowRight" xlink:href="#dirArrow" transform="rotate(90) translate(36 -43)" onmousedown="handlePan(1,0)">
                  <use xlink:href="#rim" fill="#404040">
                        <set attributeName="fill" to="#808080" begin="arrowRight.mouseover" end="arrowRight.mouseout"/>
                  </use>
                  <path fill="none" stroke="white" stroke-width="1.5" d="M0,-3.0v7 M-2.5,-0.5L0,-3.0L2.5,-0.5"/>
                </g>
                <g id="arrowDown" xlink:href="#dirArrow" transform="rotate(180) translate(-30 -48)" onmousedown="handlePan(0,1)">
                  <use xlink:href="#rim" fill="#404040">
                        <set attributeName="fill" to="#808080" begin="arrowDown.mouseover" end="arrowDown.mouseout"/>
                  </use>
                  <path fill="none" stroke="white" stroke-width="1.5" d="M0,-3.0v7 M-2.5,-0.5L0,-3.0L2.5,-0.5"/>
                </g>
                <g id="arrowLeft" xlink:href="#dirArrow" transform="rotate(270) translate(-36 17)" onmousedown="handlePan(-1,0)">
                  <use xlink:href="#rim" fill="#404040">
                        <set attributeName="fill" to="#808080" begin="arrowLeft.mouseover" end="arrowLeft.mouseout"/>
                  </use>
                  <path fill="none" stroke="white" stroke-width="1.5" d="M0,-3.0v7 M-2.5,-0.5L0,-3.0L2.5,-0.5"/>
                </g>
        </g>
        <svg viewBox="0 0 15 15" width="100%" height="30px" preserveAspectRatio="xMaxYMin meet">
         <g id="arrow_out" transform="scale(0.3 0.3)">
          <a xlink:href="serial_8h_abf48ded30f8aa6fff8cb48dce0af0590_icgraph_org.svg" target="_base">
           <rect id="button" ry="5" rx="5" y="6" x="6" height="38" width="38"
                fill="#f2f5e9" fill-opacity="0.5" stroke="#606060" stroke-width="1.0"/>
           <path id="arrow"
             d="M 11.500037,31.436501 C 11.940474,20.09759 22.043105,11.32322 32.158766,21.979434 L 37.068811,17.246167 C 37.068811,17.246167 37.088388,32 37.088388,32 L 22.160133,31.978069 C 22.160133,31.978069 26.997745,27.140456 26.997745,27.140456 C 18.528582,18.264221 13.291696,25.230495 11.500037,31.436501 z"
             style="fill:#404040;"/>
          </a>
         </g>
        </svg>
</svg>
