<?xml version="1.0" encoding="UTF-8" standalone="no"?>
<!DOCTYPE svg PUBLIC "-//W3C//DTD SVG 1.1//EN"
 "http://www.w3.org/Graphics/SVG/1.1/DTD/svg11.dtd">
<!-- Generated by graphviz version 2.28.0 (20130928.0220)
 -->
<!-- Title: serial_is_recv_enable Pages: 1 -->
<svg width="816pt" height="123pt"
 viewBox="0.00 0.00 816.00 123.00" xmlns="http://www.w3.org/2000/svg" xmlns:xlink="http://www.w3.org/1999/xlink">
<g id="graph1" class="graph" transform="scale(1 1) rotate(0) translate(4 119)">
<title>serial_is_recv_enable</title>
<!-- Node1 -->
<g id="node1" class="node"><title>Node1</title>
<polygon fill="#bfbfbf" stroke="black" points="0.5,-23.5 0.5,-42.5 115.5,-42.5 115.5,-23.5 0.5,-23.5"/>
<text text-anchor="middle" x="58" y="-30.5" font-family="Helvetica,sans-Serif" font-size="10.00">serial_is_recv_enable</text>
</g>
<!-- Node2 -->
<g id="node3" class="node"><title>Node2</title>
<a xlink:href="serial_8h.html#ab041beadc1139b4c1b12e30e5c21a383" target="_top" xlink:title="serial_recv_byte">
<polygon fill="none" stroke="black" points="152,-47.5 152,-66.5 242,-66.5 242,-47.5 152,-47.5"/>
<text text-anchor="middle" x="197" y="-54.5" font-family="Helvetica,sans-Serif" font-size="10.00">serial_recv_byte</text>
</a>
</g>
<!-- Node1&#45;&gt;Node2 -->
<g id="edge2" class="edge"><title>Node1&#45;&gt;Node2</title>
<path fill="none" stroke="midnightblue" d="M123.452,-44.2909C133.032,-45.969 142.717,-47.6657 151.755,-49.2491"/>
<polygon fill="midnightblue" stroke="midnightblue" points="123.994,-40.8325 113.54,-42.5544 122.786,-47.7275 123.994,-40.8325"/>
</g>
<!-- Node11 -->
<g id="node23" class="node"><title>Node11</title>
<a xlink:href="xmodem_8c.html#ab4c69c95abc670bdcd0211e0b502691e" target="_top" xlink:title="xmodem_wait">
<polygon fill="none" stroke="black" points="157,-0.5 157,-19.5 237,-19.5 237,-0.5 157,-0.5"/>
<text text-anchor="middle" x="197" y="-7.5" font-family="Helvetica,sans-Serif" font-size="10.00">xmodem_wait</text>
</a>
</g>
<!-- Node1&#45;&gt;Node11 -->
<g id="edge24" class="edge"><title>Node1&#45;&gt;Node11</title>
<path fill="none" stroke="midnightblue" d="M125.667,-21.8077C136.311,-20.0208 147.014,-18.2239 156.747,-16.5899"/>
<polygon fill="midnightblue" stroke="midnightblue" points="124.797,-18.4048 115.514,-23.5122 125.956,-25.3082 124.797,-18.4048"/>
</g>
<!-- Node3 -->
<g id="node5" class="node"><title>Node3</title>
<a xlink:href="xmodem_8c.html#a9bf979d7fd9f1e648f2df737556870dd" target="_top" xlink:title="xmodem_read_block">
<polygon fill="none" stroke="black" points="278,-57.5 278,-76.5 390,-76.5 390,-57.5 278,-57.5"/>
<text text-anchor="middle" x="334" y="-64.5" font-family="Helvetica,sans-Serif" font-size="10.00">xmodem_read_block</text>
</a>
</g>
<!-- Node2&#45;&gt;Node3 -->
<g id="edge4" class="edge"><title>Node2&#45;&gt;Node3</title>
<path fill="none" stroke="midnightblue" d="M252.289,-61.0214C260.703,-61.6446 269.402,-62.289 277.835,-62.9137"/>
<polygon fill="midnightblue" stroke="midnightblue" points="252.435,-57.5227 242.204,-60.2744 251.918,-64.5036 252.435,-57.5227"/>
</g>
<!-- Node4 -->
<g id="node7" class="node"><title>Node4</title>
<a xlink:href="xmodem_8h.html#abe91c5bfd131f00e3485727decb0faca" target="_top" xlink:title="xmodem_recv">
<polygon fill="none" stroke="black" points="426.5,-24.5 426.5,-43.5 507.5,-43.5 507.5,-24.5 426.5,-24.5"/>
<text text-anchor="middle" x="467" y="-31.5" font-family="Helvetica,sans-Serif" font-size="10.00">xmodem_recv</text>
</a>
</g>
<!-- Node2&#45;&gt;Node4 -->
<g id="edge10" class="edge"><title>Node2&#45;&gt;Node4</title>
<path fill="none" stroke="midnightblue" d="M252.342,-50.6075C260.921,-49.6788 269.698,-48.7758 278,-48 329.162,-43.2189 388.28,-39.0365 426.353,-36.5167"/>
<polygon fill="midnightblue" stroke="midnightblue" points="251.957,-47.1286 242.401,-51.7035 252.724,-54.0865 251.957,-47.1286"/>
</g>
<!-- Node6 -->
<g id="node12" class="node"><title>Node6</title>
<a xlink:href="lib_8h.html#ae0ca7622f88a0818572688d85919e6fe" target="_top" xlink:title="getc">
<polygon fill="none" stroke="black" points="316,-95.5 316,-114.5 352,-114.5 352,-95.5 316,-95.5"/>
<text text-anchor="middle" x="334" y="-102.5" font-family="Helvetica,sans-Serif" font-size="10.00">getc</text>
</a>
</g>
<!-- Node2&#45;&gt;Node6 -->
<g id="edge12" class="edge"><title>Node2&#45;&gt;Node6</title>
<path fill="none" stroke="midnightblue" d="M233.558,-70.0203C247.411,-75.0587 263.431,-80.8434 278,-86 290.571,-90.4495 304.801,-95.362 315.637,-99.077"/>
<polygon fill="midnightblue" stroke="midnightblue" points="234.499,-66.6383 223.905,-66.503 232.103,-73.2152 234.499,-66.6383"/>
</g>
<!-- Node3&#45;&gt;Node4 -->
<g id="edge6" class="edge"><title>Node3&#45;&gt;Node4</title>
<path fill="none" stroke="midnightblue" d="M382.96,-54.9185C397.867,-51.1634 414.082,-47.0786 428.195,-43.5235"/>
<polygon fill="midnightblue" stroke="midnightblue" points="381.733,-51.6182 372.891,-57.455 383.443,-58.4062 381.733,-51.6182"/>
</g>
<!-- Node5 -->
<g id="node9" class="node"><title>Node5</title>
<a xlink:href="bootload_2main_8c.html#a840291bc02cba5474a4cb46a9b9566fe" target="_top" xlink:title="main">
<polygon fill="none" stroke="black" points="565,-33.5 565,-52.5 603,-52.5 603,-33.5 565,-33.5"/>
<text text-anchor="middle" x="584" y="-40.5" font-family="Helvetica,sans-Serif" font-size="10.00">main</text>
</a>
</g>
<!-- Node4&#45;&gt;Node5 -->
<g id="edge8" class="edge"><title>Node4&#45;&gt;Node5</title>
<path fill="none" stroke="midnightblue" d="M517.845,-37.9009C534.604,-39.2125 552.247,-40.5932 564.94,-41.5866"/>
<polygon fill="midnightblue" stroke="midnightblue" points="517.819,-34.3883 507.576,-37.0973 517.273,-41.3669 517.819,-34.3883"/>
</g>
<!-- Node7 -->
<g id="node14" class="node"><title>Node7</title>
<a xlink:href="lib_8h.html#ac414099aa125e8638ec89b7593865b12" target="_top" xlink:title="gets">
<polygon fill="none" stroke="black" points="449,-90.5 449,-109.5 485,-109.5 485,-90.5 449,-90.5"/>
<text text-anchor="middle" x="467" y="-97.5" font-family="Helvetica,sans-Serif" font-size="10.00">gets</text>
</a>
</g>
<!-- Node6&#45;&gt;Node7 -->
<g id="edge14" class="edge"><title>Node6&#45;&gt;Node7</title>
<path fill="none" stroke="midnightblue" d="M362.461,-103.952C388.53,-102.957 426.9,-101.492 448.87,-100.654"/>
<polygon fill="midnightblue" stroke="midnightblue" points="361.985,-100.467 352.126,-104.346 362.252,-107.462 361.985,-100.467"/>
</g>
<!-- Node7&#45;&gt;Node5 -->
<g id="edge16" class="edge"><title>Node7&#45;&gt;Node5</title>
<path fill="none" stroke="midnightblue" d="M494.452,-86.8892C516.071,-76.1733 546.056,-61.3114 564.99,-51.9268"/>
<polygon fill="midnightblue" stroke="midnightblue" points="492.871,-83.766 485.466,-91.3429 495.98,-90.0379 492.871,-83.766"/>
</g>
<!-- Node8 -->
<g id="node17" class="node"><title>Node8</title>
<a xlink:href="test08__1_8c.html#a365da73ee00836b826de141b6d662a78" target="_top" xlink:title="ユーザースレッド ">
<polygon fill="none" stroke="black" points="544,-90.5 544,-109.5 624,-109.5 624,-90.5 544,-90.5"/>
<text text-anchor="middle" x="584" y="-97.5" font-family="Helvetica,sans-Serif" font-size="10.00">test08_1_main</text>
</a>
</g>
<!-- Node7&#45;&gt;Node8 -->
<g id="edge18" class="edge"><title>Node7&#45;&gt;Node8</title>
<path fill="none" stroke="midnightblue" d="M495.742,-100C510.181,-100 528.075,-100 543.893,-100"/>
<polygon fill="midnightblue" stroke="midnightblue" points="495.466,-96.5001 485.466,-100 495.466,-103.5 495.466,-96.5001"/>
</g>
<!-- Node9 -->
<g id="node19" class="node"><title>Node9</title>
<a xlink:href="os_2main_8c.html#aabc6304dfeadad471d074b11c6e057dd" target="_top" xlink:title="start_threads">
<polygon fill="none" stroke="black" points="660,-90.5 660,-109.5 734,-109.5 734,-90.5 660,-90.5"/>
<text text-anchor="middle" x="697" y="-97.5" font-family="Helvetica,sans-Serif" font-size="10.00">start_threads</text>
</a>
</g>
<!-- Node8&#45;&gt;Node9 -->
<g id="edge20" class="edge"><title>Node8&#45;&gt;Node9</title>
<path fill="none" stroke="midnightblue" d="M634.41,-100C642.958,-100 651.702,-100 659.816,-100"/>
<polygon fill="midnightblue" stroke="midnightblue" points="634.134,-96.5001 624.134,-100 634.134,-103.5 634.134,-96.5001"/>
</g>
<!-- Node10 -->
<g id="node21" class="node"><title>Node10</title>
<a xlink:href="os_2main_8c.html#a840291bc02cba5474a4cb46a9b9566fe" target="_top" xlink:title="main">
<polygon fill="none" stroke="black" points="770,-90.5 770,-109.5 808,-109.5 808,-90.5 770,-90.5"/>
<text text-anchor="middle" x="789" y="-97.5" font-family="Helvetica,sans-Serif" font-size="10.00">main</text>
</a>
</g>
<!-- Node9&#45;&gt;Node10 -->
<g id="edge22" class="edge"><title>Node9&#45;&gt;Node10</title>
<path fill="none" stroke="midnightblue" d="M744.326,-100C753.437,-100 762.476,-100 769.946,-100"/>
<polygon fill="midnightblue" stroke="midnightblue" points="744.088,-96.5001 734.088,-100 744.088,-103.5 744.088,-96.5001"/>
</g>
<!-- Node11&#45;&gt;Node4 -->
<g id="edge26" class="edge"><title>Node11&#45;&gt;Node4</title>
<path fill="none" stroke="midnightblue" d="M247.48,-14.431C298.978,-19.0428 378.621,-26.175 426.201,-30.4359"/>
<polygon fill="midnightblue" stroke="midnightblue" points="247.529,-10.9215 237.257,-13.5155 246.904,-17.8936 247.529,-10.9215"/>
</g>
</g>
</svg>
