<?xml version="1.0" encoding="UTF-8" standalone="no"?>
<!DOCTYPE svg PUBLIC "-//W3C//DTD SVG 1.1//EN"
 "http://www.w3.org/Graphics/SVG/1.1/DTD/svg11.dtd">
<!-- Generated by graphviz version 2.28.0 (20130928.0220)
 -->
<!-- Title: serial_recv_byte Pages: 1 -->
<!--zoomable 79 -->
<svg id="main" version="1.1" xmlns="http://www.w3.org/2000/svg" xmlns:xlink="http://www.w3.org/1999/xlink" xml:space="preserve" onload="init(evt)">
<style type="text/css"><![CDATA[
.edge:hover path { stroke: red; }
.edge:hover polygon { stroke: red; fill: red; }
]]></style>
<script type="text/javascript"><![CDATA[
var edges = document.getElementsByTagName('g');
if (edges && edges.length) {
  for (var i=0;i<edges.length;i++) {
    if (edges[i].id.substr(0,4)=='edge') {
      edges[i].setAttribute('class','edge');
    }
  }
}
]]></script>
        <defs>
                <circle id="rim" cx="0" cy="0" r="7"/>
                <circle id="rim2" cx="0" cy="0" r="3.5"/>
                <g id="zoomPlus">
                        <use xlink:href="#rim" fill="#404040">
                                <set attributeName="fill" to="#808080" begin="zoomplus.mouseover" end="zoomplus.mouseout"/>
                        </use>
                        <path d="M-4,0h8M0,-4v8" fill="none" stroke="white" stroke-width="1.5" pointer-events="none"/>
                </g>
                <g id="zoomMin">
                        <use xlink:href="#rim" fill="#404040">
                                <set attributeName="fill" to="#808080" begin="zoomminus.mouseover" end="zoomminus.mouseout"/>
                        </use>
                        <path d="M-4,0h8" fill="none" stroke="white" stroke-width="1.5" pointer-events="none"/>
                </g>
                <g id="dirArrow">
                        <path fill="none" stroke="white" stroke-width="1.5" d="M0,-3.0v7 M-2.5,-0.5L0,-3.0L2.5,-0.5"/>
                </g>
               <g id="resetDef">
                       <use xlink:href="#rim2" fill="#404040">
                               <set attributeName="fill" to="#808080" begin="reset.mouseover" end="reset.mouseout"/>
                       </use>
               </g>
        </defs>

<script type="text/javascript">
var viewWidth = 664;
var viewHeight = 79;
var sectionId = 'dynsection-4';
</script>
<script xlink:href="svgpan.js"/>
<svg id="graph" class="graph">
<g id="viewport">
<title>serial_recv_byte</title>
<!-- Node1 -->
<g id="node1" class="node"><title>Node1</title>
<polygon fill="#bfbfbf" stroke="black" points="0,-13.9886 0,-32.9886 90,-32.9886 90,-13.9886 0,-13.9886"/>
<text text-anchor="middle" x="45" y="-20.9886" font-family="Helvetica,sans-Serif" font-size="10.00">serial_recv_byte</text>
</g>
<!-- Node2 -->
<g id="node3" class="node"><title>Node2</title>
<a xlink:href="lib_8h.html#ae0ca7622f88a0818572688d85919e6fe" target="_top" xlink:title="getc">
<polygon fill="none" stroke="black" points="164,-51.9886 164,-70.9886 200,-70.9886 200,-51.9886 164,-51.9886"/>
<text text-anchor="middle" x="182" y="-58.9886" font-family="Helvetica,sans-Serif" font-size="10.00">getc</text>
</a>
</g>
<!-- Node1&#45;&gt;Node2 -->
<g id="edge2" class="edge"><title>Node1&#45;&gt;Node2</title>
<path fill="none" stroke="midnightblue" d="M89.8036,-35.8185C115.025,-42.9179 145.302,-51.4402 163.842,-56.659"/>
<polygon fill="midnightblue" stroke="midnightblue" points="90.6405,-32.4181 80.0662,-33.0776 88.7438,-39.1563 90.6405,-32.4181"/>
</g>
<!-- Node8 -->
<g id="node15" class="node"><title>Node8</title>
<a xlink:href="xmodem_8c.html#a9bf979d7fd9f1e648f2df737556870dd" target="_top" xlink:title="xmodem_read_block">
<polygon fill="none" stroke="black" points="126,-13.9886 126,-32.9886 238,-32.9886 238,-13.9886 126,-13.9886"/>
<text text-anchor="middle" x="182" y="-20.9886" font-family="Helvetica,sans-Serif" font-size="10.00">xmodem_read_block</text>
</a>
</g>
<!-- Node1&#45;&gt;Node8 -->
<g id="edge14" class="edge"><title>Node1&#45;&gt;Node8</title>
<path fill="none" stroke="midnightblue" d="M100.289,-23.4886C108.703,-23.4886 117.402,-23.4886 125.835,-23.4886"/>
<polygon fill="midnightblue" stroke="midnightblue" points="100.204,-19.9887 90.204,-23.4886 100.204,-26.9887 100.204,-19.9887"/>
</g>
<!-- Node9 -->
<g id="node17" class="node"><title>Node9</title>
<a xlink:href="xmodem_8h.html#abe91c5bfd131f00e3485727decb0faca" target="_top" xlink:title="xmodem_recv">
<polygon fill="none" stroke="black" points="274.5,-13.9886 274.5,-32.9886 355.5,-32.9886 355.5,-13.9886 274.5,-13.9886"/>
<text text-anchor="middle" x="315" y="-20.9886" font-family="Helvetica,sans-Serif" font-size="10.00">xmodem_recv</text>
</a>
</g>
<!-- Node1&#45;&gt;Node9 -->
<g id="edge20" class="edge"><title>Node1&#45;&gt;Node9</title>
<path fill="none" stroke="midnightblue" d="M88.2268,-11.5188C100.323,-8.62104 113.594,-5.94162 126,-4.48862 175.44,1.30183 188.595,1.59339 238,-4.48862 253.118,-6.34978 269.555,-10.2191 283.263,-13.9833"/>
<polygon fill="midnightblue" stroke="midnightblue" points="87.2382,-8.15816 78.3876,-13.982 88.9383,-14.9486 87.2382,-8.15816"/>
</g>
<!-- Node3 -->
<g id="node5" class="node"><title>Node3</title>
<a xlink:href="lib_8h.html#ac414099aa125e8638ec89b7593865b12" target="_top" xlink:title="gets">
<polygon fill="none" stroke="black" points="297,-51.9886 297,-70.9886 333,-70.9886 333,-51.9886 297,-51.9886"/>
<text text-anchor="middle" x="315" y="-58.9886" font-family="Helvetica,sans-Serif" font-size="10.00">gets</text>
</a>
</g>
<!-- Node2&#45;&gt;Node3 -->
<g id="edge4" class="edge"><title>Node2&#45;&gt;Node3</title>
<path fill="none" stroke="midnightblue" d="M210.461,-61.4886C236.53,-61.4886 274.9,-61.4886 296.87,-61.4886"/>
<polygon fill="midnightblue" stroke="midnightblue" points="210.126,-57.9887 200.126,-61.4886 210.126,-64.9887 210.126,-57.9887"/>
</g>
<!-- Node4 -->
<g id="node7" class="node"><title>Node4</title>
<a xlink:href="bootload_2main_8c.html#a840291bc02cba5474a4cb46a9b9566fe" target="_top" xlink:title="main">
<polygon fill="none" stroke="black" points="413,-13.9886 413,-32.9886 451,-32.9886 451,-13.9886 413,-13.9886"/>
<text text-anchor="middle" x="432" y="-20.9886" font-family="Helvetica,sans-Serif" font-size="10.00">main</text>
</a>
</g>
<!-- Node3&#45;&gt;Node4 -->
<g id="edge6" class="edge"><title>Node3&#45;&gt;Node4</title>
<path fill="none" stroke="midnightblue" d="M343.035,-52.5552C364.608,-45.4267 394.226,-35.6401 412.99,-29.4398"/>
<polygon fill="midnightblue" stroke="midnightblue" points="341.863,-49.2564 333.466,-55.7172 344.059,-55.9029 341.863,-49.2564"/>
</g>
<!-- Node5 -->
<g id="node9" class="node"><title>Node5</title>
<a xlink:href="test08__1_8c.html#a365da73ee00836b826de141b6d662a78" target="_top" xlink:title="ユーザースレッド ">
<polygon fill="none" stroke="black" points="392,-51.9886 392,-70.9886 472,-70.9886 472,-51.9886 392,-51.9886"/>
<text text-anchor="middle" x="432" y="-58.9886" font-family="Helvetica,sans-Serif" font-size="10.00">test08_1_main</text>
</a>
</g>
<!-- Node3&#45;&gt;Node5 -->
<g id="edge8" class="edge"><title>Node3&#45;&gt;Node5</title>
<path fill="none" stroke="midnightblue" d="M343.742,-61.4886C358.181,-61.4886 376.075,-61.4886 391.893,-61.4886"/>
<polygon fill="midnightblue" stroke="midnightblue" points="343.466,-57.9887 333.466,-61.4886 343.466,-64.9887 343.466,-57.9887"/>
</g>
<!-- Node6 -->
<g id="node11" class="node"><title>Node6</title>
<a xlink:href="os_2main_8c.html#aabc6304dfeadad471d074b11c6e057dd" target="_top" xlink:title="start_threads">
<polygon fill="none" stroke="black" points="508,-51.9886 508,-70.9886 582,-70.9886 582,-51.9886 508,-51.9886"/>
<text text-anchor="middle" x="545" y="-58.9886" font-family="Helvetica,sans-Serif" font-size="10.00">start_threads</text>
</a>
</g>
<!-- Node5&#45;&gt;Node6 -->
<g id="edge10" class="edge"><title>Node5&#45;&gt;Node6</title>
<path fill="none" stroke="midnightblue" d="M482.41,-61.4886C490.958,-61.4886 499.702,-61.4886 507.816,-61.4886"/>
<polygon fill="midnightblue" stroke="midnightblue" points="482.134,-57.9887 472.134,-61.4886 482.134,-64.9887 482.134,-57.9887"/>
</g>
<!-- Node7 -->
<g id="node13" class="node"><title>Node7</title>
<a xlink:href="os_2main_8c.html#a840291bc02cba5474a4cb46a9b9566fe" target="_top" xlink:title="main">
<polygon fill="none" stroke="black" points="618,-51.9886 618,-70.9886 656,-70.9886 656,-51.9886 618,-51.9886"/>
<text text-anchor="middle" x="637" y="-58.9886" font-family="Helvetica,sans-Serif" font-size="10.00">main</text>
</a>
</g>
<!-- Node6&#45;&gt;Node7 -->
<g id="edge12" class="edge"><title>Node6&#45;&gt;Node7</title>
<path fill="none" stroke="midnightblue" d="M592.326,-61.4886C601.437,-61.4886 610.476,-61.4886 617.946,-61.4886"/>
<polygon fill="midnightblue" stroke="midnightblue" points="592.088,-57.9887 582.088,-61.4886 592.088,-64.9887 592.088,-57.9887"/>
</g>
<!-- Node8&#45;&gt;Node9 -->
<g id="edge16" class="edge"><title>Node8&#45;&gt;Node9</title>
<path fill="none" stroke="midnightblue" d="M248.231,-23.4886C257.17,-23.4886 266.116,-23.4886 274.403,-23.4886"/>
<polygon fill="midnightblue" stroke="midnightblue" points="248.176,-19.9887 238.176,-23.4886 248.176,-26.9887 248.176,-19.9887"/>
</g>
<!-- Node9&#45;&gt;Node4 -->
<g id="edge18" class="edge"><title>Node9&#45;&gt;Node4</title>
<path fill="none" stroke="midnightblue" d="M365.845,-23.4886C382.604,-23.4886 400.247,-23.4886 412.94,-23.4886"/>
<polygon fill="midnightblue" stroke="midnightblue" points="365.577,-19.9887 355.576,-23.4886 365.576,-26.9887 365.577,-19.9887"/>
</g>
</g>
</svg>
        <g id="navigator" transform="translate(0 0)" fill="#404254">
                <rect fill="#f2f5e9" fill-opacity="0.5" stroke="#606060" stroke-width=".5" x="0" y="0" width="60" height="60"/>
                <use id="zoomplus" xlink:href="#zoomPlus" x="17" y="9" onmousedown="handleZoom(evt,'in')"/>
                <use id="zoomminus" xlink:href="#zoomMin" x="42" y="9" onmousedown="handleZoom(evt,'out')"/>
                <use id="reset" xlink:href="#resetDef" x="30" y="36" onmousedown="handleReset()"/>
                <g id="arrowUp" xlink:href="#dirArrow" transform="translate(30 24)" onmousedown="handlePan(0,-1)">
                  <use xlink:href="#rim" fill="#404040">
                        <set attributeName="fill" to="#808080" begin="arrowUp.mouseover" end="arrowUp.mouseout"/>
                  </use>
                  <path fill="none" stroke="white" stroke-width="1.5" d="M0,-3.0v7 M-2.5,-0.5L0,-3.0L2.5,-0.5"/>
                </g>
                <g id="arrowRight" xlink:href="#dirArrow" transform="rotate(90) translate(36 -43)" onmousedown="handlePan(1,0)">
                  <use xlink:href="#rim" fill="#404040">
                        <set attributeName="fill" to="#808080" begin="arrowRight.mouseover" end="arrowRight.mouseout"/>
                  </use>
                  <path fill="none" stroke="white" stroke-width="1.5" d="M0,-3.0v7 M-2.5,-0.5L0,-3.0L2.5,-0.5"/>
                </g>
                <g id="arrowDown" xlink:href="#dirArrow" transform="rotate(180) translate(-30 -48)" onmousedown="handlePan(0,1)">
                  <use xlink:href="#rim" fill="#404040">
                        <set attributeName="fill" to="#808080" begin="arrowDown.mouseover" end="arrowDown.mouseout"/>
                  </use>
                  <path fill="none" stroke="white" stroke-width="1.5" d="M0,-3.0v7 M-2.5,-0.5L0,-3.0L2.5,-0.5"/>
                </g>
                <g id="arrowLeft" xlink:href="#dirArrow" transform="rotate(270) translate(-36 17)" onmousedown="handlePan(-1,0)">
                  <use xlink:href="#rim" fill="#404040">
                        <set attributeName="fill" to="#808080" begin="arrowLeft.mouseover" end="arrowLeft.mouseout"/>
                  </use>
                  <path fill="none" stroke="white" stroke-width="1.5" d="M0,-3.0v7 M-2.5,-0.5L0,-3.0L2.5,-0.5"/>
                </g>
        </g>
        <svg viewBox="0 0 15 15" width="100%" height="30px" preserveAspectRatio="xMaxYMin meet">
         <g id="arrow_out" transform="scale(0.3 0.3)">
          <a xlink:href="serial_8c_ab041beadc1139b4c1b12e30e5c21a383_icgraph_org.svg" target="_base">
           <rect id="button" ry="5" rx="5" y="6" x="6" height="38" width="38"
                fill="#f2f5e9" fill-opacity="0.5" stroke="#606060" stroke-width="1.0"/>
           <path id="arrow"
             d="M 11.500037,31.436501 C 11.940474,20.09759 22.043105,11.32322 32.158766,21.979434 L 37.068811,17.246167 C 37.068811,17.246167 37.088388,32 37.088388,32 L 22.160133,31.978069 C 22.160133,31.978069 26.997745,27.140456 26.997745,27.140456 C 18.528582,18.264221 13.291696,25.230495 11.500037,31.436501 z"
             style="fill:#404040;"/>
          </a>
         </g>
        </svg>
</svg>
