<?xml version="1.0" encoding="UTF-8" standalone="no"?>
<!DOCTYPE svg PUBLIC "-//W3C//DTD SVG 1.1//EN"
 "http://www.w3.org/Graphics/SVG/1.1/DTD/svg11.dtd">
<!-- Generated by graphviz version 2.28.0 (20130928.0220)
 -->
<!-- Title: serial_send_byte Pages: 1 -->
<!--zoomable 389 -->
<svg id="main" version="1.1" xmlns="http://www.w3.org/2000/svg" xmlns:xlink="http://www.w3.org/1999/xlink" xml:space="preserve" onload="init(evt)">
<style type="text/css"><![CDATA[
.edge:hover path { stroke: red; }
.edge:hover polygon { stroke: red; fill: red; }
]]></style>
<script type="text/javascript"><![CDATA[
var edges = document.getElementsByTagName('g');
if (edges && edges.length) {
  for (var i=0;i<edges.length;i++) {
    if (edges[i].id.substr(0,4)=='edge') {
      edges[i].setAttribute('class','edge');
    }
  }
}
]]></script>
        <defs>
                <circle id="rim" cx="0" cy="0" r="7"/>
                <circle id="rim2" cx="0" cy="0" r="3.5"/>
                <g id="zoomPlus">
                        <use xlink:href="#rim" fill="#404040">
                                <set attributeName="fill" to="#808080" begin="zoomplus.mouseover" end="zoomplus.mouseout"/>
                        </use>
                        <path d="M-4,0h8M0,-4v8" fill="none" stroke="white" stroke-width="1.5" pointer-events="none"/>
                </g>
                <g id="zoomMin">
                        <use xlink:href="#rim" fill="#404040">
                                <set attributeName="fill" to="#808080" begin="zoomminus.mouseover" end="zoomminus.mouseout"/>
                        </use>
                        <path d="M-4,0h8" fill="none" stroke="white" stroke-width="1.5" pointer-events="none"/>
                </g>
                <g id="dirArrow">
                        <path fill="none" stroke="white" stroke-width="1.5" d="M0,-3.0v7 M-2.5,-0.5L0,-3.0L2.5,-0.5"/>
                </g>
               <g id="resetDef">
                       <use xlink:href="#rim2" fill="#404040">
                               <set attributeName="fill" to="#808080" begin="reset.mouseover" end="reset.mouseout"/>
                       </use>
               </g>
        </defs>

<script type="text/javascript">
var viewWidth = 958;
var viewHeight = 389;
var sectionId = 'dynsection-6';
</script>
<script xlink:href="svgpan.js"/>
<svg id="graph" class="graph">
<g id="viewport">
<title>serial_send_byte</title>
<!-- Node1 -->
<g id="node1" class="node"><title>Node1</title>
<polygon fill="#bfbfbf" stroke="black" points="0.5,-38.5 0.5,-57.5 93.5,-57.5 93.5,-38.5 0.5,-38.5"/>
<text text-anchor="middle" x="47" y="-45.5" font-family="Helvetica,sans-Serif" font-size="10.00">serial_send_byte</text>
</g>
<!-- Node2 -->
<g id="node3" class="node"><title>Node2</title>
<a xlink:href="lib_8h.html#acee36427208c7c321ab875217dca17c4" target="_top" xlink:title="putc">
<polygon fill="none" stroke="black" points="152.5,-76.5 152.5,-95.5 187.5,-95.5 187.5,-76.5 152.5,-76.5"/>
<text text-anchor="middle" x="170" y="-83.5" font-family="Helvetica,sans-Serif" font-size="10.00">putc</text>
</a>
</g>
<!-- Node1&#45;&gt;Node2 -->
<g id="edge2" class="edge"><title>Node1&#45;&gt;Node2</title>
<path fill="none" stroke="midnightblue" d="M88.2253,-60.6327C110.032,-67.4811 135.812,-75.5774 152.279,-80.7487"/>
<polygon fill="midnightblue" stroke="midnightblue" points="89.1227,-57.2461 78.5334,-57.589 87.0253,-63.9245 89.1227,-57.2461"/>
</g>
<!-- Node24 -->
<g id="node57" class="node"><title>Node24</title>
<a xlink:href="xmodem_8h.html#abe91c5bfd131f00e3485727decb0faca" target="_top" xlink:title="xmodem_recv">
<polygon fill="none" stroke="black" points="246.5,-19.5 246.5,-38.5 327.5,-38.5 327.5,-19.5 246.5,-19.5"/>
<text text-anchor="middle" x="287" y="-26.5" font-family="Helvetica,sans-Serif" font-size="10.00">xmodem_recv</text>
</a>
</g>
<!-- Node1&#45;&gt;Node24 -->
<g id="edge66" class="edge"><title>Node1&#45;&gt;Node24</title>
<path fill="none" stroke="midnightblue" d="M103.813,-43.5443C147.617,-40.0474 207.509,-35.2661 246.47,-32.1558"/>
<polygon fill="midnightblue" stroke="midnightblue" points="103.297,-40.0743 93.6072,-44.3591 103.854,-47.0521 103.297,-40.0743"/>
</g>
<!-- Node25 -->
<g id="node60" class="node"><title>Node25</title>
<a xlink:href="xmodem_8c.html#ab4c69c95abc670bdcd0211e0b502691e" target="_top" xlink:title="xmodem_wait">
<polygon fill="none" stroke="black" points="130,-0.5 130,-19.5 210,-19.5 210,-0.5 130,-0.5"/>
<text text-anchor="middle" x="170" y="-7.5" font-family="Helvetica,sans-Serif" font-size="10.00">xmodem_wait</text>
</a>
</g>
<!-- Node1&#45;&gt;Node25 -->
<g id="edge70" class="edge"><title>Node1&#45;&gt;Node25</title>
<path fill="none" stroke="midnightblue" d="M88.3771,-35.3196C104.726,-30.1852 123.288,-24.3559 138.476,-19.5859"/>
<polygon fill="midnightblue" stroke="midnightblue" points="87.0253,-32.0755 78.5334,-38.411 89.1227,-38.7539 87.0253,-32.0755"/>
</g>
<!-- Node3 -->
<g id="node5" class="node"><title>Node3</title>
<a xlink:href="lib_8h.html#ae0ca7622f88a0818572688d85919e6fe" target="_top" xlink:title="getc">
<polygon fill="none" stroke="black" points="269,-66.5 269,-85.5 305,-85.5 305,-66.5 269,-66.5"/>
<text text-anchor="middle" x="287" y="-73.5" font-family="Helvetica,sans-Serif" font-size="10.00">getc</text>
</a>
</g>
<!-- Node2&#45;&gt;Node3 -->
<g id="edge4" class="edge"><title>Node2&#45;&gt;Node3</title>
<path fill="none" stroke="midnightblue" d="M197.987,-83.6533C219.94,-81.7443 250.248,-79.1089 268.962,-77.4816"/>
<polygon fill="midnightblue" stroke="midnightblue" points="197.628,-80.1712 187.969,-84.5245 198.234,-87.1449 197.628,-80.1712"/>
</g>
<!-- Node9 -->
<g id="node17" class="node"><title>Node9</title>
<a xlink:href="lib_8h.html#a44ddf1a8f6a75ff235a733ff8d90cae3" target="_top" xlink:title="puts">
<polygon fill="none" stroke="black" points="269.5,-209.5 269.5,-228.5 304.5,-228.5 304.5,-209.5 269.5,-209.5"/>
<text text-anchor="middle" x="287" y="-216.5" font-family="Helvetica,sans-Serif" font-size="10.00">puts</text>
</a>
</g>
<!-- Node2&#45;&gt;Node9 -->
<g id="edge16" class="edge"><title>Node2&#45;&gt;Node9</title>
<path fill="none" stroke="midnightblue" d="M186.065,-103.423C210.535,-131.723 258.127,-186.765 277.494,-209.163"/>
<polygon fill="midnightblue" stroke="midnightblue" points="188.459,-100.84 179.271,-95.565 183.164,-105.419 188.459,-100.84"/>
</g>
<!-- Node4 -->
<g id="node7" class="node"><title>Node4</title>
<a xlink:href="lib_8h.html#ac414099aa125e8638ec89b7593865b12" target="_top" xlink:title="gets">
<polygon fill="none" stroke="black" points="383,-57.5 383,-76.5 419,-76.5 419,-57.5 383,-57.5"/>
<text text-anchor="middle" x="401" y="-64.5" font-family="Helvetica,sans-Serif" font-size="10.00">gets</text>
</a>
</g>
<!-- Node3&#45;&gt;Node4 -->
<g id="edge6" class="edge"><title>Node3&#45;&gt;Node4</title>
<path fill="none" stroke="midnightblue" d="M315.254,-73.8099C336.323,-72.1169 364.841,-69.8253 382.83,-68.3798"/>
<polygon fill="midnightblue" stroke="midnightblue" points="314.698,-70.3433 305.01,-74.6331 315.259,-77.3208 314.698,-70.3433"/>
</g>
<!-- Node5 -->
<g id="node9" class="node"><title>Node5</title>
<a xlink:href="bootload_2main_8c.html#a840291bc02cba5474a4cb46a9b9566fe" target="_top" xlink:title="main">
<polygon fill="none" stroke="black" points="608,-114.5 608,-133.5 646,-133.5 646,-114.5 608,-114.5"/>
<text text-anchor="middle" x="627" y="-121.5" font-family="Helvetica,sans-Serif" font-size="10.00">main</text>
</a>
</g>
<!-- Node4&#45;&gt;Node5 -->
<g id="edge8" class="edge"><title>Node4&#45;&gt;Node5</title>
<path fill="none" stroke="midnightblue" d="M429.195,-69.0414C460,-71.868 511.446,-78.1538 554,-91 573.482,-96.8813 594.503,-106.992 608.771,-114.476"/>
<polygon fill="midnightblue" stroke="midnightblue" points="429.472,-65.5524 419.209,-68.1808 428.871,-72.5265 429.472,-65.5524"/>
</g>
<!-- Node6 -->
<g id="node11" class="node"><title>Node6</title>
<a xlink:href="test08__1_8c.html#a365da73ee00836b826de141b6d662a78" target="_top" xlink:title="ユーザースレッド ">
<polygon fill="none" stroke="black" points="474,-171.5 474,-190.5 554,-190.5 554,-171.5 474,-171.5"/>
<text text-anchor="middle" x="514" y="-178.5" font-family="Helvetica,sans-Serif" font-size="10.00">test08_1_main</text>
</a>
</g>
<!-- Node4&#45;&gt;Node6 -->
<g id="edge10" class="edge"><title>Node4&#45;&gt;Node6</title>
<path fill="none" stroke="midnightblue" d="M412.268,-85.3296C424.665,-106.125 447.221,-139.997 474,-162 478.423,-165.634 483.657,-168.785 488.83,-171.419"/>
<polygon fill="midnightblue" stroke="midnightblue" points="415.21,-83.427 407.165,-76.5327 409.155,-86.9391 415.21,-83.427"/>
</g>
<!-- Node7 -->
<g id="node13" class="node"><title>Node7</title>
<a xlink:href="os_2main_8c.html#aabc6304dfeadad471d074b11c6e057dd" target="_top" xlink:title="start_threads">
<polygon fill="none" stroke="black" points="802,-228.5 802,-247.5 876,-247.5 876,-228.5 802,-228.5"/>
<text text-anchor="middle" x="839" y="-235.5" font-family="Helvetica,sans-Serif" font-size="10.00">start_threads</text>
</a>
</g>
<!-- Node6&#45;&gt;Node7 -->
<g id="edge12" class="edge"><title>Node6&#45;&gt;Node7</title>
<path fill="none" stroke="midnightblue" d="M564.363,-189.711C629.868,-201.271 743.979,-221.408 801.961,-231.64"/>
<polygon fill="midnightblue" stroke="midnightblue" points="564.739,-186.224 554.283,-187.932 563.523,-193.117 564.739,-186.224"/>
</g>
<!-- Node8 -->
<g id="node15" class="node"><title>Node8</title>
<a xlink:href="os_2main_8c.html#a840291bc02cba5474a4cb46a9b9566fe" target="_top" xlink:title="main">
<polygon fill="none" stroke="black" points="912,-266.5 912,-285.5 950,-285.5 950,-266.5 912,-266.5"/>
<text text-anchor="middle" x="931" y="-273.5" font-family="Helvetica,sans-Serif" font-size="10.00">main</text>
</a>
</g>
<!-- Node7&#45;&gt;Node8 -->
<g id="edge14" class="edge"><title>Node7&#45;&gt;Node8</title>
<path fill="none" stroke="midnightblue" d="M872.065,-251.538C885.417,-257.176 900.431,-263.515 911.828,-268.327"/>
<polygon fill="midnightblue" stroke="midnightblue" points="873.285,-248.254 862.711,-247.589 870.562,-254.703 873.285,-248.254"/>
</g>
<!-- Node9&#45;&gt;Node5 -->
<g id="edge40" class="edge"><title>Node9&#45;&gt;Node5</title>
<path fill="none" stroke="midnightblue" d="M296.506,-200.301C308.077,-177.42 331.166,-139.781 364,-124 447.428,-83.9022 563.777,-107.554 607.989,-118.941"/>
<polygon fill="midnightblue" stroke="midnightblue" points="293.323,-198.843 292.131,-209.37 299.628,-201.884 293.323,-198.843"/>
</g>
<!-- Node9&#45;&gt;Node6 -->
<g id="edge52" class="edge"><title>Node9&#45;&gt;Node6</title>
<path fill="none" stroke="midnightblue" d="M314.589,-211.534C329.1,-207.667 347.436,-203.115 364,-200 401.033,-193.035 443.731,-187.879 473.901,-184.709"/>
<polygon fill="midnightblue" stroke="midnightblue" points="313.511,-208.2 304.778,-214.198 315.346,-214.955 313.511,-208.2"/>
</g>
<!-- Node10 -->
<g id="node19" class="node"><title>Node10</title>
<a xlink:href="bootload_2main_8c.html#ad259a6e944deb3853bf6f2d7fa233c63" target="_top" xlink:title="メモリの16進ダンプ出力 ">
<polygon fill="none" stroke="black" points="493.5,-247.5 493.5,-266.5 534.5,-266.5 534.5,-247.5 493.5,-247.5"/>
<text text-anchor="middle" x="514" y="-254.5" font-family="Helvetica,sans-Serif" font-size="10.00">dump</text>
</a>
</g>
<!-- Node9&#45;&gt;Node10 -->
<g id="edge18" class="edge"><title>Node9&#45;&gt;Node10</title>
<path fill="none" stroke="midnightblue" d="M314.589,-226.466C329.1,-230.333 347.436,-234.885 364,-238 409.874,-246.628 464.443,-252.479 493.12,-255.219"/>
<polygon fill="midnightblue" stroke="midnightblue" points="315.346,-223.045 304.778,-223.802 313.511,-229.8 315.346,-223.045"/>
</g>
<!-- Node11 -->
<g id="node22" class="node"><title>Node11</title>
<a xlink:href="elf_8c.html#a6fe593c95dbcbfa1df84c139d4a0e6d6" target="_top" xlink:title="elf_check">
<polygon fill="none" stroke="black" points="371.5,-133.5 371.5,-152.5 430.5,-152.5 430.5,-133.5 371.5,-133.5"/>
<text text-anchor="middle" x="401" y="-140.5" font-family="Helvetica,sans-Serif" font-size="10.00">elf_check</text>
</a>
</g>
<!-- Node9&#45;&gt;Node11 -->
<g id="edge22" class="edge"><title>Node9&#45;&gt;Node11</title>
<path fill="none" stroke="midnightblue" d="M310.627,-203.413C325.715,-193.046 346.007,-179.153 364,-167 371.096,-162.207 379.011,-156.924 385.609,-152.537"/>
<polygon fill="midnightblue" stroke="midnightblue" points="308.229,-200.815 301.973,-209.365 312.196,-206.582 308.229,-200.815"/>
</g>
<!-- Node13 -->
<g id="node27" class="node"><title>Node13</title>
<a xlink:href="kozos_8h.html#aa4c201474d0562849b57ee7bd9ccd364" target="_top" xlink:title="kz_sysdown">
<polygon fill="none" stroke="black" points="364.5,-285.5 364.5,-304.5 437.5,-304.5 437.5,-285.5 364.5,-285.5"/>
<text text-anchor="middle" x="401" y="-292.5" font-family="Helvetica,sans-Serif" font-size="10.00">kz_sysdown</text>
</a>
</g>
<!-- Node9&#45;&gt;Node13 -->
<g id="edge28" class="edge"><title>Node9&#45;&gt;Node13</title>
<path fill="none" stroke="midnightblue" d="M310.627,-234.587C325.715,-244.954 346.007,-258.847 364,-271 371.096,-275.793 379.011,-281.076 385.609,-285.463"/>
<polygon fill="midnightblue" stroke="midnightblue" points="312.196,-231.418 301.973,-228.635 308.229,-237.185 312.196,-231.418"/>
</g>
<!-- Node18 -->
<g id="node39" class="node"><title>Node18</title>
<a xlink:href="lib_8h.html#aa600a4b9613354c8112b41d02a80b5d0" target="_top" xlink:title="putxval">
<polygon fill="none" stroke="black" points="377,-209.5 377,-228.5 425,-228.5 425,-209.5 377,-209.5"/>
<text text-anchor="middle" x="401" y="-216.5" font-family="Helvetica,sans-Serif" font-size="10.00">putxval</text>
</a>
</g>
<!-- Node9&#45;&gt;Node18 -->
<g id="edge42" class="edge"><title>Node9&#45;&gt;Node18</title>
<path fill="none" stroke="midnightblue" d="M314.574,-219C333.491,-219 358.667,-219 376.781,-219"/>
<polygon fill="midnightblue" stroke="midnightblue" points="314.526,-215.5 304.526,-219 314.526,-222.5 314.526,-215.5"/>
</g>
<!-- Node19 -->
<g id="node43" class="node"><title>Node19</title>
<a xlink:href="kozos_8c.html#ad878125b5a334d151d787886f190ccf2" target="_top" xlink:title="softerr_intr">
<polygon fill="none" stroke="black" points="483,-361.5 483,-380.5 545,-380.5 545,-361.5 483,-361.5"/>
<text text-anchor="middle" x="514" y="-368.5" font-family="Helvetica,sans-Serif" font-size="10.00">softerr_intr</text>
</a>
</g>
<!-- Node9&#45;&gt;Node19 -->
<g id="edge48" class="edge"><title>Node9&#45;&gt;Node19</title>
<path fill="none" stroke="midnightblue" d="M293.077,-238.449C301.979,-268.323 323.436,-324.885 364,-352 399.555,-375.767 450.705,-376.88 482.877,-374.611"/>
<polygon fill="midnightblue" stroke="midnightblue" points="296.427,-237.435 290.353,-228.755 289.688,-239.329 296.427,-237.435"/>
</g>
<!-- Node20 -->
<g id="node47" class="node"><title>Node20</title>
<a xlink:href="kozos_8c.html#a4dd8e8425a1c0c5d866a9271d243cdef" target="_top" xlink:title="thread_exit">
<polygon fill="none" stroke="black" points="368,-323.5 368,-342.5 434,-342.5 434,-323.5 368,-323.5"/>
<text text-anchor="middle" x="401" y="-330.5" font-family="Helvetica,sans-Serif" font-size="10.00">thread_exit</text>
</a>
</g>
<!-- Node9&#45;&gt;Node20 -->
<g id="edge54" class="edge"><title>Node9&#45;&gt;Node20</title>
<path fill="none" stroke="midnightblue" d="M299.225,-237.177C312.65,-257.797 336.755,-291.475 364,-314 368.248,-317.512 373.25,-320.648 378.151,-323.311"/>
<polygon fill="midnightblue" stroke="midnightblue" points="302.157,-235.266 293.835,-228.709 296.252,-239.025 302.157,-235.266"/>
</g>
<!-- Node10&#45;&gt;Node5 -->
<g id="edge20" class="edge"><title>Node10&#45;&gt;Node5</title>
<path fill="none" stroke="midnightblue" d="M542.995,-241.868C546.899,-239.175 550.698,-236.197 554,-233 586.095,-201.919 611.431,-154.126 621.404,-133.748"/>
<polygon fill="midnightblue" stroke="midnightblue" points="541.012,-238.981 534.434,-247.287 544.756,-244.896 541.012,-238.981"/>
</g>
<!-- Node12 -->
<g id="node24" class="node"><title>Node12</title>
<a xlink:href="elf_8h.html#a58b7300af370cb019f7098d7446f640d" target="_top" xlink:title="elf_load">
<polygon fill="none" stroke="black" points="487.5,-133.5 487.5,-152.5 540.5,-152.5 540.5,-133.5 487.5,-133.5"/>
<text text-anchor="middle" x="514" y="-140.5" font-family="Helvetica,sans-Serif" font-size="10.00">elf_load</text>
</a>
</g>
<!-- Node11&#45;&gt;Node12 -->
<g id="edge24" class="edge"><title>Node11&#45;&gt;Node12</title>
<path fill="none" stroke="midnightblue" d="M440.843,-143C456.186,-143 473.402,-143 487.168,-143"/>
<polygon fill="midnightblue" stroke="midnightblue" points="440.585,-139.5 430.585,-143 440.585,-146.5 440.585,-139.5"/>
</g>
<!-- Node12&#45;&gt;Node5 -->
<g id="edge26" class="edge"><title>Node12&#45;&gt;Node5</title>
<path fill="none" stroke="midnightblue" d="M550.847,-136.864C569.802,-133.619 592.27,-129.774 607.671,-127.137"/>
<polygon fill="midnightblue" stroke="midnightblue" points="550.011,-133.456 540.745,-138.593 551.192,-140.356 550.011,-133.456"/>
</g>
<!-- Node14 -->
<g id="node29" class="node"><title>Node14</title>
<a xlink:href="kozos_8c.html#a63e3ec45b7bf0028e55f2b9ab1603306" target="_top" xlink:title="schedule">
<polygon fill="none" stroke="black" points="485,-285.5 485,-304.5 543,-304.5 543,-285.5 485,-285.5"/>
<text text-anchor="middle" x="514" y="-292.5" font-family="Helvetica,sans-Serif" font-size="10.00">schedule</text>
</a>
</g>
<!-- Node13&#45;&gt;Node14 -->
<g id="edge30" class="edge"><title>Node13&#45;&gt;Node14</title>
<path fill="none" stroke="midnightblue" d="M447.984,-295C460.441,-295 473.557,-295 484.721,-295"/>
<polygon fill="midnightblue" stroke="midnightblue" points="447.732,-291.5 437.732,-295 447.732,-298.5 447.732,-291.5"/>
</g>
<!-- Node15 -->
<g id="node31" class="node"><title>Node15</title>
<a xlink:href="kozos_8c.html#a064de18830e60998f8be0d67a0f2aabf" target="_top" xlink:title="thread_intr">
<polygon fill="none" stroke="black" points="595.5,-285.5 595.5,-304.5 658.5,-304.5 658.5,-285.5 595.5,-285.5"/>
<text text-anchor="middle" x="627" y="-292.5" font-family="Helvetica,sans-Serif" font-size="10.00">thread_intr</text>
</a>
</g>
<!-- Node14&#45;&gt;Node15 -->
<g id="edge32" class="edge"><title>Node14&#45;&gt;Node15</title>
<path fill="none" stroke="midnightblue" d="M553.152,-295C566.901,-295 582.229,-295 595.265,-295"/>
<polygon fill="midnightblue" stroke="midnightblue" points="553.01,-291.5 543.01,-295 553.01,-298.5 553.01,-291.5"/>
</g>
<!-- Node16 -->
<g id="node33" class="node"><title>Node16</title>
<a xlink:href="kozos_8c.html#a7f5d62b70099d281d35e0336463c49fc" target="_top" xlink:title="set interrupt handler ">
<polygon fill="none" stroke="black" points="711.5,-285.5 711.5,-304.5 754.5,-304.5 754.5,-285.5 711.5,-285.5"/>
<text text-anchor="middle" x="733" y="-292.5" font-family="Helvetica,sans-Serif" font-size="10.00">setintr</text>
</a>
</g>
<!-- Node15&#45;&gt;Node16 -->
<g id="edge34" class="edge"><title>Node15&#45;&gt;Node16</title>
<path fill="none" stroke="midnightblue" d="M668.965,-295C683.532,-295 699.311,-295 711.437,-295"/>
<polygon fill="midnightblue" stroke="midnightblue" points="668.641,-291.5 658.641,-295 668.641,-298.5 668.641,-291.5"/>
</g>
<!-- Node17 -->
<g id="node35" class="node"><title>Node17</title>
<a xlink:href="kozos_8h.html#a7078d5505c1e0c61af51bc66e5025685" target="_top" xlink:title="ライブラリ関数 ">
<polygon fill="none" stroke="black" points="813.5,-304.5 813.5,-323.5 864.5,-323.5 864.5,-304.5 813.5,-304.5"/>
<text text-anchor="middle" x="839" y="-311.5" font-family="Helvetica,sans-Serif" font-size="10.00">kz_start</text>
</a>
</g>
<!-- Node16&#45;&gt;Node17 -->
<g id="edge36" class="edge"><title>Node16&#45;&gt;Node17</title>
<path fill="none" stroke="midnightblue" d="M764.735,-300.615C780.283,-303.456 798.896,-306.856 813.471,-309.519"/>
<polygon fill="midnightblue" stroke="midnightblue" points="765.013,-297.108 754.547,-298.754 763.755,-303.994 765.013,-297.108"/>
</g>
<!-- Node17&#45;&gt;Node8 -->
<g id="edge38" class="edge"><title>Node17&#45;&gt;Node8</title>
<path fill="none" stroke="midnightblue" d="M872.065,-300.462C885.417,-294.824 900.431,-288.485 911.828,-283.673"/>
<polygon fill="midnightblue" stroke="midnightblue" points="870.562,-297.297 862.711,-304.411 873.285,-303.746 870.562,-297.297"/>
</g>
<!-- Node18&#45;&gt;Node5 -->
<g id="edge46" class="edge"><title>Node18&#45;&gt;Node5</title>
<path fill="none" stroke="midnightblue" d="M435.211,-221.117C467.317,-221.765 516.477,-218.984 554,-200 584.652,-184.492 609.289,-150.458 620.085,-133.706"/>
<polygon fill="midnightblue" stroke="midnightblue" points="435.127,-217.612 425.018,-220.784 434.898,-224.609 435.127,-217.612"/>
</g>
<!-- Node18&#45;&gt;Node10 -->
<g id="edge44" class="edge"><title>Node18&#45;&gt;Node10</title>
<path fill="none" stroke="midnightblue" d="M434.788,-230.225C453.86,-236.754 477.257,-244.764 493.466,-250.313"/>
<polygon fill="midnightblue" stroke="midnightblue" points="435.864,-226.894 425.269,-226.966 433.597,-233.516 435.864,-226.894"/>
</g>
<!-- Node19&#45;&gt;Node17 -->
<g id="edge50" class="edge"><title>Node19&#45;&gt;Node17</title>
<path fill="none" stroke="midnightblue" d="M555.201,-372.934C605.521,-374.233 693.866,-372.788 766,-352 787.594,-345.777 810.139,-332.625 824.123,-323.552"/>
<polygon fill="midnightblue" stroke="midnightblue" points="555.163,-369.431 545.06,-372.621 554.947,-376.428 555.163,-369.431"/>
</g>
<!-- Node20&#45;&gt;Node19 -->
<g id="edge64" class="edge"><title>Node20&#45;&gt;Node19</title>
<path fill="none" stroke="midnightblue" d="M439.891,-345.972C454.68,-351.034 471.329,-356.734 484.999,-361.414"/>
<polygon fill="midnightblue" stroke="midnightblue" points="440.605,-342.517 430.01,-342.589 438.337,-349.139 440.605,-342.517"/>
</g>
<!-- Node21 -->
<g id="node49" class="node"><title>Node21</title>
<a xlink:href="kozos_8c.html#acd68041208fa0120669ac78343a47dc0" target="_top" xlink:title="call_functions">
<polygon fill="none" stroke="black" points="475.5,-323.5 475.5,-342.5 552.5,-342.5 552.5,-323.5 475.5,-323.5"/>
<text text-anchor="middle" x="514" y="-330.5" font-family="Helvetica,sans-Serif" font-size="10.00">call_functions</text>
</a>
</g>
<!-- Node20&#45;&gt;Node21 -->
<g id="edge56" class="edge"><title>Node20&#45;&gt;Node21</title>
<path fill="none" stroke="midnightblue" d="M444.138,-333C454.445,-333 465.406,-333 475.481,-333"/>
<polygon fill="midnightblue" stroke="midnightblue" points="444.106,-329.5 434.106,-333 444.106,-336.5 444.106,-329.5"/>
</g>
<!-- Node22 -->
<g id="node51" class="node"><title>Node22</title>
<a xlink:href="kozos_8c.html#aef8f2fde0f7865d66b9a7daf0e2426e0" target="_top" xlink:title="syscall_proc">
<polygon fill="none" stroke="black" points="590.5,-323.5 590.5,-342.5 663.5,-342.5 663.5,-323.5 590.5,-323.5"/>
<text text-anchor="middle" x="627" y="-330.5" font-family="Helvetica,sans-Serif" font-size="10.00">syscall_proc</text>
</a>
</g>
<!-- Node21&#45;&gt;Node22 -->
<g id="edge58" class="edge"><title>Node21&#45;&gt;Node22</title>
<path fill="none" stroke="midnightblue" d="M562.823,-333C572.054,-333 581.574,-333 590.335,-333"/>
<polygon fill="midnightblue" stroke="midnightblue" points="562.58,-329.5 552.58,-333 562.58,-336.5 562.58,-329.5"/>
</g>
<!-- Node23 -->
<g id="node53" class="node"><title>Node23</title>
<a xlink:href="kozos_8c.html#a69f871c66a43d6f0a644c57def130160" target="_top" xlink:title="syscall_intr">
<polygon fill="none" stroke="black" points="700,-323.5 700,-342.5 766,-342.5 766,-323.5 700,-323.5"/>
<text text-anchor="middle" x="733" y="-330.5" font-family="Helvetica,sans-Serif" font-size="10.00">syscall_intr</text>
</a>
</g>
<!-- Node22&#45;&gt;Node23 -->
<g id="edge60" class="edge"><title>Node22&#45;&gt;Node23</title>
<path fill="none" stroke="midnightblue" d="M673.667,-333C682.476,-333 691.532,-333 699.802,-333"/>
<polygon fill="midnightblue" stroke="midnightblue" points="673.5,-329.5 663.5,-333 673.5,-336.5 673.5,-329.5"/>
</g>
<!-- Node23&#45;&gt;Node17 -->
<g id="edge62" class="edge"><title>Node23&#45;&gt;Node17</title>
<path fill="none" stroke="midnightblue" d="M776.021,-325.323C788.749,-322.998 802.306,-320.521 813.485,-318.479"/>
<polygon fill="midnightblue" stroke="midnightblue" points="775.26,-321.904 766.052,-327.144 776.518,-328.79 775.26,-321.904"/>
</g>
<!-- Node24&#45;&gt;Node5 -->
<g id="edge68" class="edge"><title>Node24&#45;&gt;Node5</title>
<path fill="none" stroke="midnightblue" d="M337.855,-29.0519C392.974,-30.8115 483.314,-38.8173 554,-70 578.875,-80.9733 603.198,-101.976 616.227,-114.306"/>
<polygon fill="midnightblue" stroke="midnightblue" points="337.739,-25.5478 327.651,-28.785 337.556,-32.5454 337.739,-25.5478"/>
</g>
<!-- Node25&#45;&gt;Node24 -->
<g id="edge72" class="edge"><title>Node25&#45;&gt;Node24</title>
<path fill="none" stroke="midnightblue" d="M220.24,-18.1354C228.887,-19.564 237.789,-21.0347 246.14,-22.4145"/>
<polygon fill="midnightblue" stroke="midnightblue" points="220.692,-14.6626 210.255,-16.4856 219.551,-21.5689 220.692,-14.6626"/>
</g>
</g>
</svg>
        <g id="navigator" transform="translate(0 0)" fill="#404254">
                <rect fill="#f2f5e9" fill-opacity="0.5" stroke="#606060" stroke-width=".5" x="0" y="0" width="60" height="60"/>
                <use id="zoomplus" xlink:href="#zoomPlus" x="17" y="9" onmousedown="handleZoom(evt,'in')"/>
                <use id="zoomminus" xlink:href="#zoomMin" x="42" y="9" onmousedown="handleZoom(evt,'out')"/>
                <use id="reset" xlink:href="#resetDef" x="30" y="36" onmousedown="handleReset()"/>
                <g id="arrowUp" xlink:href="#dirArrow" transform="translate(30 24)" onmousedown="handlePan(0,-1)">
                  <use xlink:href="#rim" fill="#404040">
                        <set attributeName="fill" to="#808080" begin="arrowUp.mouseover" end="arrowUp.mouseout"/>
                  </use>
                  <path fill="none" stroke="white" stroke-width="1.5" d="M0,-3.0v7 M-2.5,-0.5L0,-3.0L2.5,-0.5"/>
                </g>
                <g id="arrowRight" xlink:href="#dirArrow" transform="rotate(90) translate(36 -43)" onmousedown="handlePan(1,0)">
                  <use xlink:href="#rim" fill="#404040">
                        <set attributeName="fill" to="#808080" begin="arrowRight.mouseover" end="arrowRight.mouseout"/>
                  </use>
                  <path fill="none" stroke="white" stroke-width="1.5" d="M0,-3.0v7 M-2.5,-0.5L0,-3.0L2.5,-0.5"/>
                </g>
                <g id="arrowDown" xlink:href="#dirArrow" transform="rotate(180) translate(-30 -48)" onmousedown="handlePan(0,1)">
                  <use xlink:href="#rim" fill="#404040">
                        <set attributeName="fill" to="#808080" begin="arrowDown.mouseover" end="arrowDown.mouseout"/>
                  </use>
                  <path fill="none" stroke="white" stroke-width="1.5" d="M0,-3.0v7 M-2.5,-0.5L0,-3.0L2.5,-0.5"/>
                </g>
                <g id="arrowLeft" xlink:href="#dirArrow" transform="rotate(270) translate(-36 17)" onmousedown="handlePan(-1,0)">
                  <use xlink:href="#rim" fill="#404040">
                        <set attributeName="fill" to="#808080" begin="arrowLeft.mouseover" end="arrowLeft.mouseout"/>
                  </use>
                  <path fill="none" stroke="white" stroke-width="1.5" d="M0,-3.0v7 M-2.5,-0.5L0,-3.0L2.5,-0.5"/>
                </g>
        </g>
        <svg viewBox="0 0 15 15" width="100%" height="30px" preserveAspectRatio="xMaxYMin meet">
         <g id="arrow_out" transform="scale(0.3 0.3)">
          <a xlink:href="serial_8c_aed0806bd3de71f20d6df8ef6f49bda31_icgraph_org.svg" target="_base">
           <rect id="button" ry="5" rx="5" y="6" x="6" height="38" width="38"
                fill="#f2f5e9" fill-opacity="0.5" stroke="#606060" stroke-width="1.0"/>
           <path id="arrow"
             d="M 11.500037,31.436501 C 11.940474,20.09759 22.043105,11.32322 32.158766,21.979434 L 37.068811,17.246167 C 37.068811,17.246167 37.088388,32 37.088388,32 L 22.160133,31.978069 C 22.160133,31.978069 26.997745,27.140456 26.997745,27.140456 C 18.528582,18.264221 13.291696,25.230495 11.500037,31.436501 z"
             style="fill:#404040;"/>
          </a>
         </g>
        </svg>
</svg>
