<?xml version="1.0" encoding="UTF-8" standalone="no"?>
<!DOCTYPE svg PUBLIC "-//W3C//DTD SVG 1.1//EN"
 "http://www.w3.org/Graphics/SVG/1.1/DTD/svg11.dtd">
<!-- Generated by graphviz version 2.28.0 (20130928.0220)
 -->
<!-- Title: src/os/syscall.h Pages: 1 -->
<svg width="400pt" height="140pt"
 viewBox="0.00 0.00 400.00 140.00" xmlns="http://www.w3.org/2000/svg" xmlns:xlink="http://www.w3.org/1999/xlink">
<g id="graph1" class="graph" transform="scale(1 1) rotate(0) translate(4 136)">
<title>src/os/syscall.h</title>
<!-- Node1 -->
<g id="node1" class="node"><title>Node1</title>
<polygon fill="#bfbfbf" stroke="black" points="131,-112.5 131,-131.5 217,-131.5 217,-112.5 131,-112.5"/>
<text text-anchor="middle" x="174" y="-119.5" font-family="Helvetica,sans-Serif" font-size="10.00">src/os/syscall.h</text>
</g>
<!-- Node2 -->
<g id="node3" class="node"><title>Node2</title>
<a xlink:href="kozos_8c.html" target="_top" xlink:title="src/os/kozos.c">
<polygon fill="none" stroke="black" points="-0.5,-0.5 -0.5,-19.5 82.5,-19.5 82.5,-0.5 -0.5,-0.5"/>
<text text-anchor="middle" x="41" y="-7.5" font-family="Helvetica,sans-Serif" font-size="10.00">src/os/kozos.c</text>
</a>
</g>
<!-- Node1&#45;&gt;Node2 -->
<g id="edge2" class="edge"><title>Node1&#45;&gt;Node2</title>
<path fill="none" stroke="midnightblue" d="M155.641,-105.816C127.314,-82.3874 73.8749,-38.1898 51.3878,-19.5914"/>
<polygon fill="midnightblue" stroke="midnightblue" points="153.627,-108.692 163.564,-112.368 158.088,-103.298 153.627,-108.692"/>
</g>
<!-- Node3 -->
<g id="node5" class="node"><title>Node3</title>
<a xlink:href="kozos_8h.html" target="_top" xlink:title="src/os/kozos.h">
<polygon fill="none" stroke="black" points="132.5,-56.5 132.5,-75.5 215.5,-75.5 215.5,-56.5 132.5,-56.5"/>
<text text-anchor="middle" x="174" y="-63.5" font-family="Helvetica,sans-Serif" font-size="10.00">src/os/kozos.h</text>
</a>
</g>
<!-- Node1&#45;&gt;Node3 -->
<g id="edge4" class="edge"><title>Node1&#45;&gt;Node3</title>
<path fill="none" stroke="midnightblue" d="M174,-101.805C174,-92.9102 174,-82.7798 174,-75.7511"/>
<polygon fill="midnightblue" stroke="midnightblue" points="170.5,-102.083 174,-112.083 177.5,-102.083 170.5,-102.083"/>
</g>
<!-- Node5 -->
<g id="node10" class="node"><title>Node5</title>
<a xlink:href="syscall_8c.html" target="_top" xlink:title="src/os/syscall.c">
<polygon fill="none" stroke="black" points="306,-0.5 306,-19.5 392,-19.5 392,-0.5 306,-0.5"/>
<text text-anchor="middle" x="349" y="-7.5" font-family="Helvetica,sans-Serif" font-size="10.00">src/os/syscall.c</text>
</a>
</g>
<!-- Node1&#45;&gt;Node5 -->
<g id="edge14" class="edge"><title>Node1&#45;&gt;Node5</title>
<path fill="none" stroke="midnightblue" d="M196.259,-107.009C232.992,-83.919 305.233,-38.5104 335.332,-19.5914"/>
<polygon fill="midnightblue" stroke="midnightblue" points="194.336,-104.083 187.732,-112.368 198.061,-110.01 194.336,-104.083"/>
</g>
<!-- Node3&#45;&gt;Node2 -->
<g id="edge6" class="edge"><title>Node3&#45;&gt;Node2</title>
<path fill="none" stroke="midnightblue" d="M143.552,-52.6377C118.593,-42.504 83.9231,-28.4274 61.9756,-19.5164"/>
<polygon fill="midnightblue" stroke="midnightblue" points="142.344,-55.9245 152.926,-56.4435 144.977,-49.4387 142.344,-55.9245"/>
</g>
<!-- Node4 -->
<g id="node8" class="node"><title>Node4</title>
<a xlink:href="os_2main_8c.html" target="_top" xlink:title="src/os/main.c">
<polygon fill="none" stroke="black" points="100.5,-0.5 100.5,-19.5 177.5,-19.5 177.5,-0.5 100.5,-0.5"/>
<text text-anchor="middle" x="139" y="-7.5" font-family="Helvetica,sans-Serif" font-size="10.00">src/os/main.c</text>
</a>
</g>
<!-- Node3&#45;&gt;Node4 -->
<g id="edge8" class="edge"><title>Node3&#45;&gt;Node4</title>
<path fill="none" stroke="midnightblue" d="M162.7,-47.5656C156.678,-38.2747 149.531,-27.2484 144.672,-19.7511"/>
<polygon fill="midnightblue" stroke="midnightblue" points="159.844,-49.5951 168.22,-56.083 165.719,-45.7878 159.844,-49.5951"/>
</g>
<!-- Node3&#45;&gt;Node5 -->
<g id="edge10" class="edge"><title>Node3&#45;&gt;Node5</title>
<path fill="none" stroke="midnightblue" d="M211.475,-53.4363C244.47,-43.2551 291.756,-28.664 321.4,-19.5164"/>
<polygon fill="midnightblue" stroke="midnightblue" points="210.253,-50.1505 201.729,-56.4435 212.317,-56.8393 210.253,-50.1505"/>
</g>
<!-- Node6 -->
<g id="node12" class="node"><title>Node6</title>
<a xlink:href="test08__1_8c.html" target="_top" xlink:title="src/os/test08_1.c">
<polygon fill="none" stroke="black" points="196,-0.5 196,-19.5 288,-19.5 288,-0.5 196,-0.5"/>
<text text-anchor="middle" x="242" y="-7.5" font-family="Helvetica,sans-Serif" font-size="10.00">src/os/test08_1.c</text>
</a>
</g>
<!-- Node3&#45;&gt;Node6 -->
<g id="edge12" class="edge"><title>Node3&#45;&gt;Node6</title>
<path fill="none" stroke="midnightblue" d="M192.762,-50.1008C205,-40.3824 220.559,-28.0269 230.876,-19.8339"/>
<polygon fill="midnightblue" stroke="midnightblue" points="190.58,-47.3642 184.925,-56.324 194.933,-52.846 190.58,-47.3642"/>
</g>
</g>
</svg>
