<?xml version="1.0" encoding="UTF-8" standalone="no"?>
<!DOCTYPE svg PUBLIC "-//W3C//DTD SVG 1.1//EN"
 "http://www.w3.org/Graphics/SVG/1.1/DTD/svg11.dtd">
<!-- Generated by graphviz version 2.28.0 (20130928.0220)
 -->
<!-- Title: src/os/syscall.c Pages: 1 -->
<svg width="136pt" height="196pt"
 viewBox="0.00 0.00 136.00 196.00" xmlns="http://www.w3.org/2000/svg" xmlns:xlink="http://www.w3.org/1999/xlink">
<g id="graph1" class="graph" transform="scale(1 1) rotate(0) translate(4 192)">
<title>src/os/syscall.c</title>
<!-- Node1 -->
<g id="node1" class="node"><title>Node1</title>
<polygon fill="#bfbfbf" stroke="black" points="10,-168.5 10,-187.5 96,-187.5 96,-168.5 10,-168.5"/>
<text text-anchor="middle" x="53" y="-175.5" font-family="Helvetica,sans-Serif" font-size="10.00">src/os/syscall.c</text>
</g>
<!-- Node2 -->
<g id="node3" class="node"><title>Node2</title>
<a xlink:href="defines_8h.html" target="_top" xlink:title="../misc/defines.h">
<polygon fill="none" stroke="black" points="-0.5,-0.5 -0.5,-19.5 88.5,-19.5 88.5,-0.5 -0.5,-0.5"/>
<text text-anchor="middle" x="44" y="-7.5" font-family="Helvetica,sans-Serif" font-size="10.00">../misc/defines.h</text>
</a>
</g>
<!-- Node1&#45;&gt;Node2 -->
<g id="edge2" class="edge"><title>Node1&#45;&gt;Node2</title>
<path fill="none" stroke="midnightblue" d="M43.4444,-168.45C34.9115,-160.12 23.0108,-146.604 18,-132 5.73601,-96.2561 22.5946,-52.515 34.3492,-28.6356"/>
<polygon fill="midnightblue" stroke="midnightblue" points="37.4863,-30.1886 38.9745,-19.6988 31.2696,-26.971 37.4863,-30.1886"/>
</g>
<!-- Node3 -->
<g id="node5" class="node"><title>Node3</title>
<a xlink:href="kozos_8h.html" target="_top" xlink:title="kozos.h">
<polygon fill="none" stroke="black" points="27,-112.5 27,-131.5 79,-131.5 79,-112.5 27,-112.5"/>
<text text-anchor="middle" x="53" y="-119.5" font-family="Helvetica,sans-Serif" font-size="10.00">kozos.h</text>
</a>
</g>
<!-- Node1&#45;&gt;Node3 -->
<g id="edge4" class="edge"><title>Node1&#45;&gt;Node3</title>
<path fill="none" stroke="midnightblue" d="M53,-168.083C53,-161.006 53,-150.861 53,-141.986"/>
<polygon fill="midnightblue" stroke="midnightblue" points="56.5001,-141.751 53,-131.751 49.5001,-141.751 56.5001,-141.751"/>
</g>
<!-- Node4 -->
<g id="node8" class="node"><title>Node4</title>
<a xlink:href="syscall_8h.html" target="_top" xlink:title="syscall.h">
<polygon fill="none" stroke="black" points="72,-56.5 72,-75.5 128,-75.5 128,-56.5 72,-56.5"/>
<text text-anchor="middle" x="100" y="-63.5" font-family="Helvetica,sans-Serif" font-size="10.00">syscall.h</text>
</a>
</g>
<!-- Node1&#45;&gt;Node4 -->
<g id="edge12" class="edge"><title>Node1&#45;&gt;Node4</title>
<path fill="none" stroke="midnightblue" d="M61.9558,-168.213C70.0648,-159.715 81.6788,-146.087 88,-132 94.5406,-117.424 97.5163,-99.4785 98.8701,-86.1387"/>
<polygon fill="midnightblue" stroke="midnightblue" points="102.388,-86.0478 99.6911,-75.802 95.4102,-85.4935 102.388,-86.0478"/>
</g>
<!-- Node3&#45;&gt;Node2 -->
<g id="edge6" class="edge"><title>Node3&#45;&gt;Node2</title>
<path fill="none" stroke="midnightblue" d="M52.2938,-112.368C50.8414,-94.617 47.4909,-53.6664 45.5216,-29.5974"/>
<polygon fill="midnightblue" stroke="midnightblue" points="49.0068,-29.2727 44.7029,-19.5914 42.0301,-29.8436 49.0068,-29.2727"/>
</g>
<!-- Node3&#45;&gt;Node4 -->
<g id="edge8" class="edge"><title>Node3&#45;&gt;Node4</title>
<path fill="none" stroke="midnightblue" d="M60.7611,-112.083C67.5368,-104.298 77.5432,-92.8015 85.7551,-83.3665"/>
<polygon fill="midnightblue" stroke="midnightblue" points="88.4581,-85.592 92.3833,-75.7511 83.178,-80.9963 88.4581,-85.592"/>
</g>
<!-- Node4&#45;&gt;Node2 -->
<g id="edge10" class="edge"><title>Node4&#45;&gt;Node2</title>
<path fill="none" stroke="midnightblue" d="M91.0026,-56.324C82.8056,-48.4196 70.4945,-36.5482 60.528,-26.9377"/>
<polygon fill="midnightblue" stroke="midnightblue" points="62.789,-24.2558 53.1611,-19.8339 57.9301,-29.2947 62.789,-24.2558"/>
</g>
</g>
</svg>
