<?xml version="1.0" encoding="UTF-8" standalone="no"?>
<!DOCTYPE svg PUBLIC "-//W3C//DTD SVG 1.1//EN"
 "http://www.w3.org/Graphics/SVG/1.1/DTD/svg11.dtd">
<!-- Generated by graphviz version 2.28.0 (20130928.0220)
 -->
<!-- Title: xmodem_read_block Pages: 1 -->
<svg width="312pt" height="28pt"
 viewBox="0.00 0.00 312.00 28.00" xmlns="http://www.w3.org/2000/svg" xmlns:xlink="http://www.w3.org/1999/xlink">
<g id="graph1" class="graph" transform="scale(1 1) rotate(0) translate(4 24)">
<title>xmodem_read_block</title>
<!-- Node1 -->
<g id="node1" class="node"><title>Node1</title>
<polygon fill="#bfbfbf" stroke="black" points="0,-0.5 0,-19.5 112,-19.5 112,-0.5 0,-0.5"/>
<text text-anchor="middle" x="56" y="-7.5" font-family="Helvetica,sans-Serif" font-size="10.00">xmodem_read_block</text>
</g>
<!-- Node2 -->
<g id="node3" class="node"><title>Node2</title>
<a xlink:href="xmodem_8h.html#abe91c5bfd131f00e3485727decb0faca" target="_top" xlink:title="xmodem_recv">
<polygon fill="none" stroke="black" points="148.5,-0.5 148.5,-19.5 229.5,-19.5 229.5,-0.5 148.5,-0.5"/>
<text text-anchor="middle" x="189" y="-7.5" font-family="Helvetica,sans-Serif" font-size="10.00">xmodem_recv</text>
</a>
</g>
<!-- Node1&#45;&gt;Node2 -->
<g id="edge2" class="edge"><title>Node1&#45;&gt;Node2</title>
<path fill="none" stroke="midnightblue" d="M122.231,-10C131.17,-10 140.116,-10 148.403,-10"/>
<polygon fill="midnightblue" stroke="midnightblue" points="122.176,-6.5001 112.176,-10 122.176,-13.5001 122.176,-6.5001"/>
</g>
<!-- Node3 -->
<g id="node5" class="node"><title>Node3</title>
<a xlink:href="bootload_2main_8c.html#a840291bc02cba5474a4cb46a9b9566fe" target="_top" xlink:title="main">
<polygon fill="none" stroke="black" points="266,-0.5 266,-19.5 304,-19.5 304,-0.5 266,-0.5"/>
<text text-anchor="middle" x="285" y="-7.5" font-family="Helvetica,sans-Serif" font-size="10.00">main</text>
</a>
</g>
<!-- Node2&#45;&gt;Node3 -->
<g id="edge4" class="edge"><title>Node2&#45;&gt;Node3</title>
<path fill="none" stroke="midnightblue" d="M239.752,-10C249.128,-10 258.357,-10 265.94,-10"/>
<polygon fill="midnightblue" stroke="midnightblue" points="239.592,-6.5001 229.592,-10 239.592,-13.5001 239.592,-6.5001"/>
</g>
</g>
</svg>
