<?xml version="1.0" encoding="UTF-8" standalone="no"?>
<!DOCTYPE svg PUBLIC "-//W3C//DTD SVG 1.1//EN"
 "http://www.w3.org/Graphics/SVG/1.1/DTD/svg11.dtd">
<!-- Generated by graphviz version 2.28.0 (20130928.0220)
 -->
<!-- Title: xmodem_recv Pages: 1 -->
<svg width="522pt" height="119pt"
 viewBox="0.00 0.00 522.00 119.00" xmlns="http://www.w3.org/2000/svg" xmlns:xlink="http://www.w3.org/1999/xlink">
<g id="graph1" class="graph" transform="scale(1 1) rotate(0) translate(4 114.996)">
<title>xmodem_recv</title>
<!-- Node1 -->
<g id="node1" class="node"><title>Node1</title>
<polygon fill="#bfbfbf" stroke="black" points="0.5,-57.5 0.5,-76.5 81.5,-76.5 81.5,-57.5 0.5,-57.5"/>
<text text-anchor="middle" x="41" y="-64.5" font-family="Helvetica,sans-Serif" font-size="10.00">xmodem_recv</text>
</g>
<!-- Node2 -->
<g id="node3" class="node"><title>Node2</title>
<a xlink:href="serial_8c.html#ab041beadc1139b4c1b12e30e5c21a383" target="_top" xlink:title="serial_recv_byte">
<polygon fill="none" stroke="black" points="268,-76.5 268,-95.5 358,-95.5 358,-76.5 268,-76.5"/>
<text text-anchor="middle" x="313" y="-83.5" font-family="Helvetica,sans-Serif" font-size="10.00">serial_recv_byte</text>
</a>
</g>
<!-- Node1&#45;&gt;Node2 -->
<g id="edge2" class="edge"><title>Node1&#45;&gt;Node2</title>
<path fill="none" stroke="midnightblue" d="M56.0807,-76.5608C70.7845,-85.9202 94.8849,-99.5433 118,-105 169.357,-117.124 230.124,-107.43 269.785,-97.9982"/>
<polygon fill="midnightblue" stroke="midnightblue" points="270.778,-101.358 279.642,-95.5557 269.094,-94.5636 270.778,-101.358"/>
</g>
<!-- Node4 -->
<g id="node7" class="node"><title>Node4</title>
<a xlink:href="serial_8c.html#aed0806bd3de71f20d6df8ef6f49bda31" target="_top" xlink:title="serial_send_byte">
<polygon fill="none" stroke="black" points="266.5,-0.5 266.5,-19.5 359.5,-19.5 359.5,-0.5 266.5,-0.5"/>
<text text-anchor="middle" x="313" y="-7.5" font-family="Helvetica,sans-Serif" font-size="10.00">serial_send_byte</text>
</a>
</g>
<!-- Node1&#45;&gt;Node4 -->
<g id="edge6" class="edge"><title>Node1&#45;&gt;Node4</title>
<path fill="none" stroke="midnightblue" d="M57.0391,-57.3955C71.9031,-48.4175 95.6039,-35.4555 118,-29 163.372,-15.9216 216.917,-11.4555 256.247,-10.0986"/>
<polygon fill="midnightblue" stroke="midnightblue" points="256.539,-13.5918 266.434,-9.80547 256.337,-6.59469 256.539,-13.5918"/>
</g>
<!-- Node6 -->
<g id="node11" class="node"><title>Node6</title>
<a xlink:href="xmodem_8c.html#a9bf979d7fd9f1e648f2df737556870dd" target="_top" xlink:title="xmodem_read_block">
<polygon fill="none" stroke="black" points="118,-76.5 118,-95.5 230,-95.5 230,-76.5 118,-76.5"/>
<text text-anchor="middle" x="174" y="-83.5" font-family="Helvetica,sans-Serif" font-size="10.00">xmodem_read_block</text>
</a>
</g>
<!-- Node1&#45;&gt;Node6 -->
<g id="edge10" class="edge"><title>Node1&#45;&gt;Node6</title>
<path fill="none" stroke="midnightblue" d="M81.6598,-72.7522C89.867,-73.9425 98.7188,-75.2264 107.569,-76.51"/>
<polygon fill="midnightblue" stroke="midnightblue" points="107.127,-79.9824 117.526,-77.9541 108.132,-73.0549 107.127,-79.9824"/>
</g>
<!-- Node7 -->
<g id="node14" class="node"><title>Node7</title>
<a xlink:href="xmodem_8c.html#ab4c69c95abc670bdcd0211e0b502691e" target="_top" xlink:title="xmodem_wait">
<polygon fill="none" stroke="black" points="134,-38.5 134,-57.5 214,-57.5 214,-38.5 134,-38.5"/>
<text text-anchor="middle" x="174" y="-45.5" font-family="Helvetica,sans-Serif" font-size="10.00">xmodem_wait</text>
</a>
</g>
<!-- Node1&#45;&gt;Node7 -->
<g id="edge14" class="edge"><title>Node1&#45;&gt;Node7</title>
<path fill="none" stroke="midnightblue" d="M81.6598,-61.2478C94.9913,-59.3142 110.024,-57.134 123.987,-55.1088"/>
<polygon fill="midnightblue" stroke="midnightblue" points="124.532,-58.5665 133.926,-53.6673 123.527,-51.6389 124.532,-58.5665"/>
</g>
<!-- Node3 -->
<g id="node5" class="node"><title>Node3</title>
<a xlink:href="serial_8c.html#a3592a8e9f7fc0651cfcbc638d6192040" target="_top" xlink:title="serial_is_recv_enable">
<polygon fill="none" stroke="black" points="397.5,-38.5 397.5,-57.5 512.5,-57.5 512.5,-38.5 397.5,-38.5"/>
<text text-anchor="middle" x="455" y="-45.5" font-family="Helvetica,sans-Serif" font-size="10.00">serial_is_recv_enable</text>
</a>
</g>
<!-- Node2&#45;&gt;Node3 -->
<g id="edge4" class="edge"><title>Node2&#45;&gt;Node3</title>
<path fill="none" stroke="midnightblue" d="M349.328,-76.411C367.401,-71.5056 389.598,-65.4804 408.895,-60.2429"/>
<polygon fill="midnightblue" stroke="midnightblue" points="409.949,-63.5833 418.683,-57.5859 408.116,-56.8277 409.949,-63.5833"/>
</g>
<!-- Node5 -->
<g id="node9" class="node"><title>Node5</title>
<a xlink:href="serial_8c.html#abf48ded30f8aa6fff8cb48dce0af0590" target="_top" xlink:title="serial_is_send_enable">
<polygon fill="none" stroke="black" points="396,-0.5 396,-19.5 514,-19.5 514,-0.5 396,-0.5"/>
<text text-anchor="middle" x="455" y="-7.5" font-family="Helvetica,sans-Serif" font-size="10.00">serial_is_send_enable</text>
</a>
</g>
<!-- Node4&#45;&gt;Node5 -->
<g id="edge8" class="edge"><title>Node4&#45;&gt;Node5</title>
<path fill="none" stroke="midnightblue" d="M359.841,-10C368.095,-10 376.859,-10 385.591,-10"/>
<polygon fill="midnightblue" stroke="midnightblue" points="385.793,-13.5001 395.793,-10 385.793,-6.5001 385.793,-13.5001"/>
</g>
<!-- Node6&#45;&gt;Node2 -->
<g id="edge12" class="edge"><title>Node6&#45;&gt;Node2</title>
<path fill="none" stroke="midnightblue" d="M230.328,-86C239.393,-86 248.777,-86 257.814,-86"/>
<polygon fill="midnightblue" stroke="midnightblue" points="257.833,-89.5001 267.833,-86 257.833,-82.5001 257.833,-89.5001"/>
</g>
<!-- Node7&#45;&gt;Node3 -->
<g id="edge16" class="edge"><title>Node7&#45;&gt;Node3</title>
<path fill="none" stroke="midnightblue" d="M214.088,-48C258.891,-48 333.09,-48 387.127,-48"/>
<polygon fill="midnightblue" stroke="midnightblue" points="387.31,-51.5001 397.31,-48 387.31,-44.5001 387.31,-51.5001"/>
</g>
<!-- Node7&#45;&gt;Node4 -->
<g id="edge18" class="edge"><title>Node7&#45;&gt;Node4</title>
<path fill="none" stroke="midnightblue" d="M209.571,-38.411C227.175,-33.5281 248.779,-27.5357 267.601,-22.315"/>
<polygon fill="midnightblue" stroke="midnightblue" points="268.739,-25.6315 277.44,-19.5859 266.868,-18.8862 268.739,-25.6315"/>
</g>
</g>
</svg>
