<?xml version="1.0" encoding="UTF-8" standalone="no"?>
<!DOCTYPE svg PUBLIC "-//W3C//DTD SVG 1.1//EN"
 "http://www.w3.org/Graphics/SVG/1.1/DTD/svg11.dtd">
<!-- Generated by graphviz version 2.28.0 (20130928.0220)
 -->
<!-- Title: src/bootload/xmodem.h Pages: 1 -->
<svg width="253pt" height="84pt"
 viewBox="0.00 0.00 253.00 84.00" xmlns="http://www.w3.org/2000/svg" xmlns:xlink="http://www.w3.org/1999/xlink">
<g id="graph1" class="graph" transform="scale(1 1) rotate(0) translate(4 80)">
<title>src/bootload/xmodem.h</title>
<!-- Node1 -->
<g id="node1" class="node"><title>Node1</title>
<polygon fill="#bfbfbf" stroke="black" points="56.5,-56.5 56.5,-75.5 179.5,-75.5 179.5,-56.5 56.5,-56.5"/>
<text text-anchor="middle" x="118" y="-63.5" font-family="Helvetica,sans-Serif" font-size="10.00">src/bootload/xmodem.h</text>
</g>
<!-- Node2 -->
<g id="node3" class="node"><title>Node2</title>
<a xlink:href="bootload_2main_8c.html" target="_top" xlink:title="src/bootload/main.c">
<polygon fill="none" stroke="black" points="-0.5,-0.5 -0.5,-19.5 104.5,-19.5 104.5,-0.5 -0.5,-0.5"/>
<text text-anchor="middle" x="52" y="-7.5" font-family="Helvetica,sans-Serif" font-size="10.00">src/bootload/main.c</text>
</a>
</g>
<!-- Node1&#45;&gt;Node2 -->
<g id="edge2" class="edge"><title>Node1&#45;&gt;Node2</title>
<path fill="none" stroke="midnightblue" d="M99.4463,-49.8197C87.6219,-40.1452 72.7144,-27.9481 62.797,-19.8339"/>
<polygon fill="midnightblue" stroke="midnightblue" points="97.44,-52.7004 107.396,-56.324 101.873,-47.2827 97.44,-52.7004"/>
</g>
<!-- Node3 -->
<g id="node5" class="node"><title>Node3</title>
<a xlink:href="xmodem_8c.html" target="_top" xlink:title="src/bootload/xmodem.c">
<polygon fill="none" stroke="black" points="122.5,-0.5 122.5,-19.5 245.5,-19.5 245.5,-0.5 122.5,-0.5"/>
<text text-anchor="middle" x="184" y="-7.5" font-family="Helvetica,sans-Serif" font-size="10.00">src/bootload/xmodem.c</text>
</a>
</g>
<!-- Node1&#45;&gt;Node3 -->
<g id="edge4" class="edge"><title>Node1&#45;&gt;Node3</title>
<path fill="none" stroke="midnightblue" d="M136.554,-49.8197C148.378,-40.1452 163.286,-27.9481 173.203,-19.8339"/>
<polygon fill="midnightblue" stroke="midnightblue" points="134.127,-47.2827 128.604,-56.324 138.56,-52.7004 134.127,-47.2827"/>
</g>
</g>
</svg>
