<?xml version="1.0" encoding="UTF-8" standalone="no"?>
<!DOCTYPE svg PUBLIC "-//W3C//DTD SVG 1.1//EN"
 "http://www.w3.org/Graphics/SVG/1.1/DTD/svg11.dtd">
<!-- Generated by graphviz version 2.28.0 (20130928.0220)
 -->
<!-- Title: src/bootload/xmodem.c Pages: 1 -->
<svg width="361pt" height="84pt"
 viewBox="0.00 0.00 361.00 84.00" xmlns="http://www.w3.org/2000/svg" xmlns:xlink="http://www.w3.org/1999/xlink">
<g id="graph1" class="graph" transform="scale(1 1) rotate(0) translate(4 80)">
<title>src/bootload/xmodem.c</title>
<!-- Node1 -->
<g id="node1" class="node"><title>Node1</title>
<polygon fill="#bfbfbf" stroke="black" points="130.5,-56.5 130.5,-75.5 253.5,-75.5 253.5,-56.5 130.5,-56.5"/>
<text text-anchor="middle" x="192" y="-63.5" font-family="Helvetica,sans-Serif" font-size="10.00">src/bootload/xmodem.c</text>
</g>
<!-- Node2 -->
<g id="node3" class="node"><title>Node2</title>
<a xlink:href="defines_8h.html" target="_top" xlink:title="../misc/defines.h">
<polygon fill="none" stroke="black" points="-0.5,-0.5 -0.5,-19.5 88.5,-19.5 88.5,-0.5 -0.5,-0.5"/>
<text text-anchor="middle" x="44" y="-7.5" font-family="Helvetica,sans-Serif" font-size="10.00">../misc/defines.h</text>
</a>
</g>
<!-- Node1&#45;&gt;Node2 -->
<g id="edge2" class="edge"><title>Node1&#45;&gt;Node2</title>
<path fill="none" stroke="midnightblue" d="M168.549,-56.4435C143.867,-47.4381 104.815,-33.1891 77.0233,-23.049"/>
<polygon fill="midnightblue" stroke="midnightblue" points="77.9352,-19.6561 67.3413,-19.5164 75.5359,-26.2321 77.9352,-19.6561"/>
</g>
<!-- Node3 -->
<g id="node5" class="node"><title>Node3</title>
<a xlink:href="serial_8h.html" target="_top" xlink:title="../misc/serial.h">
<polygon fill="none" stroke="black" points="107,-0.5 107,-19.5 187,-19.5 187,-0.5 107,-0.5"/>
<text text-anchor="middle" x="147" y="-7.5" font-family="Helvetica,sans-Serif" font-size="10.00">../misc/serial.h</text>
</a>
</g>
<!-- Node1&#45;&gt;Node3 -->
<g id="edge4" class="edge"><title>Node1&#45;&gt;Node3</title>
<path fill="none" stroke="midnightblue" d="M184.569,-56.083C178.147,-48.3768 168.694,-37.0333 160.878,-27.6531"/>
<polygon fill="midnightblue" stroke="midnightblue" points="163.383,-25.1927 154.293,-19.7511 158.006,-29.674 163.383,-25.1927"/>
</g>
<!-- Node4 -->
<g id="node7" class="node"><title>Node4</title>
<a xlink:href="lib_8h.html" target="_top" xlink:title="../misc/lib.h">
<polygon fill="none" stroke="black" points="205.5,-0.5 205.5,-19.5 270.5,-19.5 270.5,-0.5 205.5,-0.5"/>
<text text-anchor="middle" x="238" y="-7.5" font-family="Helvetica,sans-Serif" font-size="10.00">../misc/lib.h</text>
</a>
</g>
<!-- Node1&#45;&gt;Node4 -->
<g id="edge6" class="edge"><title>Node1&#45;&gt;Node4</title>
<path fill="none" stroke="midnightblue" d="M199.596,-56.083C206.227,-48.2982 216.021,-36.8015 224.058,-27.3665"/>
<polygon fill="midnightblue" stroke="midnightblue" points="226.725,-29.6332 230.545,-19.7511 221.396,-25.0939 226.725,-29.6332"/>
</g>
<!-- Node5 -->
<g id="node9" class="node"><title>Node5</title>
<a xlink:href="xmodem_8h.html" target="_top" xlink:title="xmodem.h">
<polygon fill="none" stroke="black" points="289,-0.5 289,-19.5 353,-19.5 353,-0.5 289,-0.5"/>
<text text-anchor="middle" x="321" y="-7.5" font-family="Helvetica,sans-Serif" font-size="10.00">xmodem.h</text>
</a>
</g>
<!-- Node1&#45;&gt;Node5 -->
<g id="edge8" class="edge"><title>Node1&#45;&gt;Node5</title>
<path fill="none" stroke="midnightblue" d="M212.44,-56.4435C233.67,-47.5566 267.099,-33.5632 291.255,-23.4514"/>
<polygon fill="midnightblue" stroke="midnightblue" points="292.782,-26.6064 300.655,-19.5164 290.079,-20.1493 292.782,-26.6064"/>
</g>
</g>
</svg>
